  0
SECTION
  2
HEADER
  9
$INSBASE
 10
0.0000
 20
0.0000
  9
$EXTMIN
 10
-2.2323526687107487
 20
-2.2323526687107487
  9
$EXTMAX
 10
69.732352668710746
 20
60.689067424160356
  9
$LIMMIN
 10
-2.2323526687107487
 20
-2.2323526687107487
  9
$LIMMAX
 10
69.732352668710746
 20
60.689067424160356
  9
$TEXTSTYLE
  7
STANDARD
  9
$CLAYER
  8
default
  0
ENDSEC
  0
SECTION
  2
TABLES
  0
TABLE
  2
LTYPE
 70
4948253
  0
LTYPE
  2
CONTINUOUS
 70
    64
  3
Solid line
 72
    65
 73
     0
 40
0.0
  0
ENDTAB
  0
TABLE
  2
LAYER
 70
     5
  0
LAYER
  2
default
 70
    64
 62
     7
  6
CONTINUOUS
  0
LAYER
  2
layer1
 70
    64
 62
     7
  6
CONTINUOUS
  0
ENDTAB
  0
TABLE
  2
STYLE
 70
     1
  0
STYLE
  2
STANDARD
 70
     0
 40
0.0
 41
1.0
 50
0.0
 71
     0
 42
0.2
  3
txt
  4

  0
ENDTAB
  0
TABLE
  2
VIEW
 70
     0
  0
ENDTAB
  0
ENDSEC
  0
SECTION
  2
BLOCKS
  0
ENDSEC
  0
SECTION
  2
ENTITIES
  0
LINE
  8
layer1
 10
28.982465999575378
 20
27.568399746511535
 30
0.0
 11
29.562115319566882
 21
28.119767741441763
 31
0.0
  0
LINE
  8
layer1
 10
30.324133998511076
 20
27.296279915775052
 30
0.0
 11
37.459224351101923
 21
33.718934013604475
 31
0.0
  0
LINE
  8
layer1
 10
40.141588111433904
 20
44.59431470369276
 30
0.0
 11
33.718934013604475
 21
37.459224351101923
 31
0.0
  0
LINE
  8
layer1
 10
28.119767741441766
 20
29.562115319566882
 30
0.0
 11
27.568399746511538
 21
28.982465999575378
 31
0.0
  0
LINE
  8
layer1
 10
23.754954840619355
 20
32.182326213624386
 30
0.0
 11
24.230053937431737
 21
32.825972737896869
 31
0.0
  0
LINE
  8
default
 10
25.12349300065403
 20
32.147318697615944
 30
0.0
 11
31.034903118454977
 21
39.711393685290282
 31
0.0
  0
LINE
  8
layer1
 10
31.788025707760944
 20
50.887340484669949
 30
0.0
 11
26.701941594519191
 21
42.745366007122755
 31
0.0
  0
LINE
  8
layer1
 10
22.559157831452001
 20
33.995946786869133
 30
0.0
 11
22.116821403384318
 21
33.329359594969738
 31
0.0
  0
LINE
  8
layer1
 10
39.922482802802584
 20
2.4890493888093239
 30
0.0
 11
40.720932458858627
 21
2.5388303765855103
 31
0.0
  0
LINE
  8
default
 10
40.775344862350423
 20
1.4181859385823661
 30
0.0
 11
50.369543653491696
 21
1.7518767476605699
 31
0.0
  0
LINE
  8
layer1
 10
59.414913464730738
 20
8.3587115022925662
 30
0.0
 11
49.90852731037382
 21
7.0213176619257558
 31
0.0
  0
LINE
  8
layer1
 10
40.543153263669979
 20
4.5708558759346118
 30
0.0
 11
39.748189474186255
 21
4.4812312509162862
 31
0.0
  0
LINE
  8
layer1
 10
38.883751693206797
 20
9.3837015223757803
 30
0.0
 11
39.661426727070932
 21
9.5713755528232944
 31
0.0
  0
LINE
  8
default
 10
39.909610348361504
 20
8.4772048366166182
 30
0.0
 11
49.30010690091715
 21
10.471841268761706
 31
0.0
  0
LINE
  8
default
 10
57.060792404599532
 20
18.549015342038935
 30
0.0
 11
47.93106561986361
 21
15.581172887312706
 31
0.0
  0
LINE
  8
layer1
 10
39.133490872390169
 20
11.541658985629192
 30
0.0
 11
38.366167521951148
 21
11.315351946695287
 31
0.0
  0
LINE
  8
layer1
 10
36.663557464540673
 20
15.9932346335669
 30
0.0
 11
37.396828613831488
 21
16.313099326238238
 31
0.0
  0
LINE
  8
layer1
 10
37.8312425191749
 20
15.278648155362868
 30
0.0
 11
46.732711347216053
 21
18.873624191918836
 31
0.0
  0
LINE
  8
layer1
 10
52.972908041408751
 20
28.175716736872058
 30
0.0
 11
44.49724275478335
 21
23.667602058972527
 31
0.0
  0
LINE
  8
layer1
 10
36.534777163454663
 20
18.161774627406643
 30
0.0
 11
35.818408983779079
 21
17.805661399418277
 31
0.0
  0
LINE
  8
layer1
 10
33.329359594969745
 20
22.116821403384304
 30
0.0
 11
33.995946786869141
 21
22.559157831451987
 31
0.0
  0
LINE
  8
layer1
 10
34.603391529575575
 20
21.615857481277427
 30
0.0
 11
42.745366007122769
 21
26.701941594519173
 31
0.0
  0
LINE
  8
layer1
 10
47.275468672964628
 20
36.946313236255932
 30
0.0
 11
39.711393685290282
 21
31.034903118454984
 31
0.0
  0
LINE
  8
layer1
 10
32.825972737896862
 20
24.230053937431748
 30
0.0
 11
32.182326213624378
 21
23.754954840619362
 31
0.0
  0
LINE
  8
default
 10
0
 20
0
 30
0.0
 11
14
 21
0
 31
0.0
  0
LINE
  8
default
 10
0
 20
0
 30
0.0
 11
7.0000000000000018
 21
12.124355652982141
 31
0.0
  0
LINE
  8
default
 10
14
 20
0
 30
0.0
 11
23.351679053569637
 21
0
 31
0.0
  0
LINE
  8
default
 10
7.0000000000000018
 20
12.124355652982141
 30
0.0
 11
11.67583952678482
 21
20.22314728141226
 31
0.0
  0
LINE
  8
default
 10
23.351679053569637
 20
0
 30
0.0
 11
27.351679053569637
 21
0
 31
0.0
  0
LINE
  8
default
 10
11.67583952678482
 20
20.22314728141226
 30
0.0
 11
13.675839526784822
 21
23.687248896550017
 31
0.0
  0
LINE
  8
default
 10
27.351679053569637
 20
0
 30
0.0
 11
34.399999999999999
 21
0
 31
0.0
  0
LINE
  8
default
 10
13.675839526784822
 20
23.687248896550017
 30
0.0
 11
17.200000000000003
 21
29.791273890184687
 31
0.0
  0
LINE
  8
default
 10
34.399999999999999
 20
0
 30
0.0
 11
36.899999999999999
 21
0
 31
0.0
  0
LINE
  8
default
 10
17.200000000000003
 20
29.791273890184687
 30
0.0
 11
18.450000000000003
 21
31.956337399645783
 31
0.0
  0
LINE
  8
default
 10
36.899999999999999
 20
0
 30
0.0
 11
38.799999999999997
 21
0
 31
0.0
  0
LINE
  8
default
 10
18.450000000000003
 20
31.956337399645783
 30
0.0
 11
19.400000000000002
 21
33.601785666836214
 31
0.0
  0
LINE
  8
default
 10
38.799999999999997
 20
0
 30
0.0
 11
40
 21
0
 31
0.0
  0
LINE
  8
default
 10
19.400000000000002
 20
33.601785666836214
 30
0.0
 11
20.000000000000004
 21
34.641016151377542
 31
0.0
  0
LINE
  8
default
 10
40
 20
0
 30
0.0
 11
40.799999999999997
 21
0
 31
0.0
  0
LINE
  8
default
 10
20.000000000000004
 20
34.641016151377542
 30
0.0
 11
20.400000000000002
 21
35.333836474405089
 31
0.0
  0
LINE
  8
default
 10
40.799999999999997
 20
0
 30
0.0
 11
50.399999999999999
 21
0
 31
0.0
  0
LINE
  8
default
 10
20.400000000000002
 20
35.333836474405089
 30
0.0
 11
25.200000000000006
 21
43.647680350735705
 31
0.0
  0
LINE
  8
default
 10
50.399999999999999
 20
0
 30
0.0
 11
60
 21
0
 31
0.0
  0
LINE
  8
default
 10
25.200000000000006
 20
43.647680350735705
 30
0.0
 11
30.000000000000007
 21
51.961524227066313
 31
0.0
  0
LINE
  8
default
 10
60
 20
0
 30
0.0
 11
67.5
 21
0
 31
0.0
  0
LINE
  8
default
 10
30.000000000000007
 20
51.961524227066313
 30
0.0
 11
33.750000000000007
 21
58.456714755449603
 31
0.0
  0
LINE
  8
layer1
 10
20.535663603187302
 20
11.116988575943182
 30
0.0
 11
24.053297355531658
 21
13.021260821282009
 31
0.0
  0
LINE
  8
layer1
 10
23.334230754643926
 20
0.90254623701641923
 30
0.0
 11
27.331241967604555
 21
1.0571468950583431
 31
0.0
  0
LINE
  8
layer1
 10
23.04974286857388
 20
3.7430292963788729
 30
0.0
 11
26.998023044178709
 21
4.3841873540572474
 31
0.0
  0
LINE
  8
layer1
 10
24.601250121158628
 20
11.953779298852417
 30
0.0
 11
21.003481944225015
 21
10.205619081640108
 31
0.0
  0
LINE
  8
layer1
 10
19.895426321941841
 20
12.225912075960085
 30
0.0
 11
23.303391338299079
 21
14.32013614403046
 31
0.0
  0
LINE
  8
layer1
 10
17.295829145653421
 20
21.188880131187815
 30
0.0
 11
19.650801325956156
 21
24.073923850138794
 31
0.0
  0
LINE
  8
layer1
 10
12.448743346668239
 20
19.756763492781559
 30
0.0
 11
14.581137050454654
 21
23.140976413395755
 31
0.0
  0
LINE
  8
layer1
 10
19.340066358160058
 20
13.086739390806576
 30
0.0
 11
22.652901604618048
 21
15.328417920352157
 31
0.0
  0
LINE
  8
layer1
 10
17.295829145653421
 20
21.188880131187815
 30
0.0
 11
14.766429892060444
 21
18.090148226694737
 31
0.0
  0
LINE
  8
layer1
 10
21.752833580899594
 20
26.649094378640466
 30
0.0
 11
23.333708114395204
 21
28.585801818948639
 31
0.0
  0
LINE
  8
layer1
 10
18.338585852563153
 20
29.104231117282083
 30
0.0
 11
19.671331917429661
 21
31.219364192665953
 31
0.0
  0
LINE
  8
default
 10
37.459224351101923
 20
33.718934013604475
 30
0.0
 11
44.59431470369276
 21
40.141588111433904
 31
0.0
  0
LINE
  8
default
 10
33.718934013604475
 20
37.459224351101923
 30
0.0
 11
27.296279915775052
 21
30.324133998511076
 31
0.0
  0
LINE
  8
layer1
 10
31.034903118454977
 20
39.711393685290282
 30
0.0
 11
36.946313236255925
 21
47.275468672964628
 31
0.0
  0
LINE
  8
default
 10
26.701941594519191
 20
42.745366007122755
 30
0.0
 11
21.615857481277441
 21
34.603391529575561
 31
0.0
  0
LINE
  8
layer1
 10
50.369543653491696
 20
1.7518767476605699
 30
0.0
 11
59.963742444632977
 21
2.0855675567387735
 31
0.0
  0
LINE
  8
default
 10
49.90852731037382
 20
7.0213176619257558
 30
0.0
 11
40.402141156016903
 21
5.6839238215589454
 31
0.0
  0
LINE
  8
layer1
 10
49.30010690091715
 20
10.471841268761706
 30
0.0
 11
58.690603453472804
 21
12.466477700906792
 31
0.0
  0
LINE
  8
layer1
 10
47.93106561986361
 20
15.581172887312706
 30
0.0
 11
38.80133883512768
 21
12.613330432586475
 31
0.0
  0
LINE
  8
default
 10
46.732711347216053
 20
18.873624191918836
 30
0.0
 11
55.634180175257207
 21
22.468600228474806
 31
0.0
  0
LINE
  8
default
 10
44.49724275478335
 20
23.667602058972527
 30
0.0
 11
36.02157746815795
 21
19.159487381072999
 31
0.0
  0
LINE
  8
default
 10
42.745366007122769
 20
26.701941594519173
 30
0.0
 11
50.887340484669963
 21
31.788025707760923
 31
0.0
  0
LINE
  8
default
 10
39.711393685290282
 20
31.034903118454984
 30
0.0
 11
32.147318697615944
 21
25.123493000654033
 31
0.0
  0
LINE
  8
layer1
 10
19.650801325956156
 20
24.073923850138794
 30
0.0
 11
21.752833580899594
 21
26.649094378640466
 31
0.0
  0
LINE
  8
default
 10
33.95520951020152
 20
5.5139592960340211
 30
0.0
 11
36.422884619954544
 21
5.9146830820830045
 31
0.0
  0
LINE
  8
default
 10
34.374296431461417
 20
1.3295656591605456
 30
0.0
 11
36.872428439561808
 21
1.426191070436748
 31
0.0
  0
LINE
  8
default
 10
26.998023044178709
 20
4.3841873540572474
 30
0.0
 11
33.95520951020152
 21
5.5139592960340211
 31
0.0
  0
LINE
  8
default
 10
27.331241967604555
 20
1.0571468950583431
 30
0.0
 11
34.374296431461417
 21
1.3295656591605456
 31
0.0
  0
LINE
  8
default
 10
14.581137050454654
 20
23.140976413395755
 30
0.0
 11
18.338585852563153
 21
29.104231117282083
 31
0.0
  0
ARC
  8
default
 10
0
 20
-3.5527136788005009e-015
 30
0
 40
67.5
 50
3.0156370313135571e-015
 51
59.999999999999993
  0
ARC
  8
default
 10
-1.4210854715202004e-014
 20
2.5979218776228663e-014
 30
0
 40
40.000000000000007
 50
359.99999999999994
 51
3.567605512172864
  0
ARC
  8
layer1
 10
-1.0658141036401503e-014
 20
5.6843418860808015e-014
 30
0
 40
39.999999999999964
 50
43.567605512172868
 51
46.432394487826997
  0
ARC
  8
default
 10
1.1013412404281553e-013
 20
-3.5527136788005009e-015
 30
0
 40
40.799999999999919
 50
41.991971575563284
 51
43.567605512173053
  0
ARC
  8
layer1
 10
5.6843418860808015e-014
 20
5.6843418860808015e-014
 30
0
 40
59.999999999999929
 50
41.991971575563184
 51
48.008028424436823
  0
ARC
  8
default
 10
-3.5527136788005009e-015
 20
-2.1316282072803006e-014
 30
0
 40
40.800000000000018
 50
46.432394487827075
 51
48.008028424436837
  0
ARC
  8
default
 10
0
 20
-1.0658141036401503e-014
 30
0
 40
40.000000000000007
 50
46.432394487827068
 51
53.567605512172946
  0
ARC
  8
layer1
 10
8.5265128291212022e-014
 20
2.1316282072803006e-014
 30
0
 40
39.999999999999943
 50
53.567605512173017
 51
56.432394487827153
  0
ARC
  8
default
 10
-5.6843418860808015e-014
 20
-5.6843418860808015e-014
 30
0
 40
40.800000000000075
 50
51.991971575563156
 51
53.567605512172925
  0
ARC
  8
layer1
 10
2.1316282072803006e-014
 20
4.9737991503207013e-014
 30
0
 40
59.999999999999943
 50
51.99197157556317
 51
58.008028424436816
  0
ARC
  8
default
 10
3.0908609005564358e-013
 20
1.8474111129762605e-013
 30
0
 40
40.799999999999663
 50
56.432394487827288
 51
58.00802842443705
  0
ARC
  8
default
 10
3.907985046680551e-014
 20
3.5527136788005009e-014
 30
0
 40
39.99999999999995
 50
56.432394487827082
 51
60.000000000000021
  0
ARC
  8
layer1
 10
-1.4210854715202004e-014
 20
-1.0658141036401503e-013
 30
0
 40
40.000000000000021
 50
3.5676055121730532
 51
6.4323944878272084
  0
ARC
  8
default
 10
-7.1054273576010019e-015
 20
-1.4543921622589551e-013
 30
0
 40
40.800000000000018
 50
1.9919715755633502
 51
3.5676055121731061
  0
ARC
  8
layer1
 10
-7.1054273576010019e-015
 20
1.0658141036401503e-014
 30
0
 40
60
 50
1.9919715755631355
 51
8.0080284244368034
  0
ARC
  8
default
 10
-4.2632564145606011e-014
 20
2.1138646388862981e-013
 30
0
 40
40.800000000000011
 50
6.4323944878267572
 51
8.0080284244365121
  0
ARC
  8
default
 10
-2.8421709430404007e-014
 20
2.3092638912203256e-014
 30
0
 40
40.000000000000021
 50
6.4323944878270209
 51
13.567605512172898
  0
ARC
  8
layer1
 10
-4.9737991503207013e-014
 20
-3.3750779948604759e-014
 30
0
 40
40.00000000000005
 50
13.567605512172973
 51
16.432394487827125
  0
ARC
  8
default
 10
3.5527136788005009e-014
 20
3.5527136788005009e-014
 30
0
 40
40.799999999999947
 50
11.991971575563147
 51
13.567605512172902
  0
ARC
  8
layer1
 10
-1.4210854715202004e-014
 20
-5.8619775700208265e-014
 30
0
 40
60.000000000000021
 50
11.991971575563237
 51
18.008028424436905
  0
ARC
  8
default
 10
7.1054273576010019e-015
 20
-7.638334409421077e-014
 30
0
 40
40.800000000000011
 50
16.432394487827203
 51
18.008028424436958
  0
ARC
  8
default
 10
-4.9737991503207013e-014
 20
-2.1316282072803006e-014
 30
0
 40
40.000000000000057
 50
16.432394487827111
 51
23.567605512172928
  0
ARC
  8
layer1
 10
-3.5527136788005009e-014
 20
-1.7763568394002505e-014
 30
0
 40
40.000000000000043
 50
23.567605512172936
 51
26.432394487827086
  0
ARC
  8
default
 10
-2.1316282072803006e-014
 20
-2.3092638912203256e-014
 30
0
 40
40.800000000000033
 50
21.991971575563195
 51
23.567605512172946
  0
ARC
  8
layer1
 10
-1.4210854715202004e-014
 20
-7.1054273576010019e-015
 30
0
 40
60.000000000000007
 50
21.991971575563174
 51
28.008028424436841
  0
ARC
  8
default
 10
-7.1054273576010019e-014
 20
-6.3948846218409017e-014
 30
0
 40
40.80000000000009
 50
26.432394487827118
 51
28.008028424436873
  0
ARC
  8
default
 10
-4.9737991503207013e-014
 20
-3.5527136788005009e-014
 30
0
 40
40.000000000000057
 50
26.4323944878271
 51
33.567605512172918
  0
ARC
  8
layer1
 10
-1.1368683772161603e-013
 20
3.5527136788005009e-015
 30
0
 40
40.000000000000099
 50
33.567605512172825
 51
36.432394487826976
  0
ARC
  8
default
 10
7.1054273576010019e-014
 20
-4.6185277824406512e-014
 30
0
 40
40.799999999999969
 50
31.991971575563266
 51
33.567605512173024
  0
ARC
  8
layer1
 10
0
 20
2.1316282072803006e-014
 30
0
 40
59.999999999999993
 50
31.991971575563145
 51
38.008028424436816
  0
ARC
  8
default
 10
7.815970093361102e-014
 20
1.1368683772161603e-013
 30
0
 40
40.799999999999862
 50
36.432394487827011
 51
38.008028424436766
  0
ARC
  8
default
 10
-7.1054273576010019e-014
 20
-5.6843418860808015e-014
 30
0
 40
40.000000000000092
 50
36.432394487827082
 51
43.567605512172925
  0
ARC
  8
default
 10
0
 20
8.8817841970012523e-016
 30
0
 40
14
 50
360
 51
59.999999999999993
  0
ARC
  8
layer1
 10
7.1054273576010019e-015
 20
-8.8817841970012523e-016
 30
0
 40
27.351679053569637
 50
9.2237010668267132
 51
25.915176913574921
  0
ARC
  8
layer1
 10
7.1054273576010019e-015
 20
2.5091040356528538e-014
 30
0
 40
36.899999999999991
 50
2.2150430224129303
 51
9.2237010668266723
  0
ARC
  8
layer1
 10
0
 20
1.1102230246251565e-015
 30
0
 40
23.35167905356964
 50
2.2150430224129658
 51
9.2237010668267079
  0
ARC
  8
layer1
 10
3.5527136788005009e-015
 20
-4.4408920985006262e-016
 30
0
 40
23.351679053569637
 50
9.2237010668267132
 51
25.915176913574918
  0
ARC
  8
layer1
 10
-7.1054273576010019e-015
 20
2.8421709430404007e-014
 30
0
 40
27.351679053569637
 50
25.915176913574854
 51
28.428914197528748
  0
ARC
  8
layer1
 10
-1.0658141036401503e-014
 20
-8.8817841970012523e-015
 30
0
 40
23.351679053569647
 50
25.915176913574928
 51
28.428914197528812
  0
ARC
  8
layer1
 10
0
 20
-4.3742787170231168e-014
 30
0
 40
34.400000000000006
 50
2.2150430224130413
 51
9.2237010668267825
  0
ARC
  8
layer1
 10
7.1054273576010019e-015
 20
9.9920072216264089e-015
 30
0
 40
27.351679053569626
 50
2.215043022412948
 51
9.2237010668266919
  0
ARC
  8
layer1
 10
2.1316282072803006e-014
 20
0
 30
0
 40
27.351679053569622
 50
31.571085802471195
 51
34.084823086425097
  0
ARC
  8
layer1
 10
-1.0658141036401503e-014
 20
7.1054273576010019e-015
 30
0
 40
36.899999999999999
 50
50.776298933173251
 51
57.784956977586987
  0
ARC
  8
layer1
 10
-7.1054273576010019e-015
 20
2.1316282072803006e-014
 30
0
 40
23.351679053569629
 50
31.571085802471121
 51
34.084823086425018
  0
ARC
  8
layer1
 10
-3.5527136788005009e-015
 20
-1.7763568394002505e-015
 30
0
 40
23.351679053569644
 50
34.084823086425068
 51
50.776298933173258
  0
ARC
  8
layer1
 10
-3.5527136788005009e-015
 20
-1.7763568394002505e-015
 30
0
 40
27.35167905356964
 50
34.084823086425068
 51
50.776298933173258
  0
ARC
  8
layer1
 10
-3.5527136788005009e-015
 20
-3.5527136788005009e-015
 30
0
 40
23.351679053569644
 50
50.776298933173273
 51
57.784956977587015
  0
ARC
  8
layer1
 10
-1.4210854715202004e-014
 20
3.5527136788005009e-015
 30
0
 40
34.400000000000013
 50
50.776298933173251
 51
57.784956977586987
  0
ARC
  8
layer1
 10
0
 20
-3.5527136788005009e-015
 30
0
 40
27.35167905356964
 50
50.77629893317328
 51
57.784956977587015
  0
ARC
  8
layer1
 10
-5.3290705182007514e-014
 20
2.1316282072803006e-014
 30
0
 40
40.800000000000018
 50
43.567605512172861
 51
46.43239448782699
  0
ARC
  8
layer1
 10
-5.6843418860808015e-014
 20
-4.9737991503207013e-014
 30
0
 40
50.400000000000077
 50
41.991971575563177
 51
48.008028424436823
  0
ARC
  8
layer1
 10
-2.4868995751603507e-014
 20
5.6843418860808015e-014
 30
0
 40
40.799999999999962
 50
53.567605512172861
 51
56.43239448782699
  0
ARC
  8
layer1
 10
-7.1054273576010019e-015
 20
2.1316282072803006e-014
 30
0
 40
50.399999999999977
 50
51.991971575563156
 51
58.008028424436795
  0
ARC
  8
layer1
 10
7.1054273576010019e-015
 20
4.1744385725905886e-014
 30
0
 40
40.79999999999999
 50
3.5676055121728445
 51
6.4323944878270014
  0
ARC
  8
layer1
 10
-7.1054273576010019e-015
 20
5.8397731095283234e-014
 30
0
 40
50.399999999999999
 50
1.9919715755630798
 51
8.0080284244367466
  0
ARC
  8
layer1
 10
0
 20
-3.1974423109204508e-014
 30
0
 40
40.800000000000011
 50
13.567605512172982
 51
16.432394487827139
  0
ARC
  8
layer1
 10
-7.1054273576010019e-015
 20
2.3092638912203256e-014
 30
0
 40
50.399999999999999
 50
11.991971575563159
 51
18.008028424436826
  0
ARC
  8
layer1
 10
-1.4210854715202004e-014
 20
2.4868995751603507e-014
 30
0
 40
40.799999999999997
 50
23.567605512172889
 51
26.432394487827047
  0
ARC
  8
layer1
 10
0
 20
-7.1054273576010019e-015
 30
0
 40
50.399999999999999
 50
21.991971575563184
 51
28.008028424436851
  0
ARC
  8
layer1
 10
-2.8421709430404007e-014
 20
-1.7763568394002505e-014
 30
0
 40
40.80000000000004
 50
33.567605512172911
 51
36.432394487827075
  0
ARC
  8
layer1
 10
-4.2632564145606011e-014
 20
-3.1974423109204508e-014
 30
0
 40
50.400000000000048
 50
31.991971575563163
 51
38.00802842443683
  0
ARC
  8
layer1
 10
2.4868995751603507e-014
 20
1.7763568394002505e-015
 30
0
 40
23.351679053569615
 50
28.428914197528833
 51
31.571085802471202
  0
ARC
  8
layer1
 10
-3.5527136788005009e-015
 20
8.8817841970012523e-015
 30
0
 40
27.351679053569637
 50
28.428914197528783
 51
31.571085802471153
  0
ENDSEC
  0
EOF
