  0
SECTION
  2
HEADER
  9
$ACADVER
  1
AC1009
  9
$DWGCODEPAGE
  3
ANSI_1252
  9
$EXTMIN
 10
1e+20
 20
1e+20
 30
1e+20
  9
$EXTMAX
 10
-1e+20
 20
-1e+20
 30
-1e+20
  9
$LIMMIN
 10
0.0
 20
0.0
  9
$LIMMAX
 10
420.0
 20
297.0
  9
$LUNITS
 70
1
  9
$AUNITS
 70
3
  9
$TDCREATE
 40
2461196.6310416665
  9
$TDUPDATE
 40
2461196.6310416665
  9
$PEXTMIN
 10
1e+20
 20
1e+20
 30
1e+20
  9
$PEXTMAX
 10
-1e+20
 20
-1e+20
 30
-1e+20
  9
$PLIMMIN
 10
0.0
 20
0.0
  9
$PLIMMAX
 10
420.0
 20
297.0
  0
ENDSEC
  0
SECTION
  2
TABLES
  0
TABLE
  2
VPORT
 70
1
  0
VPORT
  2
*Active
 70
0
 10
0.0
 20
0.0
 11
1.0
 21
1.0
 12
0.0
 22
0.0
 13
0.0
 23
0.0
 14
0.5
 24
0.5
 15
0.5
 25
0.5
 16
0.0
 26
0.0
 36
1.0
 17
0.0
 27
0.0
 37
0.0
 40
1000.0
 41
1.34
 42
50.0
 43
0.0
 44
0.0
 50
0.0
 51
0.0
 71
0
 72
1000
 73
1
 74
3
 75
0
 76
0
 77
0
 78
0
  0
ENDTAB
  0
TABLE
  2
LTYPE
 70
3
  0
LTYPE
  2
ByBlock
 70
0
  3

 72
65
 73
0
 40
0.0
  0
LTYPE
  2
ByLayer
 70
0
  3

 72
65
 73
0
 40
0.0
  0
LTYPE
  2
Continuous
 70
0
  3

 72
65
 73
0
 40
0.0
  0
ENDTAB
  0
TABLE
  2
LAYER
 70
2
  0
LAYER
  2
0
 70
0
 62
7
  6
Continuous
  0
LAYER
  2
Defpoints
 70
0
 62
7
  6
Continuous
  0
ENDTAB
  0
TABLE
  2
STYLE
 70
1
  0
STYLE
  2
Standard
 70
0
 40
0.0
 41
1.0
 50
0.0
 71
0
 42
2.5
  3
txt
  4

  0
ENDTAB
  0
TABLE
  2
VIEW
 70
0
  0
ENDTAB
  0
TABLE
  2
UCS
 70
0
  0
ENDTAB
  0
TABLE
  2
APPID
 70
3
  0
APPID
  2
ACAD
 70
0
  0
APPID
  2
HATCHBACKGROUNDCOLOR
 70
0
  0
APPID
  2
EZDXF
 70
0
  0
ENDTAB
  0
TABLE
  2
DIMSTYLE
 70
1
  0
DIMSTYLE
  2
Standard
 70
0
  3

  4

  5

  6

  7

 40
1.0
 41
2.5
 42
0.625
 43
3.75
 44
1.25
 45
0.0
 46
0.0
 47
0.0
 48
0.0
140
2.5
141
2.5
142
0.0
143
0.03937007874
144
1.0
145
0.0
146
1.0
147
0.625
 71
0
 72
0
 73
0
 74
0
 75
0
 76
0
 77
1
 78
8
170
0
171
3
172
1
173
0
174
0
175
0
176
0
177
0
178
0
  0
ENDTAB
  0
ENDSEC
  0
SECTION
  2
BLOCKS
  0
BLOCK
  8
0
  2
$Model_Space
 70
0
 10
0.0
 20
0.0
 30
0.0
  3
$Model_Space
  1

1001
EZDXF
1000
WRITTEN_BY_EZDXF
1000
1.4.3 @ 2026-06-04T06:08:42.572188+00:00
  0
ENDBLK
  8
0
  0
BLOCK
  8
0
  2
$Paper_Space
 70
0
 10
0.0
 20
0.0
 30
0.0
  3
$Paper_Space
  1

  0
ENDBLK
  8
0
  0
ENDSEC
  0
SECTION
  2
ENTITIES
  0
LINE
  8
0
 10
28.9824659995754
 20
27.5683997465115
 30
0.0
 11
29.5621153195669
 21
28.1197677414418
 31
0.0
  0
LINE
  8
0
 10
30.3241339985111
 20
27.296279915775102
 30
0.0
 11
37.459224351101895
 21
33.71893401360451
 31
0.0
  0
LINE
  8
0
 10
40.141588111433904
 20
44.5943147036928
 30
0.0
 11
33.71893401360451
 21
37.459224351101895
 31
0.0
  0
LINE
  8
0
 10
28.1197677414418
 20
29.5621153195669
 30
0.0
 11
27.5683997465115
 21
28.9824659995754
 31
0.0
  0
LINE
  8
0
 10
23.754954840619398
 20
32.1823262136244
 30
0.0
 11
24.2300539374317
 21
32.8259727378969
 31
0.0
  0
LINE
  8
0
 10
25.123493000654
 20
32.147318697615894
 30
0.0
 11
31.034903118455
 21
39.71139368529029
 31
0.0
  0
LINE
  8
0
 10
31.7880257077609
 20
50.8873404846699
 30
0.0
 11
26.7019415945192
 21
42.745366007122804
 31
0.0
  0
LINE
  8
0
 10
22.559157831452
 20
33.9959467868691
 30
0.0
 11
22.1168214033843
 21
33.3293595949697
 31
0.0
  0
LINE
  8
0
 10
39.9224828028026
 20
2.48904938880932
 30
0.0
 11
40.7209324588586
 21
2.53883037658551
 31
0.0
  0
LINE
  8
0
 10
40.775344862350394
 20
1.41818593858237
 30
0.0
 11
50.369543653491704
 21
1.75187674766057
 31
0.0
  0
LINE
  8
0
 10
59.41491346473071
 20
8.35871150229257
 30
0.0
 11
49.9085273103738
 21
7.021317661925761
 31
0.0
  0
LINE
  8
0
 10
40.54315326367
 20
4.57085587593461
 30
0.0
 11
39.7481894741863
 21
4.48123125091629
 31
0.0
  0
LINE
  8
0
 10
38.8837516932068
 20
9.38370152237578
 30
0.0
 11
39.661426727070904
 21
9.57137555282329
 31
0.0
  0
LINE
  8
0
 10
39.9096103483615
 20
8.47720483661662
 30
0.0
 11
49.3001069009172
 21
10.471841268761699
 31
0.0
  0
LINE
  8
0
 10
57.06079240459951
 20
18.5490153420389
 30
0.0
 11
47.93106561986361
 21
15.5811728873127
 31
0.0
  0
LINE
  8
0
 10
39.133490872390205
 20
11.5416589856292
 30
0.0
 11
38.3661675219511
 21
11.3153519466953
 31
0.0
  0
LINE
  8
0
 10
36.663557464540695
 20
15.9932346335669
 30
0.0
 11
37.39682861383152
 21
16.313099326238202
 31
0.0
  0
LINE
  8
0
 10
37.8312425191749
 20
15.2786481553629
 30
0.0
 11
46.73271134721611
 21
18.8736241919188
 31
0.0
  0
LINE
  8
0
 10
52.9729080414088
 20
28.1757167368721
 30
0.0
 11
44.4972427547834
 21
23.6676020589725
 31
0.0
  0
LINE
  8
0
 10
36.5347771634547
 20
18.1617746274066
 30
0.0
 11
35.8184089837791
 21
17.8056613994183
 31
0.0
  0
LINE
  8
0
 10
33.3293595949697
 20
22.1168214033843
 30
0.0
 11
33.9959467868691
 21
22.559157831452
 31
0.0
  0
LINE
  8
0
 10
34.6033915295756
 20
21.6158574812774
 30
0.0
 11
42.745366007122804
 21
26.7019415945192
 31
0.0
  0
LINE
  8
0
 10
47.2754686729646
 20
36.9463132362559
 30
0.0
 11
39.71139368529029
 21
31.034903118455
 31
0.0
  0
LINE
  8
0
 10
32.8259727378969
 20
24.2300539374317
 30
0.0
 11
32.1823262136244
 21
23.754954840619398
 31
0.0
  0
LINE
  8
0
 10
0.0
 20
0.0
 30
0.0
 11
14.0
 21
0.0
 31
0.0
  0
LINE
  8
0
 10
0.0
 20
0.0
 30
0.0
 11
7.0
 21
12.1243556529821
 31
0.0
  0
LINE
  8
0
 10
14.0
 20
0.0
 30
0.0
 11
23.3516790535696
 21
0.0
 31
0.0
  0
LINE
  8
0
 10
7.0
 20
12.1243556529821
 30
0.0
 11
11.6758395267848
 21
20.2231472814123
 31
0.0
  0
LINE
  8
0
 10
23.3516790535696
 20
0.0
 30
0.0
 11
27.3516790535696
 21
0.0
 31
0.0
  0
LINE
  8
0
 10
11.6758395267848
 20
20.2231472814123
 30
0.0
 11
13.6758395267848
 21
23.68724889655
 31
0.0
  0
LINE
  8
0
 10
27.3516790535696
 20
0.0
 30
0.0
 11
34.4
 21
0.0
 31
0.0
  0
LINE
  8
0
 10
13.6758395267848
 20
23.68724889655
 30
0.0
 11
17.2
 21
29.7912738901847
 31
0.0
  0
LINE
  8
0
 10
34.4
 20
0.0
 30
0.0
 11
36.900000000000006
 21
0.0
 31
0.0
  0
LINE
  8
0
 10
17.2
 20
29.7912738901847
 30
0.0
 11
18.450000000000003
 21
31.956337399645797
 31
0.0
  0
LINE
  8
0
 10
36.900000000000006
 20
0.0
 30
0.0
 11
38.800000000000004
 21
0.0
 31
0.0
  0
LINE
  8
0
 10
18.450000000000003
 20
31.956337399645797
 30
0.0
 11
19.400000000000002
 21
33.6017856668362
 31
0.0
  0
LINE
  8
0
 10
38.800000000000004
 20
0.0
 30
0.0
 11
40.0
 21
0.0
 31
0.0
  0
LINE
  8
0
 10
19.400000000000002
 20
33.6017856668362
 30
0.0
 11
20.0
 21
34.6410161513775
 31
0.0
  0
LINE
  8
0
 10
40.0
 20
0.0
 30
0.0
 11
40.800000000000004
 21
0.0
 31
0.0
  0
LINE
  8
0
 10
20.0
 20
34.6410161513775
 30
0.0
 11
20.400000000000002
 21
35.33383647440511
 31
0.0
  0
LINE
  8
0
 10
40.800000000000004
 20
0.0
 30
0.0
 11
50.4
 21
0.0
 31
0.0
  0
LINE
  8
0
 10
20.400000000000002
 20
35.33383647440511
 30
0.0
 11
25.2
 21
43.6476803507357
 31
0.0
  0
LINE
  8
0
 10
50.4
 20
0.0
 30
0.0
 11
60.0
 21
0.0
 31
0.0
  0
LINE
  8
0
 10
25.2
 20
43.6476803507357
 30
0.0
 11
30.0
 21
51.9615242270663
 31
0.0
  0
LINE
  8
0
 10
60.0
 20
0.0
 30
0.0
 11
67.5
 21
0.0
 31
0.0
  0
LINE
  8
0
 10
30.0
 20
51.9615242270663
 30
0.0
 11
33.75
 21
58.45671475544961
 31
0.0
  0
LINE
  8
0
 10
20.535663603187302
 20
11.1169885759432
 30
0.0
 11
24.0532973555317
 21
13.021260821282
 31
0.0
  0
LINE
  8
0
 10
23.3342307546439
 20
0.902546237016419
 30
0.0
 11
27.3312419676046
 21
1.05714689505834
 31
0.0
  0
LINE
  8
0
 10
23.049742868573897
 20
3.74302929637887
 30
0.0
 11
26.998023044178698
 21
4.38418735405725
 31
0.0
  0
LINE
  8
0
 10
24.6012501211586
 20
11.953779298852401
 30
0.0
 11
21.003481944225
 21
10.2056190816401
 31
0.0
  0
LINE
  8
0
 10
19.8954263219418
 20
12.2259120759601
 30
0.0
 11
23.3033913382991
 21
14.3201361440305
 31
0.0
  0
LINE
  8
0
 10
17.2958291456534
 20
21.1888801311878
 30
0.0
 11
19.6508013259562
 21
24.0739238501388
 31
0.0
  0
LINE
  8
0
 10
12.448743346668198
 20
19.7567634927816
 30
0.0
 11
14.5811370504547
 21
23.1409764133958
 31
0.0
  0
LINE
  8
0
 10
19.340066358160097
 20
13.086739390806601
 30
0.0
 11
22.652901604618002
 21
15.3284179203522
 31
0.0
  0
LINE
  8
0
 10
17.2958291456534
 20
21.1888801311878
 30
0.0
 11
14.766429892060401
 21
18.0901482266947
 31
0.0
  0
LINE
  8
0
 10
21.752833580899598
 20
26.6490943786405
 30
0.0
 11
23.3337081143952
 21
28.5858018189486
 31
0.0
  0
LINE
  8
0
 10
18.338585852563202
 20
29.104231117282097
 30
0.0
 11
19.671331917429697
 21
31.219364192666
 31
0.0
  0
LINE
  8
0
 10
37.459224351101895
 20
33.71893401360451
 30
0.0
 11
44.5943147036928
 21
40.141588111433904
 31
0.0
  0
LINE
  8
0
 10
33.71893401360451
 20
37.459224351101895
 30
0.0
 11
27.296279915775102
 21
30.3241339985111
 31
0.0
  0
LINE
  8
0
 10
31.034903118455
 20
39.71139368529029
 30
0.0
 11
36.9463132362559
 21
47.2754686729646
 31
0.0
  0
LINE
  8
0
 10
26.7019415945192
 20
42.745366007122804
 30
0.0
 11
21.6158574812774
 21
34.6033915295756
 31
0.0
  0
LINE
  8
0
 10
50.369543653491704
 20
1.75187674766057
 30
0.0
 11
59.963742444633
 21
2.08556755673877
 31
0.0
  0
LINE
  8
0
 10
49.9085273103738
 20
7.021317661925761
 30
0.0
 11
40.4021411560169
 21
5.68392382155895
 31
0.0
  0
LINE
  8
0
 10
49.3001069009172
 20
10.471841268761699
 30
0.0
 11
58.69060345347279
 21
12.4664777009068
 31
0.0
  0
LINE
  8
0
 10
47.93106561986361
 20
15.5811728873127
 30
0.0
 11
38.8013388351277
 21
12.613330432586501
 31
0.0
  0
LINE
  8
0
 10
46.73271134721611
 20
18.8736241919188
 30
0.0
 11
55.6341801752572
 21
22.4686002284748
 31
0.0
  0
LINE
  8
0
 10
44.4972427547834
 20
23.6676020589725
 30
0.0
 11
36.021577468158
 21
19.159487381073
 31
0.0
  0
LINE
  8
0
 10
42.745366007122804
 20
26.7019415945192
 30
0.0
 11
50.88734048467
 21
31.7880257077609
 31
0.0
  0
LINE
  8
0
 10
39.71139368529029
 20
31.034903118455
 30
0.0
 11
32.147318697615894
 21
25.123493000654
 31
0.0
  0
LINE
  8
0
 10
19.6508013259562
 20
24.0739238501388
 30
0.0
 11
21.752833580899598
 21
26.6490943786405
 31
0.0
  0
LINE
  8
0
 10
33.9552095102015
 20
5.513959296034021
 30
0.0
 11
36.4228846199545
 21
5.914683082083002
 31
0.0
  0
LINE
  8
0
 10
34.37429643146141
 20
1.32956565916055
 30
0.0
 11
36.8724284395618
 21
1.42619107043675
 31
0.0
  0
LINE
  8
0
 10
26.998023044178698
 20
4.38418735405725
 30
0.0
 11
33.9552095102015
 21
5.513959296034021
 31
0.0
  0
LINE
  8
0
 10
27.3312419676046
 20
1.05714689505834
 30
0.0
 11
34.37429643146141
 21
1.32956565916055
 31
0.0
  0
LINE
  8
0
 10
14.5811370504547
 20
23.1409764133958
 30
0.0
 11
18.338585852563202
 21
29.104231117282097
 31
0.0
  0
POLYLINE
  8
0
 66
1
 10
0.0
 20
0.0
 30
0.0
 70
0
  0
VERTEX
  8
0
 10
67.50000000000001
 20
-3.469446951953614e-15
 30
0.0
 70
0
  0
VERTEX
  8
0
 10
67.04358920192816
 20
7.836271238484606
 30
0.0
 70
0
  0
VERTEX
  8
0
 10
65.68052898005627
 20
15.56657036408434
 30
0.0
 70
0
  0
VERTEX
  8
0
 10
63.42925238338235
 20
23.08635835477704
 30
0.0
 70
0
  0
VERTEX
  8
0
 10
60.32020406222252
 20
30.29394299017264
 30
0.0
 70
0
  0
VERTEX
  8
0
 10
56.39542855659176
 20
37.09185406417902
 30
0.0
 70
0
  0
VERTEX
  8
0
 10
51.70800171599452
 20
43.38816150217364
 30
0.0
 70
0
  0
VERTEX
  8
0
 10
46.321312939696675
 20
49.09771855741043
 30
0.0
 70
0
  0
VERTEX
  8
0
 10
40.30820794394574
 20
54.14331327456447
 30
0.0
 70
0
  0
VERTEX
  8
0
 10
33.750003648741696
 20
58.45671264884747
 30
0.0
 70
0
  0
SEQEND
  8
0
  0
POLYLINE
  8
0
 66
1
 10
0.0
 20
0.0
 30
0.0
 70
0
  0
VERTEX
  8
0
 10
40.00000000000001
 20
2.710505431213761e-15
 30
0.0
 70
0
  0
VERTEX
  8
0
 10
39.99904269223769
 20
0.276737609568222
 30
0.0
 70
0
  0
VERTEX
  8
0
 10
39.99617081477256
 20
0.5534619729833524
 30
0.0
 70
0
  0
VERTEX
  8
0
 10
39.99138450506819
 20
0.830159844726338
 30
0.0
 70
0
  0
VERTEX
  8
0
 10
39.984683992223125
 20
1.106817980546156
 30
0.0
 70
0
  0
VERTEX
  8
0
 10
39.976069596960016
 20
1.3834231380937598
 30
0.0
 70
0
  0
VERTEX
  8
0
 10
39.96554173161024
 20
1.659962077555929
 30
0.0
 70
0
  0
VERTEX
  8
0
 10
39.95310090009417
 20
1.936421562288996
 30
0.0
 70
0
  0
VERTEX
  8
0
 10
39.93874769789701
 20
2.212788359452424
 30
0.0
 70
0
  0
VERTEX
  8
0
 10
39.922482812040364
 20
2.489049240642205
 30
0.0
 70
0
  0
SEQEND
  8
0
  0
POLYLINE
  8
0
 66
1
 10
0.0
 20
0.0
 30
0.0
 70
0
  0
VERTEX
  8
0
 10
28.9824659995754
 20
27.5683997465115
 30
0.0
 70
0
  0
VERTEX
  8
0
 10
28.82886176110799
 20
27.72898717153089
 30
0.0
 70
0
  0
VERTEX
  8
0
 10
28.67436774535119
 20
27.888718765916117
 30
0.0
 70
0
  0
VERTEX
  8
0
 10
28.518988720625998
 20
28.04758959969299
 30
0.0
 70
0
  0
VERTEX
  8
0
 10
28.3627294825684
 20
28.2055947694539
 30
0.0
 70
0
  0
VERTEX
  8
0
 10
28.20559485398142
 20
28.36272939850918
 30
0.0
 70
0
  0
VERTEX
  8
0
 10
28.04758968468622
 20
28.518988637037673
 30
0.0
 70
0
  0
VERTEX
  8
0
 10
27.88871885137241
 20
28.67436766223633
 30
0.0
 70
0
  0
VERTEX
  8
0
 10
27.728987257447592
 20
28.82886167846917
 30
0.0
 70
0
  0
VERTEX
  8
0
 10
27.56839983288599
 20
28.98246591741516
 30
0.0
 70
0
  0
SEQEND
  8
0
  0
POLYLINE
  8
0
 66
1
 10
0.0
 20
0.0
 30
0.0
 70
0
  0
VERTEX
  8
0
 10
30.3241339985111
 20
27.296279915775102
 30
0.0
 70
0
  0
VERTEX
  8
0
 10
30.240587274229362
 20
27.38880941752889
 30
0.0
 70
0
  0
VERTEX
  8
0
 10
30.156758211384588
 20
27.481083206090858
 30
0.0
 70
0
  0
VERTEX
  8
0
 10
30.07264759263939
 20
27.57310041995497
 30
0.0
 70
0
  0
VERTEX
  8
0
 10
29.98825620328509
 20
27.66486020001064
 30
0.0
 70
0
  0
VERTEX
  8
0
 10
29.90358483123445
 20
27.75636168955084
 30
0.0
 70
0
  0
VERTEX
  8
0
 10
29.81863426701419
 20
27.84760403427999
 30
0.0
 70
0
  0
VERTEX
  8
0
 10
29.73340530375776
 20
27.93858638232205
 30
0.0
 70
0
  0
VERTEX
  8
0
 10
29.647898737197803
 20
28.02930788422838
 30
0.0
 70
0
  0
VERTEX
  8
0
 10
29.562115365658798
 20
28.11976769298572
 30
0.0
 70
0
  0
SEQEND
  8
0
  0
POLYLINE
  8
0
 66
1
 10
0.0
 20
0.0
 30
0.0
 70
0
  0
VERTEX
  8
0
 10
44.594314703692824
 20
40.14158811143391
 30
0.0
 70
0
  0
VERTEX
  8
0
 10
44.122971971381745
 20
40.65911145626113
 30
0.0
 70
0
  0
VERTEX
  8
0
 10
43.64562368116508
 20
41.17110070768237
 30
0.0
 70
0
  0
VERTEX
  8
0
 10
43.16233480470435
 20
41.67748617907047
 30
0.0
 70
0
  0
VERTEX
  8
0
 10
42.673171122231516
 20
42.17819894652625
 30
0.0
 70
0
  0
VERTEX
  8
0
 10
42.178199213595775
 20
42.67317085825977
 30
0.0
 70
0
  0
VERTEX
  8
0
 10
41.677486449201396
 20
43.16233454386631
 30
0.0
 70
0
  0
VERTEX
  8
0
 10
41.17110098083796
 20
43.645623423496254
 30
0.0
 70
0
  0
VERTEX
  8
0
 10
40.6591117324042
 20
44.122971716917185
 30
0.0
 70
0
  0
VERTEX
  8
0
 10
40.14158839052686
 20
44.59431445246716
 30
0.0
 70
0
  0
SEQEND
  8
0
  0
POLYLINE
  8
0
 66
1
 10
0.0
 20
0.0
 30
0.0
 70
0
  0
VERTEX
  8
0
 10
28.1197677414418
 20
29.56211531956689
 30
0.0
 70
0
  0
VERTEX
  8
0
 10
28.02930793282506
 20
29.64789869125417
 30
0.0
 70
0
  0
VERTEX
  8
0
 10
27.93858643105889
 20
29.73340525796283
 30
0.0
 70
0
  0
VERTEX
  8
0
 10
27.847604083156522
 20
29.8186342213684
 30
0.0
 70
0
  0
VERTEX
  8
0
 10
27.75636173856662
 20
29.90358478573821
 30
0.0
 70
0
  0
VERTEX
  8
0
 10
27.66486024916522
 20
29.98825615793884
 30
0.0
 70
0
  0
VERTEX
  8
0
 10
27.57310046924787
 20
30.072647547443548
 30
0.0
 70
0
  0
VERTEX
  8
0
 10
27.48108325552164
 20
30.15675816633958
 30
0.0
 70
0
  0
VERTEX
  8
0
 10
27.38880946709708
 20
30.24058722933561
 30
0.0
 70
0
  0
VERTEX
  8
0
 10
27.29627996548023
 20
30.32413395376901
 30
0.0
 70
0
  0
SEQEND
  8
0
  0
POLYLINE
  8
0
 66
1
 10
0.0
 20
0.0
 30
0.0
 70
0
  0
VERTEX
  8
0
 10
27.56839974651151
 20
28.98246599957541
 30
0.0
 70
0
  0
VERTEX
  8
0
 10
27.164743313433952
 20
29.361143041701318
 30
0.0
 70
0
  0
VERTEX
  8
0
 10
26.75588593866619
 20
29.73419862106737
 30
0.0
 70
0
  0
VERTEX
  8
0
 10
26.34190590173922
 20
30.101561312727902
 30
0.0
 70
0
  0
VERTEX
  8
0
 10
25.92288246296512
 20
30.46316078169329
 30
0.0
 70
0
  0
VERTEX
  8
0
 10
25.498895848261977
 20
30.81892779639631
 30
0.0
 70
0
  0
VERTEX
  8
0
 10
25.07002723379388
 20
31.16879424194709
 30
0.0
 70
0
  0
VERTEX
  8
0
 10
24.636358730428988
 20
31.512693133174402
 30
0.0
 70
0
  0
VERTEX
  8
0
 10
24.19797336801861
 20
31.850558627450535
 30
0.0
 70
0
  0
VERTEX
  8
0
 10
23.75495507950046
 20
32.18232603729751
 30
0.0
 70
0
  0
SEQEND
  8
0
  0
POLYLINE
  8
0
 66
1
 10
0.0
 20
0.0
 30
0.0
 70
0
  0
VERTEX
  8
0
 10
23.754954840619398
 20
32.18232621362441
 30
0.0
 70
0
  0
VERTEX
  8
0
 10
23.57579848197032
 20
32.313800858727966
 30
0.0
 70
0
  0
VERTEX
  8
0
 10
23.39591447717821
 20
32.444278166982926
 30
0.0
 70
0
  0
VERTEX
  8
0
 10
23.21530837820358
 20
32.5737541113227
 30
0.0
 70
0
  0
VERTEX
  8
0
 10
23.03398575929374
 20
32.7022246955869
 30
0.0
 70
0
  0
VERTEX
  8
0
 10
22.85195221681077
 20
32.82968595464473
 30
0.0
 70
0
  0
VERTEX
  8
0
 10
22.66921336905875
 20
32.9561339545173
 30
0.0
 70
0
  0
VERTEX
  8
0
 10
22.485774856110393
 20
33.08156479249905
 30
0.0
 70
0
  0
VERTEX
  8
0
 10
22.30164233963297
 20
33.20597459727825
 30
0.0
 70
0
  0
VERTEX
  8
0
 10
22.116821502713538
 20
33.32935952905645
 30
0.0
 70
0
  0
SEQEND
  8
0
  0
POLYLINE
  8
0
 66
1
 10
0.0
 20
0.0
 30
0.0
 70
0
  0
VERTEX
  8
0
 10
25.12349300065399
 20
32.14731869761589
 30
0.0
 70
0
  0
VERTEX
  8
0
 10
25.0251479594826
 20
32.22393473190385
 30
0.0
 70
0
  0
VERTEX
  8
0
 10
24.92656927323511
 20
32.30024991028099
 30
0.0
 70
0
  0
VERTEX
  8
0
 10
24.827757862282688
 20
32.376263520237394
 30
0.0
 70
0
  0
VERTEX
  8
0
 10
24.728714649169337
 20
32.45197485207879
 30
0.0
 70
0
  0
VERTEX
  8
0
 10
24.62944055860321
 20
32.527383198933
 30
0.0
 70
0
  0
VERTEX
  8
0
 10
24.529936517448068
 20
32.60248785675666
 30
0.0
 70
0
  0
VERTEX
  8
0
 10
24.43020345471457
 20
32.677288124341814
 30
0.0
 70
0
  0
VERTEX
  8
0
 10
24.330242301551607
 20
32.751783303322384
 30
0.0
 70
0
  0
VERTEX
  8
0
 10
24.23005399123765
 20
32.82597269818073
 30
0.0
 70
0
  0
SEQEND
  8
0
  0
POLYLINE
  8
0
 66
1
 10
0.0
 20
0.0
 30
0.0
 70
0
  0
VERTEX
  8
0
 10
36.94631323625591
 20
47.27546867296463
 30
0.0
 70
0
  0
VERTEX
  8
0
 10
36.3922642734207
 20
47.70328186879295
 30
0.0
 70
0
  0
VERTEX
  8
0
 10
35.83326197583388
 20
48.12460219234294
 30
0.0
 70
0
  0
VERTEX
  8
0
 10
35.26938242904725
 20
48.5393722978946
 30
0.0
 70
0
  0
VERTEX
  8
0
 10
34.70070238245275
 20
48.94753573127502
 30
0.0
 70
0
  0
VERTEX
  8
0
 10
34.12729923883618
 20
49.34903693754253
 30
0.0
 70
0
  0
VERTEX
  8
0
 10
33.54925104384202
 20
49.74382126854821
 30
0.0
 70
0
  0
VERTEX
  8
0
 10
32.96663647535054
 20
50.13183499037401
 30
0.0
 70
0
  0
VERTEX
  8
0
 10
32.37953483276911
 20
50.51302529064646
 30
0.0
 70
0
  0
VERTEX
  8
0
 10
31.78802602623871
 20
50.88734028572493
 30
0.0
 70
0
  0
SEQEND
  8
0
  0
POLYLINE
  8
0
 66
1
 10
0.0
 20
0.0
 30
0.0
 70
0
  0
VERTEX
  8
0
 10
22.559157831452
 20
33.9959467868691
 30
0.0
 70
0
  0
VERTEX
  8
0
 10
22.45517618442263
 20
34.064718735467885
 30
0.0
 70
0
  0
VERTEX
  8
0
 10
22.35098488663088
 20
34.133172641839145
 30
0.0
 70
0
  0
VERTEX
  8
0
 10
22.24658491084957
 20
34.20130786686907
 30
0.0
 70
0
  0
VERTEX
  8
0
 10
22.14197723179981
 20
34.26912377441913
 30
0.0
 70
0
  0
VERTEX
  8
0
 10
22.037162826141948
 20
34.336619731332156
 30
0.0
 70
0
  0
VERTEX
  8
0
 10
21.93214267246638
 20
34.40379510743808
 30
0.0
 70
0
  0
VERTEX
  8
0
 10
21.826917751284448
 20
34.47064927556
 30
0.0
 70
0
  0
VERTEX
  8
0
 10
21.72148904501933
 20
34.53718161151988
 30
0.0
 70
0
  0
VERTEX
  8
0
 10
21.61585753799678
 20
34.603391494144454
 30
0.0
 70
0
  0
SEQEND
  8
0
  0
POLYLINE
  8
0
 66
1
 10
0.0
 20
0.0
 30
0.0
 70
0
  0
VERTEX
  8
0
 10
22.1168214033843
 20
33.32935959496971
 30
0.0
 70
0
  0
VERTEX
  8
0
 10
21.88570490569533
 20
33.481575840763846
 30
0.0
 70
0
  0
VERTEX
  8
0
 10
21.65354084024681
 20
33.6321894779356
 30
0.0
 70
0
  0
VERTEX
  8
0
 10
21.420340319661868
 20
33.78119329730475
 30
0.0
 70
0
  0
VERTEX
  8
0
 10
21.18611450617391
 20
33.92858016674566
 30
0.0
 70
0
  0
VERTEX
  8
0
 10
20.95087461109242
 20
34.07434303152861
 30
0.0
 70
0
  0
VERTEX
  8
0
 10
20.71463189426627
 20
34.21847491465752
 30
0.0
 70
0
  0
VERTEX
  8
0
 10
20.4773976635448
 20
34.360968917203856
 30
0.0
 70
0
  0
VERTEX
  8
0
 10
20.23918327423653
 20
34.50181821863687
 30
0.0
 70
0
  0
VERTEX
  8
0
 10
20.00000012856564
 20
34.641016077150105
 30
0.0
 70
0
  0
SEQEND
  8
0
  0
POLYLINE
  8
0
 66
1
 10
0.0
 20
0.0
 30
0.0
 70
0
  0
VERTEX
  8
0
 10
39.9224828028026
 20
2.489049388809318
 30
0.0
 70
0
  0
VERTEX
  8
0
 10
39.90803873655903
 20
2.710801394662389
 30
0.0
 70
0
  0
VERTEX
  8
0
 10
39.89236294403969
 20
2.932469734030915
 30
0.0
 70
0
  0
VERTEX
  8
0
 10
39.875455909064044
 20
3.154047565317885
 30
0.0
 70
0
  0
VERTEX
  8
0
 10
39.85731815345273
 20
3.375528049719771
 30
0.0
 70
0
  0
VERTEX
  8
0
 10
39.837950237011555
 20
3.596904351437539
 30
0.0
 70
0
  0
VERTEX
  8
0
 10
39.81735275751405
 20
3.818169637887672
 30
0.0
 70
0
  0
VERTEX
  8
0
 10
39.795526350683225
 20
4.039317079913042
 30
0.0
 70
0
  0
VERTEX
  8
0
 10
39.77247169017178
 20
4.260339851993677
 30
0.0
 70
0
  0
VERTEX
  8
0
 10
39.74818948754141
 20
4.481231132457452
 30
0.0
 70
0
  0
SEQEND
  8
0
  0
POLYLINE
  8
0
 66
1
 10
0.0
 20
0.0
 30
0.0
 70
0
  0
VERTEX
  8
0
 10
40.77534486235041
 20
1.4181859385823719
 30
0.0
 70
0
  0
VERTEX
  8
0
 10
40.77082117573144
 20
1.5427704484236289
 30
0.0
 70
0
  0
VERTEX
  8
0
 10
40.76591683595382
 20
1.6673405543253208
 30
0.0
 70
0
  0
VERTEX
  8
0
 10
40.760631888806515
 20
1.791895093249693
 30
0.0
 70
0
  0
VERTEX
  8
0
 10
40.75496638363191
 20
1.916432902304332
 30
0.0
 70
0
  0
VERTEX
  8
0
 10
40.74892037332556
 20
2.04095281875303
 30
0.0
 70
0
  0
VERTEX
  8
0
 10
40.742493914335455
 20
2.165453680026603
 30
0.0
 70
0
  0
VERTEX
  8
0
 10
40.73568706666168
 20
2.289934323733803
 30
0.0
 70
0
  0
VERTEX
  8
0
 10
40.72849989385575
 20
2.414393587672132
 30
0.0
 70
0
  0
VERTEX
  8
0
 10
40.720932463020084
 20
2.538830309838703
 30
0.0
 70
0
  0
SEQEND
  8
0
  0
POLYLINE
  8
0
 66
1
 10
0.0
 20
0.0
 30
0.0
 70
0
  0
VERTEX
  8
0
 10
59.96374244463302
 20
2.085567556738775
 30
0.0
 70
0
  0
VERTEX
  8
0
 10
59.93533055752007
 20
2.784986707473369
 30
0.0
 70
0
  0
VERTEX
  8
0
 10
59.8987608994735
 20
3.484026794917557
 30
0.0
 70
0
  0
VERTEX
  8
0
 10
59.85403844797309
 20
4.182592673038893
 30
0.0
 70
0
  0
VERTEX
  8
0
 10
59.8011692901716
 20
4.880589260349305
 30
0.0
 70
0
  0
VERTEX
  8
0
 10
59.74016062206634
 20
5.57792155284668
 30
0.0
 70
0
  0
VERTEX
  8
0
 10
59.67102074751978
 20
6.274494636945763
 30
0.0
 70
0
  0
VERTEX
  8
0
 10
59.593759077129185
 20
6.970213702396821
 30
0.0
 70
0
  0
VERTEX
  8
0
 10
59.508386126945794
 20
7.66498405519018
 30
0.0
 70
0
  0
VERTEX
  8
0
 10
59.4149135170436
 20
8.35871113044506
 30
0.0
 70
0
  0
SEQEND
  8
0
  0
POLYLINE
  8
0
 66
1
 10
0.0
 20
0.0
 30
0.0
 70
0
  0
VERTEX
  8
0
 10
40.54315326367001
 20
4.570855875934607
 30
0.0
 70
0
  0
VERTEX
  8
0
 10
40.5289975183913
 20
4.694716195281112
 30
0.0
 70
0
  0
VERTEX
  8
0
 10
40.51446337771908
 20
4.818532682825919
 30
0.0
 70
0
  0
VERTEX
  8
0
 10
40.49955097735009
 20
4.942304182567375
 30
0.0
 70
0
  0
VERTEX
  8
0
 10
40.484260456512665
 20
5.066029538923835
 30
0.0
 70
0
  0
VERTEX
  8
0
 10
40.46859195796532
 20
5.189707596744476
 30
0.0
 70
0
  0
VERTEX
  8
0
 10
40.45254562799566
 20
5.313337201320073
 30
0.0
 70
0
  0
VERTEX
  8
0
 10
40.4361216164188
 20
5.436917198393777
 30
0.0
 70
0
  0
VERTEX
  8
0
 10
40.41932007657608
 20
5.560446434171901
 30
0.0
 70
0
  0
VERTEX
  8
0
 10
40.40214116533359
 20
5.683923755334681
 30
0.0
 70
0
  0
SEQEND
  8
0
  0
POLYLINE
  8
0
 66
1
 10
0.0
 20
0.0
 30
0.0
 70
0
  0
VERTEX
  8
0
 10
39.7481894741863
 20
4.481231250916285
 30
0.0
 70
0
  0
VERTEX
  8
0
 10
39.682379617449264
 20
5.0307800485260925
 30
0.0
 70
0
  0
VERTEX
  8
0
 10
39.60897220162111
 20
5.579365656703675
 30
0.0
 70
0
  0
VERTEX
  8
0
 10
39.52798128123149
 20
6.126883043653692
 30
0.0
 70
0
  0
VERTEX
  8
0
 10
39.43942236274216
 20
6.673227382101655
 30
0.0
 70
0
  0
VERTEX
  8
0
 10
39.343312401578245
 20
7.218294069364053
 30
0.0
 70
0
  0
VERTEX
  8
0
 10
39.239669798881934
 20
7.7619787473755535
 30
0.0
 70
0
  0
VERTEX
  8
0
 10
39.128514397989385
 20
8.30417732266928
 30
0.0
 70
0
  0
VERTEX
  8
0
 10
39.00986748063154
 20
8.844785986306498
 30
0.0
 70
0
  0
VERTEX
  8
0
 10
38.88375176285956
 20
9.383701233751763
 30
0.0
 70
0
  0
SEQEND
  8
0
  0
POLYLINE
  8
0
 66
1
 10
0.0
 20
0.0
 30
0.0
 70
0
  0
VERTEX
  8
0
 10
38.8837516932068
 20
9.383701522375784
 30
0.0
 70
0
  0
VERTEX
  8
0
 10
38.831020233074746
 20
9.599576431204607
 30
0.0
 70
0
  0
VERTEX
  8
0
 10
38.7770902878893
 20
9.815155057607607
 30
0.0
 70
0
  0
VERTEX
  8
0
 10
38.72196352215047
 20
10.03043074794139
 30
0.0
 70
0
  0
VERTEX
  8
0
 10
38.66564163729703
 20
10.245396857912391
 30
0.0
 70
0
  0
VERTEX
  8
0
 10
38.60812637165411
 20
10.460046752782
 30
0.0
 70
0
  0
VERTEX
  8
0
 10
38.54941950037944
 20
10.67437380757127
 30
0.0
 70
0
  0
VERTEX
  8
0
 10
38.48952283540862
 20
10.88837140726548
 30
0.0
 70
0
  0
VERTEX
  8
0
 10
38.42843822539916
 20
11.1020329470182
 30
0.0
 70
0
  0
VERTEX
  8
0
 10
38.36616755567348
 20
11.31535183235521
 30
0.0
 70
0
  0
SEQEND
  8
0
  0
POLYLINE
  8
0
 66
1
 10
0.0
 20
0.0
 30
0.0
 70
0
  0
VERTEX
  8
0
 10
39.90961034836151
 20
8.477204836616622
 30
0.0
 70
0
  0
VERTEX
  8
0
 10
39.88352151360747
 20
8.599111097875792
 30
0.0
 70
0
  0
VERTEX
  8
0
 10
39.85706030988947
 20
8.720937074296293
 30
0.0
 70
0
  0
VERTEX
  8
0
 10
39.830226984260165
 20
8.842681628460676
 30
0.0
 70
0
  0
VERTEX
  8
0
 10
39.803021787246536
 20
8.96434362371171
 30
0.0
 70
0
  0
VERTEX
  8
0
 10
39.77544497284747
 20
9.08592192416296
 30
0.0
 70
0
  0
VERTEX
  8
0
 10
39.74749679853148
 20
9.207415394709383
 30
0.0
 70
0
  0
VERTEX
  8
0
 10
39.71917752523421
 20
9.328822901037977
 30
0.0
 70
0
  0
VERTEX
  8
0
 10
39.69048741735604
 20
9.450143309638316
 30
0.0
 70
0
  0
VERTEX
  8
0
 10
39.661426742759616
 20
9.571375487813144
 30
0.0
 70
0
  0
SEQEND
  8
0
  0
POLYLINE
  8
0
 66
1
 10
0.0
 20
0.0
 30
0.0
 70
0
  0
VERTEX
  8
0
 10
58.690603453472804
 20
12.4664777009068
 30
0.0
 70
0
  0
VERTEX
  8
0
 10
58.54117034581587
 20
13.15033743073421
 30
0.0
 70
0
  0
VERTEX
  8
0
 10
58.383769225745816
 20
13.83240727403788
 30
0.0
 70
0
  0
VERTEX
  8
0
 10
58.21842151705844
 20
14.5125943945977
 30
0.0
 70
0
  0
VERTEX
  8
0
 10
58.045149725156115
 20
15.19080621245005
 30
0.0
 70
0
  0
VERTEX
  8
0
 10
57.86397743398465
 20
15.86695041648887
 30
0.0
 70
0
  0
VERTEX
  8
0
 10
57.67492930282326
 20
16.54093497703014
 30
0.0
 70
0
  0
VERTEX
  8
0
 10
57.47803106292819
 20
17.21266815833791
 30
0.0
 70
0
  0
VERTEX
  8
0
 10
57.27330951403051
 20
17.88205853111043
 30
0.0
 70
0
  0
VERTEX
  8
0
 10
57.06079252068827
 20
18.54901498492462
 30
0.0
 70
0
  0
SEQEND
  8
0
  0
POLYLINE
  8
0
 66
1
 10
0.0
 20
0.0
 30
0.0
 70
0
  0
VERTEX
  8
0
 10
39.133490872390205
 20
11.5416589856292
 30
0.0
 70
0
  0
VERTEX
  8
0
 10
39.098042065950295
 20
11.66117946904103
 30
0.0
 70
0
  0
VERTEX
  8
0
 10
39.06222822410564
 20
11.78059107888421
 30
0.0
 70
0
  0
VERTEX
  8
0
 10
39.02604968122902
 20
11.899892700282841
 30
0.0
 70
0
  0
VERTEX
  8
0
 10
38.98950677509821
 20
12.01908321938787
 30
0.0
 70
0
  0
VERTEX
  8
0
 10
38.9525998468928
 20
12.13816152338761
 30
0.0
 70
0
  0
VERTEX
  8
0
 10
38.91532924119106
 20
12.25712650051802
 30
0.0
 70
0
  0
VERTEX
  8
0
 10
38.87769530596668
 20
12.37597704007314
 30
0.0
 70
0
  0
VERTEX
  8
0
 10
38.83969839258557
 20
12.49471203241542
 30
0.0
 70
0
  0
VERTEX
  8
0
 10
38.80133885580257
 20
12.61333036898615
 30
0.0
 70
0
  0
SEQEND
  8
0
  0
POLYLINE
  8
0
 66
1
 10
0.0
 20
0.0
 30
0.0
 70
0
  0
VERTEX
  8
0
 10
38.3661675219511
 20
11.315351946695289
 30
0.0
 70
0
  0
VERTEX
  8
0
 10
38.205929317567886
 20
11.84512410154506
 30
0.0
 70
0
  0
VERTEX
  8
0
 10
38.03837623417741
 20
12.372628397683469
 30
0.0
 70
0
  0
VERTEX
  8
0
 10
37.86354035136931
 20
12.89776383952761
 30
0.0
 70
0
  0
VERTEX
  8
0
 10
37.68145514309252
 20
13.420429885033661
 30
0.0
 70
0
  0
VERTEX
  8
0
 10
37.49215547124655
 20
13.94052646494659
 30
0.0
 70
0
  0
VERTEX
  8
0
 10
37.295677579006735
 20
14.457954001959381
 30
0.0
 70
0
  0
VERTEX
  8
0
 10
37.09205908388521
 20
14.97261342977799
 30
0.0
 70
0
  0
VERTEX
  8
0
 10
36.88133897052866
 20
15.48440621208849
 30
0.0
 70
0
  0
VERTEX
  8
0
 10
36.66355758325433
 20
15.993234361422811
 30
0.0
 70
0
  0
SEQEND
  8
0
  0
POLYLINE
  8
0
 66
1
 10
0.0
 20
0.0
 30
0.0
 70
0
  0
VERTEX
  8
0
 10
36.663557464540695
 20
15.9932346335669
 30
0.0
 70
0
  0
VERTEX
  8
0
 10
36.574140829252876
 20
16.19667319550468
 30
0.0
 70
0
  0
VERTEX
  8
0
 10
36.4835953654959
 20
16.39961186146694
 30
0.0
 70
0
  0
VERTEX
  8
0
 10
36.39192386787535
 20
16.60204436793148
 30
0.0
 70
0
  0
VERTEX
  8
0
 10
36.29912916575082
 20
16.80396446699824
 30
0.0
 70
0
  0
VERTEX
  8
0
 10
36.20521412314863
 20
17.005365926582158
 30
0.0
 70
0
  0
VERTEX
  8
0
 10
36.11018163867337
 20
17.20624253060555
 30
0.0
 70
0
  0
VERTEX
  8
0
 10
36.01403464541853
 20
17.40658807918991
 30
0.0
 70
0
  0
VERTEX
  8
0
 10
35.91677611087593
 20
17.60639638884727
 30
0.0
 70
0
  0
VERTEX
  8
0
 10
35.81840903684412
 20
17.80566129267112
 30
0.0
 70
0
  0
SEQEND
  8
0
  0
POLYLINE
  8
0
 66
1
 10
0.0
 20
0.0
 30
0.0
 70
0
  0
VERTEX
  8
0
 10
37.831242519174914
 20
15.2786481553629
 30
0.0
 70
0
  0
VERTEX
  8
0
 10
37.784381232328215
 20
15.39417210797916
 30
0.0
 70
0
  0
VERTEX
  8
0
 10
37.73716717495477
 20
15.50955233427182
 30
0.0
 70
0
  0
VERTEX
  8
0
 10
37.6896007878644
 20
15.62478775700365
 30
0.0
 70
0
  0
VERTEX
  8
0
 10
37.64168251515649
 20
15.73987730028931
 30
0.0
 70
0
  0
VERTEX
  8
0
 10
37.59341280421573
 20
15.854819889605478
 30
0.0
 70
0
  0
VERTEX
  8
0
 10
37.54479210570799
 20
15.96961445180087
 30
0.0
 70
0
  0
VERTEX
  8
0
 10
37.49582087357613
 20
16.08425991510623
 30
0.0
 70
0
  0
VERTEX
  8
0
 10
37.44649956503571
 20
16.19875520914433
 30
0.0
 70
0
  0
VERTEX
  8
0
 10
37.39682864057076
 20
16.313099264940018
 30
0.0
 70
0
  0
SEQEND
  8
0
  0
POLYLINE
  8
0
 66
1
 10
0.0
 20
0.0
 30
0.0
 70
0
  0
VERTEX
  8
0
 10
55.634180175257214
 20
22.4686002284748
 30
0.0
 70
0
  0
VERTEX
  8
0
 10
55.36826629641564
 20
23.116121805553938
 30
0.0
 70
0
  0
VERTEX
  8
0
 10
55.09481626770658
 20
23.760497057672342
 30
0.0
 70
0
  0
VERTEX
  8
0
 10
54.813867308290725
 20
24.40163827920373
 30
0.0
 70
0
  0
VERTEX
  8
0
 10
54.52545765800477
 20
25.03945820470431
 30
0.0
 70
0
  0
VERTEX
  8
0
 10
54.229626572156725
 20
25.67387002079035
 30
0.0
 70
0
  0
VERTEX
  8
0
 10
53.9264143161829
 20
26.304787377954423
 30
0.0
 70
0
  0
VERTEX
  8
0
 10
53.61586216016728
 20
26.93212440231827
 30
0.0
 70
0
  0
VERTEX
  8
0
 10
53.298012373224445
 20
27.55579570732116
 30
0.0
 70
0
  0
VERTEX
  8
0
 10
52.97290821774616
 20
28.17571640534179
 30
0.0
 70
0
  0
SEQEND
  8
0
  0
POLYLINE
  8
0
 66
1
 10
0.0
 20
0.0
 30
0.0
 70
0
  0
VERTEX
  8
0
 10
36.53477716345471
 20
18.16177462740661
 30
0.0
 70
0
  0
VERTEX
  8
0
 10
36.4791123898993
 20
18.27332370547559
 30
0.0
 70
0
  0
VERTEX
  8
0
 10
36.423107032344
 20
18.384702176277248
 30
0.0
 70
0
  0
VERTEX
  8
0
 10
36.366761613677866
 20
18.495908999936372
 30
0.0
 70
0
  0
VERTEX
  8
0
 10
36.31007665996486
 20
18.606943138180302
 30
0.0
 70
0
  0
VERTEX
  8
0
 10
36.253052700439106
 20
18.71780355434864
 30
0.0
 70
0
  0
VERTEX
  8
0
 10
36.19569026749967
 20
18.828489213402943
 30
0.0
 70
0
  0
VERTEX
  8
0
 10
36.137989896705875
 20
18.938999081936352
 30
0.0
 70
0
  0
VERTEX
  8
0
 10
36.07995212677211
 20
19.049332128183288
 30
0.0
 70
0
  0
VERTEX
  8
0
 10
36.02157749956286
 20
19.15948732202904
 30
0.0
 70
0
  0
SEQEND
  8
0
  0
POLYLINE
  8
0
 66
1
 10
0.0
 20
0.0
 30
0.0
 70
0
  0
VERTEX
  8
0
 10
35.818408983779115
 20
17.805661399418312
 30
0.0
 70
0
  0
VERTEX
  8
0
 10
35.56861118850539
 20
18.29956005266057
 30
0.0
 70
0
  0
VERTEX
  8
0
 10
35.312003453205435
 20
18.78995508565168
 30
0.0
 70
0
  0
VERTEX
  8
0
 10
35.0486349078067
 20
19.27675260772085
 30
0.0
 70
0
  0
VERTEX
  8
0
 10
34.77855597665635
 20
19.75985941697407
 30
0.0
 70
0
  0
VERTEX
  8
0
 10
34.50181836886707
 20
20.23918301813845
 30
0.0
 70
0
  0
VERTEX
  8
0
 10
34.218475068416836
 20
20.714631640271378
 30
0.0
 70
0
  0
VERTEX
  8
0
 10
33.92858032400467
 20
21.18611425433083
 30
0.0
 70
0
  0
VERTEX
  8
0
 10
33.632189638664194
 20
21.653540590603768
 30
0.0
 70
0
  0
VERTEX
  8
0
 10
33.32935975913714
 20
22.116821155989097
 30
0.0
 70
0
  0
SEQEND
  8
0
  0
POLYLINE
  8
0
 66
1
 10
0.0
 20
0.0
 30
0.0
 70
0
  0
VERTEX
  8
0
 10
33.32935959496969
 20
22.11682140338431
 30
0.0
 70
0
  0
VERTEX
  8
0
 10
33.20597466374234
 20
22.30164224067147
 30
0.0
 70
0
  0
VERTEX
  8
0
 10
33.0815648595119
 20
22.48577475751968
 30
0.0
 70
0
  0
VERTEX
  8
0
 10
32.95613402207686
 20
22.66921327084184
 30
0.0
 70
0
  0
VERTEX
  8
0
 10
32.829686022748895
 20
22.851952118970722
 30
0.0
 70
0
  0
VERTEX
  8
0
 10
32.702224764233584
 20
23.03398566183356
 30
0.0
 70
0
  0
VERTEX
  8
0
 10
32.57375418050975
 20
23.21530828112627
 30
0.0
 70
0
  0
VERTEX
  8
0
 10
32.44427823670822
 20
23.39591438048676
 30
0.0
 70
0
  0
VERTEX
  8
0
 10
32.313800928989345
 20
23.57579838566771
 30
0.0
 70
0
  0
VERTEX
  8
0
 10
32.182326284419695
 20
23.7549547447086
 30
0.0
 70
0
  0
SEQEND
  8
0
  0
POLYLINE
  8
0
 66
1
 10
0.0
 20
0.0
 30
0.0
 70
0
  0
VERTEX
  8
0
 10
34.60339152957559
 20
21.6158574812774
 30
0.0
 70
0
  0
VERTEX
  8
0
 10
34.53718164712415
 20
21.72148898840847
 30
0.0
 70
0
  0
VERTEX
  8
0
 10
34.470649311337084
 20
21.82691769478264
 30
0.0
 70
0
  0
VERTEX
  8
0
 10
34.40379514338765
 20
21.932142616074152
 30
0.0
 70
0
  0
VERTEX
  8
0
 10
34.33661976745386
 20
22.03716276985983
 30
0.0
 70
0
  0
VERTEX
  8
0
 10
34.269123810712664
 20
22.141977175628348
 30
0.0
 70
0
  0
VERTEX
  8
0
 10
34.20130790333405
 20
22.24658485478926
 30
0.0
 70
0
  0
VERTEX
  8
0
 10
34.13317267847526
 20
22.35098483068225
 30
0.0
 70
0
  0
VERTEX
  8
0
 10
34.06471877227479
 20
22.45517612858621
 30
0.0
 70
0
  0
VERTEX
  8
0
 10
33.99594682384643
 20
22.559157775728313
 30
0.0
 70
0
  0
SEQEND
  8
0
  0
POLYLINE
  8
0
 66
1
 10
0.0
 20
0.0
 30
0.0
 70
0
  0
VERTEX
  8
0
 10
50.88734048467002
 20
31.788025707760916
 30
0.0
 70
0
  0
VERTEX
  8
0
 10
50.513025493293455
 20
32.379534516633974
 30
0.0
 70
0
  0
VERTEX
  8
0
 10
50.13183519669535
 20
32.96663616160105
 30
0.0
 70
0
  0
VERTEX
  8
0
 10
49.74382147851581
 20
33.54925073252091
 30
0.0
 70
0
  0
VERTEX
  8
0
 10
49.34903715112782
 20
34.12729892998582
 30
0.0
 70
0
  0
VERTEX
  8
0
 10
48.94753594844894
 20
34.70070207611518
 30
0.0
 70
0
  0
VERTEX
  8
0
 10
48.5393725186276
 20
35.269382125264165
 30
0.0
 70
0
  0
VERTEX
  8
0
 10
48.124602416604965
 20
35.83326167464664
 30
0.0
 70
0
  0
VERTEX
  8
0
 10
47.70328209655345
 20
36.39226397487028
 30
0.0
 70
0
  0
VERTEX
  8
0
 10
47.27546890419265
 20
36.94631294038296
 30
0.0
 70
0
  0
SEQEND
  8
0
  0
POLYLINE
  8
0
 66
1
 10
0.0
 20
0.0
 30
0.0
 70
0
  0
VERTEX
  8
0
 10
32.8259727378969
 20
24.2300539374317
 30
0.0
 70
0
  0
VERTEX
  8
0
 10
32.751783343202796
 20
24.330242247867282
 30
0.0
 70
0
  0
VERTEX
  8
0
 10
32.67728816438607
 20
24.430203401152347
 30
0.0
 70
0
  0
VERTEX
  8
0
 10
32.6024878969644
 20
24.529936464008458
 30
0.0
 70
0
  0
VERTEX
  8
0
 10
32.527383239303845
 20
24.62944050528672
 30
0.0
 70
0
  0
VERTEX
  8
0
 10
32.45197489261237
 20
24.728714595976452
 30
0.0
 70
0
  0
VERTEX
  8
0
 10
32.37626356093333
 20
24.82775780921391
 30
0.0
 70
0
  0
VERTEX
  8
0
 10
32.30024995113886
 20
24.926569220290908
 30
0.0
 70
0
  0
VERTEX
  8
0
 10
32.22393477292329
 20
25.02514790666347
 30
0.0
 70
0
  0
VERTEX
  8
0
 10
32.147318738796535
 20
25.12349294796044
 30
0.0
 70
0
  0
SEQEND
  8
0
  0
POLYLINE
  8
0
 66
1
 10
0.0
 20
0.0
 30
0.0
 70
0
  0
VERTEX
  8
0
 10
32.18232621362441
 20
23.754954840619398
 30
0.0
 70
0
  0
VERTEX
  8
0
 10
31.85055880706583
 20
24.19797313160018
 30
0.0
 70
0
  0
VERTEX
  8
0
 10
31.512693316043713
 20
24.63635849651843
 30
0.0
 70
0
  0
VERTEX
  8
0
 10
31.168794428035408
 20
25.070027002436
 30
0.0
 70
0
  0
VERTEX
  8
0
 10
30.818927985668
 20
25.49889561950106
 30
0.0
 70
0
  0
VERTEX
  8
0
 10
30.46316097411213
 20
25.922882236844963
 30
0.0
 70
0
  0
VERTEX
  8
0
 10
30.101561508257028
 20
26.34190567830312
 30
0.0
 70
0
  0
VERTEX
  8
0
 10
29.73419881966937
 20
26.75588571795693
 30
0.0
 70
0
  0
VERTEX
  8
0
 10
29.361143243338162
 20
27.16474309549378
 30
0.0
 70
0
  0
VERTEX
  8
0
 10
28.98246620420849
 20
27.568399531382163
 30
0.0
 70
0
  0
SEQEND
  8
0
  0
POLYLINE
  8
0
 66
1
 10
0.0
 20
0.0
 30
0.0
 70
0
  0
VERTEX
  8
0
 10
14.00000000000001
 20
4.3368086899420177e-16
 30
0.0
 70
0
  0
VERTEX
  8
0
 10
13.90533701965917
 20
1.62530070131532
 30
0.0
 70
0
  0
VERTEX
  8
0
 10
13.622628232900551
 20
3.228622001439706
 30
0.0
 70
0
  0
VERTEX
  8
0
 10
13.15569679062743
 20
4.788281732842629
 30
0.0
 70
0
  0
VERTEX
  8
0
 10
12.51085713883133
 20
6.283188175739491
 30
0.0
 70
0
  0
VERTEX
  8
0
 10
11.69682962655235
 20
7.69312528738525
 30
0.0
 70
0
  0
VERTEX
  8
0
 10
10.72462257813219
 20
8.999026089339685
 30
0.0
 70
0
  0
VERTEX
  8
0
 10
9.607383424529678
 20
10.18323051561102
 30
0.0
 70
0
  0
VERTEX
  8
0
 10
8.360220906892447
 20
11.22972423472445
 30
0.0
 70
0
  0
VERTEX
  8
0
 10
7.000000756776058
 20
12.124355216057221
 30
0.0
 70
0
  0
SEQEND
  8
0
  0
POLYLINE
  8
0
 66
1
 10
0.0
 20
0.0
 30
0.0
 70
0
  0
VERTEX
  8
0
 10
26.99802304417871
 20
4.384187354057253
 30
0.0
 70
0
  0
VERTEX
  8
0
 10
26.84199356738117
 20
5.255637770827474
 30
0.0
 70
0
  0
VERTEX
  8
0
 10
26.657842752000708
 20
6.121582055243873
 30
0.0
 70
0
  0
VERTEX
  8
0
 10
26.445763525862038
 20
6.981112990323658
 30
0.0
 70
0
  0
VERTEX
  8
0
 10
26.20597807632652
 20
7.833330078106902
 30
0.0
 70
0
  0
VERTEX
  8
0
 10
25.93873761751492
 20
8.677340483074094
 30
0.0
 70
0
  0
VERTEX
  8
0
 10
25.64432212711991
 20
9.512259967536018
 30
0.0
 70
0
  0
VERTEX
  8
0
 10
25.32304005308401
 20
10.33721381801609
 30
0.0
 70
0
  0
VERTEX
  8
0
 10
24.975227990450428
 20
11.15133776165446
 30
0.0
 70
0
  0
VERTEX
  8
0
 10
24.6012503287252
 20
11.953778871673899
 30
0.0
 70
0
  0
SEQEND
  8
0
  0
POLYLINE
  8
0
 66
1
 10
0.0
 20
0.0
 30
0.0
 70
0
  0
VERTEX
  8
0
 10
36.8724284395618
 20
1.426191070436746
 30
0.0
 70
0
  0
VERTEX
  8
0
 10
36.84963917223114
 20
1.9271981933281759
 30
0.0
 70
0
  0
VERTEX
  8
0
 10
36.82004274486876
 20
2.4278493087576742
 30
0.0
 70
0
  0
VERTEX
  8
0
 10
36.78364462476343
 20
2.928051932447528
 30
0.0
 70
0
  0
VERTEX
  8
0
 10
36.74045153566696
 20
3.4277136629690013
 30
0.0
 70
0
  0
VERTEX
  8
0
 10
36.69047145655218
 20
3.9267421988114894
 30
0.0
 70
0
  0
VERTEX
  8
0
 10
36.63371362013898
 20
4.425045355433147
 30
0.0
 70
0
  0
VERTEX
  8
0
 10
36.5701885111888
 20
4.922531082289992
 30
0.0
 70
0
  0
VERTEX
  8
0
 10
36.49990786456777
 20
5.419107479840205
 30
0.0
 70
0
  0
VERTEX
  8
0
 10
36.42288466307897
 20
5.9146828165205445
 30
0.0
 70
0
  0
SEQEND
  8
0
  0
POLYLINE
  8
0
 66
1
 10
0.0
 20
0.0
 30
0.0
 70
0
  0
VERTEX
  8
0
 10
23.3342307546439
 20
0.9025462370164189
 30
0.0
 70
0
  0
VERTEX
  8
0
 10
23.31980886693196
 20
1.219601996835198
 30
0.0
 70
0
  0
VERTEX
  8
0
 10
23.30107915763935
 20
1.536432462020061
 30
0.0
 70
0
  0
VERTEX
  8
0
 10
23.27804508666774
 20
1.8529791051137978
 30
0.0
 70
0
  0
VERTEX
  8
0
 10
23.25071090905494
 20
2.1691834510891037
 30
0.0
 70
0
  0
VERTEX
  8
0
 10
23.2190816741888
 20
2.4849870881505254
 30
0.0
 70
0
  0
VERTEX
  8
0
 10
23.183163224874548
 20
2.800331678524772
 30
0.0
 70
0
  0
VERTEX
  8
0
 10
23.142962196255368
 20
3.115158969237313
 30
0.0
 70
0
  0
VERTEX
  8
0
 10
23.09848601458676
 20
3.429410802873363
 30
0.0
 70
0
  0
VERTEX
  8
0
 10
23.04974289586465
 20
3.743029128321168
 30
0.0
 70
0
  0
SEQEND
  8
0
  0
POLYLINE
  8
0
 66
1
 10
0.0
 20
0.0
 30
0.0
 70
0
  0
VERTEX
  8
0
 10
23.049742868573897
 20
3.743029296378868
 30
0.0
 70
0
  0
VERTEX
  8
0
 10
22.91653165847098
 20
4.4870359222120255
 30
0.0
 70
0
  0
VERTEX
  8
0
 10
22.759311667340057
 20
5.2263416506962
 30
0.0
 70
0
  0
VERTEX
  8
0
 10
22.57824760860274
 20
5.9601719392604515
 30
0.0
 70
0
  0
VERTEX
  8
0
 10
22.37352917620586
 20
6.687757981744554
 30
0.0
 70
0
  0
VERTEX
  8
0
 10
22.145370845886358
 20
7.408337513848087
 30
0.0
 70
0
  0
VERTEX
  8
0
 10
21.89401165047321
 20
8.121155611725783
 30
0.0
 70
0
  0
VERTEX
  8
0
 10
21.61971492946178
 20
8.825465482892653
 30
0.0
 70
0
  0
VERTEX
  8
0
 10
21.32276805312297
 20
9.520529248610123
 30
0.0
 70
0
  0
VERTEX
  8
0
 10
21.00348212143636
 20
10.2056187169336
 30
0.0
 70
0
  0
SEQEND
  8
0
  0
POLYLINE
  8
0
 66
1
 10
0.0
 20
0.0
 30
0.0
 70
0
  0
VERTEX
  8
0
 10
24.60125012115861
 20
11.953779298852401
 30
0.0
 70
0
  0
VERTEX
  8
0
 10
24.54268604350862
 20
12.07356239140904
 30
0.0
 70
0
  0
VERTEX
  8
0
 10
24.48353874819379
 20
12.19305857507349
 30
0.0
 70
0
  0
VERTEX
  8
0
 10
24.423809640754982
 20
12.31226501021015
 30
0.0
 70
0
  0
VERTEX
  8
0
 10
24.363500140558838
 20
12.4311788640688
 30
0.0
 70
0
  0
VERTEX
  8
0
 10
24.30261168076415
 20
12.54979731085199
 30
0.0
 70
0
  0
VERTEX
  8
0
 10
24.24114570828773
 20
12.66811753178212
 30
0.0
 70
0
  0
VERTEX
  8
0
 10
24.17910368377008
 20
12.78613671516845
 30
0.0
 70
0
  0
VERTEX
  8
0
 10
24.11648708154063
 20
12.90385205647393
 30
0.0
 70
0
  0
VERTEX
  8
0
 10
24.05329738958275
 20
13.02126075838181
 30
0.0
 70
0
  0
SEQEND
  8
0
  0
POLYLINE
  8
0
 66
1
 10
0.0
 20
0.0
 30
0.0
 70
0
  0
VERTEX
  8
0
 10
21.003481944225
 20
10.2056190816401
 30
0.0
 70
0
  0
VERTEX
  8
0
 10
20.95348247096879
 20
10.307884698604541
 30
0.0
 70
0
  0
VERTEX
  8
0
 10
20.90298507172782
 20
10.409905365182011
 30
0.0
 70
0
  0
VERTEX
  8
0
 10
20.85199094649199
 20
10.51167865701464
 30
0.0
 70
0
  0
VERTEX
  8
0
 10
20.80050130705511
 20
10.61320215562296
 30
0.0
 70
0
  0
VERTEX
  8
0
 10
20.74851737698606
 20
10.71447344846349
 30
0.0
 70
0
  0
VERTEX
  8
0
 10
20.69604039159976
 20
10.81549012898597
 30
0.0
 70
0
  0
VERTEX
  8
0
 10
20.64307159792781
 20
10.916249796690629
 30
0.0
 70
0
  0
VERTEX
  8
0
 10
20.58961225468884
 20
11.016750057185181
 30
0.0
 70
0
  0
VERTEX
  8
0
 10
20.535663632258608
 20
11.11698852224174
 30
0.0
 70
0
  0
SEQEND
  8
0
  0
POLYLINE
  8
0
 66
1
 10
0.0
 20
0.0
 30
0.0
 70
0
  0
VERTEX
  8
0
 10
34.374296431461424
 20
1.329565659160548
 30
0.0
 70
0
  0
VERTEX
  8
0
 10
34.353051152432315
 20
1.79662921004036
 30
0.0
 70
0
  0
VERTEX
  8
0
 10
34.32545990307552
 20
2.263360873204992
 30
0.0
 70
0
  0
VERTEX
  8
0
 10
34.29152778026731
 20
2.72967443024919
 30
0.0
 70
0
  0
VERTEX
  8
0
 10
34.25126105222075
 20
3.19548374000363
 30
0.0
 70
0
  0
VERTEX
  8
0
 10
34.20466715732783
 20
3.6607027544475708
 30
0.0
 70
0
  0
VERTEX
  8
0
 10
34.15175470278543
 20
4.1252455346043515
 30
0.0
 70
0
  0
VERTEX
  8
0
 10
34.092533463005324
 20
4.589026266416692
 30
0.0
 70
0
  0
VERTEX
  8
0
 10
34.02701437780847
 20
5.051959276599001
 30
0.0
 70
0
  0
VERTEX
  8
0
 10
33.955209550404255
 20
5.5139590484636
 30
0.0
 70
0
  0
SEQEND
  8
0
  0
POLYLINE
  8
0
 66
1
 10
0.0
 20
0.0
 30
0.0
 70
0
  0
VERTEX
  8
0
 10
27.3312419676046
 20
1.0571468950583431
 30
0.0
 70
0
  0
VERTEX
  8
0
 10
27.31434969861018
 20
1.428512370095708
 30
0.0
 70
0
  0
VERTEX
  8
0
 10
27.29241170450861
 20
1.799613958904361
 30
0.0
 70
0
  0
VERTEX
  8
0
 10
27.265432037861608
 20
2.1703831086311474
 30
0.0
 70
0
  0
VERTEX
  8
0
 10
27.23341568256896
 20
2.54075132783371
 30
0.0
 70
0
  0
VERTEX
  8
0
 10
27.196368552947828
 20
2.910650199132803
 30
0.0
 70
0
  0
VERTEX
  8
0
 10
27.15429749264027
 20
3.280011391850859
 30
0.0
 70
0
  0
VERTEX
  8
0
 10
27.10721027334898
 20
3.6487666746346057
 30
0.0
 70
0
  0
VERTEX
  8
0
 10
27.05511559340167
 20
4.016847928059301
 30
0.0
 70
0
  0
VERTEX
  8
0
 10
26.9980230761442
 20
4.384187157212291
 30
0.0
 70
0
  0
SEQEND
  8
0
  0
POLYLINE
  8
0
 66
1
 10
0.0
 20
0.0
 30
0.0
 70
0
  0
VERTEX
  8
0
 10
23.30339133829911
 20
14.3201361440305
 30
0.0
 70
0
  0
VERTEX
  8
0
 10
23.23330726609705
 20
14.43356437366054
 30
0.0
 70
0
  0
VERTEX
  8
0
 10
23.16267109152177
 20
14.54664961272736
 30
0.0
 70
0
  0
VERTEX
  8
0
 10
23.091484493128938
 20
14.659389173941179
 30
0.0
 70
0
  0
VERTEX
  8
0
 10
23.01974916255417
 20
14.77178037822674
 30
0.0
 70
0
  0
VERTEX
  8
0
 10
22.94746680447281
 20
14.88382055478687
 30
0.0
 70
0
  0
VERTEX
  8
0
 10
22.87463913655944
 20
14.99550704116606
 30
0.0
 70
0
  0
VERTEX
  8
0
 10
22.80126788944707
 20
15.106837183313651
 30
0.0
 70
0
  0
VERTEX
  8
0
 10
22.72735480668599
 20
15.217808335646959
 30
0.0
 70
0
  0
VERTEX
  8
0
 10
22.65290164470234
 20
15.32841786111409
 30
0.0
 70
0
  0
SEQEND
  8
0
  0
POLYLINE
  8
0
 66
1
 10
0.0
 20
0.0
 30
0.0
 70
0
  0
VERTEX
  8
0
 10
23.3337081143952
 20
28.5858018189486
 30
0.0
 70
0
  0
VERTEX
  8
0
 10
22.94303888637841
 20
28.90029353930731
 30
0.0
 70
0
  0
VERTEX
  8
0
 10
22.54813143674475
 20
29.20944656632994
 30
0.0
 70
0
  0
VERTEX
  8
0
 10
22.14905871595636
 20
29.51320379079708
 30
0.0
 70
0
  0
VERTEX
  8
0
 10
21.74589444391761
 20
29.81150910024509
 30
0.0
 70
0
  0
VERTEX
  8
0
 10
21.33871309635687
 20
30.104307389331698
 30
0.0
 70
0
  0
VERTEX
  8
0
 10
20.927589891068887
 20
30.39154457001544
 30
0.0
 70
0
  0
VERTEX
  8
0
 10
20.51260077401985
 20
30.6731675815473
 30
0.0
 70
0
  0
VERTEX
  8
0
 10
20.09382240531809
 20
30.94912440027247
 30
0.0
 70
0
  0
VERTEX
  8
0
 10
19.67133214505282
 20
31.21936404924058
 30
0.0
 70
0
  0
SEQEND
  8
0
  0
POLYLINE
  8
0
 66
1
 10
0.0
 20
0.0
 30
0.0
 70
0
  0
VERTEX
  8
0
 10
19.8954263219418
 20
12.2259120759601
 30
0.0
 70
0
  0
VERTEX
  8
0
 10
19.83559157623483
 20
12.322752186168609
 30
0.0
 70
0
  0
VERTEX
  8
0
 10
19.77528546943157
 20
12.41929946588817
 30
0.0
 70
0
  0
VERTEX
  8
0
 10
19.71450943461015
 20
12.51555162082716
 30
0.0
 70
0
  0
VERTEX
  8
0
 10
19.653264916015782
 20
12.61150636370711
 30
0.0
 70
0
  0
VERTEX
  8
0
 10
19.59155336902648
 20
12.70716141431711
 30
0.0
 70
0
  0
VERTEX
  8
0
 10
19.52937626011841
 20
12.802514499567911
 30
0.0
 70
0
  0
VERTEX
  8
0
 10
19.46673506683107
 20
12.897563353546019
 30
0.0
 70
0
  0
VERTEX
  8
0
 10
19.403631277732188
 20
12.992305717567499
 30
0.0
 70
0
  0
VERTEX
  8
0
 10
19.34006639238237
 20
13.086739340231661
 30
0.0
 70
0
  0
SEQEND
  8
0
  0
POLYLINE
  8
0
 66
1
 10
0.0
 20
0.0
 30
0.0
 70
0
  0
VERTEX
  8
0
 10
19.340066358160097
 20
13.086739390806601
 30
0.0
 70
0
  0
VERTEX
  8
0
 10
18.906404451319432
 20
13.70579386041007
 30
0.0
 70
0
  0
VERTEX
  8
0
 10
18.452935021627418
 20
14.31048928962674
 30
0.0
 70
0
  0
VERTEX
  8
0
 10
17.98013315180614
 20
14.900192161990631
 30
0.0
 70
0
  0
VERTEX
  8
0
 10
17.48849417844191
 20
15.47428466816894
 30
0.0
 70
0
  0
VERTEX
  8
0
 10
16.978533173039967
 20
16.03216535321743
 30
0.0
 70
0
  0
VERTEX
  8
0
 10
16.45078440240362
 20
16.57324974670197
 30
0.0
 70
0
  0
VERTEX
  8
0
 10
15.90580076890311
 20
17.09697097502607
 30
0.0
 70
0
  0
VERTEX
  8
0
 10
15.34415323122081
 20
17.60278035532278
 30
0.0
 70
0
  0
VERTEX
  8
0
 10
14.766430206179491
 20
18.09014797028897
 30
0.0
 70
0
  0
SEQEND
  8
0
  0
POLYLINE
  8
0
 66
1
 10
0.0
 20
0.0
 30
0.0
 70
0
  0
VERTEX
  8
0
 10
22.65290160461799
 20
15.3284179203522
 30
0.0
 70
0
  0
VERTEX
  8
0
 10
22.1449560617534
 20
16.05351263968388
 30
0.0
 70
0
  0
VERTEX
  8
0
 10
21.61381008834877
 20
16.761788702709268
 30
0.0
 70
0
  0
VERTEX
  8
0
 10
21.06002014589483
 20
17.452504075461
 30
0.0
 70
0
  0
VERTEX
  8
0
 10
20.484166419109847
 20
18.12493512164087
 30
0.0
 70
0
  0
VERTEX
  8
0
 10
19.88685220810211
 20
18.77837736074613
 30
0.0
 70
0
  0
VERTEX
  8
0
 10
19.26870329631521
 20
19.41214620612697
 30
0.0
 70
0
  0
VERTEX
  8
0
 10
18.63036729491855
 20
20.02557768220203
 30
0.0
 70
0
  0
VERTEX
  8
0
 10
17.97251296432963
 20
20.618029120080358
 30
0.0
 70
0
  0
VERTEX
  8
0
 10
17.29582951357917
 20
21.18887983086134
 30
0.0
 70
0
  0
SEQEND
  8
0
  0
POLYLINE
  8
0
 66
1
 10
0.0
 20
0.0
 30
0.0
 70
0
  0
VERTEX
  8
0
 10
14.766429892060401
 20
18.09014822669471
 30
0.0
 70
0
  0
VERTEX
  8
0
 10
14.519200015942399
 20
18.28917017029421
 30
0.0
 70
0
  0
VERTEX
  8
0
 10
14.2692880370885
 20
18.484813592122723
 30
0.0
 70
0
  0
VERTEX
  8
0
 10
14.01674012123796
 20
18.677042351362818
 30
0.0
 70
0
  0
VERTEX
  8
0
 10
13.76160292106139
 20
18.865820937980867
 30
0.0
 70
0
  0
VERTEX
  8
0
 10
13.50392356754274
 20
19.051114479286692
 30
0.0
 70
0
  0
VERTEX
  8
0
 10
13.24374966127282
 20
19.232888746375558
 30
0.0
 70
0
  0
VERTEX
  8
0
 10
12.98112926365619
 20
19.41111016045121
 30
0.0
 70
0
  0
VERTEX
  8
0
 10
12.71611088803286
 20
19.585745799028842
 30
0.0
 70
0
  0
VERTEX
  8
0
 10
12.4487434907165
 20
19.75676340201672
 30
0.0
 70
0
  0
SEQEND
  8
0
  0
POLYLINE
  8
0
 66
1
 10
0.0
 20
0.0
 30
0.0
 70
0
  0
VERTEX
  8
0
 10
21.75283358089961
 20
26.64909437864051
 30
0.0
 70
0
  0
VERTEX
  8
0
 10
21.38863245776199
 20
26.94227907187462
 30
0.0
 70
0
  0
VERTEX
  8
0
 10
21.020480255393473
 20
27.23048677186317
 30
0.0
 70
0
  0
VERTEX
  8
0
 10
20.64844498181297
 20
27.51366423857507
 30
0.0
 70
0
  0
VERTEX
  8
0
 10
20.272595362351367
 20
27.79175916120409
 30
0.0
 70
0
  0
VERTEX
  8
0
 10
19.89300082695599
 20
28.064720167832238
 30
0.0
 70
0
  0
VERTEX
  8
0
 10
19.50973149736502
 20
28.33249683491952
 30
0.0
 70
0
  0
VERTEX
  8
0
 10
19.122858174154
 20
28.5950396966186
 30
0.0
 70
0
  0
VERTEX
  8
0
 10
18.732452323656968
 20
28.85230025391252
 30
0.0
 70
0
  0
VERTEX
  8
0
 10
18.3385860647647
 20
29.10423098357385
 30
0.0
 70
0
  0
SEQEND
  8
0
  0
POLYLINE
  8
0
 66
1
 10
0.0
 20
0.0
 30
0.0
 70
0
  0
VERTEX
  8
0
 10
17.2958291456534
 20
21.1888801311878
 30
0.0
 70
0
  0
VERTEX
  8
0
 10
17.00625030172869
 20
21.421993318186587
 30
0.0
 70
0
  0
VERTEX
  8
0
 10
16.71352992725053
 20
21.65114926326957
 30
0.0
 70
0
  0
VERTEX
  8
0
 10
16.41772209586737
 20
21.87630563491801
 30
0.0
 70
0
  0
VERTEX
  8
0
 10
16.11888145156737
 20
22.09742084044641
 30
0.0
 70
0
  0
VERTEX
  8
0
 10
15.817063198584142
 20
22.314454033685728
 30
0.0
 70
0
  0
VERTEX
  8
0
 10
15.51232309119901
 20
22.527365122528938
 30
0.0
 70
0
  0
VERTEX
  8
0
 10
15.20471742344158
 20
22.736114776337057
 30
0.0
 70
0
  0
VERTEX
  8
0
 10
14.8943030186907
 20
22.94066443320468
 30
0.0
 70
0
  0
VERTEX
  8
0
 10
14.58113721917759
 20
23.14097630708345
 30
0.0
 70
0
  0
SEQEND
  8
0
  0
POLYLINE
  8
0
 66
1
 10
0.0
 20
0.0
 30
0.0
 70
0
  0
VERTEX
  8
0
 10
29.5621153195669
 20
28.1197677414418
 30
0.0
 70
0
  0
VERTEX
  8
0
 10
29.40543899633014
 20
28.28356691496154
 30
0.0
 70
0
  0
VERTEX
  8
0
 10
29.24785510025819
 20
28.446493141234463
 30
0.0
 70
0
  0
VERTEX
  8
0
 10
29.08936849503849
 20
28.608541391686853
 30
0.0
 70
0
  0
VERTEX
  8
0
 10
28.92998407221974
 20
28.76970666484295
 30
0.0
 70
0
  0
VERTEX
  8
0
 10
28.76970675106103
 20
28.929983986479332
 30
0.0
 70
0
  0
VERTEX
  8
0
 10
28.60854147837993
 20
29.089368409778388
 30
0.0
 70
0
  0
VERTEX
  8
0
 10
28.446493228399877
 20
29.24785501548104
 30
0.0
 70
0
  0
VERTEX
  8
0
 10
28.283567002596588
 20
29.40543891203854
 30
0.0
 70
0
  0
VERTEX
  8
0
 10
28.119767829543772
 20
29.56211523576346
 30
0.0
 70
0
  0
SEQEND
  8
0
  0
POLYLINE
  8
0
 66
1
 10
0.0
 20
0.0
 30
0.0
 70
0
  0
VERTEX
  8
0
 10
37.459224351101895
 20
33.71893401360451
 30
0.0
 70
0
  0
VERTEX
  8
0
 10
37.06329645596063
 20
34.15365362325939
 30
0.0
 70
0
  0
VERTEX
  8
0
 10
36.66232389217865
 20
34.58372459445321
 30
0.0
 70
0
  0
VERTEX
  8
0
 10
36.256361235951644
 20
35.00908839041921
 30
0.0
 70
0
  0
VERTEX
  8
0
 10
35.84546374267447
 20
35.42968711508207
 30
0.0
 70
0
  0
VERTEX
  8
0
 10
35.42968733942046
 20
35.84546352093822
 30
0.0
 70
0
  0
VERTEX
  8
0
 10
35.009088617329205
 20
36.2563610168477
 30
0.0
 70
0
  0
VERTEX
  8
0
 10
34.58372482390391
 20
36.66232367573683
 30
0.0
 70
0
  0
VERTEX
  8
0
 10
34.153653855219545
 20
37.06329624221039
 30
0.0
 70
0
  0
VERTEX
  8
0
 10
33.7189342480426
 20
37.45922414007237
 30
0.0
 70
0
  0
SEQEND
  8
0
  0
POLYLINE
  8
0
 66
1
 10
0.0
 20
0.0
 30
0.0
 70
0
  0
VERTEX
  8
0
 10
24.230053937431688
 20
32.8259727378969
 30
0.0
 70
0
  0
VERTEX
  8
0
 10
24.047314451609658
 20
32.96007687590256
 30
0.0
 70
0
  0
VERTEX
  8
0
 10
23.86383276672173
 20
33.09316373032263
 30
0.0
 70
0
  0
VERTEX
  8
0
 10
23.67961454576762
 20
33.22522919354919
 30
0.0
 70
0
  0
VERTEX
  8
0
 10
23.4946654744796
 20
33.356269189498704
 30
0.0
 70
0
  0
VERTEX
  8
0
 10
23.30899126114699
 20
33.48627967373768
 30
0.0
 70
0
  0
VERTEX
  8
0
 10
23.12259763643993
 20
33.61525663360769
 30
0.0
 70
0
  0
VERTEX
  8
0
 10
22.93549035323262
 20
33.743196088349066
 30
0.0
 70
0
  0
VERTEX
  8
0
 10
22.747675186425642
 20
33.87009408922384
 30
0.0
 70
0
  0
VERTEX
  8
0
 10
22.55915793276782
 20
33.99594671963757
 30
0.0
 70
0
  0
SEQEND
  8
0
  0
POLYLINE
  8
0
 66
1
 10
0.0
 20
0.0
 30
0.0
 70
0
  0
VERTEX
  8
0
 10
31.034903118455
 20
39.711393685290304
 30
0.0
 70
0
  0
VERTEX
  8
0
 10
30.5695019896734
 20
40.07075676978606
 30
0.0
 70
0
  0
VERTEX
  8
0
 10
30.09994005970047
 20
40.42466584156806
 30
0.0
 70
0
  0
VERTEX
  8
0
 10
29.626281240399692
 20
40.773072730231455
 30
0.0
 70
0
  0
VERTEX
  8
0
 10
29.1485900012603
 20
41.11593001427099
 30
0.0
 70
0
  0
VERTEX
  8
0
 10
28.66693136062239
 20
41.4531910275357
 30
0.0
 70
0
  0
VERTEX
  8
0
 10
28.181370876827298
 20
41.78480986558049
 30
0.0
 70
0
  0
VERTEX
  8
0
 10
27.691974639294447
 20
42.11074139191419
 30
0.0
 70
0
  0
VERTEX
  8
0
 10
27.19880925952606
 20
42.430941244143064
 30
0.0
 70
0
  0
VERTEX
  8
0
 10
26.701941862040538
 20
42.74536584000901
 30
0.0
 70
0
  0
SEQEND
  8
0
  0
POLYLINE
  8
0
 66
1
 10
0.0
 20
0.0
 30
0.0
 70
0
  0
VERTEX
  8
0
 10
40.72093245885861
 20
2.538830376585512
 30
0.0
 70
0
  0
VERTEX
  8
0
 10
40.70619951129019
 20
2.765017422555644
 30
0.0
 70
0
  0
VERTEX
  8
0
 10
40.69021020292048
 20
2.991119128711541
 30
0.0
 70
0
  0
VERTEX
  8
0
 10
40.672965027245326
 20
3.21712851662425
 30
0.0
 70
0
  0
VERTEX
  8
0
 10
40.6544645165218
 20
3.443038610714173
 30
0.0
 70
0
  0
VERTEX
  8
0
 10
40.634709241751786
 20
3.668842438466295
 30
0.0
 70
0
  0
VERTEX
  8
0
 10
40.61369981266434
 20
3.89453303064543
 30
0.0
 70
0
  0
VERTEX
  8
0
 10
40.591436877696886
 20
4.120103421511305
 30
0.0
 70
0
  0
VERTEX
  8
0
 10
40.5679211239752
 20
4.3455466490335475
 30
0.0
 70
0
  0
VERTEX
  8
0
 10
40.543153277292205
 20
4.570855755106597
 30
0.0
 70
0
  0
SEQEND
  8
0
  0
POLYLINE
  8
0
 66
1
 10
0.0
 20
0.0
 30
0.0
 70
0
  0
VERTEX
  8
0
 10
50.36954365349171
 20
1.7518767476605759
 30
0.0
 70
0
  0
VERTEX
  8
0
 10
50.34567766831686
 20
2.339388834277643
 30
0.0
 70
0
  0
VERTEX
  8
0
 10
50.314959155557744
 20
2.926582507730757
 30
0.0
 70
0
  0
VERTEX
  8
0
 10
50.27739229629741
 20
3.5133778453526747
 30
0.0
 70
0
  0
VERTEX
  8
0
 10
50.232982203744164
 20
4.099694978693428
 30
0.0
 70
0
  0
VERTEX
  8
0
 10
50.18173492253576
 20
4.685454104391218
 30
0.0
 70
0
  0
VERTEX
  8
0
 10
50.123657427916626
 20
5.2705754950344526
 30
0.0
 70
0
  0
VERTEX
  8
0
 10
50.05875762478852
 20
5.854979510013337
 30
0.0
 70
0
  0
VERTEX
  8
0
 10
49.98704434663449
 20
6.4385866063597526
 30
0.0
 70
0
  0
VERTEX
  8
0
 10
49.90852735431662
 20
7.021317349573857
 30
0.0
 70
0
  0
SEQEND
  8
0
  0
POLYLINE
  8
0
 66
1
 10
0.0
 20
0.0
 30
0.0
 70
0
  0
VERTEX
  8
0
 10
39.661426727070904
 20
9.571375552823293
 30
0.0
 70
0
  0
VERTEX
  8
0
 10
39.60764063773625
 20
9.79156795982869
 30
0.0
 70
0
  0
VERTEX
  8
0
 10
39.552632093647105
 20
10.01145815875975
 30
0.0
 70
0
  0
VERTEX
  8
0
 10
39.4964027925935
 20
10.2310393629002
 30
0.0
 70
0
  0
VERTEX
  8
0
 10
39.438954470043015
 20
10.45030479507064
 30
0.0
 70
0
  0
VERTEX
  8
0
 10
39.38028889908726
 20
10.66924768783763
 30
0.0
 70
0
  0
VERTEX
  8
0
 10
39.320407890387116
 20
10.8878612837227
 30
0.0
 70
0
  0
VERTEX
  8
0
 10
39.259313292116886
 20
11.10613883541079
 30
0.0
 70
0
  0
VERTEX
  8
0
 10
39.19700698990723
 20
11.32407360595856
 30
0.0
 70
0
  0
VERTEX
  8
0
 10
39.133490906787024
 20
11.541658869002301
 30
0.0
 70
0
  0
SEQEND
  8
0
  0
POLYLINE
  8
0
 66
1
 10
0.0
 20
0.0
 30
0.0
 70
0
  0
VERTEX
  8
0
 10
49.30010690091718
 20
10.471841268761699
 30
0.0
 70
0
  0
VERTEX
  8
0
 10
49.17458309048534
 20
11.04628344181672
 30
0.0
 70
0
  0
VERTEX
  8
0
 10
49.04236614962647
 20
11.61922211019181
 30
0.0
 70
0
  0
VERTEX
  8
0
 10
48.903474074329054
 20
12.19057929146206
 30
0.0
 70
0
  0
VERTEX
  8
0
 10
48.7579257691311
 20
12.76027721845803
 30
0.0
 70
0
  0
VERTEX
  8
0
 10
48.605741044547045
 20
13.32823834985064
 30
0.0
 70
0
  0
VERTEX
  8
0
 10
48.4469406143715
 20
13.894385380705309
 30
0.0
 70
0
  0
VERTEX
  8
0
 10
48.28154609285966
 20
14.45864125300384
 30
0.0
 70
0
  0
VERTEX
  8
0
 10
48.10957999178561
 20
15.02092916613277
 30
0.0
 70
0
  0
VERTEX
  8
0
 10
47.931065717378175
 20
15.58117258733671
 30
0.0
 70
0
  0
SEQEND
  8
0
  0
POLYLINE
  8
0
 66
1
 10
0.0
 20
0.0
 30
0.0
 70
0
  0
VERTEX
  8
0
 10
37.3968286138315
 20
16.313099326238202
 30
0.0
 70
0
  0
VERTEX
  8
0
 10
37.305623645837905
 20
16.52060665941473
 30
0.0
 70
0
  0
VERTEX
  8
0
 10
37.213267272805794
 20
16.72760409869624
 30
0.0
 70
0
  0
VERTEX
  8
0
 10
37.11976234523284
 20
16.93408525529006
 30
0.0
 70
0
  0
VERTEX
  8
0
 10
37.02511174906582
 20
17.140043756338148
 30
0.0
 70
0
  0
VERTEX
  8
0
 10
36.92931840561157
 20
17.345473245113748
 30
0.0
 70
0
  0
VERTEX
  8
0
 10
36.83238527144681
 20
17.5503673812176
 30
0.0
 70
0
  0
VERTEX
  8
0
 10
36.73431533832688
 20
17.75471984077364
 30
0.0
 70
0
  0
VERTEX
  8
0
 10
36.63511163309344
 20
17.95852431662415
 30
0.0
 70
0
  0
VERTEX
  8
0
 10
36.534777217581
 20
18.161774518524478
 30
0.0
 70
0
  0
SEQEND
  8
0
  0
POLYLINE
  8
0
 66
1
 10
0.0
 20
0.0
 30
0.0
 70
0
  0
VERTEX
  8
0
 10
46.73271134721611
 20
18.87362419191881
 30
0.0
 70
0
  0
VERTEX
  8
0
 10
46.50934368898918
 20
19.41754231666529
 30
0.0
 70
0
  0
VERTEX
  8
0
 10
46.27964566487359
 20
19.95881752844475
 30
0.0
 70
0
  0
VERTEX
  8
0
 10
46.043648538964284
 20
20.49737615453111
 30
0.0
 70
0
  0
VERTEX
  8
0
 10
45.80138443272407
 20
21.03314489195159
 30
0.0
 70
0
  0
VERTEX
  8
0
 10
45.55288632061172
 20
21.56605081746387
 30
0.0
 70
0
  0
VERTEX
  8
0
 10
45.29818802559368
 20
22.096021397481678
 30
0.0
 70
0
  0
VERTEX
  8
0
 10
45.03732421454056
 20
22.62298449794731
 30
0.0
 70
0
  0
VERTEX
  8
0
 10
44.770330393508566
 20
23.14686839414972
 30
0.0
 70
0
  0
VERTEX
  8
0
 10
44.4972429029068
 20
23.66760178048705
 30
0.0
 70
0
  0
SEQEND
  8
0
  0
POLYLINE
  8
0
 66
1
 10
0.0
 20
0.0
 30
0.0
 70
0
  0
VERTEX
  8
0
 10
33.9959467868691
 20
22.559157831452
 30
0.0
 70
0
  0
VERTEX
  8
0
 10
33.870094157017185
 20
22.747675085484882
 30
0.0
 70
0
  0
VERTEX
  8
0
 10
33.74319615670214
 20
22.93549025267004
 30
0.0
 70
0
  0
VERTEX
  8
0
 10
33.61525670251839
 20
23.12259753625865
 30
0.0
 70
0
  0
VERTEX
  8
0
 10
33.486279743203866
 20
23.30899116135009
 30
0.0
 70
0
  0
VERTEX
  8
0
 10
33.35626925951825
 20
23.49466537507017
 30
0.0
 70
0
  0
VERTEX
  8
0
 10
33.225229264119946
 20
23.67961444674872
 30
0.0
 70
0
  0
VERTEX
  8
0
 10
33.093163801442394
 20
23.86383266809642
 30
0.0
 70
0
  0
VERTEX
  8
0
 10
32.960076947569156
 20
24.04731435338098
 30
0.0
 70
0
  0
VERTEX
  8
0
 10
32.825972810108084
 20
24.23005383960268
 30
0.0
 70
0
  0
SEQEND
  8
0
  0
POLYLINE
  8
0
 66
1
 10
0.0
 20
0.0
 30
0.0
 70
0
  0
VERTEX
  8
0
 10
42.745366007122804
 20
26.7019415945192
 30
0.0
 70
0
  0
VERTEX
  8
0
 10
42.43094141436648
 20
27.19880899397254
 30
0.0
 70
0
  0
VERTEX
  8
0
 10
42.110741565224046
 20
27.69197437574489
 30
0.0
 70
0
  0
VERTEX
  8
0
 10
41.78481004195323
 20
28.18137061531755
 30
0.0
 70
0
  0
VERTEX
  8
0
 10
41.45319120694733
 20
28.666931101188087
 30
0.0
 70
0
  0
VERTEX
  8
0
 10
41.11593019669707
 20
29.148589743936743
 30
0.0
 70
0
  0
VERTEX
  8
0
 10
40.77307291564713
 20
29.6262809852219
 30
0.0
 70
0
  0
VERTEX
  8
0
 10
40.424666029948156
 20
30.09993980670318
 30
0.0
 70
0
  0
VERTEX
  8
0
 10
40.070756961104905
 20
30.56950173889104
 30
0.0
 70
0
  0
VERTEX
  8
0
 10
39.71139387952185
 20
31.034902869921723
 30
0.0
 70
0
  0
SEQEND
  8
0
  0
POLYLINE
  8
0
 66
1
 10
0.0
 20
0.0
 30
0.0
 70
0
  0
VERTEX
  8
0
 10
20.53566360318729
 20
11.1169885759432
 30
0.0
 70
0
  0
VERTEX
  8
0
 10
20.467541730115652
 20
11.24191487900961
 30
0.0
 70
0
  0
VERTEX
  8
0
 10
20.39865989167091
 20
11.36642376672893
 30
0.0
 70
0
  0
VERTEX
  8
0
 10
20.329020645454403
 20
11.49051061605239
 30
0.0
 70
0
  0
VERTEX
  8
0
 10
20.25862657719021
 20
11.614170819601659
 30
0.0
 70
0
  0
VERTEX
  8
0
 10
20.18748030062918
 20
11.73739978583983
 30
0.0
 70
0
  0
VERTEX
  8
0
 10
20.11558445745184
 20
11.860192939242001
 30
0.0
 70
0
  0
VERTEX
  8
0
 10
20.04294171717034
 20
11.982545720465088
 30
0.0
 70
0
  0
VERTEX
  8
0
 10
19.96955477702932
 20
12.10445358651715
 30
0.0
 70
0
  0
VERTEX
  8
0
 10
19.89542636190577
 20
12.22591201092608
 30
0.0
 70
0
  0
SEQEND
  8
0
  0
POLYLINE
  8
0
 66
1
 10
0.0
 20
0.0
 30
0.0
 70
0
  0
VERTEX
  8
0
 10
24.0532973555317
 20
13.021260821282
 30
0.0
 70
0
  0
VERTEX
  8
0
 10
23.97350662166156
 20
13.167586237068269
 30
0.0
 70
0
  0
VERTEX
  8
0
 10
23.89282574499145
 20
13.31342273680788
 30
0.0
 70
0
  0
VERTEX
  8
0
 10
23.8112577212242
 20
13.458764905552071
 30
0.0
 70
0
  0
VERTEX
  8
0
 10
23.72880557900263
 20
13.60360734670671
 30
0.0
 70
0
  0
VERTEX
  8
0
 10
23.645472379797127
 20
13.74794468223268
 30
0.0
 70
0
  0
VERTEX
  8
0
 10
23.561261217792
 20
13.89177155284559
 30
0.0
 70
0
  0
VERTEX
  8
0
 10
23.47617521977049
 20
14.03508261821476
 30
0.0
 70
0
  0
VERTEX
  8
0
 10
23.39021754499879
 20
14.17787255716145
 30
0.0
 70
0
  0
VERTEX
  8
0
 10
23.30339138510865
 20
14.320136067856549
 30
0.0
 70
0
  0
SEQEND
  8
0
  0
POLYLINE
  8
0
 66
1
 10
0.0
 20
0.0
 30
0.0
 70
0
  0
VERTEX
  8
0
 10
23.3516790535696
 20
-1.057097118173367e-15
 30
0.0
 70
0
  0
VERTEX
  8
0
 10
23.351463594835362
 20
0.1003075850656504
 30
0.0
 70
0
  0
VERTEX
  8
0
 10
23.35081727022388
 20
0.20061331924204548
 30
0.0
 70
0
  0
VERTEX
  8
0
 10
23.349740091660568
 20
0.3009153517763456
 30
0.0
 70
0
  0
VERTEX
  8
0
 10
23.34823207902059
 20
0.40121183198401145
 30
0.0
 70
0
  0
VERTEX
  8
0
 10
23.34629326012843
 20
0.5015009092829499
 30
0.0
 70
0
  0
VERTEX
  8
0
 10
23.34392367075749
 20
0.6017807332276607
 30
0.0
 70
0
  0
VERTEX
  8
0
 10
23.34112335462933
 20
0.7020494535433773
 30
0.0
 70
0
  0
VERTEX
  8
0
 10
23.33789236341291
 20
0.8023052201602084
 30
0.0
 70
0
  0
VERTEX
  8
0
 10
23.334230756723628
 20
0.9025461832472723
 30
0.0
 70
0
  0
SEQEND
  8
0
  0
POLYLINE
  8
0
 66
1
 10
0.0
 20
0.0
 30
0.0
 70
0
  0
VERTEX
  8
0
 10
12.448743346668198
 20
19.7567634927816
 30
0.0
 70
0
  0
VERTEX
  8
0
 10
12.363762929602409
 20
19.81005501893251
 30
0.0
 70
0
  0
VERTEX
  8
0
 10
12.27855438456652
 20
19.862981022910077
 30
0.0
 70
0
  0
VERTEX
  8
0
 10
12.19311928375333
 20
19.91554052817041
 30
0.0
 70
0
  0
VERTEX
  8
0
 10
12.10745920353592
 20
19.96773256493193
 30
0.0
 70
0
  0
VERTEX
  8
0
 10
12.021575724438431
 20
20.01955617019324
 30
0.0
 70
0
  0
VERTEX
  8
0
 10
11.935470431107
 20
20.07101038775095
 30
0.0
 70
0
  0
VERTEX
  8
0
 10
11.84914491228045
 20
20.12209426821727
 30
0.0
 70
0
  0
VERTEX
  8
0
 10
11.76260076076105
 20
20.17280686903753
 30
0.0
 70
0
  0
VERTEX
  8
0
 10
11.67583957338506
 20
20.22314725450762
 30
0.0
 70
0
  0
SEQEND
  8
0
  0
POLYLINE
  8
0
 66
1
 10
0.0
 20
0.0
 30
0.0
 70
0
  0
VERTEX
  8
0
 10
27.35167905356961
 20
-1.734723475976807e-15
 30
0.0
 70
0
  0
VERTEX
  8
0
 10
27.35142669169507
 20
0.11748966178612749
 30
0.0
 70
0
  0
VERTEX
  8
0
 10
27.35066965834365
 20
0.23497715564671248
 30
0.0
 70
0
  0
VERTEX
  8
0
 10
27.34940796748352
 20
0.3524603137984586
 30
0.0
 70
0
  0
VERTEX
  8
0
 10
27.347641642394358
 20
0.4699369685380942
 30
0.0
 70
0
  0
VERTEX
  8
0
 10
27.345370715666938
 20
0.587404952282319
 30
0.0
 70
0
  0
VERTEX
  8
0
 10
27.342595229202573
 20
0.7048620976078414
 30
0.0
 70
0
  0
VERTEX
  8
0
 10
27.33931523421225
 20
0.8223062372913504
 30
0.0
 70
0
  0
VERTEX
  8
0
 10
27.33553079121578
 20
0.939735204349488
 30
0.0
 70
0
  0
VERTEX
  8
0
 10
27.33124197004058
 20
1.057146832078866
 30
0.0
 70
0
  0
SEQEND
  8
0
  0
POLYLINE
  8
0
 66
1
 10
0.0
 20
0.0
 30
0.0
 70
0
  0
VERTEX
  8
0
 10
14.58113705045469
 20
23.1409764133958
 30
0.0
 70
0
  0
VERTEX
  8
0
 10
14.48160000887279
 20
23.20339645557985
 30
0.0
 70
0
  0
VERTEX
  8
0
 10
14.381795761901351
 20
23.26538836311302
 30
0.0
 70
0
  0
VERTEX
  8
0
 10
14.28172615104685
 20
23.326950992171263
 30
0.0
 70
0
  0
VERTEX
  8
0
 10
14.18139302271199
 20
23.38808320685123
 30
0.0
 70
0
  0
VERTEX
  8
0
 10
14.08079822816173
 20
23.44878387919122
 30
0.0
 70
0
  0
VERTEX
  8
0
 10
13.979943623489051
 20
23.50905188919199
 30
0.0
 70
0
  0
VERTEX
  8
0
 10
13.87883106958075
 20
23.568886124837462
 30
0.0
 70
0
  0
VERTEX
  8
0
 10
13.7774624320831
 20
23.62828548211518
 30
0.0
 70
0
  0
VERTEX
  8
0
 10
13.6758395813674
 20
23.6872488650367
 30
0.0
 70
0
  0
SEQEND
  8
0
  0
POLYLINE
  8
0
 66
1
 10
0.0
 20
0.0
 30
0.0
 70
0
  0
VERTEX
  8
0
 10
34.4
 20
2.656295322589486e-15
 30
0.0
 70
0
  0
VERTEX
  8
0
 10
34.39968263299357
 20
0.1477658597961331
 30
0.0
 70
0
  0
VERTEX
  8
0
 10
34.39873053783016
 20
0.29552899308013686
 30
0.0
 70
0
  0
VERTEX
  8
0
 10
34.39714373207745
 20
0.4432866733901959
 30
0.0
 70
0
  0
VERTEX
  8
0
 10
34.39492224501449
 20
0.5910361743651078
 30
0.0
 70
0
  0
VERTEX
  8
0
 10
34.3920661176312
 20
0.7387747697945922
 30
0.0
 70
0
  0
VERTEX
  8
0
 10
34.3885754026276
 20
0.8864997336695926
 30
0.0
 70
0
  0
VERTEX
  8
0
 10
34.3844501644129
 20
1.0342083402325761
 30
0.0
 70
0
  0
VERTEX
  8
0
 10
34.37969047910418
 20
1.181897864027837
 30
0.0
 70
0
  0
VERTEX
  8
0
 10
34.37429643452513
 20
1.32956557995175
 30
0.0
 70
0
  0
SEQEND
  8
0
  0
POLYLINE
  8
0
 66
1
 10
0.0
 20
0.0
 30
0.0
 70
0
  0
VERTEX
  8
0
 10
33.95520951020151
 20
5.513959296034025
 30
0.0
 70
0
  0
VERTEX
  8
0
 10
33.40118829971911
 20
8.229253925278126
 30
0.0
 70
0
  0
VERTEX
  8
0
 10
32.6304002070827
 20
10.891142379273921
 30
0.0
 70
0
  0
VERTEX
  8
0
 10
31.647847489401858
 20
13.48234954626081
 30
0.0
 70
0
  0
VERTEX
  8
0
 10
30.45990671290092
 20
15.9860590215779
 30
0.0
 70
0
  0
VERTEX
  8
0
 10
29.07428737030796
 20
18.386022242691602
 30
0.0
 70
0
  0
VERTEX
  8
0
 10
27.49998184782345
 20
20.66666393904398
 30
0.0
 70
0
  0
VERTEX
  8
0
 10
25.74720706637263
 20
22.81318321237376
 30
0.0
 70
0
  0
VERTEX
  8
0
 10
23.82733817587781
 20
24.81164959151964
 30
0.0
 70
0
  0
VERTEX
  8
0
 10
21.752834732861462
 20
26.64909343832952
 30
0.0
 70
0
  0
SEQEND
  8
0
  0
POLYLINE
  8
0
 66
1
 10
0.0
 20
0.0
 30
0.0
 70
0
  0
VERTEX
  8
0
 10
18.338585852563202
 20
29.104231117282108
 30
0.0
 70
0
  0
VERTEX
  8
0
 10
18.21339888172467
 20
29.18273635516712
 30
0.0
 70
0
  0
VERTEX
  8
0
 10
18.087875845079168
 20
29.26070312574535
 30
0.0
 70
0
  0
VERTEX
  8
0
 10
17.96201905872378
 20
29.33812999040744
 30
0.0
 70
0
  0
VERTEX
  8
0
 10
17.83583084491385
 20
29.4150155205062
 30
0.0
 70
0
  0
VERTEX
  8
0
 10
17.70931353202004
 20
29.49135829738285
 30
0.0
 70
0
  0
VERTEX
  8
0
 10
17.582469454485427
 20
29.5671569123933
 30
0.0
 70
0
  0
VERTEX
  8
0
 10
17.45530095278243
 20
29.6424099669341
 30
0.0
 70
0
  0
VERTEX
  8
0
 10
17.32781037336953
 20
29.7171160724682
 30
0.0
 70
0
  0
VERTEX
  8
0
 10
17.20000006864813
 20
29.791273850550688
 30
0.0
 70
0
  0
SEQEND
  8
0
  0
POLYLINE
  8
0
 66
1
 10
0.0
 20
0.0
 30
0.0
 70
0
  0
VERTEX
  8
0
 10
36.900000000000006
 20
3.144186300207963e-15
 30
0.0
 70
0
  0
VERTEX
  8
0
 10
36.89965956853089
 20
0.15850465774643202
 30
0.0
 70
0
  0
VERTEX
  8
0
 10
36.89863828040504
 20
0.3170063908330586
 30
0.0
 70
0
  0
VERTEX
  8
0
 10
36.896936154466815
 20
0.4755022746540213
 30
0.0
 70
0
  0
VERTEX
  8
0
 10
36.89455322212311
 20
0.6339893847114104
 30
0.0
 70
0
  0
VERTEX
  8
0
 10
36.89148952734277
 20
0.7924647966691984
 30
0.0
 70
0
  0
VERTEX
  8
0
 10
36.88774512665578
 20
0.950925586407214
 30
0.0
 70
0
  0
VERTEX
  8
0
 10
36.883320089152214
 20
1.109368830075064
 30
0.0
 70
0
  0
VERTEX
  8
0
 10
36.87821449648095
 20
1.267791604146133
 30
0.0
 70
0
  0
VERTEX
  8
0
 10
36.87242844284819
 20
1.4261909854714998
 30
0.0
 70
0
  0
SEQEND
  8
0
  0
POLYLINE
  8
0
 66
1
 10
0.0
 20
0.0
 30
0.0
 70
0
  0
VERTEX
  8
0
 10
36.422884619954495
 20
5.914683082082992
 30
0.0
 70
0
  0
VERTEX
  8
0
 10
35.828600240105665
 20
8.827310169847737
 30
0.0
 70
0
  0
VERTEX
  8
0
 10
35.001795570969534
 20
11.68264981962812
 30
0.0
 70
0
  0
VERTEX
  8
0
 10
33.94783640578283
 20
14.46217146095999
 30
0.0
 70
0
  0
VERTEX
  8
0
 10
32.67356272401293
 20
17.14783656675069
 30
0.0
 70
0
  0
VERTEX
  8
0
 10
31.18724430128966
 20
19.72221571963139
 30
0.0
 70
0
  0
VERTEX
  8
0
 10
29.4985270402525
 20
22.168601725311678
 30
0.0
 70
0
  0
VERTEX
  8
0
 10
27.61837037061483
 20
24.47111803885438
 30
0.0
 70
0
  0
VERTEX
  8
0
 10
25.558976124706138
 20
26.61482180020561
 30
0.0
 70
0
  0
VERTEX
  8
0
 10
23.33370935007522
 20
28.58580081030108
 30
0.0
 70
0
  0
SEQEND
  8
0
  0
POLYLINE
  8
0
 66
1
 10
0.0
 20
0.0
 30
0.0
 70
0
  0
VERTEX
  8
0
 10
19.671331917429697
 20
31.21936419266601
 30
0.0
 70
0
  0
VERTEX
  8
0
 10
19.53704705626861
 20
31.303574753071718
 30
0.0
 70
0
  0
VERTEX
  8
0
 10
19.4024017059134
 20
31.38720771337221
 30
0.0
 70
0
  0
VERTEX
  8
0
 10
19.26739835078219
 20
31.470261530408003
 30
0.0
 70
0
  0
VERTEX
  8
0
 10
19.13203948189886
 20
31.55273467170579
 30
0.0
 70
0
  0
VERTEX
  8
0
 10
18.99632759684707
 20
31.63462561550661
 30
0.0
 70
0
  0
VERTEX
  8
0
 10
18.8602651997242
 20
31.715932850793994
 30
0.0
 70
0
  0
VERTEX
  8
0
 10
18.72385480109509
 20
31.796654877321757
 30
0.0
 70
0
  0
VERTEX
  8
0
 10
18.5870989179458
 20
31.87679020564177
 30
0.0
 70
0
  0
VERTEX
  8
0
 10
18.450000073637092
 20
31.95633735713141
 30
0.0
 70
0
  0
SEQEND
  8
0
  0
POLYLINE
  8
0
 66
1
 10
0.0
 20
0.0
 30
0.0
 70
0
  0
VERTEX
  8
0
 10
38.80000000000002
 20
1.734723475976807e-15
 30
0.0
 70
0
  0
VERTEX
  8
0
 10
38.53764831162686
 20
4.504404800788183
 30
0.0
 70
0
  0
VERTEX
  8
0
 10
37.75414110261014
 20
8.947895261132933
 30
0.0
 70
0
  0
VERTEX
  8
0
 10
36.460073962596105
 20
13.27038080244961
 30
0.0
 70
0
  0
VERTEX
  8
0
 10
34.67294692761831
 20
17.41340722990666
 30
0.0
 70
0
  0
VERTEX
  8
0
 10
32.416927822159444
 20
21.3209472250392
 30
0.0
 70
0
  0
VERTEX
  8
0
 10
29.72252543082354
 20
24.940158019027223
 30
0.0
 70
0
  0
VERTEX
  8
0
 10
26.626176919410863
 20
28.22209600040778
 30
0.0
 70
0
  0
VERTEX
  8
0
 10
23.16975508481623
 20
31.122378593379267
 30
0.0
 70
0
  0
VERTEX
  8
0
 10
19.40000209735079
 20
33.60178445593008
 30
0.0
 70
0
  0
SEQEND
  8
0
  0
POLYLINE
  8
0
 66
1
 10
0.0
 20
0.0
 30
0.0
 70
0
  0
VERTEX
  8
0
 10
40.800000000000004
 20
2.1684043449710089e-16
 30
0.0
 70
0
  0
VERTEX
  8
0
 10
40.79969558533827
 20
0.1576075624124918
 30
0.0
 70
0
  0
VERTEX
  8
0
 10
40.7987823458956
 20
0.3152127729596407
 30
0.0
 70
0
  0
VERTEX
  8
0
 10
40.79726029529966
 20
0.4728132798112274
 30
0.0
 70
0
  0
VERTEX
  8
0
 10
40.7951294562629
 20
0.6304067312071854
 30
0.0
 70
0
  0
VERTEX
  8
0
 10
40.79238986058231
 20
0.7879907754927683
 30
0.0
 70
0
  0
VERTEX
  8
0
 10
40.78904154913893
 20
0.9455630611535687
 30
0.0
 70
0
  0
VERTEX
  8
0
 10
40.78508457189723
 20
1.103121236850682
 30
0.0
 70
0
  0
VERTEX
  8
0
 10
40.780518987904344
 20
1.2606629514557182
 30
0.0
 70
0
  0
VERTEX
  8
0
 10
40.77534486528924
 20
1.4181858540859629
 30
0.0
 70
0
  0
SEQEND
  8
0
  0
POLYLINE
  8
0
 66
1
 10
0.0
 20
0.0
 30
0.0
 70
0
  0
VERTEX
  8
0
 10
40.40214115601691
 20
5.68392382155895
 30
0.0
 70
0
  0
VERTEX
  8
0
 10
40.35702249861275
 20
5.995893181709065
 30
0.0
 70
0
  0
VERTEX
  8
0
 10
40.309494973851386
 20
6.307504653430638
 30
0.0
 70
0
  0
VERTEX
  8
0
 10
40.25956141859981
 20
6.618739636969384
 30
0.0
 70
0
  0
VERTEX
  8
0
 10
40.207224813338314
 20
6.929579555043196
 30
0.0
 70
0
  0
VERTEX
  8
0
 10
40.15248828198268
 20
7.240005853950972
 30
0.0
 70
0
  0
VERTEX
  8
0
 10
40.09535509169772
 20
7.550000004680126
 30
0.0
 70
0
  0
VERTEX
  8
0
 10
40.035828652702264
 20
7.859543504012521
 30
0.0
 70
0
  0
VERTEX
  8
0
 10
39.97391251806552
 20
8.168617875628922
 30
0.0
 70
0
  0
VERTEX
  8
0
 10
39.909610383495135
 20
8.477204671211826
 30
0.0
 70
0
  0
SEQEND
  8
0
  0
POLYLINE
  8
0
 66
1
 10
0.0
 20
0.0
 30
0.0
 70
0
  0
VERTEX
  8
0
 10
38.80133883512771
 20
12.613330432586501
 30
0.0
 70
0
  0
VERTEX
  8
0
 10
38.702732720632575
 20
12.912725504527579
 30
0.0
 70
0
  0
VERTEX
  8
0
 10
38.60181648156157
 20
13.21134982974269
 30
0.0
 70
0
  0
VERTEX
  8
0
 10
38.498596141496634
 20
13.50918558366641
 30
0.0
 70
0
  0
VERTEX
  8
0
 10
38.39307786154911
 20
13.80621498880223
 30
0.0
 70
0
  0
VERTEX
  8
0
 10
38.28526793999187
 20
14.10242031578378
 30
0.0
 70
0
  0
VERTEX
  8
0
 10
38.1751728118834
 20
14.39778388443301
 30
0.0
 70
0
  0
VERTEX
  8
0
 10
38.06279904868373
 20
14.69228806481551
 30
0.0
 70
0
  0
VERTEX
  8
0
 10
37.948153357862196
 20
14.98591527829288
 30
0.0
 70
0
  0
VERTEX
  8
0
 10
37.83124258249703
 20
15.27864799857187
 30
0.0
 70
0
  0
SEQEND
  8
0
  0
POLYLINE
  8
0
 66
1
 10
0.0
 20
0.0
 30
0.0
 70
0
  0
VERTEX
  8
0
 10
36.021577468158
 20
19.15948738107301
 30
0.0
 70
0
  0
VERTEX
  8
0
 10
35.87247999346377
 20
19.437211197045333
 30
0.0
 70
0
  0
VERTEX
  8
0
 10
35.72124132894116
 20
19.71377482674352
 30
0.0
 70
0
  0
VERTEX
  8
0
 10
35.56787050186376
 20
19.9891617623814
 30
0.0
 70
0
  0
VERTEX
  8
0
 10
35.412376666771614
 20
20.26335556640832
 30
0.0
 70
0
  0
VERTEX
  8
0
 10
35.254769104924804
 20
20.53633987249043
 30
0.0
 70
0
  0
VERTEX
  8
0
 10
35.09505722374957
 20
20.808098386487497
 30
0.0
 70
0
  0
VERTEX
  8
0
 10
34.93325055627667
 20
21.0786148874255
 30
0.0
 70
0
  0
VERTEX
  8
0
 10
34.769358760572416
 20
21.34787322846484
 30
0.0
 70
0
  0
VERTEX
  8
0
 10
34.603391619162196
 20
21.61585733786415
 30
0.0
 70
0
  0
SEQEND
  8
0
  0
POLYLINE
  8
0
 66
1
 10
0.0
 20
0.0
 30
0.0
 70
0
  0
VERTEX
  8
0
 10
32.147318697615916
 20
25.12349300065402
 30
0.0
 70
0
  0
VERTEX
  8
0
 10
31.952260114044208
 20
25.37110706304431
 30
0.0
 70
0
  0
VERTEX
  8
0
 10
31.75529433436111
 20
25.61720675128519
 30
0.0
 70
0
  0
VERTEX
  8
0
 10
31.5564331152426
 20
25.861777375950393
 30
0.0
 70
0
  0
VERTEX
  8
0
 10
31.355688326501422
 20
26.10480433888184
 30
0.0
 70
0
  0
VERTEX
  8
0
 10
31.15307195037851
 20
26.34627313406094
 30
0.0
 70
0
  0
VERTEX
  8
0
 10
30.94859608082792
 20
26.58616934847451
 30
0.0
 70
0
  0
VERTEX
  8
0
 10
30.74227292279482
 20
26.82447866297497
 30
0.0
 70
0
  0
VERTEX
  8
0
 10
30.534114791487088
 20
27.06118685313513
 30
0.0
 70
0
  0
VERTEX
  8
0
 10
30.32413411164014
 20
27.29627979009717
 30
0.0
 70
0
  0
SEQEND
  8
0
  0
POLYLINE
  8
0
 66
1
 10
0.0
 20
0.0
 30
0.0
 70
0
  0
VERTEX
  8
0
 10
27.296279915775102
 20
30.3241339985111
 30
0.0
 70
0
  0
VERTEX
  8
0
 10
27.06118697968331
 20
30.53411467933238
 30
0.0
 70
0
  0
VERTEX
  8
0
 10
26.82447879038585
 20
30.74227281162115
 30
0.0
 70
0
  0
VERTEX
  8
0
 10
26.5861694767405
 20
30.94859597064192
 30
0.0
 70
0
  0
VERTEX
  8
0
 10
26.346273263174382
 20
31.15307184118675
 30
0.0
 70
0
  0
VERTEX
  8
0
 10
26.10480446883502
 20
31.35568821831042
 30
0.0
 70
0
  0
VERTEX
  8
0
 10
25.86177750673556
 20
31.55643300805884
 30
0.0
 70
0
  0
VERTEX
  8
0
 10
25.61720688289454
 20
31.75529422819097
 30
0.0
 70
0
  0
VERTEX
  8
0
 10
25.371107195469982
 20
31.952260008894022
 30
0.0
 70
0
  0
VERTEX
  8
0
 10
25.1234931338881
 20
32.14731859349196
 30
0.0
 70
0
  0
SEQEND
  8
0
  0
POLYLINE
  8
0
 66
1
 10
0.0
 20
0.0
 30
0.0
 70
0
  0
VERTEX
  8
0
 10
21.6158574812774
 20
34.60339152957561
 30
0.0
 70
0
  0
VERTEX
  8
0
 10
21.48202570740179
 20
34.68663390279501
 30
0.0
 70
0
  0
VERTEX
  8
0
 10
21.347873372565928
 20
34.76935867209648
 30
0.0
 70
0
  0
VERTEX
  8
0
 10
21.21340247862951
 20
34.8515646030372
 30
0.0
 70
0
  0
VERTEX
  8
0
 10
21.07861503220584
 20
34.93325046891666
 30
0.0
 70
0
  0
VERTEX
  8
0
 10
20.94351304463192
 20
35.0144150507949
 30
0.0
 70
0
  0
VERTEX
  8
0
 10
20.808098531938448
 20
35.09505713751071
 30
0.0
 70
0
  0
VERTEX
  8
0
 10
20.672373514819682
 20
35.1751755256997
 30
0.0
 70
0
  0
VERTEX
  8
0
 10
20.53634001860332
 20
35.254769019812244
 30
0.0
 70
0
  0
VERTEX
  8
0
 10
20.40000007322028
 20
35.33383643213138
 30
0.0
 70
0
  0
SEQEND
  8
0
  0
POLYLINE
  8
0
 66
1
 10
0.0
 20
0.0
 30
0.0
 70
0
  0
VERTEX
  8
0
 10
50.400000000000006
 20
7.047314121155779e-16
 30
0.0
 70
0
  0
VERTEX
  8
0
 10
50.39962395835905
 20
0.1946916947448426
 30
0.0
 70
0
  0
VERTEX
  8
0
 10
50.39849583904753
 20
0.38938048424426136
 30
0.0
 70
0
  0
VERTEX
  8
0
 10
50.3966156588996
 20
0.5840634632962209
 30
0.0
 70
0
  0
VERTEX
  8
0
 10
50.393983445971834
 20
0.7787377267853453
 30
0.0
 70
0
  0
VERTEX
  8
0
 10
50.39059923954288
 20
0.973400369726359
 30
0.0
 70
0
  0
VERTEX
  8
0
 10
50.386463090112834
 20
1.168048487307347
 30
0.0
 70
0
  0
VERTEX
  8
0
 10
50.381575059402465
 20
1.362679174933192
 30
0.0
 70
0
  0
VERTEX
  8
0
 10
50.375935220352446
 20
1.557289528268825
 30
0.0
 70
0
  0
VERTEX
  8
0
 10
50.36954365712203
 20
1.751876643282656
 30
0.0
 70
0
  0
SEQEND
  8
0
  0
POLYLINE
  8
0
 66
1
 10
0.0
 20
0.0
 30
0.0
 70
0
  0
VERTEX
  8
0
 10
49.90852731037381
 20
7.021317661925759
 30
0.0
 70
0
  0
VERTEX
  8
0
 10
49.852792498286306
 20
7.406691577405313
 30
0.0
 70
0
  0
VERTEX
  8
0
 10
49.79408202652229
 20
7.791623395414317
 30
0.0
 70
0
  0
VERTEX
  8
0
 10
49.73239939944681
 20
8.176090139785712
 30
0.0
 70
0
  0
VERTEX
  8
0
 10
49.667748298829665
 20
8.560068862112175
 30
0.0
 70
0
  0
VERTEX
  8
0
 10
49.60013258362566
 20
8.943536643115904
 30
0.0
 70
0
  0
VERTEX
  8
0
 10
49.52955628974426
 20
9.326470594016627
 30
0.0
 70
0
  0
VERTEX
  8
0
 10
49.45602362980869
 20
9.708847857897824
 30
0.0
 70
0
  0
VERTEX
  8
0
 10
49.37953899290451
 20
10.090645611071029
 30
0.0
 70
0
  0
VERTEX
  8
0
 10
49.30010694431759
 20
10.471841064438129
 30
0.0
 70
0
  0
SEQEND
  8
0
  0
POLYLINE
  8
0
 66
1
 10
0.0
 20
0.0
 30
0.0
 70
0
  0
VERTEX
  8
0
 10
47.93106561986361
 20
15.5811728873127
 30
0.0
 70
0
  0
VERTEX
  8
0
 10
47.80925806666377
 20
15.95101385853403
 30
0.0
 70
0
  0
VERTEX
  8
0
 10
47.684596830164274
 20
16.31990273085858
 30
0.0
 70
0
  0
VERTEX
  8
0
 10
47.55708935126056
 20
16.687817485705523
 30
0.0
 70
0
  0
VERTEX
  8
0
 10
47.42674324073716
 20
17.054736162638
 30
0.0
 70
0
  0
VERTEX
  8
0
 10
47.29356627881351
 20
17.42063686067403
 30
0.0
 70
0
  0
VERTEX
  8
0
 10
47.157566414679515
 20
17.785497739593662
 30
0.0
 70
0
  0
VERTEX
  8
0
 10
47.01875176602114
 20
18.14929702124263
 30
0.0
 70
0
  0
VERTEX
  8
0
 10
46.877130618535716
 20
18.51201299083231
 30
0.0
 70
0
  0
VERTEX
  8
0
 10
46.732711425437564
 20
18.87362399823576
 30
0.0
 70
0
  0
SEQEND
  8
0
  0
POLYLINE
  8
0
 66
1
 10
0.0
 20
0.0
 30
0.0
 70
0
  0
VERTEX
  8
0
 10
44.49724275478341
 20
23.6676020589725
 30
0.0
 70
0
  0
VERTEX
  8
0
 10
44.31306352133759
 20
24.01067265517361
 30
0.0
 70
0
  0
VERTEX
  8
0
 10
44.126239288692034
 20
24.35231008009493
 30
0.0
 70
0
  0
VERTEX
  8
0
 10
43.93678120818465
 20
24.69249394176526
 30
0.0
 70
0
  0
VERTEX
  8
0
 10
43.744700588364914
 20
25.031203934975
 30
0.0
 70
0
  0
VERTEX
  8
0
 10
43.55000889431888
 20
25.3684198424882
 30
0.0
 70
0
  0
VERTEX
  8
0
 10
43.35271774698476
 20
25.704121536249282
 30
0.0
 70
0
  0
VERTEX
  8
0
 10
43.15283892245943
 20
26.03828897858448
 30
0.0
 70
0
  0
VERTEX
  8
0
 10
42.95038435129536
 20
26.3709022233978
 30
0.0
 70
0
  0
VERTEX
  8
0
 10
42.74536611778861
 20
26.70194141736167
 30
0.0
 70
0
  0
SEQEND
  8
0
  0
POLYLINE
  8
0
 66
1
 10
0.0
 20
0.0
 30
0.0
 70
0
  0
VERTEX
  8
0
 10
39.711393685290304
 20
31.03490311845501
 30
0.0
 70
0
  0
VERTEX
  8
0
 10
39.47043896440759
 20
31.34077931317242
 30
0.0
 70
0
  0
VERTEX
  8
0
 10
39.22712829538727
 20
31.644784810411142
 30
0.0
 70
0
  0
VERTEX
  8
0
 10
38.98147620118204
 20
31.94690146440933
 30
0.0
 70
0
  0
VERTEX
  8
0
 10
38.73349734450173
 20
32.24711124214816
 30
0.0
 70
0
  0
VERTEX
  8
0
 10
38.48320652693813
 20
32.545396224428224
 30
0.0
 70
0
  0
VERTEX
  8
0
 10
38.23061868808152
 20
32.841738606939074
 30
0.0
 70
0
  0
VERTEX
  8
0
 10
37.97574890462886
 20
33.136120701322014
 30
0.0
 70
0
  0
VERTEX
  8
0
 10
37.718612389484
 20
33.42852493622572
 30
0.0
 70
0
  0
VERTEX
  8
0
 10
37.45922449084953
 20
33.7189338583553
 30
0.0
 70
0
  0
SEQEND
  8
0
  0
POLYLINE
  8
0
 66
1
 10
0.0
 20
0.0
 30
0.0
 70
0
  0
VERTEX
  8
0
 10
33.71893401360451
 20
37.459224351101895
 30
0.0
 70
0
  0
VERTEX
  8
0
 10
33.42852509254994
 20
37.71861225093996
 30
0.0
 70
0
  0
VERTEX
  8
0
 10
33.136120858711934
 20
37.9757487672967
 30
0.0
 70
0
  0
VERTEX
  8
0
 10
32.84173876538532
 20
38.23061855196942
 30
0.0
 70
0
  0
VERTEX
  8
0
 10
32.545396383921286
 20
38.48320639205423
 30
0.0
 70
0
  0
VERTEX
  8
0
 10
32.24711140267857
 20
38.73349721085406
 30
0.0
 70
0
  0
VERTEX
  8
0
 10
31.946901625967477
 20
38.98147606877859
 30
0.0
 70
0
  0
VERTEX
  8
0
 10
31.644784972987402
 20
39.227128164235936
 30
0.0
 70
0
  0
VERTEX
  8
0
 10
31.340779476757078
 20
39.4704388345162
 30
0.0
 70
0
  0
VERTEX
  8
0
 10
31.03490328303828
 20
39.71139355666659
 30
0.0
 70
0
  0
SEQEND
  8
0
  0
POLYLINE
  8
0
 66
1
 10
0.0
 20
0.0
 30
0.0
 70
0
  0
VERTEX
  8
0
 10
26.7019415945192
 20
42.745366007122804
 30
0.0
 70
0
  0
VERTEX
  8
0
 10
26.5366199914964
 20
42.848194821099725
 30
0.0
 70
0
  0
VERTEX
  8
0
 10
26.37090240140503
 20
42.95038424200152
 30
0.0
 70
0
  0
VERTEX
  8
0
 10
26.20479129713063
 20
43.05193274492829
 30
0.0
 70
0
  0
VERTEX
  8
0
 10
26.03828915743078
 20
43.1528388145441
 30
0.0
 70
0
  0
VERTEX
  8
0
 10
25.871398466898302
 20
43.25310094509957
 30
0.0
 70
0
  0
VERTEX
  8
0
 10
25.704121715924
 20
43.35271764045438
 30
0.0
 70
0
  0
VERTEX
  8
0
 10
25.53646140065962
 20
43.451687414099595
 30
0.0
 70
0
  0
VERTEX
  8
0
 10
25.36842002298059
 20
43.55000878917981
 30
0.0
 70
0
  0
VERTEX
  8
0
 10
25.20000009044859
 20
43.6476802985152
 30
0.0
 70
0
  0
SEQEND
  8
0
  0
POLYLINE
  8
0
 66
1
 10
0.0
 20
0.0
 30
0.0
 70
0
  0
VERTEX
  8
0
 10
60.0
 20
-3.252606517456513e-16
 30
0.0
 70
0
  0
VERTEX
  8
0
 10
59.9995523313798
 20
0.23177582707718042
 30
0.0
 70
0
  0
VERTEX
  8
0
 10
59.99820933219943
 20
0.4635481955288842
 30
0.0
 70
0
  0
VERTEX
  8
0
 10
59.995971022499496
 20
0.6953136467812049
 30
0.0
 70
0
  0
VERTEX
  8
0
 10
59.99283743568073
 20
0.9270687223635103
 30
0.0
 70
0
  0
VERTEX
  8
0
 10
59.98880861850341
 20
1.158809963959943
 30
0.0
 70
0
  0
VERTEX
  8
0
 10
59.98388463108667
 20
1.390533913461121
 30
0.0
 70
0
  0
VERTEX
  8
0
 10
59.97806554690769
 20
1.6222371130157
 30
0.0
 70
0
  0
VERTEX
  8
0
 10
59.97135145280053
 20
1.853916105081931
 30
0.0
 70
0
  0
VERTEX
  8
0
 10
59.9637424489548
 20
2.08556743247935
 30
0.0
 70
0
  0
SEQEND
  8
0
  0
POLYLINE
  8
0
 66
1
 10
0.0
 20
0.0
 30
0.0
 70
0
  0
VERTEX
  8
0
 10
59.414913464730695
 20
8.358711502292573
 30
0.0
 70
0
  0
VERTEX
  8
0
 10
59.34856249795988
 20
8.81748997310157
 30
0.0
 70
0
  0
VERTEX
  8
0
 10
59.27866907919319
 20
9.275742137398009
 30
0.0
 70
0
  0
VERTEX
  8
0
 10
59.205237380293816
 20
9.733440642602048
 30
0.0
 70
0
  0
VERTEX
  8
0
 10
59.12827178432102
 20
10.19055816918117
 30
0.0
 70
0
  0
VERTEX
  8
0
 10
59.04777688526863
 20
10.64706743228085
 30
0.0
 70
0
  0
VERTEX
  8
0
 10
58.96375748779076
 20
11.10294118335314
 30
0.0
 70
0
  0
VERTEX
  8
0
 10
58.87621860691507
 20
11.55815221178313
 30
0.0
 70
0
  0
VERTEX
  8
0
 10
58.785165467743404
 20
12.01267334651313
 30
0.0
 70
0
  0
VERTEX
  8
0
 10
58.690603505139904
 20
12.466477457664471
 30
0.0
 70
0
  0
SEQEND
  8
0
  0
POLYLINE
  8
0
 66
1
 10
0.0
 20
0.0
 30
0.0
 70
0
  0
VERTEX
  8
0
 10
57.060792404599525
 20
18.5490153420389
 30
0.0
 70
0
  0
VERTEX
  8
0
 10
56.91578341269497
 20
18.98930221254049
 30
0.0
 70
0
  0
VERTEX
  8
0
 10
56.767377178767006
 20
19.42845563197449
 30
0.0
 70
0
  0
VERTEX
  8
0
 10
56.61558256102449
 20
19.86644938774468
 30
0.0
 70
0
  0
VERTEX
  8
0
 10
56.46040861992521
 20
20.30325733647384
 30
0.0
 70
0
  0
VERTEX
  8
0
 10
56.30186461763513
 20
20.738853405564353
 30
0.0
 70
0
  0
VERTEX
  8
0
 10
56.13996001747563
 20
21.173211594754388
 30
0.0
 70
0
  0
VERTEX
  8
0
 10
55.97470448335848
 20
21.60630597766984
 30
0.0
 70
0
  0
VERTEX
  8
0
 10
55.80610787920916
 20
22.038110703371828
 30
0.0
 70
0
  0
VERTEX
  8
0
 10
55.634180268377975
 20
22.46859999789975
 30
0.0
 70
0
  0
SEQEND
  8
0
  0
POLYLINE
  8
0
 66
1
 10
0.0
 20
0.0
 30
0.0
 70
0
  0
VERTEX
  8
0
 10
52.972908041408814
 20
28.175716736872108
 30
0.0
 70
0
  0
VERTEX
  8
0
 10
52.753647049211416
 20
28.58413411330199
 30
0.0
 70
0
  0
VERTEX
  8
0
 10
52.53123724844287
 20
28.99084533344639
 30
0.0
 70
0
  0
VERTEX
  8
0
 10
52.30569191450551
 20
29.39582612114914
 30
0.0
 70
0
  0
VERTEX
  8
0
 10
52.07702450995821
 20
29.79905230354167
 30
0.0
 70
0
  0
VERTEX
  8
0
 10
51.84524868371293
 20
30.20049981248596
 30
0.0
 70
0
  0
VERTEX
  8
0
 10
51.61037827021995
 20
30.60014468601105
 30
0.0
 70
0
  0
VERTEX
  8
0
 10
51.37242728864216
 20
30.9979630697434
 30
0.0
 70
0
  0
VERTEX
  8
0
 10
51.13140994201826
 20
31.39393121833068
 30
0.0
 70
0
  0
VERTEX
  8
0
 10
50.88734061641501
 20
31.78802549685907
 30
0.0
 70
0
  0
SEQEND
  8
0
  0
POLYLINE
  8
0
 66
1
 10
0.0
 20
0.0
 30
0.0
 70
0
  0
VERTEX
  8
0
 10
47.27546867296462
 20
36.94631323625591
 30
0.0
 70
0
  0
VERTEX
  8
0
 10
46.98861781477092
 20
37.31045156330046
 30
0.0
 70
0
  0
VERTEX
  8
0
 10
46.69896225641343
 20
37.672362869537025
 30
0.0
 70
0
  0
VERTEX
  8
0
 10
46.406519287121505
 20
38.0320255528682
 30
0.0
 70
0
  0
VERTEX
  8
0
 10
46.111306362502106
 20
38.38941814541444
 30
0.0
 70
0
  0
VERTEX
  8
0
 10
45.81334110349782
 20
38.74451931479548
 30
0.0
 70
0
  0
VERTEX
  8
0
 10
45.51264129533519
 20
39.09730786540365
 30
0.0
 70
0
  0
VERTEX
  8
0
 10
45.209224886463
 20
39.44776273966902
 30
0.0
 70
0
  0
VERTEX
  8
0
 10
44.90310998748101
 20
39.7958630193163
 30
0.0
 70
0
  0
VERTEX
  8
0
 10
44.59431487005903
 20
40.14158792661342
 30
0.0
 70
0
  0
SEQEND
  8
0
  0
POLYLINE
  8
0
 66
1
 10
0.0
 20
0.0
 30
0.0
 70
0
  0
VERTEX
  8
0
 10
40.141588111433926
 20
44.594314703692824
 30
0.0
 70
0
  0
VERTEX
  8
0
 10
39.79586320541659
 20
44.90310982254765
 30
0.0
 70
0
  0
VERTEX
  8
0
 10
39.44776292703799
 20
45.209224722972316
 30
0.0
 70
0
  0
VERTEX
  8
0
 10
39.097308054030115
 20
45.51264113329697
 30
0.0
 70
0
  0
VERTEX
  8
0
 10
38.74451950466819
 20
45.81334094292173
 30
0.0
 70
0
  0
VERTEX
  8
0
 10
38.389418336522084
 20
46.111306203397724
 30
0.0
 70
0
  0
VERTEX
  8
0
 10
38.03202574519935
 20
46.40651912949834
 30
0.0
 70
0
  0
VERTEX
  8
0
 10
37.672363063080205
 20
46.69896210028088
 30
0.0
 70
0
  0
VERTEX
  8
0
 10
37.31045175804409
 20
46.988617660138324
 30
0.0
 70
0
  0
VERTEX
  8
0
 10
36.946313432188376
 20
47.275468519841155
 30
0.0
 70
0
  0
SEQEND
  8
0
  0
POLYLINE
  8
0
 66
1
 10
0.0
 20
0.0
 30
0.0
 70
0
  0
VERTEX
  8
0
 10
31.788025707760916
 20
50.8873404846699
 30
0.0
 70
0
  0
VERTEX
  8
0
 10
31.591214275590918
 20
51.00975573940436
 30
0.0
 70
0
  0
VERTEX
  8
0
 10
31.39393143024407
 20
51.131409811906515
 30
0.0
 70
0
  0
VERTEX
  8
0
 10
31.196180115631687
 20
51.25230088681937
 30
0.0
 70
0
  0
VERTEX
  8
0
 10
30.9979632826557
 20
51.372427160171526
 30
0.0
 70
0
  0
VERTEX
  8
0
 10
30.79928388916465
 20
51.491786839404256
 30
0.0
 70
0
  0
VERTEX
  8
0
 10
30.60014489990953
 20
51.61037814339808
 30
0.0
 70
0
  0
VERTEX
  8
0
 10
30.40054928649957
 20
51.72819930249952
 30
0.0
 70
0
  0
VERTEX
  8
0
 10
30.20050002735784
 20
51.84524855854737
 30
0.0
 70
0
  0
VERTEX
  8
0
 10
30.00000010767689
 20
51.96152416489902
 30
0.0
 70
0
  0
SEQEND
  8
0
  0
ENDSEC
  0
EOF
