  0
SECTION
  2
HEADER
  9
$LUNITS
  70
1
  9
$AUNITS
  70
3
  0
ENDSEC
  0
SECTION
  2
TABLES
  0
ENDSEC
  0
SECTION
  2
BLOCKS
  0
ENDSEC
  0
SECTION
  2
ENTITIES
  0
LINE
  8
0
  10
2.898246599957540E-002 
  20
2.756839974651150E-002 
  30
0.000000000000000E+000 
  11
2.956211531956690E-002 
  21
2.811976774144180E-002 
  31
0.000000000000000E+000 
  0
LINE
  8
0
  10
3.032413399851110E-002 
  20
2.729627991577510E-002 
  30
0.000000000000000E+000 
  11
3.745922435110190E-002 
  21
3.371893401360451E-002 
  31
0.000000000000000E+000 
  0
LINE
  8
0
  10
4.014158811143390E-002 
  20
4.459431470369280E-002 
  30
0.000000000000000E+000 
  11
3.371893401360451E-002 
  21
3.745922435110190E-002 
  31
0.000000000000000E+000 
  0
LINE
  8
0
  10
2.811976774144180E-002 
  20
2.956211531956690E-002 
  30
0.000000000000000E+000 
  11
2.756839974651150E-002 
  21
2.898246599957540E-002 
  31
0.000000000000000E+000 
  0
LINE
  8
0
  10
2.375495484061940E-002 
  20
3.218232621362440E-002 
  30
0.000000000000000E+000 
  11
2.423005393743170E-002 
  21
3.282597273789690E-002 
  31
0.000000000000000E+000 
  0
LINE
  8
0
  10
2.512349300065400E-002 
  20
3.214731869761590E-002 
  30
0.000000000000000E+000 
  11
3.103490311845500E-002 
  21
3.971139368529029E-002 
  31
0.000000000000000E+000 
  0
LINE
  8
0
  10
3.178802570776090E-002 
  20
5.088734048466990E-002 
  30
0.000000000000000E+000 
  11
2.670194159451920E-002 
  21
4.274536600712280E-002 
  31
0.000000000000000E+000 
  0
LINE
  8
0
  10
2.255915783145200E-002 
  20
3.399594678686910E-002 
  30
0.000000000000000E+000 
  11
2.211682140338430E-002 
  21
3.332935959496970E-002 
  31
0.000000000000000E+000 
  0
LINE
  8
0
  10
3.992248280280260E-002 
  20
2.489049388809320E-003 
  30
0.000000000000000E+000 
  11
4.072093245885860E-002 
  21
2.538830376585510E-003 
  31
0.000000000000000E+000 
  0
LINE
  8
0
  10
4.077534486235040E-002 
  20
1.418185938582370E-003 
  30
0.000000000000000E+000 
  11
5.036954365349170E-002 
  21
1.751876747660570E-003 
  31
0.000000000000000E+000 
  0
LINE
  8
0
  10
5.941491346473071E-002 
  20
8.358711502292570E-003 
  30
0.000000000000000E+000 
  11
4.990852731037380E-002 
  21
7.021317661925761E-003 
  31
0.000000000000000E+000 
  0
LINE
  8
0
  10
4.054315326367000E-002 
  20
4.570855875934610E-003 
  30
0.000000000000000E+000 
  11
3.974818947418630E-002 
  21
4.481231250916290E-003 
  31
0.000000000000000E+000 
  0
LINE
  8
0
  10
3.888375169320680E-002 
  20
9.383701522375781E-003 
  30
0.000000000000000E+000 
  11
3.966142672707090E-002 
  21
9.571375552823289E-003 
  31
0.000000000000000E+000 
  0
LINE
  8
0
  10
3.990961034836150E-002 
  20
8.477204836616620E-003 
  30
0.000000000000000E+000 
  11
4.930010690091720E-002 
  21
1.047184126876170E-002 
  31
0.000000000000000E+000 
  0
LINE
  8
0
  10
5.706079240459951E-002 
  20
1.854901534203890E-002 
  30
0.000000000000000E+000 
  11
4.793106561986361E-002 
  21
1.558117288731270E-002 
  31
0.000000000000000E+000 
  0
LINE
  8
0
  10
3.913349087239020E-002 
  20
1.154165898562920E-002 
  30
0.000000000000000E+000 
  11
3.836616752195110E-002 
  21
1.131535194669530E-002 
  31
0.000000000000000E+000 
  0
LINE
  8
0
  10
3.666355746454070E-002 
  20
1.599323463356690E-002 
  30
0.000000000000000E+000 
  11
3.739682861383151E-002 
  21
1.631309932623820E-002 
  31
0.000000000000000E+000 
  0
LINE
  8
0
  10
3.783124251917490E-002 
  20
1.527864815536290E-002 
  30
0.000000000000000E+000 
  11
4.673271134721611E-002 
  21
1.887362419191880E-002 
  31
0.000000000000000E+000 
  0
LINE
  8
0
  10
5.297290804140880E-002 
  20
2.817571673687210E-002 
  30
0.000000000000000E+000 
  11
4.449724275478340E-002 
  21
2.366760205897250E-002 
  31
0.000000000000000E+000 
  0
LINE
  8
0
  10
3.653477716345470E-002 
  20
1.816177462740660E-002 
  30
0.000000000000000E+000 
  11
3.581840898377910E-002 
  21
1.780566139941830E-002 
  31
0.000000000000000E+000 
  0
LINE
  8
0
  10
3.332935959496970E-002 
  20
2.211682140338430E-002 
  30
0.000000000000000E+000 
  11
3.399594678686910E-002 
  21
2.255915783145200E-002 
  31
0.000000000000000E+000 
  0
LINE
  8
0
  10
3.460339152957560E-002 
  20
2.161585748127740E-002 
  30
0.000000000000000E+000 
  11
4.274536600712280E-002 
  21
2.670194159451920E-002 
  31
0.000000000000000E+000 
  0
LINE
  8
0
  10
4.727546867296460E-002 
  20
3.694631323625590E-002 
  30
0.000000000000000E+000 
  11
3.971139368529029E-002 
  21
3.103490311845500E-002 
  31
0.000000000000000E+000 
  0
LINE
  8
0
  10
3.282597273789690E-002 
  20
2.423005393743170E-002 
  30
0.000000000000000E+000 
  11
3.218232621362440E-002 
  21
2.375495484061940E-002 
  31
0.000000000000000E+000 
  0
LINE
  8
0
  10
0.000000000000000E+000 
  20
0.000000000000000E+000 
  30
0.000000000000000E+000 
  11
1.400000000000000E-002 
  21
0.000000000000000E+000 
  31
0.000000000000000E+000 
  0
LINE
  8
0
  10
0.000000000000000E+000 
  20
0.000000000000000E+000 
  30
0.000000000000000E+000 
  11
7.000000000000000E-003 
  21
1.212435565298210E-002 
  31
0.000000000000000E+000 
  0
LINE
  8
0
  10
1.400000000000000E-002 
  20
0.000000000000000E+000 
  30
0.000000000000000E+000 
  11
2.335167905356960E-002 
  21
0.000000000000000E+000 
  31
0.000000000000000E+000 
  0
LINE
  8
0
  10
7.000000000000000E-003 
  20
1.212435565298210E-002 
  30
0.000000000000000E+000 
  11
1.167583952678480E-002 
  21
2.022314728141230E-002 
  31
0.000000000000000E+000 
  0
LINE
  8
0
  10
2.335167905356960E-002 
  20
0.000000000000000E+000 
  30
0.000000000000000E+000 
  11
2.735167905356960E-002 
  21
0.000000000000000E+000 
  31
0.000000000000000E+000 
  0
LINE
  8
0
  10
1.167583952678480E-002 
  20
2.022314728141230E-002 
  30
0.000000000000000E+000 
  11
1.367583952678480E-002 
  21
2.368724889655000E-002 
  31
0.000000000000000E+000 
  0
LINE
  8
0
  10
2.735167905356960E-002 
  20
0.000000000000000E+000 
  30
0.000000000000000E+000 
  11
3.440000000000000E-002 
  21
0.000000000000000E+000 
  31
0.000000000000000E+000 
  0
LINE
  8
0
  10
1.367583952678480E-002 
  20
2.368724889655000E-002 
  30
0.000000000000000E+000 
  11
1.720000000000000E-002 
  21
2.979127389018470E-002 
  31
0.000000000000000E+000 
  0
LINE
  8
0
  10
3.440000000000000E-002 
  20
0.000000000000000E+000 
  30
0.000000000000000E+000 
  11
3.690000000000000E-002 
  21
0.000000000000000E+000 
  31
0.000000000000000E+000 
  0
LINE
  8
0
  10
1.720000000000000E-002 
  20
2.979127389018470E-002 
  30
0.000000000000000E+000 
  11
1.845000000000000E-002 
  21
3.195633739964580E-002 
  31
0.000000000000000E+000 
  0
LINE
  8
0
  10
3.690000000000000E-002 
  20
0.000000000000000E+000 
  30
0.000000000000000E+000 
  11
3.880000000000000E-002 
  21
0.000000000000000E+000 
  31
0.000000000000000E+000 
  0
LINE
  8
0
  10
1.845000000000000E-002 
  20
3.195633739964580E-002 
  30
0.000000000000000E+000 
  11
1.940000000000000E-002 
  21
3.360178566683620E-002 
  31
0.000000000000000E+000 
  0
LINE
  8
0
  10
3.880000000000000E-002 
  20
0.000000000000000E+000 
  30
0.000000000000000E+000 
  11
4.000000000000000E-002 
  21
0.000000000000000E+000 
  31
0.000000000000000E+000 
  0
LINE
  8
0
  10
1.940000000000000E-002 
  20
3.360178566683620E-002 
  30
0.000000000000000E+000 
  11
2.000000000000000E-002 
  21
3.464101615137750E-002 
  31
0.000000000000000E+000 
  0
LINE
  8
0
  10
4.000000000000000E-002 
  20
0.000000000000000E+000 
  30
0.000000000000000E+000 
  11
4.080000000000000E-002 
  21
0.000000000000000E+000 
  31
0.000000000000000E+000 
  0
LINE
  8
0
  10
2.000000000000000E-002 
  20
3.464101615137750E-002 
  30
0.000000000000000E+000 
  11
2.040000000000000E-002 
  21
3.533383647440511E-002 
  31
0.000000000000000E+000 
  0
LINE
  8
0
  10
4.080000000000000E-002 
  20
0.000000000000000E+000 
  30
0.000000000000000E+000 
  11
5.040000000000000E-002 
  21
0.000000000000000E+000 
  31
0.000000000000000E+000 
  0
LINE
  8
0
  10
2.040000000000000E-002 
  20
3.533383647440511E-002 
  30
0.000000000000000E+000 
  11
2.520000000000000E-002 
  21
4.364768035073570E-002 
  31
0.000000000000000E+000 
  0
LINE
  8
0
  10
5.040000000000000E-002 
  20
0.000000000000000E+000 
  30
0.000000000000000E+000 
  11
6.000000000000000E-002 
  21
0.000000000000000E+000 
  31
0.000000000000000E+000 
  0
LINE
  8
0
  10
2.520000000000000E-002 
  20
4.364768035073570E-002 
  30
0.000000000000000E+000 
  11
3.000000000000000E-002 
  21
5.196152422706630E-002 
  31
0.000000000000000E+000 
  0
LINE
  8
0
  10
6.000000000000000E-002 
  20
0.000000000000000E+000 
  30
0.000000000000000E+000 
  11
6.750000000000000E-002 
  21
0.000000000000000E+000 
  31
0.000000000000000E+000 
  0
LINE
  8
0
  10
3.000000000000000E-002 
  20
5.196152422706630E-002 
  30
0.000000000000000E+000 
  11
3.375000000000000E-002 
  21
5.845671475544961E-002 
  31
0.000000000000000E+000 
  0
LINE
  8
0
  10
2.053566360318730E-002 
  20
1.111698857594320E-002 
  30
0.000000000000000E+000 
  11
2.405329735553170E-002 
  21
1.302126082128200E-002 
  31
0.000000000000000E+000 
  0
LINE
  8
0
  10
2.333423075464390E-002 
  20
9.025462370164190E-004 
  30
0.000000000000000E+000 
  11
2.733124196760460E-002 
  21
1.057146895058340E-003 
  31
0.000000000000000E+000 
  0
LINE
  8
0
  10
2.304974286857390E-002 
  20
3.743029296378870E-003 
  30
0.000000000000000E+000 
  11
2.699802304417870E-002 
  21
4.384187354057250E-003 
  31
0.000000000000000E+000 
  0
LINE
  8
0
  10
2.460125012115860E-002 
  20
1.195377929885240E-002 
  30
0.000000000000000E+000 
  11
2.100348194422500E-002 
  21
1.020561908164010E-002 
  31
0.000000000000000E+000 
  0
LINE
  8
0
  10
1.989542632194180E-002 
  20
1.222591207596010E-002 
  30
0.000000000000000E+000 
  11
2.330339133829910E-002 
  21
1.432013614403050E-002 
  31
0.000000000000000E+000 
  0
LINE
  8
0
  10
1.729582914565340E-002 
  20
2.118888013118780E-002 
  30
0.000000000000000E+000 
  11
1.965080132595620E-002 
  21
2.407392385013880E-002 
  31
0.000000000000000E+000 
  0
LINE
  8
0
  10
1.244874334666820E-002 
  20
1.975676349278160E-002 
  30
0.000000000000000E+000 
  11
1.458113705045470E-002 
  21
2.314097641339580E-002 
  31
0.000000000000000E+000 
  0
LINE
  8
0
  10
1.934006635816010E-002 
  20
1.308673939080660E-002 
  30
0.000000000000000E+000 
  11
2.265290160461800E-002 
  21
1.532841792035220E-002 
  31
0.000000000000000E+000 
  0
LINE
  8
0
  10
1.729582914565340E-002 
  20
2.118888013118780E-002 
  30
0.000000000000000E+000 
  11
1.476642989206040E-002 
  21
1.809014822669470E-002 
  31
0.000000000000000E+000 
  0
LINE
  8
0
  10
2.175283358089960E-002 
  20
2.664909437864050E-002 
  30
0.000000000000000E+000 
  11
2.333370811439520E-002 
  21
2.858580181894860E-002 
  31
0.000000000000000E+000 
  0
LINE
  8
0
  10
1.833858585256320E-002 
  20
2.910423111728210E-002 
  30
0.000000000000000E+000 
  11
1.967133191742970E-002 
  21
3.121936419266600E-002 
  31
0.000000000000000E+000 
  0
LINE
  8
0
  10
3.745922435110190E-002 
  20
3.371893401360451E-002 
  30
0.000000000000000E+000 
  11
4.459431470369280E-002 
  21
4.014158811143390E-002 
  31
0.000000000000000E+000 
  0
LINE
  8
0
  10
3.371893401360451E-002 
  20
3.745922435110190E-002 
  30
0.000000000000000E+000 
  11
2.729627991577510E-002 
  21
3.032413399851110E-002 
  31
0.000000000000000E+000 
  0
LINE
  8
0
  10
3.103490311845500E-002 
  20
3.971139368529029E-002 
  30
0.000000000000000E+000 
  11
3.694631323625590E-002 
  21
4.727546867296460E-002 
  31
0.000000000000000E+000 
  0
LINE
  8
0
  10
2.670194159451920E-002 
  20
4.274536600712280E-002 
  30
0.000000000000000E+000 
  11
2.161585748127740E-002 
  21
3.460339152957560E-002 
  31
0.000000000000000E+000 
  0
LINE
  8
0
  10
5.036954365349170E-002 
  20
1.751876747660570E-003 
  30
0.000000000000000E+000 
  11
5.996374244463300E-002 
  21
2.085567556738770E-003 
  31
0.000000000000000E+000 
  0
LINE
  8
0
  10
4.990852731037380E-002 
  20
7.021317661925761E-003 
  30
0.000000000000000E+000 
  11
4.040214115601690E-002 
  21
5.683923821558950E-003 
  31
0.000000000000000E+000 
  0
LINE
  8
0
  10
4.930010690091720E-002 
  20
1.047184126876170E-002 
  30
0.000000000000000E+000 
  11
5.869060345347279E-002 
  21
1.246647770090680E-002 
  31
0.000000000000000E+000 
  0
LINE
  8
0
  10
4.793106561986361E-002 
  20
1.558117288731270E-002 
  30
0.000000000000000E+000 
  11
3.880133883512770E-002 
  21
1.261333043258650E-002 
  31
0.000000000000000E+000 
  0
LINE
  8
0
  10
4.673271134721611E-002 
  20
1.887362419191880E-002 
  30
0.000000000000000E+000 
  11
5.563418017525720E-002 
  21
2.246860022847480E-002 
  31
0.000000000000000E+000 
  0
LINE
  8
0
  10
4.449724275478340E-002 
  20
2.366760205897250E-002 
  30
0.000000000000000E+000 
  11
3.602157746815800E-002 
  21
1.915948738107300E-002 
  31
0.000000000000000E+000 
  0
LINE
  8
0
  10
4.274536600712280E-002 
  20
2.670194159451920E-002 
  30
0.000000000000000E+000 
  11
5.088734048467000E-002 
  21
3.178802570776090E-002 
  31
0.000000000000000E+000 
  0
LINE
  8
0
  10
3.971139368529029E-002 
  20
3.103490311845500E-002 
  30
0.000000000000000E+000 
  11
3.214731869761590E-002 
  21
2.512349300065400E-002 
  31
0.000000000000000E+000 
  0
LINE
  8
0
  10
1.965080132595620E-002 
  20
2.407392385013880E-002 
  30
0.000000000000000E+000 
  11
2.175283358089960E-002 
  21
2.664909437864050E-002 
  31
0.000000000000000E+000 
  0
LINE
  8
0
  10
3.395520951020150E-002 
  20
5.513959296034021E-003 
  30
0.000000000000000E+000 
  11
3.642288461995450E-002 
  21
5.914683082083001E-003 
  31
0.000000000000000E+000 
  0
LINE
  8
0
  10
3.437429643146141E-002 
  20
1.329565659160550E-003 
  30
0.000000000000000E+000 
  11
3.687242843956180E-002 
  21
1.426191070436750E-003 
  31
0.000000000000000E+000 
  0
LINE
  8
0
  10
2.699802304417870E-002 
  20
4.384187354057250E-003 
  30
0.000000000000000E+000 
  11
3.395520951020150E-002 
  21
5.513959296034021E-003 
  31
0.000000000000000E+000 
  0
LINE
  8
0
  10
2.733124196760460E-002 
  20
1.057146895058340E-003 
  30
0.000000000000000E+000 
  11
3.437429643146141E-002 
  21
1.329565659160550E-003 
  31
0.000000000000000E+000 
  0
LINE
  8
0
  10
1.458113705045470E-002 
  20
2.314097641339580E-002 
  30
0.000000000000000E+000 
  11
1.833858585256320E-002 
  21
2.910423111728210E-002 
  31
0.000000000000000E+000 
  0
POLYLINE
  8
0
  66
1
  10
0.000000000000000E+000 
  20
0.000000000000000E+000 
  30
0.000000000000000E+000 
  0
VERTEX
  8
0
  10
6.750000000000002E-002 
  20
-3.469446951953614E-018 
  30
0.000000000000000E+000 
  0
VERTEX
  8
0
  10
6.704358920192816E-002 
  20
7.836271238484606E-003 
  30
0.000000000000000E+000 
  0
VERTEX
  8
0
  10
6.568052898005626E-002 
  20
1.556657036408434E-002 
  30
0.000000000000000E+000 
  0
VERTEX
  8
0
  10
6.342925238338235E-002 
  20
2.308635835477704E-002 
  30
0.000000000000000E+000 
  0
VERTEX
  8
0
  10
6.032020406222252E-002 
  20
3.029394299017264E-002 
  30
0.000000000000000E+000 
  0
VERTEX
  8
0
  10
5.639542855659176E-002 
  20
3.709185406417902E-002 
  30
0.000000000000000E+000 
  0
VERTEX
  8
0
  10
5.170800171599452E-002 
  20
4.338816150217364E-002 
  30
0.000000000000000E+000 
  0
VERTEX
  8
0
  10
4.632131293969668E-002 
  20
4.909771855741043E-002 
  30
0.000000000000000E+000 
  0
VERTEX
  8
0
  10
4.030820794394574E-002 
  20
5.414331327456447E-002 
  30
0.000000000000000E+000 
  0
VERTEX
  8
0
  10
3.375000364874169E-002 
  20
5.845671264884747E-002 
  30
0.000000000000000E+000 
  0
SEQEND
  0
POLYLINE
  8
0
  66
1
  10
0.000000000000000E+000 
  20
0.000000000000000E+000 
  30
0.000000000000000E+000 
  0
VERTEX
  8
0
  10
4.000000000000001E-002 
  20
2.710505431213761E-018 
  30
0.000000000000000E+000 
  0
VERTEX
  8
0
  10
3.999904269223769E-002 
  20
2.767376095682220E-004 
  30
0.000000000000000E+000 
  0
VERTEX
  8
0
  10
3.999617081477256E-002 
  20
5.534619729833524E-004 
  30
0.000000000000000E+000 
  0
VERTEX
  8
0
  10
3.999138450506819E-002 
  20
8.301598447263379E-004 
  30
0.000000000000000E+000 
  0
VERTEX
  8
0
  10
3.998468399222312E-002 
  20
1.106817980546156E-003 
  30
0.000000000000000E+000 
  0
VERTEX
  8
0
  10
3.997606959696002E-002 
  20
1.383423138093760E-003 
  30
0.000000000000000E+000 
  0
VERTEX
  8
0
  10
3.996554173161024E-002 
  20
1.659962077555929E-003 
  30
0.000000000000000E+000 
  0
VERTEX
  8
0
  10
3.995310090009417E-002 
  20
1.936421562288996E-003 
  30
0.000000000000000E+000 
  0
VERTEX
  8
0
  10
3.993874769789701E-002 
  20
2.212788359452424E-003 
  30
0.000000000000000E+000 
  0
VERTEX
  8
0
  10
3.992248281204037E-002 
  20
2.489049240642205E-003 
  30
0.000000000000000E+000 
  0
SEQEND
  0
POLYLINE
  8
0
  66
1
  10
0.000000000000000E+000 
  20
0.000000000000000E+000 
  30
0.000000000000000E+000 
  0
VERTEX
  8
0
  10
2.898246599957540E-002 
  20
2.756839974651150E-002 
  30
0.000000000000000E+000 
  0
VERTEX
  8
0
  10
2.882886176110799E-002 
  20
2.772898717153089E-002 
  30
0.000000000000000E+000 
  0
VERTEX
  8
0
  10
2.867436774535119E-002 
  20
2.788871876591612E-002 
  30
0.000000000000000E+000 
  0
VERTEX
  8
0
  10
2.851898872062600E-002 
  20
2.804758959969299E-002 
  30
0.000000000000000E+000 
  0
VERTEX
  8
0
  10
2.836272948256840E-002 
  20
2.820559476945390E-002 
  30
0.000000000000000E+000 
  0
VERTEX
  8
0
  10
2.820559485398142E-002 
  20
2.836272939850918E-002 
  30
0.000000000000000E+000 
  0
VERTEX
  8
0
  10
2.804758968468622E-002 
  20
2.851898863703767E-002 
  30
0.000000000000000E+000 
  0
VERTEX
  8
0
  10
2.788871885137241E-002 
  20
2.867436766223633E-002 
  30
0.000000000000000E+000 
  0
VERTEX
  8
0
  10
2.772898725744759E-002 
  20
2.882886167846917E-002 
  30
0.000000000000000E+000 
  0
VERTEX
  8
0
  10
2.756839983288599E-002 
  20
2.898246591741516E-002 
  30
0.000000000000000E+000 
  0
SEQEND
  0
POLYLINE
  8
0
  66
1
  10
0.000000000000000E+000 
  20
0.000000000000000E+000 
  30
0.000000000000000E+000 
  0
VERTEX
  8
0
  10
3.032413399851110E-002 
  20
2.729627991577510E-002 
  30
0.000000000000000E+000 
  0
VERTEX
  8
0
  10
3.024058727422936E-002 
  20
2.738880941752889E-002 
  30
0.000000000000000E+000 
  0
VERTEX
  8
0
  10
3.015675821138459E-002 
  20
2.748108320609086E-002 
  30
0.000000000000000E+000 
  0
VERTEX
  8
0
  10
3.007264759263939E-002 
  20
2.757310041995497E-002 
  30
0.000000000000000E+000 
  0
VERTEX
  8
0
  10
2.998825620328509E-002 
  20
2.766486020001064E-002 
  30
0.000000000000000E+000 
  0
VERTEX
  8
0
  10
2.990358483123445E-002 
  20
2.775636168955084E-002 
  30
0.000000000000000E+000 
  0
VERTEX
  8
0
  10
2.981863426701419E-002 
  20
2.784760403427999E-002 
  30
0.000000000000000E+000 
  0
VERTEX
  8
0
  10
2.973340530375776E-002 
  20
2.793858638232205E-002 
  30
0.000000000000000E+000 
  0
VERTEX
  8
0
  10
2.964789873719780E-002 
  20
2.802930788422838E-002 
  30
0.000000000000000E+000 
  0
VERTEX
  8
0
  10
2.956211536565880E-002 
  20
2.811976769298572E-002 
  30
0.000000000000000E+000 
  0
SEQEND
  0
POLYLINE
  8
0
  66
1
  10
0.000000000000000E+000 
  20
0.000000000000000E+000 
  30
0.000000000000000E+000 
  0
VERTEX
  8
0
  10
4.459431470369282E-002 
  20
4.014158811143391E-002 
  30
0.000000000000000E+000 
  0
VERTEX
  8
0
  10
4.412297197138174E-002 
  20
4.065911145626113E-002 
  30
0.000000000000000E+000 
  0
VERTEX
  8
0
  10
4.364562368116508E-002 
  20
4.117110070768237E-002 
  30
0.000000000000000E+000 
  0
VERTEX
  8
0
  10
4.316233480470435E-002 
  20
4.167748617907047E-002 
  30
0.000000000000000E+000 
  0
VERTEX
  8
0
  10
4.267317112223151E-002 
  20
4.217819894652625E-002 
  30
0.000000000000000E+000 
  0
VERTEX
  8
0
  10
4.217819921359577E-002 
  20
4.267317085825977E-002 
  30
0.000000000000000E+000 
  0
VERTEX
  8
0
  10
4.167748644920140E-002 
  20
4.316233454386631E-002 
  30
0.000000000000000E+000 
  0
VERTEX
  8
0
  10
4.117110098083796E-002 
  20
4.364562342349625E-002 
  30
0.000000000000000E+000 
  0
VERTEX
  8
0
  10
4.065911173240420E-002 
  20
4.412297171691718E-002 
  30
0.000000000000000E+000 
  0
VERTEX
  8
0
  10
4.014158839052686E-002 
  20
4.459431445246716E-002 
  30
0.000000000000000E+000 
  0
SEQEND
  0
POLYLINE
  8
0
  66
1
  10
0.000000000000000E+000 
  20
0.000000000000000E+000 
  30
0.000000000000000E+000 
  0
VERTEX
  8
0
  10
2.811976774144180E-002 
  20
2.956211531956689E-002 
  30
0.000000000000000E+000 
  0
VERTEX
  8
0
  10
2.802930793282506E-002 
  20
2.964789869125417E-002 
  30
0.000000000000000E+000 
  0
VERTEX
  8
0
  10
2.793858643105889E-002 
  20
2.973340525796283E-002 
  30
0.000000000000000E+000 
  0
VERTEX
  8
0
  10
2.784760408315652E-002 
  20
2.981863422136840E-002 
  30
0.000000000000000E+000 
  0
VERTEX
  8
0
  10
2.775636173856662E-002 
  20
2.990358478573821E-002 
  30
0.000000000000000E+000 
  0
VERTEX
  8
0
  10
2.766486024916522E-002 
  20
2.998825615793884E-002 
  30
0.000000000000000E+000 
  0
VERTEX
  8
0
  10
2.757310046924787E-002 
  20
3.007264754744355E-002 
  30
0.000000000000000E+000 
  0
VERTEX
  8
0
  10
2.748108325552164E-002 
  20
3.015675816633958E-002 
  30
0.000000000000000E+000 
  0
VERTEX
  8
0
  10
2.738880946709708E-002 
  20
3.024058722933561E-002 
  30
0.000000000000000E+000 
  0
VERTEX
  8
0
  10
2.729627996548023E-002 
  20
3.032413395376901E-002 
  30
0.000000000000000E+000 
  0
SEQEND
  0
POLYLINE
  8
0
  66
1
  10
0.000000000000000E+000 
  20
0.000000000000000E+000 
  30
0.000000000000000E+000 
  0
VERTEX
  8
0
  10
2.756839974651151E-002 
  20
2.898246599957541E-002 
  30
0.000000000000000E+000 
  0
VERTEX
  8
0
  10
2.716474331343395E-002 
  20
2.936114304170132E-002 
  30
0.000000000000000E+000 
  0
VERTEX
  8
0
  10
2.675588593866619E-002 
  20
2.973419862106737E-002 
  30
0.000000000000000E+000 
  0
VERTEX
  8
0
  10
2.634190590173922E-002 
  20
3.010156131272790E-002 
  30
0.000000000000000E+000 
  0
VERTEX
  8
0
  10
2.592288246296512E-002 
  20
3.046316078169329E-002 
  30
0.000000000000000E+000 
  0
VERTEX
  8
0
  10
2.549889584826198E-002 
  20
3.081892779639631E-002 
  30
0.000000000000000E+000 
  0
VERTEX
  8
0
  10
2.507002723379388E-002 
  20
3.116879424194709E-002 
  30
0.000000000000000E+000 
  0
VERTEX
  8
0
  10
2.463635873042899E-002 
  20
3.151269313317440E-002 
  30
0.000000000000000E+000 
  0
VERTEX
  8
0
  10
2.419797336801861E-002 
  20
3.185055862745054E-002 
  30
0.000000000000000E+000 
  0
VERTEX
  8
0
  10
2.375495507950046E-002 
  20
3.218232603729751E-002 
  30
0.000000000000000E+000 
  0
SEQEND
  0
POLYLINE
  8
0
  66
1
  10
0.000000000000000E+000 
  20
0.000000000000000E+000 
  30
0.000000000000000E+000 
  0
VERTEX
  8
0
  10
2.375495484061940E-002 
  20
3.218232621362441E-002 
  30
0.000000000000000E+000 
  0
VERTEX
  8
0
  10
2.357579848197032E-002 
  20
3.231380085872797E-002 
  30
0.000000000000000E+000 
  0
VERTEX
  8
0
  10
2.339591447717821E-002 
  20
3.244427816698293E-002 
  30
0.000000000000000E+000 
  0
VERTEX
  8
0
  10
2.321530837820358E-002 
  20
3.257375411132270E-002 
  30
0.000000000000000E+000 
  0
VERTEX
  8
0
  10
2.303398575929374E-002 
  20
3.270222469558690E-002 
  30
0.000000000000000E+000 
  0
VERTEX
  8
0
  10
2.285195221681077E-002 
  20
3.282968595464473E-002 
  30
0.000000000000000E+000 
  0
VERTEX
  8
0
  10
2.266921336905875E-002 
  20
3.295613395451730E-002 
  30
0.000000000000000E+000 
  0
VERTEX
  8
0
  10
2.248577485611039E-002 
  20
3.308156479249905E-002 
  30
0.000000000000000E+000 
  0
VERTEX
  8
0
  10
2.230164233963297E-002 
  20
3.320597459727825E-002 
  30
0.000000000000000E+000 
  0
VERTEX
  8
0
  10
2.211682150271354E-002 
  20
3.332935952905645E-002 
  30
0.000000000000000E+000 
  0
SEQEND
  0
POLYLINE
  8
0
  66
1
  10
0.000000000000000E+000 
  20
0.000000000000000E+000 
  30
0.000000000000000E+000 
  0
VERTEX
  8
0
  10
2.512349300065399E-002 
  20
3.214731869761589E-002 
  30
0.000000000000000E+000 
  0
VERTEX
  8
0
  10
2.502514795948260E-002 
  20
3.222393473190385E-002 
  30
0.000000000000000E+000 
  0
VERTEX
  8
0
  10
2.492656927323511E-002 
  20
3.230024991028099E-002 
  30
0.000000000000000E+000 
  0
VERTEX
  8
0
  10
2.482775786228269E-002 
  20
3.237626352023740E-002 
  30
0.000000000000000E+000 
  0
VERTEX
  8
0
  10
2.472871464916934E-002 
  20
3.245197485207879E-002 
  30
0.000000000000000E+000 
  0
VERTEX
  8
0
  10
2.462944055860321E-002 
  20
3.252738319893300E-002 
  30
0.000000000000000E+000 
  0
VERTEX
  8
0
  10
2.452993651744807E-002 
  20
3.260248785675666E-002 
  30
0.000000000000000E+000 
  0
VERTEX
  8
0
  10
2.443020345471457E-002 
  20
3.267728812434181E-002 
  30
0.000000000000000E+000 
  0
VERTEX
  8
0
  10
2.433024230155161E-002 
  20
3.275178330332238E-002 
  30
0.000000000000000E+000 
  0
VERTEX
  8
0
  10
2.423005399123765E-002 
  20
3.282597269818073E-002 
  30
0.000000000000000E+000 
  0
SEQEND
  0
POLYLINE
  8
0
  66
1
  10
0.000000000000000E+000 
  20
0.000000000000000E+000 
  30
0.000000000000000E+000 
  0
VERTEX
  8
0
  10
3.694631323625591E-002 
  20
4.727546867296463E-002 
  30
0.000000000000000E+000 
  0
VERTEX
  8
0
  10
3.639226427342070E-002 
  20
4.770328186879295E-002 
  30
0.000000000000000E+000 
  0
VERTEX
  8
0
  10
3.583326197583388E-002 
  20
4.812460219234294E-002 
  30
0.000000000000000E+000 
  0
VERTEX
  8
0
  10
3.526938242904725E-002 
  20
4.853937229789460E-002 
  30
0.000000000000000E+000 
  0
VERTEX
  8
0
  10
3.470070238245274E-002 
  20
4.894753573127502E-002 
  30
0.000000000000000E+000 
  0
VERTEX
  8
0
  10
3.412729923883618E-002 
  20
4.934903693754253E-002 
  30
0.000000000000000E+000 
  0
VERTEX
  8
0
  10
3.354925104384202E-002 
  20
4.974382126854821E-002 
  30
0.000000000000000E+000 
  0
VERTEX
  8
0
  10
3.296663647535054E-002 
  20
5.013183499037401E-002 
  30
0.000000000000000E+000 
  0
VERTEX
  8
0
  10
3.237953483276911E-002 
  20
5.051302529064646E-002 
  30
0.000000000000000E+000 
  0
VERTEX
  8
0
  10
3.178802602623871E-002 
  20
5.088734028572493E-002 
  30
0.000000000000000E+000 
  0
SEQEND
  0
POLYLINE
  8
0
  66
1
  10
0.000000000000000E+000 
  20
0.000000000000000E+000 
  30
0.000000000000000E+000 
  0
VERTEX
  8
0
  10
2.255915783145200E-002 
  20
3.399594678686910E-002 
  30
0.000000000000000E+000 
  0
VERTEX
  8
0
  10
2.245517618442263E-002 
  20
3.406471873546788E-002 
  30
0.000000000000000E+000 
  0
VERTEX
  8
0
  10
2.235098488663088E-002 
  20
3.413317264183915E-002 
  30
0.000000000000000E+000 
  0
VERTEX
  8
0
  10
2.224658491084957E-002 
  20
3.420130786686907E-002 
  30
0.000000000000000E+000 
  0
VERTEX
  8
0
  10
2.214197723179981E-002 
  20
3.426912377441913E-002 
  30
0.000000000000000E+000 
  0
VERTEX
  8
0
  10
2.203716282614195E-002 
  20
3.433661973133215E-002 
  30
0.000000000000000E+000 
  0
VERTEX
  8
0
  10
2.193214267246638E-002 
  20
3.440379510743808E-002 
  30
0.000000000000000E+000 
  0
VERTEX
  8
0
  10
2.182691775128445E-002 
  20
3.447064927556000E-002 
  30
0.000000000000000E+000 
  0
VERTEX
  8
0
  10
2.172148904501933E-002 
  20
3.453718161151988E-002 
  30
0.000000000000000E+000 
  0
VERTEX
  8
0
  10
2.161585753799678E-002 
  20
3.460339149414445E-002 
  30
0.000000000000000E+000 
  0
SEQEND
  0
POLYLINE
  8
0
  66
1
  10
0.000000000000000E+000 
  20
0.000000000000000E+000 
  30
0.000000000000000E+000 
  0
VERTEX
  8
0
  10
2.211682140338430E-002 
  20
3.332935959496971E-002 
  30
0.000000000000000E+000 
  0
VERTEX
  8
0
  10
2.188570490569533E-002 
  20
3.348157584076385E-002 
  30
0.000000000000000E+000 
  0
VERTEX
  8
0
  10
2.165354084024681E-002 
  20
3.363218947793560E-002 
  30
0.000000000000000E+000 
  0
VERTEX
  8
0
  10
2.142034031966187E-002 
  20
3.378119329730475E-002 
  30
0.000000000000000E+000 
  0
VERTEX
  8
0
  10
2.118611450617391E-002 
  20
3.392858016674566E-002 
  30
0.000000000000000E+000 
  0
VERTEX
  8
0
  10
2.095087461109242E-002 
  20
3.407434303152861E-002 
  30
0.000000000000000E+000 
  0
VERTEX
  8
0
  10
2.071463189426627E-002 
  20
3.421847491465752E-002 
  30
0.000000000000000E+000 
  0
VERTEX
  8
0
  10
2.047739766354480E-002 
  20
3.436096891720385E-002 
  30
0.000000000000000E+000 
  0
VERTEX
  8
0
  10
2.023918327423653E-002 
  20
3.450181821863687E-002 
  30
0.000000000000000E+000 
  0
VERTEX
  8
0
  10
2.000000012856564E-002 
  20
3.464101607715010E-002 
  30
0.000000000000000E+000 
  0
SEQEND
  0
POLYLINE
  8
0
  66
1
  10
0.000000000000000E+000 
  20
0.000000000000000E+000 
  30
0.000000000000000E+000 
  0
VERTEX
  8
0
  10
3.992248280280260E-002 
  20
2.489049388809318E-003 
  30
0.000000000000000E+000 
  0
VERTEX
  8
0
  10
3.990803873655903E-002 
  20
2.710801394662389E-003 
  30
0.000000000000000E+000 
  0
VERTEX
  8
0
  10
3.989236294403969E-002 
  20
2.932469734030915E-003 
  30
0.000000000000000E+000 
  0
VERTEX
  8
0
  10
3.987545590906404E-002 
  20
3.154047565317885E-003 
  30
0.000000000000000E+000 
  0
VERTEX
  8
0
  10
3.985731815345273E-002 
  20
3.375528049719771E-003 
  30
0.000000000000000E+000 
  0
VERTEX
  8
0
  10
3.983795023701155E-002 
  20
3.596904351437539E-003 
  30
0.000000000000000E+000 
  0
VERTEX
  8
0
  10
3.981735275751405E-002 
  20
3.818169637887672E-003 
  30
0.000000000000000E+000 
  0
VERTEX
  8
0
  10
3.979552635068322E-002 
  20
4.039317079913042E-003 
  30
0.000000000000000E+000 
  0
VERTEX
  8
0
  10
3.977247169017178E-002 
  20
4.260339851993676E-003 
  30
0.000000000000000E+000 
  0
VERTEX
  8
0
  10
3.974818948754141E-002 
  20
4.481231132457453E-003 
  30
0.000000000000000E+000 
  0
SEQEND
  0
POLYLINE
  8
0
  66
1
  10
0.000000000000000E+000 
  20
0.000000000000000E+000 
  30
0.000000000000000E+000 
  0
VERTEX
  8
0
  10
4.077534486235041E-002 
  20
1.418185938582372E-003 
  30
0.000000000000000E+000 
  0
VERTEX
  8
0
  10
4.077082117573144E-002 
  20
1.542770448423629E-003 
  30
0.000000000000000E+000 
  0
VERTEX
  8
0
  10
4.076591683595382E-002 
  20
1.667340554325321E-003 
  30
0.000000000000000E+000 
  0
VERTEX
  8
0
  10
4.076063188880651E-002 
  20
1.791895093249693E-003 
  30
0.000000000000000E+000 
  0
VERTEX
  8
0
  10
4.075496638363191E-002 
  20
1.916432902304332E-003 
  30
0.000000000000000E+000 
  0
VERTEX
  8
0
  10
4.074892037332556E-002 
  20
2.040952818753030E-003 
  30
0.000000000000000E+000 
  0
VERTEX
  8
0
  10
4.074249391433545E-002 
  20
2.165453680026603E-003 
  30
0.000000000000000E+000 
  0
VERTEX
  8
0
  10
4.073568706666168E-002 
  20
2.289934323733803E-003 
  30
0.000000000000000E+000 
  0
VERTEX
  8
0
  10
4.072849989385575E-002 
  20
2.414393587672132E-003 
  30
0.000000000000000E+000 
  0
VERTEX
  8
0
  10
4.072093246302008E-002 
  20
2.538830309838703E-003 
  30
0.000000000000000E+000 
  0
SEQEND
  0
POLYLINE
  8
0
  66
1
  10
0.000000000000000E+000 
  20
0.000000000000000E+000 
  30
0.000000000000000E+000 
  0
VERTEX
  8
0
  10
5.996374244463302E-002 
  20
2.085567556738775E-003 
  30
0.000000000000000E+000 
  0
VERTEX
  8
0
  10
5.993533055752007E-002 
  20
2.784986707473369E-003 
  30
0.000000000000000E+000 
  0
VERTEX
  8
0
  10
5.989876089947350E-002 
  20
3.484026794917557E-003 
  30
0.000000000000000E+000 
  0
VERTEX
  8
0
  10
5.985403844797309E-002 
  20
4.182592673038893E-003 
  30
0.000000000000000E+000 
  0
VERTEX
  8
0
  10
5.980116929017160E-002 
  20
4.880589260349305E-003 
  30
0.000000000000000E+000 
  0
VERTEX
  8
0
  10
5.974016062206634E-002 
  20
5.577921552846680E-003 
  30
0.000000000000000E+000 
  0
VERTEX
  8
0
  10
5.967102074751978E-002 
  20
6.274494636945763E-003 
  30
0.000000000000000E+000 
  0
VERTEX
  8
0
  10
5.959375907712919E-002 
  20
6.970213702396821E-003 
  30
0.000000000000000E+000 
  0
VERTEX
  8
0
  10
5.950838612694580E-002 
  20
7.664984055190180E-003 
  30
0.000000000000000E+000 
  0
VERTEX
  8
0
  10
5.941491351704360E-002 
  20
8.358711130445061E-003 
  30
0.000000000000000E+000 
  0
SEQEND
  0
POLYLINE
  8
0
  66
1
  10
0.000000000000000E+000 
  20
0.000000000000000E+000 
  30
0.000000000000000E+000 
  0
VERTEX
  8
0
  10
4.054315326367001E-002 
  20
4.570855875934607E-003 
  30
0.000000000000000E+000 
  0
VERTEX
  8
0
  10
4.052899751839130E-002 
  20
4.694716195281111E-003 
  30
0.000000000000000E+000 
  0
VERTEX
  8
0
  10
4.051446337771908E-002 
  20
4.818532682825919E-003 
  30
0.000000000000000E+000 
  0
VERTEX
  8
0
  10
4.049955097735009E-002 
  20
4.942304182567374E-003 
  30
0.000000000000000E+000 
  0
VERTEX
  8
0
  10
4.048426045651266E-002 
  20
5.066029538923835E-003 
  30
0.000000000000000E+000 
  0
VERTEX
  8
0
  10
4.046859195796532E-002 
  20
5.189707596744477E-003 
  30
0.000000000000000E+000 
  0
VERTEX
  8
0
  10
4.045254562799566E-002 
  20
5.313337201320073E-003 
  30
0.000000000000000E+000 
  0
VERTEX
  8
0
  10
4.043612161641880E-002 
  20
5.436917198393777E-003 
  30
0.000000000000000E+000 
  0
VERTEX
  8
0
  10
4.041932007657608E-002 
  20
5.560446434171901E-003 
  30
0.000000000000000E+000 
  0
VERTEX
  8
0
  10
4.040214116533359E-002 
  20
5.683923755334681E-003 
  30
0.000000000000000E+000 
  0
SEQEND
  0
POLYLINE
  8
0
  66
1
  10
0.000000000000000E+000 
  20
0.000000000000000E+000 
  30
0.000000000000000E+000 
  0
VERTEX
  8
0
  10
3.974818947418630E-002 
  20
4.481231250916286E-003 
  30
0.000000000000000E+000 
  0
VERTEX
  8
0
  10
3.968237961744926E-002 
  20
5.030780048526092E-003 
  30
0.000000000000000E+000 
  0
VERTEX
  8
0
  10
3.960897220162111E-002 
  20
5.579365656703674E-003 
  30
0.000000000000000E+000 
  0
VERTEX
  8
0
  10
3.952798128123149E-002 
  20
6.126883043653691E-003 
  30
0.000000000000000E+000 
  0
VERTEX
  8
0
  10
3.943942236274216E-002 
  20
6.673227382101655E-003 
  30
0.000000000000000E+000 
  0
VERTEX
  8
0
  10
3.934331240157825E-002 
  20
7.218294069364054E-003 
  30
0.000000000000000E+000 
  0
VERTEX
  8
0
  10
3.923966979888194E-002 
  20
7.761978747375554E-003 
  30
0.000000000000000E+000 
  0
VERTEX
  8
0
  10
3.912851439798939E-002 
  20
8.304177322669281E-003 
  30
0.000000000000000E+000 
  0
VERTEX
  8
0
  10
3.900986748063154E-002 
  20
8.844785986306497E-003 
  30
0.000000000000000E+000 
  0
VERTEX
  8
0
  10
3.888375176285956E-002 
  20
9.383701233751764E-003 
  30
0.000000000000000E+000 
  0
SEQEND
  0
POLYLINE
  8
0
  66
1
  10
0.000000000000000E+000 
  20
0.000000000000000E+000 
  30
0.000000000000000E+000 
  0
VERTEX
  8
0
  10
3.888375169320680E-002 
  20
9.383701522375784E-003 
  30
0.000000000000000E+000 
  0
VERTEX
  8
0
  10
3.883102023307475E-002 
  20
9.599576431204607E-003 
  30
0.000000000000000E+000 
  0
VERTEX
  8
0
  10
3.877709028788930E-002 
  20
9.815155057607607E-003 
  30
0.000000000000000E+000 
  0
VERTEX
  8
0
  10
3.872196352215047E-002 
  20
1.003043074794139E-002 
  30
0.000000000000000E+000 
  0
VERTEX
  8
0
  10
3.866564163729703E-002 
  20
1.024539685791239E-002 
  30
0.000000000000000E+000 
  0
VERTEX
  8
0
  10
3.860812637165411E-002 
  20
1.046004675278200E-002 
  30
0.000000000000000E+000 
  0
VERTEX
  8
0
  10
3.854941950037944E-002 
  20
1.067437380757127E-002 
  30
0.000000000000000E+000 
  0
VERTEX
  8
0
  10
3.848952283540862E-002 
  20
1.088837140726548E-002 
  30
0.000000000000000E+000 
  0
VERTEX
  8
0
  10
3.842843822539916E-002 
  20
1.110203294701820E-002 
  30
0.000000000000000E+000 
  0
VERTEX
  8
0
  10
3.836616755567348E-002 
  20
1.131535183235521E-002 
  30
0.000000000000000E+000 
  0
SEQEND
  0
POLYLINE
  8
0
  66
1
  10
0.000000000000000E+000 
  20
0.000000000000000E+000 
  30
0.000000000000000E+000 
  0
VERTEX
  8
0
  10
3.990961034836151E-002 
  20
8.477204836616622E-003 
  30
0.000000000000000E+000 
  0
VERTEX
  8
0
  10
3.988352151360747E-002 
  20
8.599111097875792E-003 
  30
0.000000000000000E+000 
  0
VERTEX
  8
0
  10
3.985706030988947E-002 
  20
8.720937074296293E-003 
  30
0.000000000000000E+000 
  0
VERTEX
  8
0
  10
3.983022698426016E-002 
  20
8.842681628460676E-003 
  30
0.000000000000000E+000 
  0
VERTEX
  8
0
  10
3.980302178724653E-002 
  20
8.964343623711709E-003 
  30
0.000000000000000E+000 
  0
VERTEX
  8
0
  10
3.977544497284747E-002 
  20
9.085921924162960E-003 
  30
0.000000000000000E+000 
  0
VERTEX
  8
0
  10
3.974749679853148E-002 
  20
9.207415394709383E-003 
  30
0.000000000000000E+000 
  0
VERTEX
  8
0
  10
3.971917752523421E-002 
  20
9.328822901037977E-003 
  30
0.000000000000000E+000 
  0
VERTEX
  8
0
  10
3.969048741735604E-002 
  20
9.450143309638316E-003 
  30
0.000000000000000E+000 
  0
VERTEX
  8
0
  10
3.966142674275962E-002 
  20
9.571375487813144E-003 
  30
0.000000000000000E+000 
  0
SEQEND
  0
POLYLINE
  8
0
  66
1
  10
0.000000000000000E+000 
  20
0.000000000000000E+000 
  30
0.000000000000000E+000 
  0
VERTEX
  8
0
  10
5.869060345347280E-002 
  20
1.246647770090680E-002 
  30
0.000000000000000E+000 
  0
VERTEX
  8
0
  10
5.854117034581587E-002 
  20
1.315033743073421E-002 
  30
0.000000000000000E+000 
  0
VERTEX
  8
0
  10
5.838376922574581E-002 
  20
1.383240727403788E-002 
  30
0.000000000000000E+000 
  0
VERTEX
  8
0
  10
5.821842151705844E-002 
  20
1.451259439459770E-002 
  30
0.000000000000000E+000 
  0
VERTEX
  8
0
  10
5.804514972515611E-002 
  20
1.519080621245005E-002 
  30
0.000000000000000E+000 
  0
VERTEX
  8
0
  10
5.786397743398465E-002 
  20
1.586695041648887E-002 
  30
0.000000000000000E+000 
  0
VERTEX
  8
0
  10
5.767492930282326E-002 
  20
1.654093497703014E-002 
  30
0.000000000000000E+000 
  0
VERTEX
  8
0
  10
5.747803106292819E-002 
  20
1.721266815833791E-002 
  30
0.000000000000000E+000 
  0
VERTEX
  8
0
  10
5.727330951403051E-002 
  20
1.788205853111043E-002 
  30
0.000000000000000E+000 
  0
VERTEX
  8
0
  10
5.706079252068827E-002 
  20
1.854901498492462E-002 
  30
0.000000000000000E+000 
  0
SEQEND
  0
POLYLINE
  8
0
  66
1
  10
0.000000000000000E+000 
  20
0.000000000000000E+000 
  30
0.000000000000000E+000 
  0
VERTEX
  8
0
  10
3.913349087239020E-002 
  20
1.154165898562920E-002 
  30
0.000000000000000E+000 
  0
VERTEX
  8
0
  10
3.909804206595029E-002 
  20
1.166117946904103E-002 
  30
0.000000000000000E+000 
  0
VERTEX
  8
0
  10
3.906222822410564E-002 
  20
1.178059107888421E-002 
  30
0.000000000000000E+000 
  0
VERTEX
  8
0
  10
3.902604968122902E-002 
  20
1.189989270028284E-002 
  30
0.000000000000000E+000 
  0
VERTEX
  8
0
  10
3.898950677509821E-002 
  20
1.201908321938787E-002 
  30
0.000000000000000E+000 
  0
VERTEX
  8
0
  10
3.895259984689280E-002 
  20
1.213816152338761E-002 
  30
0.000000000000000E+000 
  0
VERTEX
  8
0
  10
3.891532924119106E-002 
  20
1.225712650051802E-002 
  30
0.000000000000000E+000 
  0
VERTEX
  8
0
  10
3.887769530596668E-002 
  20
1.237597704007314E-002 
  30
0.000000000000000E+000 
  0
VERTEX
  8
0
  10
3.883969839258557E-002 
  20
1.249471203241542E-002 
  30
0.000000000000000E+000 
  0
VERTEX
  8
0
  10
3.880133885580257E-002 
  20
1.261333036898615E-002 
  30
0.000000000000000E+000 
  0
SEQEND
  0
POLYLINE
  8
0
  66
1
  10
0.000000000000000E+000 
  20
0.000000000000000E+000 
  30
0.000000000000000E+000 
  0
VERTEX
  8
0
  10
3.836616752195110E-002 
  20
1.131535194669529E-002 
  30
0.000000000000000E+000 
  0
VERTEX
  8
0
  10
3.820592931756789E-002 
  20
1.184512410154506E-002 
  30
0.000000000000000E+000 
  0
VERTEX
  8
0
  10
3.803837623417741E-002 
  20
1.237262839768347E-002 
  30
0.000000000000000E+000 
  0
VERTEX
  8
0
  10
3.786354035136931E-002 
  20
1.289776383952761E-002 
  30
0.000000000000000E+000 
  0
VERTEX
  8
0
  10
3.768145514309252E-002 
  20
1.342042988503366E-002 
  30
0.000000000000000E+000 
  0
VERTEX
  8
0
  10
3.749215547124655E-002 
  20
1.394052646494659E-002 
  30
0.000000000000000E+000 
  0
VERTEX
  8
0
  10
3.729567757900674E-002 
  20
1.445795400195938E-002 
  30
0.000000000000000E+000 
  0
VERTEX
  8
0
  10
3.709205908388521E-002 
  20
1.497261342977799E-002 
  30
0.000000000000000E+000 
  0
VERTEX
  8
0
  10
3.688133897052866E-002 
  20
1.548440621208849E-002 
  30
0.000000000000000E+000 
  0
VERTEX
  8
0
  10
3.666355758325433E-002 
  20
1.599323436142281E-002 
  30
0.000000000000000E+000 
  0
SEQEND
  0
POLYLINE
  8
0
  66
1
  10
0.000000000000000E+000 
  20
0.000000000000000E+000 
  30
0.000000000000000E+000 
  0
VERTEX
  8
0
  10
3.666355746454070E-002 
  20
1.599323463356690E-002 
  30
0.000000000000000E+000 
  0
VERTEX
  8
0
  10
3.657414082925287E-002 
  20
1.619667319550468E-002 
  30
0.000000000000000E+000 
  0
VERTEX
  8
0
  10
3.648359536549590E-002 
  20
1.639961186146694E-002 
  30
0.000000000000000E+000 
  0
VERTEX
  8
0
  10
3.639192386787535E-002 
  20
1.660204436793148E-002 
  30
0.000000000000000E+000 
  0
VERTEX
  8
0
  10
3.629912916575082E-002 
  20
1.680396446699824E-002 
  30
0.000000000000000E+000 
  0
VERTEX
  8
0
  10
3.620521412314863E-002 
  20
1.700536592658216E-002 
  30
0.000000000000000E+000 
  0
VERTEX
  8
0
  10
3.611018163867337E-002 
  20
1.720624253060555E-002 
  30
0.000000000000000E+000 
  0
VERTEX
  8
0
  10
3.601403464541853E-002 
  20
1.740658807918991E-002 
  30
0.000000000000000E+000 
  0
VERTEX
  8
0
  10
3.591677611087593E-002 
  20
1.760639638884727E-002 
  30
0.000000000000000E+000 
  0
VERTEX
  8
0
  10
3.581840903684412E-002 
  20
1.780566129267112E-002 
  30
0.000000000000000E+000 
  0
SEQEND
  0
POLYLINE
  8
0
  66
1
  10
0.000000000000000E+000 
  20
0.000000000000000E+000 
  30
0.000000000000000E+000 
  0
VERTEX
  8
0
  10
3.783124251917491E-002 
  20
1.527864815536290E-002 
  30
0.000000000000000E+000 
  0
VERTEX
  8
0
  10
3.778438123232822E-002 
  20
1.539417210797916E-002 
  30
0.000000000000000E+000 
  0
VERTEX
  8
0
  10
3.773716717495477E-002 
  20
1.550955233427182E-002 
  30
0.000000000000000E+000 
  0
VERTEX
  8
0
  10
3.768960078786440E-002 
  20
1.562478775700365E-002 
  30
0.000000000000000E+000 
  0
VERTEX
  8
0
  10
3.764168251515649E-002 
  20
1.573987730028931E-002 
  30
0.000000000000000E+000 
  0
VERTEX
  8
0
  10
3.759341280421573E-002 
  20
1.585481988960548E-002 
  30
0.000000000000000E+000 
  0
VERTEX
  8
0
  10
3.754479210570799E-002 
  20
1.596961445180087E-002 
  30
0.000000000000000E+000 
  0
VERTEX
  8
0
  10
3.749582087357613E-002 
  20
1.608425991510623E-002 
  30
0.000000000000000E+000 
  0
VERTEX
  8
0
  10
3.744649956503571E-002 
  20
1.619875520914433E-002 
  30
0.000000000000000E+000 
  0
VERTEX
  8
0
  10
3.739682864057076E-002 
  20
1.631309926494002E-002 
  30
0.000000000000000E+000 
  0
SEQEND
  0
POLYLINE
  8
0
  66
1
  10
0.000000000000000E+000 
  20
0.000000000000000E+000 
  30
0.000000000000000E+000 
  0
VERTEX
  8
0
  10
5.563418017525722E-002 
  20
2.246860022847480E-002 
  30
0.000000000000000E+000 
  0
VERTEX
  8
0
  10
5.536826629641564E-002 
  20
2.311612180555394E-002 
  30
0.000000000000000E+000 
  0
VERTEX
  8
0
  10
5.509481626770658E-002 
  20
2.376049705767234E-002 
  30
0.000000000000000E+000 
  0
VERTEX
  8
0
  10
5.481386730829072E-002 
  20
2.440163827920373E-002 
  30
0.000000000000000E+000 
  0
VERTEX
  8
0
  10
5.452545765800477E-002 
  20
2.503945820470431E-002 
  30
0.000000000000000E+000 
  0
VERTEX
  8
0
  10
5.422962657215673E-002 
  20
2.567387002079035E-002 
  30
0.000000000000000E+000 
  0
VERTEX
  8
0
  10
5.392641431618290E-002 
  20
2.630478737795442E-002 
  30
0.000000000000000E+000 
  0
VERTEX
  8
0
  10
5.361586216016728E-002 
  20
2.693212440231827E-002 
  30
0.000000000000000E+000 
  0
VERTEX
  8
0
  10
5.329801237322444E-002 
  20
2.755579570732116E-002 
  30
0.000000000000000E+000 
  0
VERTEX
  8
0
  10
5.297290821774616E-002 
  20
2.817571640534179E-002 
  30
0.000000000000000E+000 
  0
SEQEND
  0
POLYLINE
  8
0
  66
1
  10
0.000000000000000E+000 
  20
0.000000000000000E+000 
  30
0.000000000000000E+000 
  0
VERTEX
  8
0
  10
3.653477716345471E-002 
  20
1.816177462740661E-002 
  30
0.000000000000000E+000 
  0
VERTEX
  8
0
  10
3.647911238989930E-002 
  20
1.827332370547559E-002 
  30
0.000000000000000E+000 
  0
VERTEX
  8
0
  10
3.642310703234400E-002 
  20
1.838470217627725E-002 
  30
0.000000000000000E+000 
  0
VERTEX
  8
0
  10
3.636676161367786E-002 
  20
1.849590899993637E-002 
  30
0.000000000000000E+000 
  0
VERTEX
  8
0
  10
3.631007665996486E-002 
  20
1.860694313818030E-002 
  30
0.000000000000000E+000 
  0
VERTEX
  8
0
  10
3.625305270043910E-002 
  20
1.871780355434864E-002 
  30
0.000000000000000E+000 
  0
VERTEX
  8
0
  10
3.619569026749967E-002 
  20
1.882848921340294E-002 
  30
0.000000000000000E+000 
  0
VERTEX
  8
0
  10
3.613798989670587E-002 
  20
1.893899908193635E-002 
  30
0.000000000000000E+000 
  0
VERTEX
  8
0
  10
3.607995212677211E-002 
  20
1.904933212818329E-002 
  30
0.000000000000000E+000 
  0
VERTEX
  8
0
  10
3.602157749956286E-002 
  20
1.915948732202904E-002 
  30
0.000000000000000E+000 
  0
SEQEND
  0
POLYLINE
  8
0
  66
1
  10
0.000000000000000E+000 
  20
0.000000000000000E+000 
  30
0.000000000000000E+000 
  0
VERTEX
  8
0
  10
3.581840898377912E-002 
  20
1.780566139941831E-002 
  30
0.000000000000000E+000 
  0
VERTEX
  8
0
  10
3.556861118850539E-002 
  20
1.829956005266057E-002 
  30
0.000000000000000E+000 
  0
VERTEX
  8
0
  10
3.531200345320543E-002 
  20
1.878995508565168E-002 
  30
0.000000000000000E+000 
  0
VERTEX
  8
0
  10
3.504863490780670E-002 
  20
1.927675260772085E-002 
  30
0.000000000000000E+000 
  0
VERTEX
  8
0
  10
3.477855597665635E-002 
  20
1.975985941697407E-002 
  30
0.000000000000000E+000 
  0
VERTEX
  8
0
  10
3.450181836886707E-002 
  20
2.023918301813845E-002 
  30
0.000000000000000E+000 
  0
VERTEX
  8
0
  10
3.421847506841683E-002 
  20
2.071463164027138E-002 
  30
0.000000000000000E+000 
  0
VERTEX
  8
0
  10
3.392858032400467E-002 
  20
2.118611425433083E-002 
  30
0.000000000000000E+000 
  0
VERTEX
  8
0
  10
3.363218963866419E-002 
  20
2.165354059060377E-002 
  30
0.000000000000000E+000 
  0
VERTEX
  8
0
  10
3.332935975913714E-002 
  20
2.211682115598910E-002 
  30
0.000000000000000E+000 
  0
SEQEND
  0
POLYLINE
  8
0
  66
1
  10
0.000000000000000E+000 
  20
0.000000000000000E+000 
  30
0.000000000000000E+000 
  0
VERTEX
  8
0
  10
3.332935959496969E-002 
  20
2.211682140338431E-002 
  30
0.000000000000000E+000 
  0
VERTEX
  8
0
  10
3.320597466374234E-002 
  20
2.230164224067147E-002 
  30
0.000000000000000E+000 
  0
VERTEX
  8
0
  10
3.308156485951190E-002 
  20
2.248577475751968E-002 
  30
0.000000000000000E+000 
  0
VERTEX
  8
0
  10
3.295613402207686E-002 
  20
2.266921327084184E-002 
  30
0.000000000000000E+000 
  0
VERTEX
  8
0
  10
3.282968602274890E-002 
  20
2.285195211897072E-002 
  30
0.000000000000000E+000 
  0
VERTEX
  8
0
  10
3.270222476423358E-002 
  20
2.303398566183356E-002 
  30
0.000000000000000E+000 
  0
VERTEX
  8
0
  10
3.257375418050975E-002 
  20
2.321530828112627E-002 
  30
0.000000000000000E+000 
  0
VERTEX
  8
0
  10
3.244427823670822E-002 
  20
2.339591438048676E-002 
  30
0.000000000000000E+000 
  0
VERTEX
  8
0
  10
3.231380092898935E-002 
  20
2.357579838566771E-002 
  30
0.000000000000000E+000 
  0
VERTEX
  8
0
  10
3.218232628441969E-002 
  20
2.375495474470860E-002 
  30
0.000000000000000E+000 
  0
SEQEND
  0
POLYLINE
  8
0
  66
1
  10
0.000000000000000E+000 
  20
0.000000000000000E+000 
  30
0.000000000000000E+000 
  0
VERTEX
  8
0
  10
3.460339152957559E-002 
  20
2.161585748127740E-002 
  30
0.000000000000000E+000 
  0
VERTEX
  8
0
  10
3.453718164712415E-002 
  20
2.172148898840847E-002 
  30
0.000000000000000E+000 
  0
VERTEX
  8
0
  10
3.447064931133709E-002 
  20
2.182691769478264E-002 
  30
0.000000000000000E+000 
  0
VERTEX
  8
0
  10
3.440379514338765E-002 
  20
2.193214261607415E-002 
  30
0.000000000000000E+000 
  0
VERTEX
  8
0
  10
3.433661976745386E-002 
  20
2.203716276985983E-002 
  30
0.000000000000000E+000 
  0
VERTEX
  8
0
  10
3.426912381071266E-002 
  20
2.214197717562835E-002 
  30
0.000000000000000E+000 
  0
VERTEX
  8
0
  10
3.420130790333405E-002 
  20
2.224658485478926E-002 
  30
0.000000000000000E+000 
  0
VERTEX
  8
0
  10
3.413317267847526E-002 
  20
2.235098483068225E-002 
  30
0.000000000000000E+000 
  0
VERTEX
  8
0
  10
3.406471877227479E-002 
  20
2.245517612858621E-002 
  30
0.000000000000000E+000 
  0
VERTEX
  8
0
  10
3.399594682384643E-002 
  20
2.255915777572831E-002 
  30
0.000000000000000E+000 
  0
SEQEND
  0
POLYLINE
  8
0
  66
1
  10
0.000000000000000E+000 
  20
0.000000000000000E+000 
  30
0.000000000000000E+000 
  0
VERTEX
  8
0
  10
5.088734048467002E-002 
  20
3.178802570776092E-002 
  30
0.000000000000000E+000 
  0
VERTEX
  8
0
  10
5.051302549329346E-002 
  20
3.237953451663397E-002 
  30
0.000000000000000E+000 
  0
VERTEX
  8
0
  10
5.013183519669535E-002 
  20
3.296663616160105E-002 
  30
0.000000000000000E+000 
  0
VERTEX
  8
0
  10
4.974382147851581E-002 
  20
3.354925073252091E-002 
  30
0.000000000000000E+000 
  0
VERTEX
  8
0
  10
4.934903715112782E-002 
  20
3.412729892998582E-002 
  30
0.000000000000000E+000 
  0
VERTEX
  8
0
  10
4.894753594844894E-002 
  20
3.470070207611518E-002 
  30
0.000000000000000E+000 
  0
VERTEX
  8
0
  10
4.853937251862760E-002 
  20
3.526938212526417E-002 
  30
0.000000000000000E+000 
  0
VERTEX
  8
0
  10
4.812460241660497E-002 
  20
3.583326167464664E-002 
  30
0.000000000000000E+000 
  0
VERTEX
  8
0
  10
4.770328209655345E-002 
  20
3.639226397487028E-002 
  30
0.000000000000000E+000 
  0
VERTEX
  8
0
  10
4.727546890419265E-002 
  20
3.694631294038296E-002 
  30
0.000000000000000E+000 
  0
SEQEND
  0
POLYLINE
  8
0
  66
1
  10
0.000000000000000E+000 
  20
0.000000000000000E+000 
  30
0.000000000000000E+000 
  0
VERTEX
  8
0
  10
3.282597273789690E-002 
  20
2.423005393743170E-002 
  30
0.000000000000000E+000 
  0
VERTEX
  8
0
  10
3.275178334320279E-002 
  20
2.433024224786728E-002 
  30
0.000000000000000E+000 
  0
VERTEX
  8
0
  10
3.267728816438607E-002 
  20
2.443020340115235E-002 
  30
0.000000000000000E+000 
  0
VERTEX
  8
0
  10
3.260248789696440E-002 
  20
2.452993646400846E-002 
  30
0.000000000000000E+000 
  0
VERTEX
  8
0
  10
3.252738323930385E-002 
  20
2.462944050528672E-002 
  30
0.000000000000000E+000 
  0
VERTEX
  8
0
  10
3.245197489261237E-002 
  20
2.472871459597645E-002 
  30
0.000000000000000E+000 
  0
VERTEX
  8
0
  10
3.237626356093333E-002 
  20
2.482775780921391E-002 
  30
0.000000000000000E+000 
  0
VERTEX
  8
0
  10
3.230024995113886E-002 
  20
2.492656922029091E-002 
  30
0.000000000000000E+000 
  0
VERTEX
  8
0
  10
3.222393477292329E-002 
  20
2.502514790666347E-002 
  30
0.000000000000000E+000 
  0
VERTEX
  8
0
  10
3.214731873879653E-002 
  20
2.512349294796044E-002 
  30
0.000000000000000E+000 
  0
SEQEND
  0
POLYLINE
  8
0
  66
1
  10
0.000000000000000E+000 
  20
0.000000000000000E+000 
  30
0.000000000000000E+000 
  0
VERTEX
  8
0
  10
3.218232621362441E-002 
  20
2.375495484061940E-002 
  30
0.000000000000000E+000 
  0
VERTEX
  8
0
  10
3.185055880706583E-002 
  20
2.419797313160018E-002 
  30
0.000000000000000E+000 
  0
VERTEX
  8
0
  10
3.151269331604371E-002 
  20
2.463635849651843E-002 
  30
0.000000000000000E+000 
  0
VERTEX
  8
0
  10
3.116879442803541E-002 
  20
2.507002700243600E-002 
  30
0.000000000000000E+000 
  0
VERTEX
  8
0
  10
3.081892798566800E-002 
  20
2.549889561950106E-002 
  30
0.000000000000000E+000 
  0
VERTEX
  8
0
  10
3.046316097411213E-002 
  20
2.592288223684496E-002 
  30
0.000000000000000E+000 
  0
VERTEX
  8
0
  10
3.010156150825703E-002 
  20
2.634190567830312E-002 
  30
0.000000000000000E+000 
  0
VERTEX
  8
0
  10
2.973419881966937E-002 
  20
2.675588571795693E-002 
  30
0.000000000000000E+000 
  0
VERTEX
  8
0
  10
2.936114324333816E-002 
  20
2.716474309549378E-002 
  30
0.000000000000000E+000 
  0
VERTEX
  8
0
  10
2.898246620420849E-002 
  20
2.756839953138216E-002 
  30
0.000000000000000E+000 
  0
SEQEND
  0
POLYLINE
  8
0
  66
1
  10
0.000000000000000E+000 
  20
0.000000000000000E+000 
  30
0.000000000000000E+000 
  0
VERTEX
  8
0
  10
1.400000000000001E-002 
  20
4.336808689942018E-019 
  30
0.000000000000000E+000 
  0
VERTEX
  8
0
  10
1.390533701965917E-002 
  20
1.625300701315320E-003 
  30
0.000000000000000E+000 
  0
VERTEX
  8
0
  10
1.362262823290055E-002 
  20
3.228622001439706E-003 
  30
0.000000000000000E+000 
  0
VERTEX
  8
0
  10
1.315569679062743E-002 
  20
4.788281732842629E-003 
  30
0.000000000000000E+000 
  0
VERTEX
  8
0
  10
1.251085713883133E-002 
  20
6.283188175739491E-003 
  30
0.000000000000000E+000 
  0
VERTEX
  8
0
  10
1.169682962655235E-002 
  20
7.693125287385250E-003 
  30
0.000000000000000E+000 
  0
VERTEX
  8
0
  10
1.072462257813219E-002 
  20
8.999026089339685E-003 
  30
0.000000000000000E+000 
  0
VERTEX
  8
0
  10
9.607383424529678E-003 
  20
1.018323051561102E-002 
  30
0.000000000000000E+000 
  0
VERTEX
  8
0
  10
8.360220906892448E-003 
  20
1.122972423472445E-002 
  30
0.000000000000000E+000 
  0
VERTEX
  8
0
  10
7.000000756776058E-003 
  20
1.212435521605722E-002 
  30
0.000000000000000E+000 
  0
SEQEND
  0
POLYLINE
  8
0
  66
1
  10
0.000000000000000E+000 
  20
0.000000000000000E+000 
  30
0.000000000000000E+000 
  0
VERTEX
  8
0
  10
2.699802304417871E-002 
  20
4.384187354057253E-003 
  30
0.000000000000000E+000 
  0
VERTEX
  8
0
  10
2.684199356738117E-002 
  20
5.255637770827474E-003 
  30
0.000000000000000E+000 
  0
VERTEX
  8
0
  10
2.665784275200071E-002 
  20
6.121582055243872E-003 
  30
0.000000000000000E+000 
  0
VERTEX
  8
0
  10
2.644576352586204E-002 
  20
6.981112990323658E-003 
  30
0.000000000000000E+000 
  0
VERTEX
  8
0
  10
2.620597807632652E-002 
  20
7.833330078106902E-003 
  30
0.000000000000000E+000 
  0
VERTEX
  8
0
  10
2.593873761751492E-002 
  20
8.677340483074093E-003 
  30
0.000000000000000E+000 
  0
VERTEX
  8
0
  10
2.564432212711991E-002 
  20
9.512259967536019E-003 
  30
0.000000000000000E+000 
  0
VERTEX
  8
0
  10
2.532304005308401E-002 
  20
1.033721381801609E-002 
  30
0.000000000000000E+000 
  0
VERTEX
  8
0
  10
2.497522799045043E-002 
  20
1.115133776165446E-002 
  30
0.000000000000000E+000 
  0
VERTEX
  8
0
  10
2.460125032872520E-002 
  20
1.195377887167390E-002 
  30
0.000000000000000E+000 
  0
SEQEND
  0
POLYLINE
  8
0
  66
1
  10
0.000000000000000E+000 
  20
0.000000000000000E+000 
  30
0.000000000000000E+000 
  0
VERTEX
  8
0
  10
3.687242843956180E-002 
  20
1.426191070436746E-003 
  30
0.000000000000000E+000 
  0
VERTEX
  8
0
  10
3.684963917223114E-002 
  20
1.927198193328176E-003 
  30
0.000000000000000E+000 
  0
VERTEX
  8
0
  10
3.682004274486876E-002 
  20
2.427849308757674E-003 
  30
0.000000000000000E+000 
  0
VERTEX
  8
0
  10
3.678364462476343E-002 
  20
2.928051932447528E-003 
  30
0.000000000000000E+000 
  0
VERTEX
  8
0
  10
3.674045153566696E-002 
  20
3.427713662969001E-003 
  30
0.000000000000000E+000 
  0
VERTEX
  8
0
  10
3.669047145655218E-002 
  20
3.926742198811489E-003 
  30
0.000000000000000E+000 
  0
VERTEX
  8
0
  10
3.663371362013898E-002 
  20
4.425045355433147E-003 
  30
0.000000000000000E+000 
  0
VERTEX
  8
0
  10
3.657018851118880E-002 
  20
4.922531082289992E-003 
  30
0.000000000000000E+000 
  0
VERTEX
  8
0
  10
3.649990786456777E-002 
  20
5.419107479840205E-003 
  30
0.000000000000000E+000 
  0
VERTEX
  8
0
  10
3.642288466307897E-002 
  20
5.914682816520545E-003 
  30
0.000000000000000E+000 
  0
SEQEND
  0
POLYLINE
  8
0
  66
1
  10
0.000000000000000E+000 
  20
0.000000000000000E+000 
  30
0.000000000000000E+000 
  0
VERTEX
  8
0
  10
2.333423075464390E-002 
  20
9.025462370164189E-004 
  30
0.000000000000000E+000 
  0
VERTEX
  8
0
  10
2.331980886693196E-002 
  20
1.219601996835198E-003 
  30
0.000000000000000E+000 
  0
VERTEX
  8
0
  10
2.330107915763935E-002 
  20
1.536432462020061E-003 
  30
0.000000000000000E+000 
  0
VERTEX
  8
0
  10
2.327804508666774E-002 
  20
1.852979105113798E-003 
  30
0.000000000000000E+000 
  0
VERTEX
  8
0
  10
2.325071090905494E-002 
  20
2.169183451089104E-003 
  30
0.000000000000000E+000 
  0
VERTEX
  8
0
  10
2.321908167418880E-002 
  20
2.484987088150525E-003 
  30
0.000000000000000E+000 
  0
VERTEX
  8
0
  10
2.318316322487455E-002 
  20
2.800331678524772E-003 
  30
0.000000000000000E+000 
  0
VERTEX
  8
0
  10
2.314296219625537E-002 
  20
3.115158969237313E-003 
  30
0.000000000000000E+000 
  0
VERTEX
  8
0
  10
2.309848601458676E-002 
  20
3.429410802873363E-003 
  30
0.000000000000000E+000 
  0
VERTEX
  8
0
  10
2.304974289586465E-002 
  20
3.743029128321168E-003 
  30
0.000000000000000E+000 
  0
SEQEND
  0
POLYLINE
  8
0
  66
1
  10
0.000000000000000E+000 
  20
0.000000000000000E+000 
  30
0.000000000000000E+000 
  0
VERTEX
  8
0
  10
2.304974286857390E-002 
  20
3.743029296378868E-003 
  30
0.000000000000000E+000 
  0
VERTEX
  8
0
  10
2.291653165847098E-002 
  20
4.487035922212026E-003 
  30
0.000000000000000E+000 
  0
VERTEX
  8
0
  10
2.275931166734006E-002 
  20
5.226341650696200E-003 
  30
0.000000000000000E+000 
  0
VERTEX
  8
0
  10
2.257824760860274E-002 
  20
5.960171939260452E-003 
  30
0.000000000000000E+000 
  0
VERTEX
  8
0
  10
2.237352917620586E-002 
  20
6.687757981744554E-003 
  30
0.000000000000000E+000 
  0
VERTEX
  8
0
  10
2.214537084588636E-002 
  20
7.408337513848087E-003 
  30
0.000000000000000E+000 
  0
VERTEX
  8
0
  10
2.189401165047321E-002 
  20
8.121155611725783E-003 
  30
0.000000000000000E+000 
  0
VERTEX
  8
0
  10
2.161971492946178E-002 
  20
8.825465482892654E-003 
  30
0.000000000000000E+000 
  0
VERTEX
  8
0
  10
2.132276805312297E-002 
  20
9.520529248610122E-003 
  30
0.000000000000000E+000 
  0
VERTEX
  8
0
  10
2.100348212143636E-002 
  20
1.020561871693360E-002 
  30
0.000000000000000E+000 
  0
SEQEND
  0
POLYLINE
  8
0
  66
1
  10
0.000000000000000E+000 
  20
0.000000000000000E+000 
  30
0.000000000000000E+000 
  0
VERTEX
  8
0
  10
2.460125012115861E-002 
  20
1.195377929885240E-002 
  30
0.000000000000000E+000 
  0
VERTEX
  8
0
  10
2.454268604350862E-002 
  20
1.207356239140904E-002 
  30
0.000000000000000E+000 
  0
VERTEX
  8
0
  10
2.448353874819379E-002 
  20
1.219305857507349E-002 
  30
0.000000000000000E+000 
  0
VERTEX
  8
0
  10
2.442380964075498E-002 
  20
1.231226501021015E-002 
  30
0.000000000000000E+000 
  0
VERTEX
  8
0
  10
2.436350014055884E-002 
  20
1.243117886406880E-002 
  30
0.000000000000000E+000 
  0
VERTEX
  8
0
  10
2.430261168076415E-002 
  20
1.254979731085199E-002 
  30
0.000000000000000E+000 
  0
VERTEX
  8
0
  10
2.424114570828773E-002 
  20
1.266811753178212E-002 
  30
0.000000000000000E+000 
  0
VERTEX
  8
0
  10
2.417910368377008E-002 
  20
1.278613671516845E-002 
  30
0.000000000000000E+000 
  0
VERTEX
  8
0
  10
2.411648708154063E-002 
  20
1.290385205647393E-002 
  30
0.000000000000000E+000 
  0
VERTEX
  8
0
  10
2.405329738958275E-002 
  20
1.302126075838181E-002 
  30
0.000000000000000E+000 
  0
SEQEND
  0
POLYLINE
  8
0
  66
1
  10
0.000000000000000E+000 
  20
0.000000000000000E+000 
  30
0.000000000000000E+000 
  0
VERTEX
  8
0
  10
2.100348194422500E-002 
  20
1.020561908164010E-002 
  30
0.000000000000000E+000 
  0
VERTEX
  8
0
  10
2.095348247096879E-002 
  20
1.030788469860454E-002 
  30
0.000000000000000E+000 
  0
VERTEX
  8
0
  10
2.090298507172782E-002 
  20
1.040990536518201E-002 
  30
0.000000000000000E+000 
  0
VERTEX
  8
0
  10
2.085199094649199E-002 
  20
1.051167865701464E-002 
  30
0.000000000000000E+000 
  0
VERTEX
  8
0
  10
2.080050130705511E-002 
  20
1.061320215562296E-002 
  30
0.000000000000000E+000 
  0
VERTEX
  8
0
  10
2.074851737698606E-002 
  20
1.071447344846349E-002 
  30
0.000000000000000E+000 
  0
VERTEX
  8
0
  10
2.069604039159976E-002 
  20
1.081549012898597E-002 
  30
0.000000000000000E+000 
  0
VERTEX
  8
0
  10
2.064307159792781E-002 
  20
1.091624979669063E-002 
  30
0.000000000000000E+000 
  0
VERTEX
  8
0
  10
2.058961225468884E-002 
  20
1.101675005718518E-002 
  30
0.000000000000000E+000 
  0
VERTEX
  8
0
  10
2.053566363225861E-002 
  20
1.111698852224174E-002 
  30
0.000000000000000E+000 
  0
SEQEND
  0
POLYLINE
  8
0
  66
1
  10
0.000000000000000E+000 
  20
0.000000000000000E+000 
  30
0.000000000000000E+000 
  0
VERTEX
  8
0
  10
3.437429643146142E-002 
  20
1.329565659160548E-003 
  30
0.000000000000000E+000 
  0
VERTEX
  8
0
  10
3.435305115243231E-002 
  20
1.796629210040360E-003 
  30
0.000000000000000E+000 
  0
VERTEX
  8
0
  10
3.432545990307552E-002 
  20
2.263360873204992E-003 
  30
0.000000000000000E+000 
  0
VERTEX
  8
0
  10
3.429152778026731E-002 
  20
2.729674430249190E-003 
  30
0.000000000000000E+000 
  0
VERTEX
  8
0
  10
3.425126105222075E-002 
  20
3.195483740003630E-003 
  30
0.000000000000000E+000 
  0
VERTEX
  8
0
  10
3.420466715732783E-002 
  20
3.660702754447571E-003 
  30
0.000000000000000E+000 
  0
VERTEX
  8
0
  10
3.415175470278543E-002 
  20
4.125245534604352E-003 
  30
0.000000000000000E+000 
  0
VERTEX
  8
0
  10
3.409253346300532E-002 
  20
4.589026266416692E-003 
  30
0.000000000000000E+000 
  0
VERTEX
  8
0
  10
3.402701437780847E-002 
  20
5.051959276599001E-003 
  30
0.000000000000000E+000 
  0
VERTEX
  8
0
  10
3.395520955040426E-002 
  20
5.513959048463600E-003 
  30
0.000000000000000E+000 
  0
SEQEND
  0
POLYLINE
  8
0
  66
1
  10
0.000000000000000E+000 
  20
0.000000000000000E+000 
  30
0.000000000000000E+000 
  0
VERTEX
  8
0
  10
2.733124196760460E-002 
  20
1.057146895058343E-003 
  30
0.000000000000000E+000 
  0
VERTEX
  8
0
  10
2.731434969861018E-002 
  20
1.428512370095708E-003 
  30
0.000000000000000E+000 
  0
VERTEX
  8
0
  10
2.729241170450861E-002 
  20
1.799613958904361E-003 
  30
0.000000000000000E+000 
  0
VERTEX
  8
0
  10
2.726543203786161E-002 
  20
2.170383108631147E-003 
  30
0.000000000000000E+000 
  0
VERTEX
  8
0
  10
2.723341568256896E-002 
  20
2.540751327833710E-003 
  30
0.000000000000000E+000 
  0
VERTEX
  8
0
  10
2.719636855294783E-002 
  20
2.910650199132803E-003 
  30
0.000000000000000E+000 
  0
VERTEX
  8
0
  10
2.715429749264027E-002 
  20
3.280011391850859E-003 
  30
0.000000000000000E+000 
  0
VERTEX
  8
0
  10
2.710721027334898E-002 
  20
3.648766674634606E-003 
  30
0.000000000000000E+000 
  0
VERTEX
  8
0
  10
2.705511559340167E-002 
  20
4.016847928059301E-003 
  30
0.000000000000000E+000 
  0
VERTEX
  8
0
  10
2.699802307614420E-002 
  20
4.384187157212291E-003 
  30
0.000000000000000E+000 
  0
SEQEND
  0
POLYLINE
  8
0
  66
1
  10
0.000000000000000E+000 
  20
0.000000000000000E+000 
  30
0.000000000000000E+000 
  0
VERTEX
  8
0
  10
2.330339133829911E-002 
  20
1.432013614403050E-002 
  30
0.000000000000000E+000 
  0
VERTEX
  8
0
  10
2.323330726609705E-002 
  20
1.443356437366054E-002 
  30
0.000000000000000E+000 
  0
VERTEX
  8
0
  10
2.316267109152177E-002 
  20
1.454664961272736E-002 
  30
0.000000000000000E+000 
  0
VERTEX
  8
0
  10
2.309148449312894E-002 
  20
1.465938917394118E-002 
  30
0.000000000000000E+000 
  0
VERTEX
  8
0
  10
2.301974916255417E-002 
  20
1.477178037822674E-002 
  30
0.000000000000000E+000 
  0
VERTEX
  8
0
  10
2.294746680447281E-002 
  20
1.488382055478687E-002 
  30
0.000000000000000E+000 
  0
VERTEX
  8
0
  10
2.287463913655944E-002 
  20
1.499550704116606E-002 
  30
0.000000000000000E+000 
  0
VERTEX
  8
0
  10
2.280126788944707E-002 
  20
1.510683718331365E-002 
  30
0.000000000000000E+000 
  0
VERTEX
  8
0
  10
2.272735480668599E-002 
  20
1.521780833564696E-002 
  30
0.000000000000000E+000 
  0
VERTEX
  8
0
  10
2.265290164470234E-002 
  20
1.532841786111409E-002 
  30
0.000000000000000E+000 
  0
SEQEND
  0
POLYLINE
  8
0
  66
1
  10
0.000000000000000E+000 
  20
0.000000000000000E+000 
  30
0.000000000000000E+000 
  0
VERTEX
  8
0
  10
2.333370811439520E-002 
  20
2.858580181894860E-002 
  30
0.000000000000000E+000 
  0
VERTEX
  8
0
  10
2.294303888637841E-002 
  20
2.890029353930731E-002 
  30
0.000000000000000E+000 
  0
VERTEX
  8
0
  10
2.254813143674475E-002 
  20
2.920944656632994E-002 
  30
0.000000000000000E+000 
  0
VERTEX
  8
0
  10
2.214905871595636E-002 
  20
2.951320379079708E-002 
  30
0.000000000000000E+000 
  0
VERTEX
  8
0
  10
2.174589444391761E-002 
  20
2.981150910024509E-002 
  30
0.000000000000000E+000 
  0
VERTEX
  8
0
  10
2.133871309635687E-002 
  20
3.010430738933170E-002 
  30
0.000000000000000E+000 
  0
VERTEX
  8
0
  10
2.092758989106889E-002 
  20
3.039154457001544E-002 
  30
0.000000000000000E+000 
  0
VERTEX
  8
0
  10
2.051260077401985E-002 
  20
3.067316758154730E-002 
  30
0.000000000000000E+000 
  0
VERTEX
  8
0
  10
2.009382240531809E-002 
  20
3.094912440027247E-002 
  30
0.000000000000000E+000 
  0
VERTEX
  8
0
  10
1.967133214505282E-002 
  20
3.121936404924058E-002 
  30
0.000000000000000E+000 
  0
SEQEND
  0
POLYLINE
  8
0
  66
1
  10
0.000000000000000E+000 
  20
0.000000000000000E+000 
  30
0.000000000000000E+000 
  0
VERTEX
  8
0
  10
1.989542632194180E-002 
  20
1.222591207596010E-002 
  30
0.000000000000000E+000 
  0
VERTEX
  8
0
  10
1.983559157623483E-002 
  20
1.232275218616861E-002 
  30
0.000000000000000E+000 
  0
VERTEX
  8
0
  10
1.977528546943157E-002 
  20
1.241929946588817E-002 
  30
0.000000000000000E+000 
  0
VERTEX
  8
0
  10
1.971450943461015E-002 
  20
1.251555162082716E-002 
  30
0.000000000000000E+000 
  0
VERTEX
  8
0
  10
1.965326491601578E-002 
  20
1.261150636370711E-002 
  30
0.000000000000000E+000 
  0
VERTEX
  8
0
  10
1.959155336902648E-002 
  20
1.270716141431711E-002 
  30
0.000000000000000E+000 
  0
VERTEX
  8
0
  10
1.952937626011841E-002 
  20
1.280251449956791E-002 
  30
0.000000000000000E+000 
  0
VERTEX
  8
0
  10
1.946673506683107E-002 
  20
1.289756335354602E-002 
  30
0.000000000000000E+000 
  0
VERTEX
  8
0
  10
1.940363127773219E-002 
  20
1.299230571756750E-002 
  30
0.000000000000000E+000 
  0
VERTEX
  8
0
  10
1.934006639238237E-002 
  20
1.308673934023166E-002 
  30
0.000000000000000E+000 
  0
SEQEND
  0
POLYLINE
  8
0
  66
1
  10
0.000000000000000E+000 
  20
0.000000000000000E+000 
  30
0.000000000000000E+000 
  0
VERTEX
  8
0
  10
1.934006635816010E-002 
  20
1.308673939080660E-002 
  30
0.000000000000000E+000 
  0
VERTEX
  8
0
  10
1.890640445131943E-002 
  20
1.370579386041007E-002 
  30
0.000000000000000E+000 
  0
VERTEX
  8
0
  10
1.845293502162742E-002 
  20
1.431048928962674E-002 
  30
0.000000000000000E+000 
  0
VERTEX
  8
0
  10
1.798013315180614E-002 
  20
1.490019216199063E-002 
  30
0.000000000000000E+000 
  0
VERTEX
  8
0
  10
1.748849417844191E-002 
  20
1.547428466816894E-002 
  30
0.000000000000000E+000 
  0
VERTEX
  8
0
  10
1.697853317303997E-002 
  20
1.603216535321743E-002 
  30
0.000000000000000E+000 
  0
VERTEX
  8
0
  10
1.645078440240362E-002 
  20
1.657324974670197E-002 
  30
0.000000000000000E+000 
  0
VERTEX
  8
0
  10
1.590580076890311E-002 
  20
1.709697097502607E-002 
  30
0.000000000000000E+000 
  0
VERTEX
  8
0
  10
1.534415323122081E-002 
  20
1.760278035532278E-002 
  30
0.000000000000000E+000 
  0
VERTEX
  8
0
  10
1.476643020617949E-002 
  20
1.809014797028897E-002 
  30
0.000000000000000E+000 
  0
SEQEND
  0
POLYLINE
  8
0
  66
1
  10
0.000000000000000E+000 
  20
0.000000000000000E+000 
  30
0.000000000000000E+000 
  0
VERTEX
  8
0
  10
2.265290160461799E-002 
  20
1.532841792035220E-002 
  30
0.000000000000000E+000 
  0
VERTEX
  8
0
  10
2.214495606175340E-002 
  20
1.605351263968388E-002 
  30
0.000000000000000E+000 
  0
VERTEX
  8
0
  10
2.161381008834877E-002 
  20
1.676178870270927E-002 
  30
0.000000000000000E+000 
  0
VERTEX
  8
0
  10
2.106002014589483E-002 
  20
1.745250407546100E-002 
  30
0.000000000000000E+000 
  0
VERTEX
  8
0
  10
2.048416641910985E-002 
  20
1.812493512164087E-002 
  30
0.000000000000000E+000 
  0
VERTEX
  8
0
  10
1.988685220810211E-002 
  20
1.877837736074613E-002 
  30
0.000000000000000E+000 
  0
VERTEX
  8
0
  10
1.926870329631521E-002 
  20
1.941214620612697E-002 
  30
0.000000000000000E+000 
  0
VERTEX
  8
0
  10
1.863036729491855E-002 
  20
2.002557768220203E-002 
  30
0.000000000000000E+000 
  0
VERTEX
  8
0
  10
1.797251296432963E-002 
  20
2.061802912008036E-002 
  30
0.000000000000000E+000 
  0
VERTEX
  8
0
  10
1.729582951357917E-002 
  20
2.118887983086134E-002 
  30
0.000000000000000E+000 
  0
SEQEND
  0
POLYLINE
  8
0
  66
1
  10
0.000000000000000E+000 
  20
0.000000000000000E+000 
  30
0.000000000000000E+000 
  0
VERTEX
  8
0
  10
1.476642989206040E-002 
  20
1.809014822669471E-002 
  30
0.000000000000000E+000 
  0
VERTEX
  8
0
  10
1.451920001594240E-002 
  20
1.828917017029421E-002 
  30
0.000000000000000E+000 
  0
VERTEX
  8
0
  10
1.426928803708850E-002 
  20
1.848481359212272E-002 
  30
0.000000000000000E+000 
  0
VERTEX
  8
0
  10
1.401674012123796E-002 
  20
1.867704235136282E-002 
  30
0.000000000000000E+000 
  0
VERTEX
  8
0
  10
1.376160292106139E-002 
  20
1.886582093798087E-002 
  30
0.000000000000000E+000 
  0
VERTEX
  8
0
  10
1.350392356754274E-002 
  20
1.905111447928669E-002 
  30
0.000000000000000E+000 
  0
VERTEX
  8
0
  10
1.324374966127282E-002 
  20
1.923288874637556E-002 
  30
0.000000000000000E+000 
  0
VERTEX
  8
0
  10
1.298112926365619E-002 
  20
1.941111016045121E-002 
  30
0.000000000000000E+000 
  0
VERTEX
  8
0
  10
1.271611088803286E-002 
  20
1.958574579902884E-002 
  30
0.000000000000000E+000 
  0
VERTEX
  8
0
  10
1.244874349071650E-002 
  20
1.975676340201672E-002 
  30
0.000000000000000E+000 
  0
SEQEND
  0
POLYLINE
  8
0
  66
1
  10
0.000000000000000E+000 
  20
0.000000000000000E+000 
  30
0.000000000000000E+000 
  0
VERTEX
  8
0
  10
2.175283358089961E-002 
  20
2.664909437864051E-002 
  30
0.000000000000000E+000 
  0
VERTEX
  8
0
  10
2.138863245776199E-002 
  20
2.694227907187462E-002 
  30
0.000000000000000E+000 
  0
VERTEX
  8
0
  10
2.102048025539347E-002 
  20
2.723048677186317E-002 
  30
0.000000000000000E+000 
  0
VERTEX
  8
0
  10
2.064844498181297E-002 
  20
2.751366423857507E-002 
  30
0.000000000000000E+000 
  0
VERTEX
  8
0
  10
2.027259536235137E-002 
  20
2.779175916120409E-002 
  30
0.000000000000000E+000 
  0
VERTEX
  8
0
  10
1.989300082695599E-002 
  20
2.806472016783224E-002 
  30
0.000000000000000E+000 
  0
VERTEX
  8
0
  10
1.950973149736502E-002 
  20
2.833249683491952E-002 
  30
0.000000000000000E+000 
  0
VERTEX
  8
0
  10
1.912285817415400E-002 
  20
2.859503969661860E-002 
  30
0.000000000000000E+000 
  0
VERTEX
  8
0
  10
1.873245232365697E-002 
  20
2.885230025391252E-002 
  30
0.000000000000000E+000 
  0
VERTEX
  8
0
  10
1.833858606476470E-002 
  20
2.910423098357385E-002 
  30
0.000000000000000E+000 
  0
SEQEND
  0
POLYLINE
  8
0
  66
1
  10
0.000000000000000E+000 
  20
0.000000000000000E+000 
  30
0.000000000000000E+000 
  0
VERTEX
  8
0
  10
1.729582914565340E-002 
  20
2.118888013118780E-002 
  30
0.000000000000000E+000 
  0
VERTEX
  8
0
  10
1.700625030172869E-002 
  20
2.142199331818659E-002 
  30
0.000000000000000E+000 
  0
VERTEX
  8
0
  10
1.671352992725053E-002 
  20
2.165114926326957E-002 
  30
0.000000000000000E+000 
  0
VERTEX
  8
0
  10
1.641772209586737E-002 
  20
2.187630563491801E-002 
  30
0.000000000000000E+000 
  0
VERTEX
  8
0
  10
1.611888145156737E-002 
  20
2.209742084044641E-002 
  30
0.000000000000000E+000 
  0
VERTEX
  8
0
  10
1.581706319858414E-002 
  20
2.231445403368573E-002 
  30
0.000000000000000E+000 
  0
VERTEX
  8
0
  10
1.551232309119901E-002 
  20
2.252736512252894E-002 
  30
0.000000000000000E+000 
  0
VERTEX
  8
0
  10
1.520471742344158E-002 
  20
2.273611477633706E-002 
  30
0.000000000000000E+000 
  0
VERTEX
  8
0
  10
1.489430301869070E-002 
  20
2.294066443320468E-002 
  30
0.000000000000000E+000 
  0
VERTEX
  8
0
  10
1.458113721917759E-002 
  20
2.314097630708345E-002 
  30
0.000000000000000E+000 
  0
SEQEND
  0
POLYLINE
  8
0
  66
1
  10
0.000000000000000E+000 
  20
0.000000000000000E+000 
  30
0.000000000000000E+000 
  0
VERTEX
  8
0
  10
2.956211531956690E-002 
  20
2.811976774144180E-002 
  30
0.000000000000000E+000 
  0
VERTEX
  8
0
  10
2.940543899633014E-002 
  20
2.828356691496154E-002 
  30
0.000000000000000E+000 
  0
VERTEX
  8
0
  10
2.924785510025819E-002 
  20
2.844649314123446E-002 
  30
0.000000000000000E+000 
  0
VERTEX
  8
0
  10
2.908936849503849E-002 
  20
2.860854139168685E-002 
  30
0.000000000000000E+000 
  0
VERTEX
  8
0
  10
2.892998407221974E-002 
  20
2.876970666484295E-002 
  30
0.000000000000000E+000 
  0
VERTEX
  8
0
  10
2.876970675106103E-002 
  20
2.892998398647933E-002 
  30
0.000000000000000E+000 
  0
VERTEX
  8
0
  10
2.860854147837993E-002 
  20
2.908936840977839E-002 
  30
0.000000000000000E+000 
  0
VERTEX
  8
0
  10
2.844649322839988E-002 
  20
2.924785501548104E-002 
  30
0.000000000000000E+000 
  0
VERTEX
  8
0
  10
2.828356700259659E-002 
  20
2.940543891203854E-002 
  30
0.000000000000000E+000 
  0
VERTEX
  8
0
  10
2.811976782954377E-002 
  20
2.956211523576346E-002 
  30
0.000000000000000E+000 
  0
SEQEND
  0
POLYLINE
  8
0
  66
1
  10
0.000000000000000E+000 
  20
0.000000000000000E+000 
  30
0.000000000000000E+000 
  0
VERTEX
  8
0
  10
3.745922435110190E-002 
  20
3.371893401360451E-002 
  30
0.000000000000000E+000 
  0
VERTEX
  8
0
  10
3.706329645596063E-002 
  20
3.415365362325939E-002 
  30
0.000000000000000E+000 
  0
VERTEX
  8
0
  10
3.666232389217865E-002 
  20
3.458372459445321E-002 
  30
0.000000000000000E+000 
  0
VERTEX
  8
0
  10
3.625636123595164E-002 
  20
3.500908839041921E-002 
  30
0.000000000000000E+000 
  0
VERTEX
  8
0
  10
3.584546374267447E-002 
  20
3.542968711508207E-002 
  30
0.000000000000000E+000 
  0
VERTEX
  8
0
  10
3.542968733942046E-002 
  20
3.584546352093822E-002 
  30
0.000000000000000E+000 
  0
VERTEX
  8
0
  10
3.500908861732920E-002 
  20
3.625636101684770E-002 
  30
0.000000000000000E+000 
  0
VERTEX
  8
0
  10
3.458372482390391E-002 
  20
3.666232367573683E-002 
  30
0.000000000000000E+000 
  0
VERTEX
  8
0
  10
3.415365385521955E-002 
  20
3.706329624221039E-002 
  30
0.000000000000000E+000 
  0
VERTEX
  8
0
  10
3.371893424804260E-002 
  20
3.745922414007237E-002 
  30
0.000000000000000E+000 
  0
SEQEND
  0
POLYLINE
  8
0
  66
1
  10
0.000000000000000E+000 
  20
0.000000000000000E+000 
  30
0.000000000000000E+000 
  0
VERTEX
  8
0
  10
2.423005393743169E-002 
  20
3.282597273789690E-002 
  30
0.000000000000000E+000 
  0
VERTEX
  8
0
  10
2.404731445160966E-002 
  20
3.296007687590256E-002 
  30
0.000000000000000E+000 
  0
VERTEX
  8
0
  10
2.386383276672173E-002 
  20
3.309316373032263E-002 
  30
0.000000000000000E+000 
  0
VERTEX
  8
0
  10
2.367961454576762E-002 
  20
3.322522919354919E-002 
  30
0.000000000000000E+000 
  0
VERTEX
  8
0
  10
2.349466547447960E-002 
  20
3.335626918949870E-002 
  30
0.000000000000000E+000 
  0
VERTEX
  8
0
  10
2.330899126114699E-002 
  20
3.348627967373768E-002 
  30
0.000000000000000E+000 
  0
VERTEX
  8
0
  10
2.312259763643993E-002 
  20
3.361525663360769E-002 
  30
0.000000000000000E+000 
  0
VERTEX
  8
0
  10
2.293549035323262E-002 
  20
3.374319608834907E-002 
  30
0.000000000000000E+000 
  0
VERTEX
  8
0
  10
2.274767518642564E-002 
  20
3.387009408922384E-002 
  30
0.000000000000000E+000 
  0
VERTEX
  8
0
  10
2.255915793276782E-002 
  20
3.399594671963757E-002 
  30
0.000000000000000E+000 
  0
SEQEND
  0
POLYLINE
  8
0
  66
1
  10
0.000000000000000E+000 
  20
0.000000000000000E+000 
  30
0.000000000000000E+000 
  0
VERTEX
  8
0
  10
3.103490311845500E-002 
  20
3.971139368529030E-002 
  30
0.000000000000000E+000 
  0
VERTEX
  8
0
  10
3.056950198967340E-002 
  20
4.007075676978606E-002 
  30
0.000000000000000E+000 
  0
VERTEX
  8
0
  10
3.009994005970047E-002 
  20
4.042466584156806E-002 
  30
0.000000000000000E+000 
  0
VERTEX
  8
0
  10
2.962628124039969E-002 
  20
4.077307273023145E-002 
  30
0.000000000000000E+000 
  0
VERTEX
  8
0
  10
2.914859000126030E-002 
  20
4.111593001427099E-002 
  30
0.000000000000000E+000 
  0
VERTEX
  8
0
  10
2.866693136062239E-002 
  20
4.145319102753570E-002 
  30
0.000000000000000E+000 
  0
VERTEX
  8
0
  10
2.818137087682730E-002 
  20
4.178480986558049E-002 
  30
0.000000000000000E+000 
  0
VERTEX
  8
0
  10
2.769197463929445E-002 
  20
4.211074139191419E-002 
  30
0.000000000000000E+000 
  0
VERTEX
  8
0
  10
2.719880925952606E-002 
  20
4.243094124414307E-002 
  30
0.000000000000000E+000 
  0
VERTEX
  8
0
  10
2.670194186204054E-002 
  20
4.274536584000901E-002 
  30
0.000000000000000E+000 
  0
SEQEND
  0
POLYLINE
  8
0
  66
1
  10
0.000000000000000E+000 
  20
0.000000000000000E+000 
  30
0.000000000000000E+000 
  0
VERTEX
  8
0
  10
4.072093245885861E-002 
  20
2.538830376585512E-003 
  30
0.000000000000000E+000 
  0
VERTEX
  8
0
  10
4.070619951129019E-002 
  20
2.765017422555644E-003 
  30
0.000000000000000E+000 
  0
VERTEX
  8
0
  10
4.069021020292048E-002 
  20
2.991119128711541E-003 
  30
0.000000000000000E+000 
  0
VERTEX
  8
0
  10
4.067296502724532E-002 
  20
3.217128516624250E-003 
  30
0.000000000000000E+000 
  0
VERTEX
  8
0
  10
4.065446451652180E-002 
  20
3.443038610714173E-003 
  30
0.000000000000000E+000 
  0
VERTEX
  8
0
  10
4.063470924175178E-002 
  20
3.668842438466295E-003 
  30
0.000000000000000E+000 
  0
VERTEX
  8
0
  10
4.061369981266434E-002 
  20
3.894533030645430E-003 
  30
0.000000000000000E+000 
  0
VERTEX
  8
0
  10
4.059143687769689E-002 
  20
4.120103421511305E-003 
  30
0.000000000000000E+000 
  0
VERTEX
  8
0
  10
4.056792112397520E-002 
  20
4.345546649033548E-003 
  30
0.000000000000000E+000 
  0
VERTEX
  8
0
  10
4.054315327729221E-002 
  20
4.570855755106597E-003 
  30
0.000000000000000E+000 
  0
SEQEND
  0
POLYLINE
  8
0
  66
1
  10
0.000000000000000E+000 
  20
0.000000000000000E+000 
  30
0.000000000000000E+000 
  0
VERTEX
  8
0
  10
5.036954365349171E-002 
  20
1.751876747660576E-003 
  30
0.000000000000000E+000 
  0
VERTEX
  8
0
  10
5.034567766831686E-002 
  20
2.339388834277643E-003 
  30
0.000000000000000E+000 
  0
VERTEX
  8
0
  10
5.031495915555775E-002 
  20
2.926582507730757E-003 
  30
0.000000000000000E+000 
  0
VERTEX
  8
0
  10
5.027739229629741E-002 
  20
3.513377845352675E-003 
  30
0.000000000000000E+000 
  0
VERTEX
  8
0
  10
5.023298220374416E-002 
  20
4.099694978693428E-003 
  30
0.000000000000000E+000 
  0
VERTEX
  8
0
  10
5.018173492253576E-002 
  20
4.685454104391218E-003 
  30
0.000000000000000E+000 
  0
VERTEX
  8
0
  10
5.012365742791663E-002 
  20
5.270575495034452E-003 
  30
0.000000000000000E+000 
  0
VERTEX
  8
0
  10
5.005875762478852E-002 
  20
5.854979510013337E-003 
  30
0.000000000000000E+000 
  0
VERTEX
  8
0
  10
4.998704434663449E-002 
  20
6.438586606359753E-003 
  30
0.000000000000000E+000 
  0
VERTEX
  8
0
  10
4.990852735431662E-002 
  20
7.021317349573857E-003 
  30
0.000000000000000E+000 
  0
SEQEND
  0
POLYLINE
  8
0
  66
1
  10
0.000000000000000E+000 
  20
0.000000000000000E+000 
  30
0.000000000000000E+000 
  0
VERTEX
  8
0
  10
3.966142672707090E-002 
  20
9.571375552823292E-003 
  30
0.000000000000000E+000 
  0
VERTEX
  8
0
  10
3.960764063773625E-002 
  20
9.791567959828690E-003 
  30
0.000000000000000E+000 
  0
VERTEX
  8
0
  10
3.955263209364711E-002 
  20
1.001145815875975E-002 
  30
0.000000000000000E+000 
  0
VERTEX
  8
0
  10
3.949640279259350E-002 
  20
1.023103936290020E-002 
  30
0.000000000000000E+000 
  0
VERTEX
  8
0
  10
3.943895447004302E-002 
  20
1.045030479507064E-002 
  30
0.000000000000000E+000 
  0
VERTEX
  8
0
  10
3.938028889908726E-002 
  20
1.066924768783763E-002 
  30
0.000000000000000E+000 
  0
VERTEX
  8
0
  10
3.932040789038711E-002 
  20
1.088786128372270E-002 
  30
0.000000000000000E+000 
  0
VERTEX
  8
0
  10
3.925931329211688E-002 
  20
1.110613883541079E-002 
  30
0.000000000000000E+000 
  0
VERTEX
  8
0
  10
3.919700698990723E-002 
  20
1.132407360595856E-002 
  30
0.000000000000000E+000 
  0
VERTEX
  8
0
  10
3.913349090678703E-002 
  20
1.154165886900230E-002 
  30
0.000000000000000E+000 
  0
SEQEND
  0
POLYLINE
  8
0
  66
1
  10
0.000000000000000E+000 
  20
0.000000000000000E+000 
  30
0.000000000000000E+000 
  0
VERTEX
  8
0
  10
4.930010690091718E-002 
  20
1.047184126876170E-002 
  30
0.000000000000000E+000 
  0
VERTEX
  8
0
  10
4.917458309048534E-002 
  20
1.104628344181672E-002 
  30
0.000000000000000E+000 
  0
VERTEX
  8
0
  10
4.904236614962647E-002 
  20
1.161922211019181E-002 
  30
0.000000000000000E+000 
  0
VERTEX
  8
0
  10
4.890347407432905E-002 
  20
1.219057929146206E-002 
  30
0.000000000000000E+000 
  0
VERTEX
  8
0
  10
4.875792576913110E-002 
  20
1.276027721845803E-002 
  30
0.000000000000000E+000 
  0
VERTEX
  8
0
  10
4.860574104454705E-002 
  20
1.332823834985064E-002 
  30
0.000000000000000E+000 
  0
VERTEX
  8
0
  10
4.844694061437150E-002 
  20
1.389438538070531E-002 
  30
0.000000000000000E+000 
  0
VERTEX
  8
0
  10
4.828154609285966E-002 
  20
1.445864125300384E-002 
  30
0.000000000000000E+000 
  0
VERTEX
  8
0
  10
4.810957999178561E-002 
  20
1.502092916613277E-002 
  30
0.000000000000000E+000 
  0
VERTEX
  8
0
  10
4.793106571737817E-002 
  20
1.558117258733671E-002 
  30
0.000000000000000E+000 
  0
SEQEND
  0
POLYLINE
  8
0
  66
1
  10
0.000000000000000E+000 
  20
0.000000000000000E+000 
  30
0.000000000000000E+000 
  0
VERTEX
  8
0
  10
3.739682861383150E-002 
  20
1.631309932623820E-002 
  30
0.000000000000000E+000 
  0
VERTEX
  8
0
  10
3.730562364583791E-002 
  20
1.652060665941473E-002 
  30
0.000000000000000E+000 
  0
VERTEX
  8
0
  10
3.721326727280579E-002 
  20
1.672760409869624E-002 
  30
0.000000000000000E+000 
  0
VERTEX
  8
0
  10
3.711976234523284E-002 
  20
1.693408525529006E-002 
  30
0.000000000000000E+000 
  0
VERTEX
  8
0
  10
3.702511174906582E-002 
  20
1.714004375633815E-002 
  30
0.000000000000000E+000 
  0
VERTEX
  8
0
  10
3.692931840561157E-002 
  20
1.734547324511375E-002 
  30
0.000000000000000E+000 
  0
VERTEX
  8
0
  10
3.683238527144681E-002 
  20
1.755036738121760E-002 
  30
0.000000000000000E+000 
  0
VERTEX
  8
0
  10
3.673431533832688E-002 
  20
1.775471984077364E-002 
  30
0.000000000000000E+000 
  0
VERTEX
  8
0
  10
3.663511163309344E-002 
  20
1.795852431662415E-002 
  30
0.000000000000000E+000 
  0
VERTEX
  8
0
  10
3.653477721758100E-002 
  20
1.816177451852448E-002 
  30
0.000000000000000E+000 
  0
SEQEND
  0
POLYLINE
  8
0
  66
1
  10
0.000000000000000E+000 
  20
0.000000000000000E+000 
  30
0.000000000000000E+000 
  0
VERTEX
  8
0
  10
4.673271134721611E-002 
  20
1.887362419191881E-002 
  30
0.000000000000000E+000 
  0
VERTEX
  8
0
  10
4.650934368898919E-002 
  20
1.941754231666529E-002 
  30
0.000000000000000E+000 
  0
VERTEX
  8
0
  10
4.627964566487359E-002 
  20
1.995881752844475E-002 
  30
0.000000000000000E+000 
  0
VERTEX
  8
0
  10
4.604364853896428E-002 
  20
2.049737615453111E-002 
  30
0.000000000000000E+000 
  0
VERTEX
  8
0
  10
4.580138443272407E-002 
  20
2.103314489195159E-002 
  30
0.000000000000000E+000 
  0
VERTEX
  8
0
  10
4.555288632061172E-002 
  20
2.156605081746387E-002 
  30
0.000000000000000E+000 
  0
VERTEX
  8
0
  10
4.529818802559368E-002 
  20
2.209602139748168E-002 
  30
0.000000000000000E+000 
  0
VERTEX
  8
0
  10
4.503732421454056E-002 
  20
2.262298449794731E-002 
  30
0.000000000000000E+000 
  0
VERTEX
  8
0
  10
4.477033039350856E-002 
  20
2.314686839414972E-002 
  30
0.000000000000000E+000 
  0
VERTEX
  8
0
  10
4.449724290290680E-002 
  20
2.366760178048705E-002 
  30
0.000000000000000E+000 
  0
SEQEND
  0
POLYLINE
  8
0
  66
1
  10
0.000000000000000E+000 
  20
0.000000000000000E+000 
  30
0.000000000000000E+000 
  0
VERTEX
  8
0
  10
3.399594678686910E-002 
  20
2.255915783145200E-002 
  30
0.000000000000000E+000 
  0
VERTEX
  8
0
  10
3.387009415701719E-002 
  20
2.274767508548488E-002 
  30
0.000000000000000E+000 
  0
VERTEX
  8
0
  10
3.374319615670214E-002 
  20
2.293549025267004E-002 
  30
0.000000000000000E+000 
  0
VERTEX
  8
0
  10
3.361525670251839E-002 
  20
2.312259753625865E-002 
  30
0.000000000000000E+000 
  0
VERTEX
  8
0
  10
3.348627974320387E-002 
  20
2.330899116135009E-002 
  30
0.000000000000000E+000 
  0
VERTEX
  8
0
  10
3.335626925951825E-002 
  20
2.349466537507017E-002 
  30
0.000000000000000E+000 
  0
VERTEX
  8
0
  10
3.322522926411994E-002 
  20
2.367961444674872E-002 
  30
0.000000000000000E+000 
  0
VERTEX
  8
0
  10
3.309316380144239E-002 
  20
2.386383266809642E-002 
  30
0.000000000000000E+000 
  0
VERTEX
  8
0
  10
3.296007694756915E-002 
  20
2.404731435338098E-002 
  30
0.000000000000000E+000 
  0
VERTEX
  8
0
  10
3.282597281010809E-002 
  20
2.423005383960268E-002 
  30
0.000000000000000E+000 
  0
SEQEND
  0
POLYLINE
  8
0
  66
1
  10
0.000000000000000E+000 
  20
0.000000000000000E+000 
  30
0.000000000000000E+000 
  0
VERTEX
  8
0
  10
4.274536600712280E-002 
  20
2.670194159451920E-002 
  30
0.000000000000000E+000 
  0
VERTEX
  8
0
  10
4.243094141436648E-002 
  20
2.719880899397254E-002 
  30
0.000000000000000E+000 
  0
VERTEX
  8
0
  10
4.211074156522405E-002 
  20
2.769197437574489E-002 
  30
0.000000000000000E+000 
  0
VERTEX
  8
0
  10
4.178481004195323E-002 
  20
2.818137061531755E-002 
  30
0.000000000000000E+000 
  0
VERTEX
  8
0
  10
4.145319120694733E-002 
  20
2.866693110118809E-002 
  30
0.000000000000000E+000 
  0
VERTEX
  8
0
  10
4.111593019669707E-002 
  20
2.914858974393674E-002 
  30
0.000000000000000E+000 
  0
VERTEX
  8
0
  10
4.077307291564713E-002 
  20
2.962628098522190E-002 
  30
0.000000000000000E+000 
  0
VERTEX
  8
0
  10
4.042466602994815E-002 
  20
3.009993980670318E-002 
  30
0.000000000000000E+000 
  0
VERTEX
  8
0
  10
4.007075696110490E-002 
  20
3.056950173889104E-002 
  30
0.000000000000000E+000 
  0
VERTEX
  8
0
  10
3.971139387952185E-002 
  20
3.103490286992172E-002 
  30
0.000000000000000E+000 
  0
SEQEND
  0
POLYLINE
  8
0
  66
1
  10
0.000000000000000E+000 
  20
0.000000000000000E+000 
  30
0.000000000000000E+000 
  0
VERTEX
  8
0
  10
2.053566360318729E-002 
  20
1.111698857594320E-002 
  30
0.000000000000000E+000 
  0
VERTEX
  8
0
  10
2.046754173011565E-002 
  20
1.124191487900961E-002 
  30
0.000000000000000E+000 
  0
VERTEX
  8
0
  10
2.039865989167091E-002 
  20
1.136642376672893E-002 
  30
0.000000000000000E+000 
  0
VERTEX
  8
0
  10
2.032902064545440E-002 
  20
1.149051061605239E-002 
  30
0.000000000000000E+000 
  0
VERTEX
  8
0
  10
2.025862657719021E-002 
  20
1.161417081960166E-002 
  30
0.000000000000000E+000 
  0
VERTEX
  8
0
  10
2.018748030062918E-002 
  20
1.173739978583983E-002 
  30
0.000000000000000E+000 
  0
VERTEX
  8
0
  10
2.011558445745184E-002 
  20
1.186019293924200E-002 
  30
0.000000000000000E+000 
  0
VERTEX
  8
0
  10
2.004294171717034E-002 
  20
1.198254572046509E-002 
  30
0.000000000000000E+000 
  0
VERTEX
  8
0
  10
1.996955477702932E-002 
  20
1.210445358651715E-002 
  30
0.000000000000000E+000 
  0
VERTEX
  8
0
  10
1.989542636190577E-002 
  20
1.222591201092608E-002 
  30
0.000000000000000E+000 
  0
SEQEND
  0
POLYLINE
  8
0
  66
1
  10
0.000000000000000E+000 
  20
0.000000000000000E+000 
  30
0.000000000000000E+000 
  0
VERTEX
  8
0
  10
2.405329735553170E-002 
  20
1.302126082128200E-002 
  30
0.000000000000000E+000 
  0
VERTEX
  8
0
  10
2.397350662166156E-002 
  20
1.316758623706827E-002 
  30
0.000000000000000E+000 
  0
VERTEX
  8
0
  10
2.389282574499145E-002 
  20
1.331342273680788E-002 
  30
0.000000000000000E+000 
  0
VERTEX
  8
0
  10
2.381125772122420E-002 
  20
1.345876490555207E-002 
  30
0.000000000000000E+000 
  0
VERTEX
  8
0
  10
2.372880557900263E-002 
  20
1.360360734670671E-002 
  30
0.000000000000000E+000 
  0
VERTEX
  8
0
  10
2.364547237979713E-002 
  20
1.374794468223268E-002 
  30
0.000000000000000E+000 
  0
VERTEX
  8
0
  10
2.356126121779200E-002 
  20
1.389177155284559E-002 
  30
0.000000000000000E+000 
  0
VERTEX
  8
0
  10
2.347617521977049E-002 
  20
1.403508261821476E-002 
  30
0.000000000000000E+000 
  0
VERTEX
  8
0
  10
2.339021754499879E-002 
  20
1.417787255716145E-002 
  30
0.000000000000000E+000 
  0
VERTEX
  8
0
  10
2.330339138510865E-002 
  20
1.432013606785655E-002 
  30
0.000000000000000E+000 
  0
SEQEND
  0
POLYLINE
  8
0
  66
1
  10
0.000000000000000E+000 
  20
0.000000000000000E+000 
  30
0.000000000000000E+000 
  0
VERTEX
  8
0
  10
2.335167905356960E-002 
  20
-1.057097118173367E-018 
  30
0.000000000000000E+000 
  0
VERTEX
  8
0
  10
2.335146359483536E-002 
  20
1.003075850656504E-004 
  30
0.000000000000000E+000 
  0
VERTEX
  8
0
  10
2.335081727022388E-002 
  20
2.006133192420455E-004 
  30
0.000000000000000E+000 
  0
VERTEX
  8
0
  10
2.334974009166057E-002 
  20
3.009153517763456E-004 
  30
0.000000000000000E+000 
  0
VERTEX
  8
0
  10
2.334823207902059E-002 
  20
4.012118319840114E-004 
  30
0.000000000000000E+000 
  0
VERTEX
  8
0
  10
2.334629326012843E-002 
  20
5.015009092829499E-004 
  30
0.000000000000000E+000 
  0
VERTEX
  8
0
  10
2.334392367075749E-002 
  20
6.017807332276607E-004 
  30
0.000000000000000E+000 
  0
VERTEX
  8
0
  10
2.334112335462933E-002 
  20
7.020494535433774E-004 
  30
0.000000000000000E+000 
  0
VERTEX
  8
0
  10
2.333789236341291E-002 
  20
8.023052201602084E-004 
  30
0.000000000000000E+000 
  0
VERTEX
  8
0
  10
2.333423075672363E-002 
  20
9.025461832472723E-004 
  30
0.000000000000000E+000 
  0
SEQEND
  0
POLYLINE
  8
0
  66
1
  10
0.000000000000000E+000 
  20
0.000000000000000E+000 
  30
0.000000000000000E+000 
  0
VERTEX
  8
0
  10
1.244874334666820E-002 
  20
1.975676349278160E-002 
  30
0.000000000000000E+000 
  0
VERTEX
  8
0
  10
1.236376292960241E-002 
  20
1.981005501893251E-002 
  30
0.000000000000000E+000 
  0
VERTEX
  8
0
  10
1.227855438456652E-002 
  20
1.986298102291008E-002 
  30
0.000000000000000E+000 
  0
VERTEX
  8
0
  10
1.219311928375333E-002 
  20
1.991554052817041E-002 
  30
0.000000000000000E+000 
  0
VERTEX
  8
0
  10
1.210745920353592E-002 
  20
1.996773256493193E-002 
  30
0.000000000000000E+000 
  0
VERTEX
  8
0
  10
1.202157572443843E-002 
  20
2.001955617019324E-002 
  30
0.000000000000000E+000 
  0
VERTEX
  8
0
  10
1.193547043110700E-002 
  20
2.007101038775095E-002 
  30
0.000000000000000E+000 
  0
VERTEX
  8
0
  10
1.184914491228045E-002 
  20
2.012209426821727E-002 
  30
0.000000000000000E+000 
  0
VERTEX
  8
0
  10
1.176260076076105E-002 
  20
2.017280686903753E-002 
  30
0.000000000000000E+000 
  0
VERTEX
  8
0
  10
1.167583957338506E-002 
  20
2.022314725450762E-002 
  30
0.000000000000000E+000 
  0
SEQEND
  0
POLYLINE
  8
0
  66
1
  10
0.000000000000000E+000 
  20
0.000000000000000E+000 
  30
0.000000000000000E+000 
  0
VERTEX
  8
0
  10
2.735167905356961E-002 
  20
-1.734723475976807E-018 
  30
0.000000000000000E+000 
  0
VERTEX
  8
0
  10
2.735142669169507E-002 
  20
1.174896617861275E-004 
  30
0.000000000000000E+000 
  0
VERTEX
  8
0
  10
2.735066965834365E-002 
  20
2.349771556467125E-004 
  30
0.000000000000000E+000 
  0
VERTEX
  8
0
  10
2.734940796748352E-002 
  20
3.524603137984586E-004 
  30
0.000000000000000E+000 
  0
VERTEX
  8
0
  10
2.734764164239436E-002 
  20
4.699369685380942E-004 
  30
0.000000000000000E+000 
  0
VERTEX
  8
0
  10
2.734537071566694E-002 
  20
5.874049522823190E-004 
  30
0.000000000000000E+000 
  0
VERTEX
  8
0
  10
2.734259522920257E-002 
  20
7.048620976078413E-004 
  30
0.000000000000000E+000 
  0
VERTEX
  8
0
  10
2.733931523421225E-002 
  20
8.223062372913505E-004 
  30
0.000000000000000E+000 
  0
VERTEX
  8
0
  10
2.733553079121578E-002 
  20
9.397352043494880E-004 
  30
0.000000000000000E+000 
  0
VERTEX
  8
0
  10
2.733124197004058E-002 
  20
1.057146832078866E-003 
  30
0.000000000000000E+000 
  0
SEQEND
  0
POLYLINE
  8
0
  66
1
  10
0.000000000000000E+000 
  20
0.000000000000000E+000 
  30
0.000000000000000E+000 
  0
VERTEX
  8
0
  10
1.458113705045469E-002 
  20
2.314097641339580E-002 
  30
0.000000000000000E+000 
  0
VERTEX
  8
0
  10
1.448160000887279E-002 
  20
2.320339645557985E-002 
  30
0.000000000000000E+000 
  0
VERTEX
  8
0
  10
1.438179576190135E-002 
  20
2.326538836311302E-002 
  30
0.000000000000000E+000 
  0
VERTEX
  8
0
  10
1.428172615104685E-002 
  20
2.332695099217126E-002 
  30
0.000000000000000E+000 
  0
VERTEX
  8
0
  10
1.418139302271199E-002 
  20
2.338808320685123E-002 
  30
0.000000000000000E+000 
  0
VERTEX
  8
0
  10
1.408079822816173E-002 
  20
2.344878387919122E-002 
  30
0.000000000000000E+000 
  0
VERTEX
  8
0
  10
1.397994362348905E-002 
  20
2.350905188919199E-002 
  30
0.000000000000000E+000 
  0
VERTEX
  8
0
  10
1.387883106958075E-002 
  20
2.356888612483746E-002 
  30
0.000000000000000E+000 
  0
VERTEX
  8
0
  10
1.377746243208310E-002 
  20
2.362828548211518E-002 
  30
0.000000000000000E+000 
  0
VERTEX
  8
0
  10
1.367583958136740E-002 
  20
2.368724886503670E-002 
  30
0.000000000000000E+000 
  0
SEQEND
  0
POLYLINE
  8
0
  66
1
  10
0.000000000000000E+000 
  20
0.000000000000000E+000 
  30
0.000000000000000E+000 
  0
VERTEX
  8
0
  10
3.440000000000000E-002 
  20
2.656295322589486E-018 
  30
0.000000000000000E+000 
  0
VERTEX
  8
0
  10
3.439968263299357E-002 
  20
1.477658597961331E-004 
  30
0.000000000000000E+000 
  0
VERTEX
  8
0
  10
3.439873053783016E-002 
  20
2.955289930801369E-004 
  30
0.000000000000000E+000 
  0
VERTEX
  8
0
  10
3.439714373207745E-002 
  20
4.432866733901959E-004 
  30
0.000000000000000E+000 
  0
VERTEX
  8
0
  10
3.439492224501449E-002 
  20
5.910361743651078E-004 
  30
0.000000000000000E+000 
  0
VERTEX
  8
0
  10
3.439206611763120E-002 
  20
7.387747697945922E-004 
  30
0.000000000000000E+000 
  0
VERTEX
  8
0
  10
3.438857540262760E-002 
  20
8.864997336695925E-004 
  30
0.000000000000000E+000 
  0
VERTEX
  8
0
  10
3.438445016441290E-002 
  20
1.034208340232576E-003 
  30
0.000000000000000E+000 
  0
VERTEX
  8
0
  10
3.437969047910418E-002 
  20
1.181897864027837E-003 
  30
0.000000000000000E+000 
  0
VERTEX
  8
0
  10
3.437429643452513E-002 
  20
1.329565579951750E-003 
  30
0.000000000000000E+000 
  0
SEQEND
  0
POLYLINE
  8
0
  66
1
  10
0.000000000000000E+000 
  20
0.000000000000000E+000 
  30
0.000000000000000E+000 
  0
VERTEX
  8
0
  10
3.395520951020151E-002 
  20
5.513959296034024E-003 
  30
0.000000000000000E+000 
  0
VERTEX
  8
0
  10
3.340118829971911E-002 
  20
8.229253925278126E-003 
  30
0.000000000000000E+000 
  0
VERTEX
  8
0
  10
3.263040020708270E-002 
  20
1.089114237927392E-002 
  30
0.000000000000000E+000 
  0
VERTEX
  8
0
  10
3.164784748940186E-002 
  20
1.348234954626081E-002 
  30
0.000000000000000E+000 
  0
VERTEX
  8
0
  10
3.045990671290092E-002 
  20
1.598605902157790E-002 
  30
0.000000000000000E+000 
  0
VERTEX
  8
0
  10
2.907428737030796E-002 
  20
1.838602224269160E-002 
  30
0.000000000000000E+000 
  0
VERTEX
  8
0
  10
2.749998184782345E-002 
  20
2.066666393904398E-002 
  30
0.000000000000000E+000 
  0
VERTEX
  8
0
  10
2.574720706637263E-002 
  20
2.281318321237376E-002 
  30
0.000000000000000E+000 
  0
VERTEX
  8
0
  10
2.382733817587781E-002 
  20
2.481164959151964E-002 
  30
0.000000000000000E+000 
  0
VERTEX
  8
0
  10
2.175283473286146E-002 
  20
2.664909343832952E-002 
  30
0.000000000000000E+000 
  0
SEQEND
  0
POLYLINE
  8
0
  66
1
  10
0.000000000000000E+000 
  20
0.000000000000000E+000 
  30
0.000000000000000E+000 
  0
VERTEX
  8
0
  10
1.833858585256320E-002 
  20
2.910423111728211E-002 
  30
0.000000000000000E+000 
  0
VERTEX
  8
0
  10
1.821339888172467E-002 
  20
2.918273635516712E-002 
  30
0.000000000000000E+000 
  0
VERTEX
  8
0
  10
1.808787584507917E-002 
  20
2.926070312574535E-002 
  30
0.000000000000000E+000 
  0
VERTEX
  8
0
  10
1.796201905872378E-002 
  20
2.933812999040744E-002 
  30
0.000000000000000E+000 
  0
VERTEX
  8
0
  10
1.783583084491385E-002 
  20
2.941501552050620E-002 
  30
0.000000000000000E+000 
  0
VERTEX
  8
0
  10
1.770931353202004E-002 
  20
2.949135829738285E-002 
  30
0.000000000000000E+000 
  0
VERTEX
  8
0
  10
1.758246945448543E-002 
  20
2.956715691239330E-002 
  30
0.000000000000000E+000 
  0
VERTEX
  8
0
  10
1.745530095278243E-002 
  20
2.964240996693410E-002 
  30
0.000000000000000E+000 
  0
VERTEX
  8
0
  10
1.732781037336953E-002 
  20
2.971711607246820E-002 
  30
0.000000000000000E+000 
  0
VERTEX
  8
0
  10
1.720000006864813E-002 
  20
2.979127385055069E-002 
  30
0.000000000000000E+000 
  0
SEQEND
  0
POLYLINE
  8
0
  66
1
  10
0.000000000000000E+000 
  20
0.000000000000000E+000 
  30
0.000000000000000E+000 
  0
VERTEX
  8
0
  10
3.690000000000000E-002 
  20
3.144186300207963E-018 
  30
0.000000000000000E+000 
  0
VERTEX
  8
0
  10
3.689965956853089E-002 
  20
1.585046577464320E-004 
  30
0.000000000000000E+000 
  0
VERTEX
  8
0
  10
3.689863828040504E-002 
  20
3.170063908330586E-004 
  30
0.000000000000000E+000 
  0
VERTEX
  8
0
  10
3.689693615446681E-002 
  20
4.755022746540213E-004 
  30
0.000000000000000E+000 
  0
VERTEX
  8
0
  10
3.689455322212311E-002 
  20
6.339893847114105E-004 
  30
0.000000000000000E+000 
  0
VERTEX
  8
0
  10
3.689148952734277E-002 
  20
7.924647966691985E-004 
  30
0.000000000000000E+000 
  0
VERTEX
  8
0
  10
3.688774512665578E-002 
  20
9.509255864072141E-004 
  30
0.000000000000000E+000 
  0
VERTEX
  8
0
  10
3.688332008915221E-002 
  20
1.109368830075064E-003 
  30
0.000000000000000E+000 
  0
VERTEX
  8
0
  10
3.687821449648095E-002 
  20
1.267791604146133E-003 
  30
0.000000000000000E+000 
  0
VERTEX
  8
0
  10
3.687242844284819E-002 
  20
1.426190985471500E-003 
  30
0.000000000000000E+000 
  0
SEQEND
  0
POLYLINE
  8
0
  66
1
  10
0.000000000000000E+000 
  20
0.000000000000000E+000 
  30
0.000000000000000E+000 
  0
VERTEX
  8
0
  10
3.642288461995449E-002 
  20
5.914683082082992E-003 
  30
0.000000000000000E+000 
  0
VERTEX
  8
0
  10
3.582860024010567E-002 
  20
8.827310169847736E-003 
  30
0.000000000000000E+000 
  0
VERTEX
  8
0
  10
3.500179557096953E-002 
  20
1.168264981962812E-002 
  30
0.000000000000000E+000 
  0
VERTEX
  8
0
  10
3.394783640578283E-002 
  20
1.446217146095999E-002 
  30
0.000000000000000E+000 
  0
VERTEX
  8
0
  10
3.267356272401293E-002 
  20
1.714783656675069E-002 
  30
0.000000000000000E+000 
  0
VERTEX
  8
0
  10
3.118724430128966E-002 
  20
1.972221571963139E-002 
  30
0.000000000000000E+000 
  0
VERTEX
  8
0
  10
2.949852704025250E-002 
  20
2.216860172531168E-002 
  30
0.000000000000000E+000 
  0
VERTEX
  8
0
  10
2.761837037061483E-002 
  20
2.447111803885438E-002 
  30
0.000000000000000E+000 
  0
VERTEX
  8
0
  10
2.555897612470614E-002 
  20
2.661482180020561E-002 
  30
0.000000000000000E+000 
  0
VERTEX
  8
0
  10
2.333370935007522E-002 
  20
2.858580081030108E-002 
  30
0.000000000000000E+000 
  0
SEQEND
  0
POLYLINE
  8
0
  66
1
  10
0.000000000000000E+000 
  20
0.000000000000000E+000 
  30
0.000000000000000E+000 
  0
VERTEX
  8
0
  10
1.967133191742970E-002 
  20
3.121936419266601E-002 
  30
0.000000000000000E+000 
  0
VERTEX
  8
0
  10
1.953704705626861E-002 
  20
3.130357475307172E-002 
  30
0.000000000000000E+000 
  0
VERTEX
  8
0
  10
1.940240170591340E-002 
  20
3.138720771337221E-002 
  30
0.000000000000000E+000 
  0
VERTEX
  8
0
  10
1.926739835078219E-002 
  20
3.147026153040800E-002 
  30
0.000000000000000E+000 
  0
VERTEX
  8
0
  10
1.913203948189886E-002 
  20
3.155273467170579E-002 
  30
0.000000000000000E+000 
  0
VERTEX
  8
0
  10
1.899632759684707E-002 
  20
3.163462561550661E-002 
  30
0.000000000000000E+000 
  0
VERTEX
  8
0
  10
1.886026519972420E-002 
  20
3.171593285079399E-002 
  30
0.000000000000000E+000 
  0
VERTEX
  8
0
  10
1.872385480109509E-002 
  20
3.179665487732176E-002 
  30
0.000000000000000E+000 
  0
VERTEX
  8
0
  10
1.858709891794580E-002 
  20
3.187679020564177E-002 
  30
0.000000000000000E+000 
  0
VERTEX
  8
0
  10
1.845000007363709E-002 
  20
3.195633735713141E-002 
  30
0.000000000000000E+000 
  0
SEQEND
  0
POLYLINE
  8
0
  66
1
  10
0.000000000000000E+000 
  20
0.000000000000000E+000 
  30
0.000000000000000E+000 
  0
VERTEX
  8
0
  10
3.880000000000002E-002 
  20
1.734723475976807E-018 
  30
0.000000000000000E+000 
  0
VERTEX
  8
0
  10
3.853764831162686E-002 
  20
4.504404800788183E-003 
  30
0.000000000000000E+000 
  0
VERTEX
  8
0
  10
3.775414110261014E-002 
  20
8.947895261132934E-003 
  30
0.000000000000000E+000 
  0
VERTEX
  8
0
  10
3.646007396259610E-002 
  20
1.327038080244961E-002 
  30
0.000000000000000E+000 
  0
VERTEX
  8
0
  10
3.467294692761831E-002 
  20
1.741340722990666E-002 
  30
0.000000000000000E+000 
  0
VERTEX
  8
0
  10
3.241692782215944E-002 
  20
2.132094722503920E-002 
  30
0.000000000000000E+000 
  0
VERTEX
  8
0
  10
2.972252543082354E-002 
  20
2.494015801902722E-002 
  30
0.000000000000000E+000 
  0
VERTEX
  8
0
  10
2.662617691941086E-002 
  20
2.822209600040778E-002 
  30
0.000000000000000E+000 
  0
VERTEX
  8
0
  10
2.316975508481623E-002 
  20
3.112237859337927E-002 
  30
0.000000000000000E+000 
  0
VERTEX
  8
0
  10
1.940000209735079E-002 
  20
3.360178445593008E-002 
  30
0.000000000000000E+000 
  0
SEQEND
  0
POLYLINE
  8
0
  66
1
  10
0.000000000000000E+000 
  20
0.000000000000000E+000 
  30
0.000000000000000E+000 
  0
VERTEX
  8
0
  10
4.080000000000000E-002 
  20
2.168404344971009E-019 
  30
0.000000000000000E+000 
  0
VERTEX
  8
0
  10
4.079969558533827E-002 
  20
1.576075624124918E-004 
  30
0.000000000000000E+000 
  0
VERTEX
  8
0
  10
4.079878234589560E-002 
  20
3.152127729596407E-004 
  30
0.000000000000000E+000 
  0
VERTEX
  8
0
  10
4.079726029529966E-002 
  20
4.728132798112274E-004 
  30
0.000000000000000E+000 
  0
VERTEX
  8
0
  10
4.079512945626290E-002 
  20
6.304067312071854E-004 
  30
0.000000000000000E+000 
  0
VERTEX
  8
0
  10
4.079238986058231E-002 
  20
7.879907754927683E-004 
  30
0.000000000000000E+000 
  0
VERTEX
  8
0
  10
4.078904154913893E-002 
  20
9.455630611535687E-004 
  30
0.000000000000000E+000 
  0
VERTEX
  8
0
  10
4.078508457189723E-002 
  20
1.103121236850682E-003 
  30
0.000000000000000E+000 
  0
VERTEX
  8
0
  10
4.078051898790434E-002 
  20
1.260662951455718E-003 
  30
0.000000000000000E+000 
  0
VERTEX
  8
0
  10
4.077534486528924E-002 
  20
1.418185854085963E-003 
  30
0.000000000000000E+000 
  0
SEQEND
  0
POLYLINE
  8
0
  66
1
  10
0.000000000000000E+000 
  20
0.000000000000000E+000 
  30
0.000000000000000E+000 
  0
VERTEX
  8
0
  10
4.040214115601691E-002 
  20
5.683923821558950E-003 
  30
0.000000000000000E+000 
  0
VERTEX
  8
0
  10
4.035702249861275E-002 
  20
5.995893181709065E-003 
  30
0.000000000000000E+000 
  0
VERTEX
  8
0
  10
4.030949497385139E-002 
  20
6.307504653430638E-003 
  30
0.000000000000000E+000 
  0
VERTEX
  8
0
  10
4.025956141859981E-002 
  20
6.618739636969384E-003 
  30
0.000000000000000E+000 
  0
VERTEX
  8
0
  10
4.020722481333831E-002 
  20
6.929579555043195E-003 
  30
0.000000000000000E+000 
  0
VERTEX
  8
0
  10
4.015248828198268E-002 
  20
7.240005853950972E-003 
  30
0.000000000000000E+000 
  0
VERTEX
  8
0
  10
4.009535509169772E-002 
  20
7.550000004680126E-003 
  30
0.000000000000000E+000 
  0
VERTEX
  8
0
  10
4.003582865270226E-002 
  20
7.859543504012521E-003 
  30
0.000000000000000E+000 
  0
VERTEX
  8
0
  10
3.997391251806552E-002 
  20
8.168617875628921E-003 
  30
0.000000000000000E+000 
  0
VERTEX
  8
0
  10
3.990961038349514E-002 
  20
8.477204671211826E-003 
  30
0.000000000000000E+000 
  0
SEQEND
  0
POLYLINE
  8
0
  66
1
  10
0.000000000000000E+000 
  20
0.000000000000000E+000 
  30
0.000000000000000E+000 
  0
VERTEX
  8
0
  10
3.880133883512771E-002 
  20
1.261333043258650E-002 
  30
0.000000000000000E+000 
  0
VERTEX
  8
0
  10
3.870273272063258E-002 
  20
1.291272550452758E-002 
  30
0.000000000000000E+000 
  0
VERTEX
  8
0
  10
3.860181648156157E-002 
  20
1.321134982974269E-002 
  30
0.000000000000000E+000 
  0
VERTEX
  8
0
  10
3.849859614149664E-002 
  20
1.350918558366641E-002 
  30
0.000000000000000E+000 
  0
VERTEX
  8
0
  10
3.839307786154911E-002 
  20
1.380621498880223E-002 
  30
0.000000000000000E+000 
  0
VERTEX
  8
0
  10
3.828526793999187E-002 
  20
1.410242031578378E-002 
  30
0.000000000000000E+000 
  0
VERTEX
  8
0
  10
3.817517281188340E-002 
  20
1.439778388443301E-002 
  30
0.000000000000000E+000 
  0
VERTEX
  8
0
  10
3.806279904868373E-002 
  20
1.469228806481551E-002 
  30
0.000000000000000E+000 
  0
VERTEX
  8
0
  10
3.794815335786220E-002 
  20
1.498591527829288E-002 
  30
0.000000000000000E+000 
  0
VERTEX
  8
0
  10
3.783124258249703E-002 
  20
1.527864799857187E-002 
  30
0.000000000000000E+000 
  0
SEQEND
  0
POLYLINE
  8
0
  66
1
  10
0.000000000000000E+000 
  20
0.000000000000000E+000 
  30
0.000000000000000E+000 
  0
VERTEX
  8
0
  10
3.602157746815800E-002 
  20
1.915948738107301E-002 
  30
0.000000000000000E+000 
  0
VERTEX
  8
0
  10
3.587247999346377E-002 
  20
1.943721119704533E-002 
  30
0.000000000000000E+000 
  0
VERTEX
  8
0
  10
3.572124132894116E-002 
  20
1.971377482674352E-002 
  30
0.000000000000000E+000 
  0
VERTEX
  8
0
  10
3.556787050186376E-002 
  20
1.998916176238140E-002 
  30
0.000000000000000E+000 
  0
VERTEX
  8
0
  10
3.541237666677161E-002 
  20
2.026335556640832E-002 
  30
0.000000000000000E+000 
  0
VERTEX
  8
0
  10
3.525476910492480E-002 
  20
2.053633987249043E-002 
  30
0.000000000000000E+000 
  0
VERTEX
  8
0
  10
3.509505722374957E-002 
  20
2.080809838648750E-002 
  30
0.000000000000000E+000 
  0
VERTEX
  8
0
  10
3.493325055627667E-002 
  20
2.107861488742550E-002 
  30
0.000000000000000E+000 
  0
VERTEX
  8
0
  10
3.476935876057242E-002 
  20
2.134787322846484E-002 
  30
0.000000000000000E+000 
  0
VERTEX
  8
0
  10
3.460339161916220E-002 
  20
2.161585733786415E-002 
  30
0.000000000000000E+000 
  0
SEQEND
  0
POLYLINE
  8
0
  66
1
  10
0.000000000000000E+000 
  20
0.000000000000000E+000 
  30
0.000000000000000E+000 
  0
VERTEX
  8
0
  10
3.214731869761592E-002 
  20
2.512349300065402E-002 
  30
0.000000000000000E+000 
  0
VERTEX
  8
0
  10
3.195226011404421E-002 
  20
2.537110706304431E-002 
  30
0.000000000000000E+000 
  0
VERTEX
  8
0
  10
3.175529433436111E-002 
  20
2.561720675128519E-002 
  30
0.000000000000000E+000 
  0
VERTEX
  8
0
  10
3.155643311524260E-002 
  20
2.586177737595039E-002 
  30
0.000000000000000E+000 
  0
VERTEX
  8
0
  10
3.135568832650142E-002 
  20
2.610480433888184E-002 
  30
0.000000000000000E+000 
  0
VERTEX
  8
0
  10
3.115307195037851E-002 
  20
2.634627313406094E-002 
  30
0.000000000000000E+000 
  0
VERTEX
  8
0
  10
3.094859608082792E-002 
  20
2.658616934847451E-002 
  30
0.000000000000000E+000 
  0
VERTEX
  8
0
  10
3.074227292279482E-002 
  20
2.682447866297497E-002 
  30
0.000000000000000E+000 
  0
VERTEX
  8
0
  10
3.053411479148709E-002 
  20
2.706118685313513E-002 
  30
0.000000000000000E+000 
  0
VERTEX
  8
0
  10
3.032413411164014E-002 
  20
2.729627979009717E-002 
  30
0.000000000000000E+000 
  0
SEQEND
  0
POLYLINE
  8
0
  66
1
  10
0.000000000000000E+000 
  20
0.000000000000000E+000 
  30
0.000000000000000E+000 
  0
VERTEX
  8
0
  10
2.729627991577510E-002 
  20
3.032413399851110E-002 
  30
0.000000000000000E+000 
  0
VERTEX
  8
0
  10
2.706118697968331E-002 
  20
3.053411467933238E-002 
  30
0.000000000000000E+000 
  0
VERTEX
  8
0
  10
2.682447879038585E-002 
  20
3.074227281162115E-002 
  30
0.000000000000000E+000 
  0
VERTEX
  8
0
  10
2.658616947674050E-002 
  20
3.094859597064192E-002 
  30
0.000000000000000E+000 
  0
VERTEX
  8
0
  10
2.634627326317438E-002 
  20
3.115307184118675E-002 
  30
0.000000000000000E+000 
  0
VERTEX
  8
0
  10
2.610480446883502E-002 
  20
3.135568821831042E-002 
  30
0.000000000000000E+000 
  0
VERTEX
  8
0
  10
2.586177750673556E-002 
  20
3.155643300805884E-002 
  30
0.000000000000000E+000 
  0
VERTEX
  8
0
  10
2.561720688289454E-002 
  20
3.175529422819097E-002 
  30
0.000000000000000E+000 
  0
VERTEX
  8
0
  10
2.537110719546998E-002 
  20
3.195226000889402E-002 
  30
0.000000000000000E+000 
  0
VERTEX
  8
0
  10
2.512349313388810E-002 
  20
3.214731859349196E-002 
  30
0.000000000000000E+000 
  0
SEQEND
  0
POLYLINE
  8
0
  66
1
  10
0.000000000000000E+000 
  20
0.000000000000000E+000 
  30
0.000000000000000E+000 
  0
VERTEX
  8
0
  10
2.161585748127740E-002 
  20
3.460339152957561E-002 
  30
0.000000000000000E+000 
  0
VERTEX
  8
0
  10
2.148202570740179E-002 
  20
3.468663390279501E-002 
  30
0.000000000000000E+000 
  0
VERTEX
  8
0
  10
2.134787337256593E-002 
  20
3.476935867209648E-002 
  30
0.000000000000000E+000 
  0
VERTEX
  8
0
  10
2.121340247862951E-002 
  20
3.485156460303720E-002 
  30
0.000000000000000E+000 
  0
VERTEX
  8
0
  10
2.107861503220584E-002 
  20
3.493325046891666E-002 
  30
0.000000000000000E+000 
  0
VERTEX
  8
0
  10
2.094351304463192E-002 
  20
3.501441505079490E-002 
  30
0.000000000000000E+000 
  0
VERTEX
  8
0
  10
2.080809853193845E-002 
  20
3.509505713751071E-002 
  30
0.000000000000000E+000 
  0
VERTEX
  8
0
  10
2.067237351481968E-002 
  20
3.517517552569970E-002 
  30
0.000000000000000E+000 
  0
VERTEX
  8
0
  10
2.053634001860332E-002 
  20
3.525476901981225E-002 
  30
0.000000000000000E+000 
  0
VERTEX
  8
0
  10
2.040000007322028E-002 
  20
3.533383643213138E-002 
  30
0.000000000000000E+000 
  0
SEQEND
  0
POLYLINE
  8
0
  66
1
  10
0.000000000000000E+000 
  20
0.000000000000000E+000 
  30
0.000000000000000E+000 
  0
VERTEX
  8
0
  10
5.040000000000001E-002 
  20
7.047314121155779E-019 
  30
0.000000000000000E+000 
  0
VERTEX
  8
0
  10
5.039962395835905E-002 
  20
1.946916947448426E-004 
  30
0.000000000000000E+000 
  0
VERTEX
  8
0
  10
5.039849583904753E-002 
  20
3.893804842442614E-004 
  30
0.000000000000000E+000 
  0
VERTEX
  8
0
  10
5.039661565889960E-002 
  20
5.840634632962209E-004 
  30
0.000000000000000E+000 
  0
VERTEX
  8
0
  10
5.039398344597183E-002 
  20
7.787377267853453E-004 
  30
0.000000000000000E+000 
  0
VERTEX
  8
0
  10
5.039059923954288E-002 
  20
9.734003697263590E-004 
  30
0.000000000000000E+000 
  0
VERTEX
  8
0
  10
5.038646309011283E-002 
  20
1.168048487307347E-003 
  30
0.000000000000000E+000 
  0
VERTEX
  8
0
  10
5.038157505940247E-002 
  20
1.362679174933192E-003 
  30
0.000000000000000E+000 
  0
VERTEX
  8
0
  10
5.037593522035245E-002 
  20
1.557289528268825E-003 
  30
0.000000000000000E+000 
  0
VERTEX
  8
0
  10
5.036954365712203E-002 
  20
1.751876643282656E-003 
  30
0.000000000000000E+000 
  0
SEQEND
  0
POLYLINE
  8
0
  66
1
  10
0.000000000000000E+000 
  20
0.000000000000000E+000 
  30
0.000000000000000E+000 
  0
VERTEX
  8
0
  10
4.990852731037381E-002 
  20
7.021317661925759E-003 
  30
0.000000000000000E+000 
  0
VERTEX
  8
0
  10
4.985279249828631E-002 
  20
7.406691577405314E-003 
  30
0.000000000000000E+000 
  0
VERTEX
  8
0
  10
4.979408202652229E-002 
  20
7.791623395414317E-003 
  30
0.000000000000000E+000 
  0
VERTEX
  8
0
  10
4.973239939944681E-002 
  20
8.176090139785713E-003 
  30
0.000000000000000E+000 
  0
VERTEX
  8
0
  10
4.966774829882967E-002 
  20
8.560068862112176E-003 
  30
0.000000000000000E+000 
  0
VERTEX
  8
0
  10
4.960013258362566E-002 
  20
8.943536643115903E-003 
  30
0.000000000000000E+000 
  0
VERTEX
  8
0
  10
4.952955628974426E-002 
  20
9.326470594016626E-003 
  30
0.000000000000000E+000 
  0
VERTEX
  8
0
  10
4.945602362980869E-002 
  20
9.708847857897824E-003 
  30
0.000000000000000E+000 
  0
VERTEX
  8
0
  10
4.937953899290451E-002 
  20
1.009064561107103E-002 
  30
0.000000000000000E+000 
  0
VERTEX
  8
0
  10
4.930010694431759E-002 
  20
1.047184106443813E-002 
  30
0.000000000000000E+000 
  0
SEQEND
  0
POLYLINE
  8
0
  66
1
  10
0.000000000000000E+000 
  20
0.000000000000000E+000 
  30
0.000000000000000E+000 
  0
VERTEX
  8
0
  10
4.793106561986361E-002 
  20
1.558117288731270E-002 
  30
0.000000000000000E+000 
  0
VERTEX
  8
0
  10
4.780925806666377E-002 
  20
1.595101385853403E-002 
  30
0.000000000000000E+000 
  0
VERTEX
  8
0
  10
4.768459683016427E-002 
  20
1.631990273085858E-002 
  30
0.000000000000000E+000 
  0
VERTEX
  8
0
  10
4.755708935126056E-002 
  20
1.668781748570552E-002 
  30
0.000000000000000E+000 
  0
VERTEX
  8
0
  10
4.742674324073716E-002 
  20
1.705473616263800E-002 
  30
0.000000000000000E+000 
  0
VERTEX
  8
0
  10
4.729356627881351E-002 
  20
1.742063686067403E-002 
  30
0.000000000000000E+000 
  0
VERTEX
  8
0
  10
4.715756641467952E-002 
  20
1.778549773959366E-002 
  30
0.000000000000000E+000 
  0
VERTEX
  8
0
  10
4.701875176602114E-002 
  20
1.814929702124263E-002 
  30
0.000000000000000E+000 
  0
VERTEX
  8
0
  10
4.687713061853572E-002 
  20
1.851201299083231E-002 
  30
0.000000000000000E+000 
  0
VERTEX
  8
0
  10
4.673271142543756E-002 
  20
1.887362399823576E-002 
  30
0.000000000000000E+000 
  0
SEQEND
  0
POLYLINE
  8
0
  66
1
  10
0.000000000000000E+000 
  20
0.000000000000000E+000 
  30
0.000000000000000E+000 
  0
VERTEX
  8
0
  10
4.449724275478341E-002 
  20
2.366760205897250E-002 
  30
0.000000000000000E+000 
  0
VERTEX
  8
0
  10
4.431306352133759E-002 
  20
2.401067265517361E-002 
  30
0.000000000000000E+000 
  0
VERTEX
  8
0
  10
4.412623928869203E-002 
  20
2.435231008009493E-002 
  30
0.000000000000000E+000 
  0
VERTEX
  8
0
  10
4.393678120818465E-002 
  20
2.469249394176526E-002 
  30
0.000000000000000E+000 
  0
VERTEX
  8
0
  10
4.374470058836492E-002 
  20
2.503120393497500E-002 
  30
0.000000000000000E+000 
  0
VERTEX
  8
0
  10
4.355000889431888E-002 
  20
2.536841984248820E-002 
  30
0.000000000000000E+000 
  0
VERTEX
  8
0
  10
4.335271774698476E-002 
  20
2.570412153624928E-002 
  30
0.000000000000000E+000 
  0
VERTEX
  8
0
  10
4.315283892245943E-002 
  20
2.603828897858448E-002 
  30
0.000000000000000E+000 
  0
VERTEX
  8
0
  10
4.295038435129536E-002 
  20
2.637090222339780E-002 
  30
0.000000000000000E+000 
  0
VERTEX
  8
0
  10
4.274536611778861E-002 
  20
2.670194141736167E-002 
  30
0.000000000000000E+000 
  0
SEQEND
  0
POLYLINE
  8
0
  66
1
  10
0.000000000000000E+000 
  20
0.000000000000000E+000 
  30
0.000000000000000E+000 
  0
VERTEX
  8
0
  10
3.971139368529030E-002 
  20
3.103490311845501E-002 
  30
0.000000000000000E+000 
  0
VERTEX
  8
0
  10
3.947043896440759E-002 
  20
3.134077931317242E-002 
  30
0.000000000000000E+000 
  0
VERTEX
  8
0
  10
3.922712829538727E-002 
  20
3.164478481041114E-002 
  30
0.000000000000000E+000 
  0
VERTEX
  8
0
  10
3.898147620118204E-002 
  20
3.194690146440933E-002 
  30
0.000000000000000E+000 
  0
VERTEX
  8
0
  10
3.873349734450173E-002 
  20
3.224711124214816E-002 
  30
0.000000000000000E+000 
  0
VERTEX
  8
0
  10
3.848320652693813E-002 
  20
3.254539622442822E-002 
  30
0.000000000000000E+000 
  0
VERTEX
  8
0
  10
3.823061868808152E-002 
  20
3.284173860693908E-002 
  30
0.000000000000000E+000 
  0
VERTEX
  8
0
  10
3.797574890462886E-002 
  20
3.313612070132201E-002 
  30
0.000000000000000E+000 
  0
VERTEX
  8
0
  10
3.771861238948400E-002 
  20
3.342852493622572E-002 
  30
0.000000000000000E+000 
  0
VERTEX
  8
0
  10
3.745922449084953E-002 
  20
3.371893385835530E-002 
  30
0.000000000000000E+000 
  0
SEQEND
  0
POLYLINE
  8
0
  66
1
  10
0.000000000000000E+000 
  20
0.000000000000000E+000 
  30
0.000000000000000E+000 
  0
VERTEX
  8
0
  10
3.371893401360451E-002 
  20
3.745922435110190E-002 
  30
0.000000000000000E+000 
  0
VERTEX
  8
0
  10
3.342852509254994E-002 
  20
3.771861225093996E-002 
  30
0.000000000000000E+000 
  0
VERTEX
  8
0
  10
3.313612085871193E-002 
  20
3.797574876729670E-002 
  30
0.000000000000000E+000 
  0
VERTEX
  8
0
  10
3.284173876538532E-002 
  20
3.823061855196942E-002 
  30
0.000000000000000E+000 
  0
VERTEX
  8
0
  10
3.254539638392129E-002 
  20
3.848320639205423E-002 
  30
0.000000000000000E+000 
  0
VERTEX
  8
0
  10
3.224711140267857E-002 
  20
3.873349721085406E-002 
  30
0.000000000000000E+000 
  0
VERTEX
  8
0
  10
3.194690162596748E-002 
  20
3.898147606877859E-002 
  30
0.000000000000000E+000 
  0
VERTEX
  8
0
  10
3.164478497298740E-002 
  20
3.922712816423594E-002 
  30
0.000000000000000E+000 
  0
VERTEX
  8
0
  10
3.134077947675708E-002 
  20
3.947043883451620E-002 
  30
0.000000000000000E+000 
  0
VERTEX
  8
0
  10
3.103490328303828E-002 
  20
3.971139355666659E-002 
  30
0.000000000000000E+000 
  0
SEQEND
  0
POLYLINE
  8
0
  66
1
  10
0.000000000000000E+000 
  20
0.000000000000000E+000 
  30
0.000000000000000E+000 
  0
VERTEX
  8
0
  10
2.670194159451920E-002 
  20
4.274536600712280E-002 
  30
0.000000000000000E+000 
  0
VERTEX
  8
0
  10
2.653661999149640E-002 
  20
4.284819482109972E-002 
  30
0.000000000000000E+000 
  0
VERTEX
  8
0
  10
2.637090240140503E-002 
  20
4.295038424200152E-002 
  30
0.000000000000000E+000 
  0
VERTEX
  8
0
  10
2.620479129713063E-002 
  20
4.305193274492829E-002 
  30
0.000000000000000E+000 
  0
VERTEX
  8
0
  10
2.603828915743078E-002 
  20
4.315283881454410E-002 
  30
0.000000000000000E+000 
  0
VERTEX
  8
0
  10
2.587139846689830E-002 
  20
4.325310094509957E-002 
  30
0.000000000000000E+000 
  0
VERTEX
  8
0
  10
2.570412171592400E-002 
  20
4.335271764045438E-002 
  30
0.000000000000000E+000 
  0
VERTEX
  8
0
  10
2.553646140065962E-002 
  20
4.345168741409960E-002 
  30
0.000000000000000E+000 
  0
VERTEX
  8
0
  10
2.536842002298059E-002 
  20
4.355000878917981E-002 
  30
0.000000000000000E+000 
  0
VERTEX
  8
0
  10
2.520000009044859E-002 
  20
4.364768029851520E-002 
  30
0.000000000000000E+000 
  0
SEQEND
  0
POLYLINE
  8
0
  66
1
  10
0.000000000000000E+000 
  20
0.000000000000000E+000 
  30
0.000000000000000E+000 
  0
VERTEX
  8
0
  10
6.000000000000000E-002 
  20
-3.252606517456513E-019 
  30
0.000000000000000E+000 
  0
VERTEX
  8
0
  10
5.999955233137980E-002 
  20
2.317758270771804E-004 
  30
0.000000000000000E+000 
  0
VERTEX
  8
0
  10
5.999820933219943E-002 
  20
4.635481955288842E-004 
  30
0.000000000000000E+000 
  0
VERTEX
  8
0
  10
5.999597102249950E-002 
  20
6.953136467812049E-004 
  30
0.000000000000000E+000 
  0
VERTEX
  8
0
  10
5.999283743568073E-002 
  20
9.270687223635103E-004 
  30
0.000000000000000E+000 
  0
VERTEX
  8
0
  10
5.998880861850341E-002 
  20
1.158809963959943E-003 
  30
0.000000000000000E+000 
  0
VERTEX
  8
0
  10
5.998388463108667E-002 
  20
1.390533913461121E-003 
  30
0.000000000000000E+000 
  0
VERTEX
  8
0
  10
5.997806554690769E-002 
  20
1.622237113015700E-003 
  30
0.000000000000000E+000 
  0
VERTEX
  8
0
  10
5.997135145280053E-002 
  20
1.853916105081931E-003 
  30
0.000000000000000E+000 
  0
VERTEX
  8
0
  10
5.996374244895480E-002 
  20
2.085567432479350E-003 
  30
0.000000000000000E+000 
  0
SEQEND
  0
POLYLINE
  8
0
  66
1
  10
0.000000000000000E+000 
  20
0.000000000000000E+000 
  30
0.000000000000000E+000 
  0
VERTEX
  8
0
  10
5.941491346473070E-002 
  20
8.358711502292573E-003 
  30
0.000000000000000E+000 
  0
VERTEX
  8
0
  10
5.934856249795988E-002 
  20
8.817489973101569E-003 
  30
0.000000000000000E+000 
  0
VERTEX
  8
0
  10
5.927866907919319E-002 
  20
9.275742137398008E-003 
  30
0.000000000000000E+000 
  0
VERTEX
  8
0
  10
5.920523738029382E-002 
  20
9.733440642602047E-003 
  30
0.000000000000000E+000 
  0
VERTEX
  8
0
  10
5.912827178432102E-002 
  20
1.019055816918117E-002 
  30
0.000000000000000E+000 
  0
VERTEX
  8
0
  10
5.904777688526863E-002 
  20
1.064706743228085E-002 
  30
0.000000000000000E+000 
  0
VERTEX
  8
0
  10
5.896375748779076E-002 
  20
1.110294118335314E-002 
  30
0.000000000000000E+000 
  0
VERTEX
  8
0
  10
5.887621860691507E-002 
  20
1.155815221178313E-002 
  30
0.000000000000000E+000 
  0
VERTEX
  8
0
  10
5.878516546774341E-002 
  20
1.201267334651313E-002 
  30
0.000000000000000E+000 
  0
VERTEX
  8
0
  10
5.869060350513990E-002 
  20
1.246647745766447E-002 
  30
0.000000000000000E+000 
  0
SEQEND
  0
POLYLINE
  8
0
  66
1
  10
0.000000000000000E+000 
  20
0.000000000000000E+000 
  30
0.000000000000000E+000 
  0
VERTEX
  8
0
  10
5.706079240459953E-002 
  20
1.854901534203890E-002 
  30
0.000000000000000E+000 
  0
VERTEX
  8
0
  10
5.691578341269497E-002 
  20
1.898930221254049E-002 
  30
0.000000000000000E+000 
  0
VERTEX
  8
0
  10
5.676737717876701E-002 
  20
1.942845563197449E-002 
  30
0.000000000000000E+000 
  0
VERTEX
  8
0
  10
5.661558256102449E-002 
  20
1.986644938774468E-002 
  30
0.000000000000000E+000 
  0
VERTEX
  8
0
  10
5.646040861992521E-002 
  20
2.030325733647384E-002 
  30
0.000000000000000E+000 
  0
VERTEX
  8
0
  10
5.630186461763513E-002 
  20
2.073885340556435E-002 
  30
0.000000000000000E+000 
  0
VERTEX
  8
0
  10
5.613996001747563E-002 
  20
2.117321159475439E-002 
  30
0.000000000000000E+000 
  0
VERTEX
  8
0
  10
5.597470448335848E-002 
  20
2.160630597766984E-002 
  30
0.000000000000000E+000 
  0
VERTEX
  8
0
  10
5.580610787920916E-002 
  20
2.203811070337183E-002 
  30
0.000000000000000E+000 
  0
VERTEX
  8
0
  10
5.563418026837798E-002 
  20
2.246859999789975E-002 
  30
0.000000000000000E+000 
  0
SEQEND
  0
POLYLINE
  8
0
  66
1
  10
0.000000000000000E+000 
  20
0.000000000000000E+000 
  30
0.000000000000000E+000 
  0
VERTEX
  8
0
  10
5.297290804140881E-002 
  20
2.817571673687211E-002 
  30
0.000000000000000E+000 
  0
VERTEX
  8
0
  10
5.275364704921141E-002 
  20
2.858413411330199E-002 
  30
0.000000000000000E+000 
  0
VERTEX
  8
0
  10
5.253123724844287E-002 
  20
2.899084533344639E-002 
  30
0.000000000000000E+000 
  0
VERTEX
  8
0
  10
5.230569191450551E-002 
  20
2.939582612114914E-002 
  30
0.000000000000000E+000 
  0
VERTEX
  8
0
  10
5.207702450995821E-002 
  20
2.979905230354167E-002 
  30
0.000000000000000E+000 
  0
VERTEX
  8
0
  10
5.184524868371293E-002 
  20
3.020049981248596E-002 
  30
0.000000000000000E+000 
  0
VERTEX
  8
0
  10
5.161037827021995E-002 
  20
3.060014468601105E-002 
  30
0.000000000000000E+000 
  0
VERTEX
  8
0
  10
5.137242728864216E-002 
  20
3.099796306974340E-002 
  30
0.000000000000000E+000 
  0
VERTEX
  8
0
  10
5.113140994201826E-002 
  20
3.139393121833068E-002 
  30
0.000000000000000E+000 
  0
VERTEX
  8
0
  10
5.088734061641501E-002 
  20
3.178802549685907E-002 
  30
0.000000000000000E+000 
  0
SEQEND
  0
POLYLINE
  8
0
  66
1
  10
0.000000000000000E+000 
  20
0.000000000000000E+000 
  30
0.000000000000000E+000 
  0
VERTEX
  8
0
  10
4.727546867296462E-002 
  20
3.694631323625591E-002 
  30
0.000000000000000E+000 
  0
VERTEX
  8
0
  10
4.698861781477092E-002 
  20
3.731045156330046E-002 
  30
0.000000000000000E+000 
  0
VERTEX
  8
0
  10
4.669896225641343E-002 
  20
3.767236286953703E-002 
  30
0.000000000000000E+000 
  0
VERTEX
  8
0
  10
4.640651928712151E-002 
  20
3.803202555286820E-002 
  30
0.000000000000000E+000 
  0
VERTEX
  8
0
  10
4.611130636250210E-002 
  20
3.838941814541444E-002 
  30
0.000000000000000E+000 
  0
VERTEX
  8
0
  10
4.581334110349782E-002 
  20
3.874451931479548E-002 
  30
0.000000000000000E+000 
  0
VERTEX
  8
0
  10
4.551264129533519E-002 
  20
3.909730786540365E-002 
  30
0.000000000000000E+000 
  0
VERTEX
  8
0
  10
4.520922488646300E-002 
  20
3.944776273966902E-002 
  30
0.000000000000000E+000 
  0
VERTEX
  8
0
  10
4.490310998748101E-002 
  20
3.979586301931630E-002 
  30
0.000000000000000E+000 
  0
VERTEX
  8
0
  10
4.459431487005903E-002 
  20
4.014158792661342E-002 
  30
0.000000000000000E+000 
  0
SEQEND
  0
POLYLINE
  8
0
  66
1
  10
0.000000000000000E+000 
  20
0.000000000000000E+000 
  30
0.000000000000000E+000 
  0
VERTEX
  8
0
  10
4.014158811143392E-002 
  20
4.459431470369282E-002 
  30
0.000000000000000E+000 
  0
VERTEX
  8
0
  10
3.979586320541659E-002 
  20
4.490310982254765E-002 
  30
0.000000000000000E+000 
  0
VERTEX
  8
0
  10
3.944776292703799E-002 
  20
4.520922472297231E-002 
  30
0.000000000000000E+000 
  0
VERTEX
  8
0
  10
3.909730805403012E-002 
  20
4.551264113329696E-002 
  30
0.000000000000000E+000 
  0
VERTEX
  8
0
  10
3.874451950466819E-002 
  20
4.581334094292173E-002 
  30
0.000000000000000E+000 
  0
VERTEX
  8
0
  10
3.838941833652208E-002 
  20
4.611130620339773E-002 
  30
0.000000000000000E+000 
  0
VERTEX
  8
0
  10
3.803202574519935E-002 
  20
4.640651912949834E-002 
  30
0.000000000000000E+000 
  0
VERTEX
  8
0
  10
3.767236306308021E-002 
  20
4.669896210028088E-002 
  30
0.000000000000000E+000 
  0
VERTEX
  8
0
  10
3.731045175804409E-002 
  20
4.698861766013832E-002 
  30
0.000000000000000E+000 
  0
VERTEX
  8
0
  10
3.694631343218838E-002 
  20
4.727546851984116E-002 
  30
0.000000000000000E+000 
  0
SEQEND
  0
POLYLINE
  8
0
  66
1
  10
0.000000000000000E+000 
  20
0.000000000000000E+000 
  30
0.000000000000000E+000 
  0
VERTEX
  8
0
  10
3.178802570776092E-002 
  20
5.088734048466990E-002 
  30
0.000000000000000E+000 
  0
VERTEX
  8
0
  10
3.159121427559092E-002 
  20
5.100975573940436E-002 
  30
0.000000000000000E+000 
  0
VERTEX
  8
0
  10
3.139393143024407E-002 
  20
5.113140981190652E-002 
  30
0.000000000000000E+000 
  0
VERTEX
  8
0
  10
3.119618011563169E-002 
  20
5.125230088681937E-002 
  30
0.000000000000000E+000 
  0
VERTEX
  8
0
  10
3.099796328265570E-002 
  20
5.137242716017153E-002 
  30
0.000000000000000E+000 
  0
VERTEX
  8
0
  10
3.079928388916465E-002 
  20
5.149178683940425E-002 
  30
0.000000000000000E+000 
  0
VERTEX
  8
0
  10
3.060014489990953E-002 
  20
5.161037814339808E-002 
  30
0.000000000000000E+000 
  0
VERTEX
  8
0
  10
3.040054928649957E-002 
  20
5.172819930249952E-002 
  30
0.000000000000000E+000 
  0
VERTEX
  8
0
  10
3.020050002735784E-002 
  20
5.184524855854737E-002 
  30
0.000000000000000E+000 
  0
VERTEX
  8
0
  10
3.000000010767689E-002 
  20
5.196152416489902E-002 
  30
0.000000000000000E+000 
  0
SEQEND
  0
ENDSEC
  0
EOF
