0
SECTION
  2
HEADER
  9
$LUNITS
  70
2
  9
$INSUNITS
  70
4
  9
$AUNITS
  70
3
  0
ENDSEC
  0
SECTION
  2
TABLES
  0
ENDSEC
  0
SECTION
  2
BLOCKS
  0
ENDSEC
0
SECTION
2
ENTITIES
0
ARC
8
_MotorCAD0_
10
0
20
0
30
0
40
67.5
50
170
51
180
0
ARC
8
_MotorCAD1_
10
0
20
0
30
0
40
67.5
50
180
51
190
0
ARC
8
_MotorCAD2_
10
0
20
0
30
0
40
67.5
50
190
51
200
0
ARC
8
_MotorCAD3_
10
0
20
0
30
0
40
67.5
50
200
51
210
0
ARC
8
_MotorCAD4_
10
0
20
0
30
0
40
67.5
50
210
51
220
0
ARC
8
_MotorCAD5_
10
0
20
0
30
0
40
67.5
50
220
51
230
0
ARC
8
_MotorCAD6_
10
0
20
0
30
0
40
67.5
50
230
51
240
0
ARC
8
_MotorCAD7_
10
0
20
0
30
0
40
67.5
50
240
51
250
0
ARC
8
_MotorCAD8_
10
0
20
0
30
0
40
67.5
50
250
51
260
0
ARC
8
_MotorCAD9_
10
0
20
0
30
0
40
67.5
50
260
51
270
0
ARC
8
_MotorCAD10_
10
0
20
0
30
0
40
67.5
50
270
51
280
0
ARC
8
_MotorCAD11_
10
0
20
0
30
0
40
67.5
50
280
51
290
0
ARC
8
_MotorCAD12_
10
0
20
0
30
0
40
67.5
50
290
51
300
0
ARC
8
_MotorCAD13_
10
0
20
0
30
0
40
67.5
50
300
51
310
0
ARC
8
_MotorCAD14_
10
0
20
0
30
0
40
67.5
50
310
51
320
0
ARC
8
_MotorCAD15_
10
0
20
0
30
0
40
67.5
50
320
51
330
0
ARC
8
_MotorCAD16_
10
0
20
0
30
0
40
67.5
50
330
51
340
0
ARC
8
_MotorCAD17_
10
0
20
0
30
0
40
67.5
50
340
51
350
0
ARC
8
_MotorCAD18_
10
0
20
0
30
0
40
67.5
50
350
51
0
0
ARC
8
_MotorCAD19_
10
0
20
0
30
0
40
67.5
50
0
51
10
0
ARC
8
_MotorCAD20_
10
0
20
0
30
0
40
67.5
50
10
51
20
0
ARC
8
_MotorCAD21_
10
0
20
0
30
0
40
67.5
50
20
51
30
0
ARC
8
_MotorCAD22_
10
0
20
0
30
0
40
67.5
50
30
51
40
0
ARC
8
_MotorCAD23_
10
0
20
0
30
0
40
67.5
50
40
51
50
0
ARC
8
_MotorCAD24_
10
0
20
0
30
0
40
67.5
50
50
51
60
0
ARC
8
_MotorCAD25_
10
0
20
0
30
0
40
67.5
50
60
51
70
0
ARC
8
_MotorCAD26_
10
0
20
0
30
0
40
67.5
50
70
51
80
0
ARC
8
_MotorCAD27_
10
0
20
0
30
0
40
67.5
50
80
51
90
0
ARC
8
_MotorCAD28_
10
0
20
0
30
0
40
67.5
50
90
51
100
0
ARC
8
_MotorCAD29_
10
0
20
0
30
0
40
67.5
50
100
51
110
0
ARC
8
_MotorCAD30_
10
0
20
0
30
0
40
67.5
50
110
51
120
0
ARC
8
_MotorCAD31_
10
0
20
0
30
0
40
67.5
50
120
51
130
0
ARC
8
_MotorCAD32_
10
0
20
0
30
0
40
67.5
50
130
51
140
0
ARC
8
_MotorCAD33_
10
0
20
0
30
0
40
67.5
50
140
51
150
0
ARC
8
_MotorCAD34_
10
0
20
0
30
0
40
67.5
50
150
51
160
0
ARC
8
_MotorCAD35_
10
0
20
0
30
0
40
67.5
50
160
51
170
0
LINE
8
_MotorCAD36_
10
-40.7901945014304
20
-1.75
30
0
11
-59.974473736749
21
-1.75
31
0
0
ARC
8
_MotorCAD37_
10
0
20
0
30
0
40
60
50
181.671363929608
51
185
0
ARC
8
_MotorCAD38_
10
0
20
0
30
0
40
60
50
185
51
188.328636070392
0
LINE
8
_MotorCAD39_
10
-40.4743841028017
20
-5.35972937408167
30
0
11
-59.3672110296946
21
-8.69104450314827
31
0
0
LINE
8
_MotorCAD40_
10
-40.4743841028017
20
-5.35972937408167
30
0
11
-40.5451335593684
21
-4.55105938513259
31
0
0
LINE
8
_MotorCAD41_
10
-39.748177800895
20
-4.48133479093445
30
0
11
-40.5451335593684
21
-4.55105938513259
31
0
0
ARC
8
_MotorCAD42_
10
0
20
0
30
0
40
40
50
186.432543737566
51
190
0
ARC
8
_MotorCAD43_
10
0
20
0
30
0
40
40
50
190
51
193.567456262434
0
LINE
8
_MotorCAD44_
10
-38.883776136673
20
-9.38360023408401
30
0
11
-39.6565167977042
21
-9.59065547016596
31
0
0
LINE
8
_MotorCAD45_
10
-39.6565167977042
20
-9.59065547016596
30
0
11
-39.8666154809674
21
-8.80655650962439
31
0
0
LINE
8
_MotorCAD46_
10
-39.8666154809674
20
-8.80655650962439
30
0
11
-58.7594424078604
21
-12.137871638691
31
0
0
ARC
8
_MotorCAD47_
10
0
20
0
30
0
40
60
50
191.671363929608
51
195
0
ARC
8
_MotorCAD48_
10
0
20
0
30
0
40
60
50
195
51
198.328636070392
0
LINE
8
_MotorCAD49_
10
-38.928780024236
20
-12.3066060832858
30
0
11
-56.9561056567613
21
-18.8680160169491
31
0
0
LINE
8
_MotorCAD50_
10
-38.928780024236
20
-12.3066060832858
30
0
11
-39.1388787074992
21
-11.5225071227442
31
0
0
LINE
8
_MotorCAD51_
10
-38.3661380464679
20
-11.3154518866621
30
0
11
-39.1388787074992
21
-11.5225071227442
31
0
0
ARC
8
_MotorCAD52_
10
0
20
0
30
0
40
40
50
196.432543737566
51
200
0
ARC
8
_MotorCAD53_
10
0
20
0
30
0
40
40
50
200
51
203.567456262434
0
LINE
8
_MotorCAD54_
10
-36.663599125183
20
-15.9931391286352
30
0
11
-37.3886453548123
21
-16.3312337380277
31
0
0
LINE
8
_MotorCAD55_
10
-37.3886453548123
20
-16.3312337380277
30
0
11
-37.7317095225961
21
-15.5955302560365
31
0
0
LINE
8
_MotorCAD56_
10
-37.7317095225961
20
-15.5955302560365
30
0
11
-55.7590351551214
21
-22.1569401896998
31
0
0
ARC
8
_MotorCAD57_
10
0
20
0
30
0
40
60
50
201.671363929608
51
205
0
ARC
8
_MotorCAD58_
10
0
20
0
30
0
40
60
50
205
51
208.328636070392
0
LINE
8
_MotorCAD59_
10
-36.200344663547
20
-18.8795527940924
30
0
11
-52.8144178346273
21
-28.4716924117517
31
0
0
LINE
8
_MotorCAD60_
10
-36.200344663547
20
-18.8795527940924
30
0
11
-36.5434088313309
21
-18.1438493121011
31
0
0
LINE
8
_MotorCAD61_
10
-35.8183626017016
20
-17.8057547027085
30
0
11
-36.5434088313309
21
-18.1438493121011
31
0
0
ARC
8
_MotorCAD62_
10
0
20
0
30
0
40
40
50
206.432543737566
51
210
0
ARC
8
_MotorCAD63_
10
0
20
0
30
0
40
40
50
210
51
213.567456262434
0
LINE
8
_MotorCAD64_
10
-33.3294172069506
20
-22.1167345836818
30
0
11
-33.9847388423818
21
-22.5755957327626
31
0
0
LINE
8
_MotorCAD65_
10
-33.9847388423818
20
-22.5755957327626
30
0
11
-34.450344663547
21
-21.910641707338
31
0
0
LINE
8
_MotorCAD66_
10
-34.450344663547
20
-21.910641707338
30
0
11
-51.0644178346273
21
-31.5027813249973
31
0
0
ARC
8
_MotorCAD67_
10
0
20
0
30
0
40
60
50
211.671363929608
51
215
0
ARC
8
_MotorCAD68_
10
0
20
0
30
0
40
60
50
215
51
218.328636070392
0
LINE
8
_MotorCAD69_
10
-32.3719801485145
20
-24.8788538467652
30
0
11
-47.0679906519731
21
-37.2102708399948
31
0
0
LINE
8
_MotorCAD70_
10
-32.3719801485145
20
-24.8788538467652
30
0
11
-32.8375859696797
21
-24.2138998213406
31
0
0
LINE
8
_MotorCAD71_
10
-32.1822643342485
20
-23.7550386722598
30
0
11
-32.8375859696797
21
-24.2138998213406
31
0
0
ARC
8
_MotorCAD72_
10
0
20
0
30
0
40
40
50
216.432543737566
51
220
0
ARC
8
_MotorCAD73_
10
0
20
0
30
0
40
40
50
220
51
223.567456262434
0
LINE
8
_MotorCAD74_
10
-28.9825378123839
20
-27.5683242500108
30
0
11
-29.5482232373332
21
-28.13400967496
31
0
0
LINE
8
_MotorCAD75_
10
-29.5482232373332
20
-28.13400967496
30
0
11
-30.1222235146116
21
-27.5600093976817
31
0
0
LINE
8
_MotorCAD76_
10
-30.1222235146116
20
-27.5600093976817
30
0
11
-44.8182340180702
21
-39.8914263909113
31
0
0
ARC
8
_MotorCAD77_
10
0
20
0
30
0
40
60
50
221.671363929608
51
225
0
ARC
8
_MotorCAD78_
10
0
20
0
30
0
40
60
50
225
51
228.328636070392
0
LINE
8
_MotorCAD79_
10
-27.5600093976817
20
-30.1222235146116
30
0
11
-39.8914263909113
21
-44.8182340180702
31
0
0
LINE
8
_MotorCAD80_
10
-27.5600093976817
20
-30.1222235146116
30
0
11
-28.1340096749601
21
-29.5482232373332
31
0
0
LINE
8
_MotorCAD81_
10
-27.5683242500108
20
-28.9825378123839
30
0
11
-28.1340096749601
21
-29.5482232373332
31
0
0
ARC
8
_MotorCAD82_
10
0
20
0
30
0
40
40
50
226.432543737566
51
230
0
ARC
8
_MotorCAD83_
10
0
20
0
30
0
40
40
50
230
51
233.567456262433
0
LINE
8
_MotorCAD84_
10
-23.7550386722598
20
-32.1822643342485
30
0
11
-24.2138998213407
21
-32.8375859696797
31
0
0
LINE
8
_MotorCAD85_
10
-24.2138998213407
20
-32.8375859696797
30
0
11
-24.8788538467653
21
-32.3719801485145
31
0
0
LINE
8
_MotorCAD86_
10
-24.8788538467653
20
-32.3719801485145
30
0
11
-37.2102708399948
21
-47.0679906519731
31
0
0
ARC
8
_MotorCAD87_
10
0
20
0
30
0
40
60
50
231.671363929608
51
235
0
ARC
8
_MotorCAD88_
10
0
20
0
30
0
40
60
50
235
51
238.328636070392
0
LINE
8
_MotorCAD89_
10
-21.910641707338
20
-34.450344663547
30
0
11
-31.5027813249973
21
-51.0644178346273
31
0
0
LINE
8
_MotorCAD90_
10
-21.910641707338
20
-34.450344663547
30
0
11
-22.5755957327626
21
-33.9847388423818
31
0
0
LINE
8
_MotorCAD91_
10
-22.1167345836818
20
-33.3294172069506
30
0
11
-22.5755957327626
21
-33.9847388423818
31
0
0
ARC
8
_MotorCAD92_
10
0
20
0
30
0
40
40
50
236.432543737566
51
240
0
ARC
8
_MotorCAD93_
10
0
20
0
30
0
40
40
50
240
51
243.567456262433
0
LINE
8
_MotorCAD94_
10
-17.8057547027085
20
-35.8183626017015
30
0
11
-18.1438493121012
21
-36.5434088313308
31
0
0
LINE
8
_MotorCAD95_
10
-18.1438493121012
20
-36.5434088313308
30
0
11
-18.8795527940924
21
-36.200344663547
31
0
0
LINE
8
_MotorCAD96_
10
-18.8795527940924
20
-36.200344663547
30
0
11
-28.4716924117518
21
-52.8144178346273
31
0
0
ARC
8
_MotorCAD97_
10
0
20
0
30
0
40
60
50
241.671363929608
51
245
0
ARC
8
_MotorCAD98_
10
0
20
0
30
0
40
60
50
245
51
248.328636070392
0
LINE
8
_MotorCAD99_
10
-15.5955302560365
20
-37.7317095225961
30
0
11
-22.1569401896998
21
-55.7590351551214
31
0
0
LINE
8
_MotorCAD100_
10
-15.5955302560365
20
-37.7317095225961
30
0
11
-16.3312337380278
21
-37.3886453548123
31
0
0
LINE
8
_MotorCAD101_
10
-15.9931391286352
20
-36.663599125183
30
0
11
-16.3312337380278
21
-37.3886453548123
31
0
0
ARC
8
_MotorCAD102_
10
0
20
0
30
0
40
40
50
246.432543737566
51
250
0
ARC
8
_MotorCAD103_
10
0
20
0
30
0
40
40
50
250
51
253.567456262434
0
LINE
8
_MotorCAD104_
10
-11.3154518866621
20
-38.3661380464679
30
0
11
-11.5225071227442
21
-39.1388787074992
31
0
0
LINE
8
_MotorCAD105_
10
-11.5225071227442
20
-39.1388787074992
30
0
11
-12.3066060832858
21
-38.928780024236
31
0
0
LINE
8
_MotorCAD106_
10
-12.3066060832858
20
-38.928780024236
30
0
11
-18.8680160169491
21
-56.9561056567613
31
0
0
ARC
8
_MotorCAD107_
10
0
20
0
30
0
40
60
50
251.671363929608
51
255
0
ARC
8
_MotorCAD108_
10
0
20
0
30
0
40
60
50
255
51
258.328636070392
0
LINE
8
_MotorCAD109_
10
-8.80655650962438
20
-39.8666154809674
30
0
11
-12.137871638691
21
-58.7594424078604
31
0
0
LINE
8
_MotorCAD110_
10
-8.80655650962438
20
-39.8666154809674
30
0
11
-9.590655470166
21
-39.6565167977042
31
0
0
LINE
8
_MotorCAD111_
10
-9.38360023408399
20
-38.883776136673
30
0
11
-9.590655470166
21
-39.6565167977042
31
0
0
ARC
8
_MotorCAD112_
10
0
20
0
30
0
40
40
50
256.432543737567
51
260
0
ARC
8
_MotorCAD113_
10
0
20
0
30
0
40
40
50
260
51
263.567456262434
0
LINE
8
_MotorCAD114_
10
-4.48133479093445
20
-39.748177800895
30
0
11
-4.55105938513264
21
-40.5451335593684
31
0
0
LINE
8
_MotorCAD115_
10
-4.55105938513264
20
-40.5451335593684
30
0
11
-5.35972937408167
21
-40.4743841028017
31
0
0
LINE
8
_MotorCAD116_
10
-5.35972937408167
20
-40.4743841028017
30
0
11
-8.69104450314828
21
-59.3672110296946
31
0
0
ARC
8
_MotorCAD117_
10
0
20
0
30
0
40
60
50
261.671363929608
51
265
0
ARC
8
_MotorCAD118_
10
0
20
0
30
0
40
60
50
265
51
268.328636070392
0
LINE
8
_MotorCAD119_
10
-1.75000000000001
20
-40.7901945014304
30
0
11
-1.75000000000001
21
-59.974473736749
31
0
0
LINE
8
_MotorCAD120_
10
-1.75000000000001
20
-40.7901945014304
30
0
11
-2.55866998894907
21
-40.7194450448637
31
0
0
LINE
8
_MotorCAD121_
10
-2.48894539475096
20
-39.9224892863903
30
0
11
-2.55866998894907
21
-40.7194450448637
31
0
0
ARC
8
_MotorCAD122_
10
0
20
0
30
0
40
40
50
266.432543737566
51
270
0
ARC
8
_MotorCAD123_
10
0
20
0
30
0
40
40
50
270
51
273.567456262434
0
LINE
8
_MotorCAD124_
10
2.55866998894901
20
-40.7194450448637
30
0
11
2.48894539475095
21
-39.9224892863903
31
0
0
LINE
8
_MotorCAD125_
10
2.55866998894901
20
-40.7194450448637
30
0
11
1.74999999999999
21
-40.7901945014304
31
0
0
LINE
8
_MotorCAD126_
10
1.74999999999999
20
-40.7901945014304
30
0
11
1.74999999999999
21
-59.974473736749
31
0
0
ARC
8
_MotorCAD127_
10
0
20
0
30
0
40
60
50
271.671363929608
51
275
0
ARC
8
_MotorCAD128_
10
0
20
0
30
0
40
60
50
275
51
278.328636070392
0
LINE
8
_MotorCAD129_
10
8.69104450314826
20
-59.3672110296946
30
0
11
5.35972937408166
21
-40.4743841028017
31
0
0
LINE
8
_MotorCAD130_
10
5.35972937408166
20
-40.4743841028017
30
0
11
4.55105938513258
21
-40.5451335593684
31
0
0
LINE
8
_MotorCAD131_
10
4.55105938513258
20
-40.5451335593684
30
0
11
4.48133479093444
21
-39.748177800895
31
0
0
ARC
8
_MotorCAD132_
10
0
20
0
30
0
40
40
50
276.432543737566
51
280
0
ARC
8
_MotorCAD133_
10
0
20
0
30
0
40
40
50
280
51
283.567456262433
0
LINE
8
_MotorCAD134_
10
9.59065547016594
20
-39.6565167977043
30
0
11
9.38360023408399
21
-38.883776136673
31
0
0
LINE
8
_MotorCAD135_
10
9.59065547016594
20
-39.6565167977043
30
0
11
8.80655650962437
21
-39.8666154809675
31
0
0
LINE
8
_MotorCAD136_
10
12.137871638691
20
-58.7594424078604
30
0
11
8.80655650962437
21
-39.8666154809675
31
0
0
ARC
8
_MotorCAD137_
10
0
20
0
30
0
40
60
50
281.671363929608
51
285
0
ARC
8
_MotorCAD138_
10
0
20
0
30
0
40
60
50
285
51
288.328636070392
0
LINE
8
_MotorCAD139_
10
18.8680160169491
20
-56.9561056567613
30
0
11
12.3066060832858
21
-38.928780024236
31
0
0
LINE
8
_MotorCAD140_
10
12.3066060832858
20
-38.928780024236
30
0
11
11.5225071227442
21
-39.1388787074992
31
0
0
LINE
8
_MotorCAD141_
10
11.5225071227442
20
-39.1388787074992
30
0
11
11.3154518866621
21
-38.3661380464679
31
0
0
ARC
8
_MotorCAD142_
10
0
20
0
30
0
40
40
50
286.432543737566
51
290
0
ARC
8
_MotorCAD143_
10
0
20
0
30
0
40
40
50
290
51
293.567456262433
0
LINE
8
_MotorCAD144_
10
16.3312337380277
20
-37.3886453548123
30
0
11
15.9931391286352
21
-36.663599125183
31
0
0
LINE
8
_MotorCAD145_
10
16.3312337380277
20
-37.3886453548123
30
0
11
15.5955302560365
21
-37.7317095225961
31
0
0
LINE
8
_MotorCAD146_
10
22.1569401896998
20
-55.7590351551214
30
0
11
15.5955302560365
21
-37.7317095225961
31
0
0
ARC
8
_MotorCAD147_
10
0
20
0
30
0
40
60
50
291.671363929608
51
295
0
ARC
8
_MotorCAD148_
10
0
20
0
30
0
40
60
50
295
51
298.328636070392
0
LINE
8
_MotorCAD149_
10
28.4716924117518
20
-52.8144178346273
30
0
11
18.8795527940924
21
-36.200344663547
31
0
0
LINE
8
_MotorCAD150_
10
18.8795527940924
20
-36.200344663547
30
0
11
18.1438493121011
21
-36.5434088313309
31
0
0
LINE
8
_MotorCAD151_
10
18.1438493121011
20
-36.5434088313309
30
0
11
17.8057547027085
21
-35.8183626017016
31
0
0
ARC
8
_MotorCAD152_
10
0
20
0
30
0
40
40
50
296.432543737567
51
300
0
ARC
8
_MotorCAD153_
10
0
20
0
30
0
40
40
50
300
51
303.567456262433
0
LINE
8
_MotorCAD154_
10
22.5755957327626
20
-33.9847388423818
30
0
11
22.1167345836818
21
-33.3294172069506
31
0
0
LINE
8
_MotorCAD155_
10
22.5755957327626
20
-33.9847388423818
30
0
11
21.910641707338
21
-34.450344663547
31
0
0
LINE
8
_MotorCAD156_
10
31.5027813249973
20
-51.0644178346273
30
0
11
21.910641707338
21
-34.450344663547
31
0
0
ARC
8
_MotorCAD157_
10
0
20
0
30
0
40
60
50
301.671363929608
51
305
0
ARC
8
_MotorCAD158_
10
0
20
0
30
0
40
60
50
305
51
308.328636070392
0
LINE
8
_MotorCAD159_
10
37.2102708399948
20
-47.0679906519731
30
0
11
24.8788538467652
21
-32.3719801485145
31
0
0
LINE
8
_MotorCAD160_
10
24.8788538467652
20
-32.3719801485145
30
0
11
24.2138998213406
21
-32.8375859696797
31
0
0
LINE
8
_MotorCAD161_
10
24.2138998213406
20
-32.8375859696797
30
0
11
23.7550386722598
21
-32.1822643342485
31
0
0
ARC
8
_MotorCAD162_
10
0
20
0
30
0
40
40
50
306.432543737567
51
310
0
ARC
8
_MotorCAD163_
10
0
20
0
30
0
40
40
50
310
51
313.567456262433
0
LINE
8
_MotorCAD164_
10
28.13400967496
20
-29.5482232373332
30
0
11
27.5683242500108
21
-28.9825378123839
31
0
0
LINE
8
_MotorCAD165_
10
28.13400967496
20
-29.5482232373332
30
0
11
27.5600093976817
21
-30.1222235146116
31
0
0
LINE
8
_MotorCAD166_
10
39.8914263909113
20
-44.8182340180703
30
0
11
27.5600093976817
21
-30.1222235146116
31
0
0
ARC
8
_MotorCAD167_
10
0
20
0
30
0
40
60
50
311.671363929608
51
315
0
ARC
8
_MotorCAD168_
10
0
20
0
30
0
40
60
50
315
51
318.328636070392
0
LINE
8
_MotorCAD169_
10
44.8182340180702
20
-39.8914263909113
30
0
11
30.1222235146116
21
-27.5600093976817
31
0
0
LINE
8
_MotorCAD170_
10
30.1222235146116
20
-27.5600093976817
30
0
11
29.5482232373332
21
-28.1340096749601
31
0
0
LINE
8
_MotorCAD171_
10
29.5482232373332
20
-28.1340096749601
30
0
11
28.9825378123839
21
-27.5683242500108
31
0
0
ARC
8
_MotorCAD172_
10
0
20
0
30
0
40
40
50
316.432543737566
51
320
0
ARC
8
_MotorCAD173_
10
0
20
0
30
0
40
40
50
320
51
323.567456262433
0
LINE
8
_MotorCAD174_
10
32.8375859696796
20
-24.2138998213407
30
0
11
32.1822643342485
21
-23.7550386722598
31
0
0
LINE
8
_MotorCAD175_
10
32.8375859696796
20
-24.2138998213407
30
0
11
32.3719801485145
21
-24.8788538467653
31
0
0
LINE
8
_MotorCAD176_
10
47.0679906519731
20
-37.2102708399948
30
0
11
32.3719801485145
21
-24.8788538467653
31
0
0
ARC
8
_MotorCAD177_
10
0
20
0
30
0
40
60
50
321.671363929608
51
325
0
ARC
8
_MotorCAD178_
10
0
20
0
30
0
40
60
50
325
51
328.328636070392
0
LINE
8
_MotorCAD179_
10
51.0644178346273
20
-31.5027813249973
30
0
11
34.450344663547
21
-21.910641707338
31
0
0
LINE
8
_MotorCAD180_
10
34.450344663547
20
-21.910641707338
30
0
11
33.9847388423818
21
-22.5755957327626
31
0
0
LINE
8
_MotorCAD181_
10
33.9847388423818
20
-22.5755957327626
30
0
11
33.3294172069506
21
-22.1167345836818
31
0
0
ARC
8
_MotorCAD182_
10
0
20
0
30
0
40
40
50
326.432543737566
51
330
0
ARC
8
_MotorCAD183_
10
0
20
0
30
0
40
40
50
330
51
333.567456262433
0
LINE
8
_MotorCAD184_
10
36.5434088313308
20
-18.1438493121012
30
0
11
35.8183626017015
21
-17.8057547027085
31
0
0
LINE
8
_MotorCAD185_
10
36.5434088313308
20
-18.1438493121012
30
0
11
36.200344663547
21
-18.8795527940924
31
0
0
LINE
8
_MotorCAD186_
10
52.8144178346273
20
-28.4716924117518
30
0
11
36.200344663547
21
-18.8795527940924
31
0
0
ARC
8
_MotorCAD187_
10
0
20
0
30
0
40
60
50
331.671363929608
51
335
0
ARC
8
_MotorCAD188_
10
0
20
0
30
0
40
60
50
335
51
338.328636070392
0
LINE
8
_MotorCAD189_
10
55.7590351551214
20
-22.1569401896998
30
0
11
37.7317095225961
21
-15.5955302560365
31
0
0
LINE
8
_MotorCAD190_
10
37.7317095225961
20
-15.5955302560365
30
0
11
37.3886453548123
21
-16.3312337380278
31
0
0
LINE
8
_MotorCAD191_
10
37.3886453548123
20
-16.3312337380278
30
0
11
36.663599125183
21
-15.9931391286352
31
0
0
ARC
8
_MotorCAD192_
10
0
20
0
30
0
40
40
50
336.432543737566
51
340
0
ARC
8
_MotorCAD193_
10
0
20
0
30
0
40
40
50
340
51
343.567456262433
0
LINE
8
_MotorCAD194_
10
39.1388787074992
20
-11.5225071227442
30
0
11
38.3661380464679
21
-11.3154518866621
31
0
0
LINE
8
_MotorCAD195_
10
39.1388787074992
20
-11.5225071227442
30
0
11
38.928780024236
21
-12.3066060832858
31
0
0
LINE
8
_MotorCAD196_
10
56.9561056567613
20
-18.8680160169491
30
0
11
38.928780024236
21
-12.3066060832858
31
0
0
ARC
8
_MotorCAD197_
10
0
20
0
30
0
40
60
50
341.671363929608
51
345
0
ARC
8
_MotorCAD198_
10
0
20
0
30
0
40
60
50
345
51
348.328636070392
0
LINE
8
_MotorCAD199_
10
58.7594424078604
20
-12.137871638691
30
0
11
39.8666154809674
21
-8.80655650962438
31
0
0
LINE
8
_MotorCAD200_
10
39.8666154809674
20
-8.80655650962438
30
0
11
39.6565167977042
21
-9.59065547016598
31
0
0
LINE
8
_MotorCAD201_
10
39.6565167977042
20
-9.59065547016598
30
0
11
38.883776136673
21
-9.38360023408399
31
0
0
ARC
8
_MotorCAD202_
10
0
20
0
30
0
40
40
50
346.432543737567
51
350
0
ARC
8
_MotorCAD203_
10
0
20
0
30
0
40
40
50
350
51
353.567456262433
0
LINE
8
_MotorCAD204_
10
40.5451335593684
20
-4.55105938513259
30
0
11
39.748177800895
21
-4.48133479093445
31
0
0
LINE
8
_MotorCAD205_
10
40.5451335593684
20
-4.55105938513259
30
0
11
40.4743841028017
21
-5.35972937408167
31
0
0
LINE
8
_MotorCAD206_
10
59.3672110296946
20
-8.69104450314828
30
0
11
40.4743841028017
21
-5.35972937408167
31
0
0
ARC
8
_MotorCAD207_
10
0
20
0
30
0
40
60
50
351.671363929608
51
355
0
ARC
8
_MotorCAD208_
10
0
20
0
30
0
40
60
50
355
51
358.328636070392
0
LINE
8
_MotorCAD209_
10
59.974473736749
20
-1.75000000000001
30
0
11
40.7901945014304
21
-1.75
31
0
0
LINE
8
_MotorCAD210_
10
40.7901945014304
20
-1.75
30
0
11
40.7194450448637
21
-2.55866998894908
31
0
0
LINE
8
_MotorCAD211_
10
40.7194450448637
20
-2.55866998894908
30
0
11
39.9224892863903
21
-2.48894539475096
31
0
0
ARC
8
_MotorCAD212_
10
0
20
0
30
0
40
40
50
356.432543737567
51
0
0
ARC
8
_MotorCAD213_
10
0
20
0
30
0
40
40
50
0
51
3.56745626243349
0
LINE
8
_MotorCAD214_
10
40.7194450448637
20
2.55866998894902
30
0
11
39.9224892863903
21
2.48894539475096
31
0
0
LINE
8
_MotorCAD215_
10
40.7901945014304
20
1.75
30
0
11
40.7194450448637
21
2.55866998894902
31
0
0
LINE
8
_MotorCAD216_
10
59.974473736749
20
1.75000000000001
30
0
11
40.7901945014304
21
1.75
31
0
0
ARC
8
_MotorCAD217_
10
0
20
0
30
0
40
60
50
1.67136392960839
51
5
0
ARC
8
_MotorCAD218_
10
0
20
0
30
0
40
60
50
5
51
8.32863607039161
0
LINE
8
_MotorCAD219_
10
59.3672110296946
20
8.69104450314828
30
0
11
40.4743841028017
21
5.35972937408167
31
0
0
LINE
8
_MotorCAD220_
10
40.5451335593684
20
4.55105938513253
30
0
11
40.4743841028017
21
5.35972937408167
31
0
0
LINE
8
_MotorCAD221_
10
40.5451335593684
20
4.55105938513253
30
0
11
39.748177800895
21
4.48133479093445
31
0
0
ARC
8
_MotorCAD222_
10
0
20
0
30
0
40
40
50
6.43254373756651
51
10
0
ARC
8
_MotorCAD223_
10
0
20
0
30
0
40
40
50
10
51
13.5674562624335
0
LINE
8
_MotorCAD224_
10
39.6565167977042
20
9.59065547016593
30
0
11
38.883776136673
21
9.383600234084
31
0
0
LINE
8
_MotorCAD225_
10
39.8666154809674
20
8.80655650962439
30
0
11
39.6565167977042
21
9.59065547016593
31
0
0
LINE
8
_MotorCAD226_
10
58.7594424078604
20
12.137871638691
30
0
11
39.8666154809674
21
8.80655650962439
31
0
0
ARC
8
_MotorCAD227_
10
0
20
0
30
0
40
60
50
11.6713639296084
51
15
0
ARC
8
_MotorCAD228_
10
0
20
0
30
0
40
60
50
15
51
18.3286360703916
0
LINE
8
_MotorCAD229_
10
56.9561056567613
20
18.8680160169491
30
0
11
38.928780024236
21
12.3066060832858
31
0
0
LINE
8
_MotorCAD230_
10
39.1388787074992
20
11.5225071227441
30
0
11
38.928780024236
21
12.3066060832858
31
0
0
LINE
8
_MotorCAD231_
10
39.1388787074992
20
11.5225071227441
30
0
11
38.3661380464679
21
11.3154518866621
31
0
0
ARC
8
_MotorCAD232_
10
0
20
0
30
0
40
40
50
16.4325437375665
51
20
0
ARC
8
_MotorCAD233_
10
0
20
0
30
0
40
40
50
20
51
23.5674562624335
0
LINE
8
_MotorCAD234_
10
37.3886453548123
20
16.3312337380277
30
0
11
36.663599125183
21
15.9931391286352
31
0
0
LINE
8
_MotorCAD235_
10
37.7317095225961
20
15.5955302560365
30
0
11
37.3886453548123
21
16.3312337380277
31
0
0
LINE
8
_MotorCAD236_
10
55.7590351551214
20
22.1569401896998
30
0
11
37.7317095225961
21
15.5955302560365
31
0
0
ARC
8
_MotorCAD237_
10
0
20
0
30
0
40
60
50
21.6713639296084
51
25
0
ARC
8
_MotorCAD238_
10
0
20
0
30
0
40
60
50
25
51
28.3286360703916
0
LINE
8
_MotorCAD239_
10
52.8144178346273
20
28.4716924117517
30
0
11
36.200344663547
21
18.8795527940924
31
0
0
LINE
8
_MotorCAD240_
10
36.5434088313309
20
18.1438493121011
30
0
11
36.200344663547
21
18.8795527940924
31
0
0
LINE
8
_MotorCAD241_
10
36.5434088313309
20
18.1438493121011
30
0
11
35.8183626017016
21
17.8057547027085
31
0
0
ARC
8
_MotorCAD242_
10
0
20
0
30
0
40
40
50
26.4325437375665
51
30
0
ARC
8
_MotorCAD243_
10
0
20
0
30
0
40
40
50
30
51
33.5674562624335
0
LINE
8
_MotorCAD244_
10
33.9847388423818
20
22.5755957327626
30
0
11
33.3294172069506
21
22.1167345836818
31
0
0
LINE
8
_MotorCAD245_
10
34.450344663547
20
21.910641707338
30
0
11
33.9847388423818
21
22.5755957327626
31
0
0
LINE
8
_MotorCAD246_
10
51.0644178346273
20
31.5027813249973
30
0
11
34.450344663547
21
21.910641707338
31
0
0
ARC
8
_MotorCAD247_
10
0
20
0
30
0
40
60
50
31.6713639296084
51
35
0
ARC
8
_MotorCAD248_
10
0
20
0
30
0
40
60
50
35
51
38.3286360703916
0
LINE
8
_MotorCAD249_
10
47.0679906519731
20
37.2102708399948
30
0
11
32.3719801485145
21
24.8788538467652
31
0
0
LINE
8
_MotorCAD250_
10
32.8375859696797
20
24.2138998213406
30
0
11
32.3719801485145
21
24.8788538467652
31
0
0
LINE
8
_MotorCAD251_
10
32.8375859696797
20
24.2138998213406
30
0
11
32.1822643342485
21
23.7550386722597
31
0
0
ARC
8
_MotorCAD252_
10
0
20
0
30
0
40
40
50
36.4325437375665
51
40
0
ARC
8
_MotorCAD253_
10
0
20
0
30
0
40
40
50
40
51
43.5674562624335
0
LINE
8
_MotorCAD254_
10
29.5482232373332
20
28.13400967496
30
0
11
28.9825378123839
21
27.5683242500108
31
0
0
LINE
8
_MotorCAD255_
10
30.1222235146116
20
27.5600093976817
30
0
11
29.5482232373332
21
28.13400967496
31
0
0
LINE
8
_MotorCAD256_
10
44.8182340180702
20
39.8914263909113
30
0
11
30.1222235146116
21
27.5600093976817
31
0
0
ARC
8
_MotorCAD257_
10
0
20
0
30
0
40
60
50
41.6713639296084
51
45
0
ARC
8
_MotorCAD258_
10
0
20
0
30
0
40
60
50
45
51
48.3286360703916
0
LINE
8
_MotorCAD259_
10
39.8914263909113
20
44.8182340180702
30
0
11
27.5600093976817
21
30.1222235146116
31
0
0
LINE
8
_MotorCAD260_
10
28.1340096749601
20
29.5482232373332
30
0
11
27.5600093976817
21
30.1222235146116
31
0
0
LINE
8
_MotorCAD261_
10
28.1340096749601
20
29.5482232373332
30
0
11
27.5683242500108
21
28.9825378123839
31
0
0
ARC
8
_MotorCAD262_
10
0
20
0
30
0
40
40
50
46.4325437375665
51
50
0
ARC
8
_MotorCAD263_
10
0
20
0
30
0
40
40
50
50
51
53.5674562624335
0
LINE
8
_MotorCAD264_
10
24.2138998213406
20
32.8375859696797
30
0
11
23.7550386722598
21
32.1822643342485
31
0
0
LINE
8
_MotorCAD265_
10
24.8788538467652
20
32.3719801485145
30
0
11
24.2138998213406
21
32.8375859696797
31
0
0
LINE
8
_MotorCAD266_
10
37.2102708399948
20
47.0679906519731
30
0
11
24.8788538467652
21
32.3719801485145
31
0
0
ARC
8
_MotorCAD267_
10
0
20
0
30
0
40
60
50
51.6713639296084
51
55
0
ARC
8
_MotorCAD268_
10
0
20
0
30
0
40
60
50
55
51
58.3286360703916
0
LINE
8
_MotorCAD269_
10
31.5027813249973
20
51.0644178346273
30
0
11
21.910641707338
21
34.450344663547
31
0
0
LINE
8
_MotorCAD270_
10
22.5755957327626
20
33.9847388423818
30
0
11
21.910641707338
21
34.450344663547
31
0
0
LINE
8
_MotorCAD271_
10
22.5755957327626
20
33.9847388423818
30
0
11
22.1167345836818
21
33.3294172069506
31
0
0
ARC
8
_MotorCAD272_
10
0
20
0
30
0
40
40
50
56.4325437375665
51
60
0
ARC
8
_MotorCAD273_
10
0
20
0
30
0
40
40
50
60
51
63.5674562624335
0
LINE
8
_MotorCAD274_
10
18.1438493121012
20
36.5434088313309
30
0
11
17.8057547027085
21
35.8183626017016
31
0
0
LINE
8
_MotorCAD275_
10
18.8795527940924
20
36.200344663547
30
0
11
18.1438493121012
21
36.5434088313309
31
0
0
LINE
8
_MotorCAD276_
10
28.4716924117518
20
52.8144178346273
30
0
11
18.8795527940924
21
36.200344663547
31
0
0
ARC
8
_MotorCAD277_
10
0
20
0
30
0
40
60
50
61.6713639296084
51
65
0
ARC
8
_MotorCAD278_
10
0
20
0
30
0
40
60
50
65
51
68.3286360703916
0
LINE
8
_MotorCAD279_
10
22.1569401896998
20
55.7590351551214
30
0
11
15.5955302560365
21
37.7317095225961
31
0
0
LINE
8
_MotorCAD280_
10
16.3312337380278
20
37.3886453548123
30
0
11
15.5955302560365
21
37.7317095225961
31
0
0
LINE
8
_MotorCAD281_
10
16.3312337380278
20
37.3886453548123
30
0
11
15.9931391286352
21
36.663599125183
31
0
0
ARC
8
_MotorCAD282_
10
0
20
0
30
0
40
40
50
66.4325437375665
51
70
0
ARC
8
_MotorCAD283_
10
0
20
0
30
0
40
40
50
70
51
73.5674562624335
0
LINE
8
_MotorCAD284_
10
11.5225071227442
20
39.1388787074992
30
0
11
11.3154518866621
21
38.3661380464679
31
0
0
LINE
8
_MotorCAD285_
10
12.3066060832858
20
38.928780024236
30
0
11
11.5225071227442
21
39.1388787074992
31
0
0
LINE
8
_MotorCAD286_
10
18.8680160169491
20
56.9561056567613
30
0
11
12.3066060832858
21
38.928780024236
31
0
0
ARC
8
_MotorCAD287_
10
0
20
0
30
0
40
60
50
71.6713639296084
51
75
0
ARC
8
_MotorCAD288_
10
0
20
0
30
0
40
60
50
75
51
78.3286360703916
0
LINE
8
_MotorCAD289_
10
12.137871638691
20
58.7594424078604
30
0
11
8.80655650962439
21
39.8666154809674
31
0
0
LINE
8
_MotorCAD290_
10
9.59065547016601
20
39.6565167977042
30
0
11
8.80655650962439
21
39.8666154809674
31
0
0
LINE
8
_MotorCAD291_
10
9.59065547016601
20
39.6565167977042
30
0
11
9.383600234084
21
38.883776136673
31
0
0
ARC
8
_MotorCAD292_
10
0
20
0
30
0
40
40
50
76.4325437375665
51
80
0
ARC
8
_MotorCAD293_
10
0
20
0
30
0
40
40
50
80
51
83.5674562624335
0
LINE
8
_MotorCAD294_
10
4.55105938513265
20
40.5451335593684
30
0
11
4.48133479093445
21
39.748177800895
31
0
0
LINE
8
_MotorCAD295_
10
5.35972937408167
20
40.4743841028017
30
0
11
4.55105938513265
21
40.5451335593684
31
0
0
LINE
8
_MotorCAD296_
10
8.69104450314828
20
59.3672110296946
30
0
11
5.35972937408167
21
40.4743841028017
31
0
0
ARC
8
_MotorCAD297_
10
0
20
0
30
0
40
60
50
81.6713639296084
51
85
0
ARC
8
_MotorCAD298_
10
0
20
0
30
0
40
60
50
85
51
88.3286360703916
0
LINE
8
_MotorCAD299_
10
1.75000000000001
20
59.974473736749
30
0
11
1.75000000000001
21
40.7901945014304
31
0
0
LINE
8
_MotorCAD300_
10
2.55866998894908
20
40.7194450448637
30
0
11
1.75000000000001
21
40.7901945014304
31
0
0
LINE
8
_MotorCAD301_
10
2.55866998894908
20
40.7194450448637
30
0
11
2.48894539475096
21
39.9224892863903
31
0
0
ARC
8
_MotorCAD302_
10
0
20
0
30
0
40
40
50
86.4325437375665
51
90
0
ARC
8
_MotorCAD303_
10
0
20
0
30
0
40
40
50
90
51
93.5674562624335
0
LINE
8
_MotorCAD304_
10
-2.48894539475096
20
39.9224892863903
30
0
11
-2.55866998894902
21
40.7194450448637
31
0
0
LINE
8
_MotorCAD305_
10
-1.75
20
40.7901945014304
30
0
11
-2.55866998894902
21
40.7194450448637
31
0
0
LINE
8
_MotorCAD306_
10
-1.75
20
59.974473736749
30
0
11
-1.75
21
40.7901945014304
31
0
0
ARC
8
_MotorCAD307_
10
0
20
0
30
0
40
60
50
91.6713639296084
51
95
0
ARC
8
_MotorCAD308_
10
0
20
0
30
0
40
60
50
95
51
98.3286360703916
0
LINE
8
_MotorCAD309_
10
-5.35972937408166
20
40.4743841028017
30
0
11
-8.69104450314827
21
59.3672110296946
31
0
0
LINE
8
_MotorCAD310_
10
-4.55105938513259
20
40.5451335593684
30
0
11
-5.35972937408166
21
40.4743841028017
31
0
0
LINE
8
_MotorCAD311_
10
-4.48133479093445
20
39.748177800895
30
0
11
-4.55105938513259
21
40.5451335593684
31
0
0
ARC
8
_MotorCAD312_
10
0
20
0
30
0
40
40
50
96.4325437375665
51
100
0
ARC
8
_MotorCAD313_
10
0
20
0
30
0
40
40
50
100
51
103.567456262434
0
LINE
8
_MotorCAD314_
10
-9.383600234084
20
38.883776136673
30
0
11
-9.59065547016596
21
39.6565167977043
31
0
0
LINE
8
_MotorCAD315_
10
-8.80655650962439
20
39.8666154809674
30
0
11
-9.59065547016596
21
39.6565167977043
31
0
0
LINE
8
_MotorCAD316_
10
-8.80655650962439
20
39.8666154809674
30
0
11
-12.137871638691
21
58.7594424078604
31
0
0
ARC
8
_MotorCAD317_
10
0
20
0
30
0
40
60
50
101.671363929608
51
105
0
ARC
8
_MotorCAD318_
10
0
20
0
30
0
40
60
50
105
51
108.328636070392
0
LINE
8
_MotorCAD319_
10
-12.3066060832858
20
38.928780024236
30
0
11
-18.8680160169491
21
56.9561056567613
31
0
0
LINE
8
_MotorCAD320_
10
-11.5225071227442
20
39.1388787074992
30
0
11
-12.3066060832858
21
38.928780024236
31
0
0
LINE
8
_MotorCAD321_
10
-11.3154518866621
20
38.3661380464679
30
0
11
-11.5225071227442
21
39.1388787074992
31
0
0
ARC
8
_MotorCAD322_
10
0
20
0
30
0
40
40
50
106.432543737566
51
110
0
ARC
8
_MotorCAD323_
10
0
20
0
30
0
40
40
50
110
51
113.567456262434
0
LINE
8
_MotorCAD324_
10
-15.9931391286352
20
36.663599125183
30
0
11
-16.3312337380277
21
37.3886453548123
31
0
0
LINE
8
_MotorCAD325_
10
-15.5955302560365
20
37.7317095225961
30
0
11
-16.3312337380277
21
37.3886453548123
31
0
0
LINE
8
_MotorCAD326_
10
-15.5955302560365
20
37.7317095225961
30
0
11
-22.1569401896998
21
55.7590351551214
31
0
0
ARC
8
_MotorCAD327_
10
0
20
0
30
0
40
60
50
111.671363929608
51
115
0
ARC
8
_MotorCAD328_
10
0
20
0
30
0
40
60
50
115
51
118.328636070392
0
LINE
8
_MotorCAD329_
10
-18.8795527940924
20
36.200344663547
30
0
11
-28.4716924117517
21
52.8144178346273
31
0
0
LINE
8
_MotorCAD330_
10
-18.1438493121011
20
36.5434088313309
30
0
11
-18.8795527940924
21
36.200344663547
31
0
0
LINE
8
_MotorCAD331_
10
-17.8057547027085
20
35.8183626017016
30
0
11
-18.1438493121011
21
36.5434088313309
31
0
0
ARC
8
_MotorCAD332_
10
0
20
0
30
0
40
40
50
116.432543737566
51
120
0
ARC
8
_MotorCAD333_
10
0
20
0
30
0
40
40
50
120
51
123.567456262433
0
LINE
8
_MotorCAD334_
10
-22.1167345836818
20
33.3294172069506
30
0
11
-22.5755957327625
21
33.9847388423818
31
0
0
LINE
8
_MotorCAD335_
10
-21.9106417073379
20
34.450344663547
30
0
11
-22.5755957327625
21
33.9847388423818
31
0
0
LINE
8
_MotorCAD336_
10
-21.9106417073379
20
34.450344663547
30
0
11
-31.5027813249973
21
51.0644178346273
31
0
0
ARC
8
_MotorCAD337_
10
0
20
0
30
0
40
60
50
121.671363929608
51
125
0
ARC
8
_MotorCAD338_
10
0
20
0
30
0
40
60
50
125
51
128.328636070392
0
LINE
8
_MotorCAD339_
10
-24.8788538467652
20
32.3719801485145
30
0
11
-37.2102708399948
21
47.0679906519731
31
0
0
LINE
8
_MotorCAD340_
10
-24.2138998213406
20
32.8375859696797
30
0
11
-24.8788538467652
21
32.3719801485145
31
0
0
LINE
8
_MotorCAD341_
10
-23.7550386722597
20
32.1822643342485
30
0
11
-24.2138998213406
21
32.8375859696797
31
0
0
ARC
8
_MotorCAD342_
10
0
20
0
30
0
40
40
50
126.432543737566
51
130
0
ARC
8
_MotorCAD343_
10
0
20
0
30
0
40
40
50
130
51
133.567456262433
0
LINE
8
_MotorCAD344_
10
-27.5683242500108
20
28.9825378123839
30
0
11
-28.13400967496
21
29.5482232373332
31
0
0
LINE
8
_MotorCAD345_
10
-27.5600093976817
20
30.1222235146116
30
0
11
-28.13400967496
21
29.5482232373332
31
0
0
LINE
8
_MotorCAD346_
10
-27.5600093976817
20
30.1222235146116
30
0
11
-39.8914263909113
21
44.8182340180702
31
0
0
ARC
8
_MotorCAD347_
10
0
20
0
30
0
40
60
50
131.671363929608
51
135
0
ARC
8
_MotorCAD348_
10
0
20
0
30
0
40
60
50
135
51
138.328636070392
0
LINE
8
_MotorCAD349_
10
-30.1222235146116
20
27.5600093976817
30
0
11
-44.8182340180703
21
39.8914263909113
31
0
0
LINE
8
_MotorCAD350_
10
-29.5482232373332
20
28.1340096749601
30
0
11
-30.1222235146116
21
27.5600093976817
31
0
0
LINE
8
_MotorCAD351_
10
-28.9825378123839
20
27.5683242500108
30
0
11
-29.5482232373332
21
28.1340096749601
31
0
0
ARC
8
_MotorCAD352_
10
0
20
0
30
0
40
40
50
136.432543737567
51
140
0
ARC
8
_MotorCAD353_
10
0
20
0
30
0
40
40
50
140
51
143.567456262433
0
LINE
8
_MotorCAD354_
10
-32.1822643342485
20
23.7550386722598
30
0
11
-32.8375859696797
21
24.2138998213406
31
0
0
LINE
8
_MotorCAD355_
10
-32.3719801485145
20
24.8788538467652
30
0
11
-32.8375859696797
21
24.2138998213406
31
0
0
LINE
8
_MotorCAD356_
10
-32.3719801485145
20
24.8788538467652
30
0
11
-47.0679906519731
21
37.2102708399948
31
0
0
ARC
8
_MotorCAD357_
10
0
20
0
30
0
40
60
50
141.671363929608
51
145
0
ARC
8
_MotorCAD358_
10
0
20
0
30
0
40
60
50
145
51
148.328636070392
0
LINE
8
_MotorCAD359_
10
-34.450344663547
20
21.910641707338
30
0
11
-51.0644178346273
21
31.5027813249973
31
0
0
LINE
8
_MotorCAD360_
10
-33.9847388423818
20
22.5755957327626
30
0
11
-34.450344663547
21
21.910641707338
31
0
0
LINE
8
_MotorCAD361_
10
-33.3294172069506
20
22.1167345836818
30
0
11
-33.9847388423818
21
22.5755957327626
31
0
0
ARC
8
_MotorCAD362_
10
0
20
0
30
0
40
40
50
146.432543737566
51
150
0
ARC
8
_MotorCAD363_
10
0
20
0
30
0
40
40
50
150
51
153.567456262434
0
LINE
8
_MotorCAD364_
10
-35.8183626017016
20
17.8057547027085
30
0
11
-36.5434088313309
21
18.1438493121011
31
0
0
LINE
8
_MotorCAD365_
10
-36.200344663547
20
18.8795527940924
30
0
11
-36.5434088313309
21
18.1438493121011
31
0
0
LINE
8
_MotorCAD366_
10
-36.200344663547
20
18.8795527940924
30
0
11
-52.8144178346273
21
28.4716924117517
31
0
0
ARC
8
_MotorCAD367_
10
0
20
0
30
0
40
60
50
151.671363929608
51
155
0
ARC
8
_MotorCAD368_
10
0
20
0
30
0
40
60
50
155
51
158.328636070392
0
LINE
8
_MotorCAD369_
10
-37.7317095225961
20
15.5955302560365
30
0
11
-55.7590351551214
21
22.1569401896998
31
0
0
LINE
8
_MotorCAD370_
10
-37.3886453548123
20
16.3312337380278
30
0
11
-37.7317095225961
21
15.5955302560365
31
0
0
LINE
8
_MotorCAD371_
10
-36.663599125183
20
15.9931391286352
30
0
11
-37.3886453548123
21
16.3312337380278
31
0
0
ARC
8
_MotorCAD372_
10
0
20
0
30
0
40
40
50
156.432543737566
51
160
0
ARC
8
_MotorCAD373_
10
0
20
0
30
0
40
40
50
160
51
163.567456262434
0
LINE
8
_MotorCAD374_
10
-38.3661380464679
20
11.3154518866621
30
0
11
-39.1388787074992
21
11.5225071227442
31
0
0
LINE
8
_MotorCAD375_
10
-38.928780024236
20
12.3066060832858
30
0
11
-39.1388787074992
21
11.5225071227442
31
0
0
LINE
8
_MotorCAD376_
10
-38.928780024236
20
12.3066060832858
30
0
11
-56.9561056567613
21
18.8680160169491
31
0
0
ARC
8
_MotorCAD377_
10
0
20
0
30
0
40
60
50
161.671363929608
51
165
0
ARC
8
_MotorCAD378_
10
0
20
0
30
0
40
60
50
165
51
168.328636070392
0
LINE
8
_MotorCAD379_
10
-39.8666154809674
20
8.80655650962441
30
0
11
-58.7594424078604
21
12.137871638691
31
0
0
LINE
8
_MotorCAD380_
10
-39.6565167977042
20
9.59065547016601
30
0
11
-39.8666154809674
21
8.80655650962441
31
0
0
LINE
8
_MotorCAD381_
10
-38.883776136673
20
9.38360023408401
30
0
11
-39.6565167977042
21
9.59065547016601
31
0
0
ARC
8
_MotorCAD382_
10
0
20
0
30
0
40
40
50
166.432543737566
51
170
0
ARC
8
_MotorCAD383_
10
0
20
0
30
0
40
40
50
170
51
173.567456262434
0
LINE
8
_MotorCAD384_
10
-39.748177800895
20
4.48133479093445
30
0
11
-40.5451335593684
21
4.55105938513264
31
0
0
LINE
8
_MotorCAD385_
10
-40.4743841028017
20
5.35972937408167
30
0
11
-40.5451335593684
21
4.55105938513264
31
0
0
LINE
8
_MotorCAD386_
10
-40.4743841028017
20
5.35972937408167
30
0
11
-59.3672110296946
21
8.69104450314827
31
0
0
ARC
8
_MotorCAD387_
10
0
20
0
30
0
40
60
50
171.671363929608
51
175
0
ARC
8
_MotorCAD388_
10
0
20
0
30
0
40
60
50
175
51
178.328636070392
0
LINE
8
_MotorCAD389_
10
-40.7901945014304
20
1.75
30
0
11
-59.974473736749
21
1.75
31
0
0
LINE
8
_MotorCAD390_
10
-40.7194450448637
20
2.55866998894907
30
0
11
-40.7901945014304
21
1.75
31
0
0
LINE
8
_MotorCAD391_
10
-39.9224892863903
20
2.48894539475096
30
0
11
-40.7194450448637
21
2.55866998894907
31
0
0
ARC
8
_MotorCAD392_
10
0
20
0
30
0
40
40
50
176.432543737566
51
180
0
ARC
8
_MotorCAD393_
10
0
20
0
30
0
40
40
50
180
51
183.567456262434
0
LINE
8
_MotorCAD394_
10
-39.9224892863903
20
-2.48894539475095
30
0
11
-40.7194450448637
21
-2.55866998894902
31
0
0
LINE
8
_MotorCAD395_
10
-40.7194450448637
20
-2.55866998894902
30
0
11
-40.7901945014304
21
-1.75
31
0
0
LINE
8
_MotorCAD396_
10
-40.5451335593684
20
4.55105938513258
30
0
11
-40.7194450448637
21
2.55866998894908
31
0
0
ARC
8
_MotorCAD397_
10
0
20
0
30
0
40
40
50
183.567456262434
51
186.432543737566
0
LINE
8
_MotorCAD398_
10
-40.5451335593684
20
-4.55105938513258
30
0
11
-40.7194450448637
21
-2.55866998894902
31
0
0
ARC
8
_MotorCAD399_
10
0
20
0
30
0
40
38.8
50
180
51
240
0
ARC
8
_MotorCAD400_
10
0
20
0
30
0
40
38.8
50
240
51
300
0
ARC
8
_MotorCAD401_
10
0
20
0
30
0
40
38.8
50
300
51
0
0
ARC
8
_MotorCAD402_
10
0
20
0
30
0
40
38.8
50
0
51
60
0
ARC
8
_MotorCAD403_
10
0
20
0
30
0
40
38.8
50
60
51
120
0
ARC
8
_MotorCAD404_
10
0
20
0
30
0
40
38.8
50
120
51
180
0
ARC
8
_MotorCAD405_
10
0
20
0
30
0
40
13.6
50
180
51
240
0
ARC
8
_MotorCAD406_
10
0
20
0
30
0
40
13.6
50
240
51
300
0
ARC
8
_MotorCAD407_
10
0
20
0
30
0
40
13.6
50
300
51
0
0
ARC
8
_MotorCAD408_
10
0
20
0
30
0
40
13.6
50
0
51
60
0
ARC
8
_MotorCAD409_
10
0
20
0
30
0
40
13.6
50
60
51
120
0
ARC
8
_MotorCAD410_
10
0
20
0
30
0
40
13.6
50
120
51
180
0
LINE
8
_MotorCAD411_
10
34.2494580424228
20
1.66090016082005
30
0
11
36.9518188728854
21
4.61000950806055
31
0
0
LINE
8
_MotorCAD412_
10
36.9518188728854
20
4.61000950806055
30
0
11
26.3350252228196
21
14.3385084977261
31
0
0
LINE
8
_MotorCAD413_
10
26.3350252228196
20
14.3385084977261
30
0
11
23.632664392357
21
11.3893991504856
31
0
0
LINE
8
_MotorCAD414_
10
23.632664392357
20
11.3893991504856
30
0
11
34.2494580424228
21
1.66090016082005
31
0
0
LINE
8
_MotorCAD415_
10
22.4682947821109
20
29.6962091059297
30
0
11
18.5631107536312
21
28.8304506501774
31
0
0
LINE
8
_MotorCAD416_
10
18.5631107536312
20
28.8304506501774
30
0
11
21.6798411943399
21
14.7717881476503
31
0
0
LINE
8
_MotorCAD417_
10
21.6798411943399
20
14.7717881476503
30
0
11
25.5850252228196
21
15.6375466034027
31
0
0
LINE
8
_MotorCAD418_
10
25.5850252228196
20
15.6375466034027
30
0
11
22.4682947821109
21
29.6962091059297
31
0
0
LINE
8
_MotorCAD419_
10
-22.7028137869004
20
12.2414502474444
30
0
11
-23.632664392357
21
11.3893991504856
31
0
0
LINE
8
_MotorCAD420_
10
-22.7028137869004
20
12.2414502474444
30
0
11
-26.3350252228196
21
14.3385084977261
31
0
0
LINE
8
_MotorCAD421_
10
-23.632664392357
20
11.3893991504856
30
0
11
-26.3350252228196
21
14.3385084977261
31
0
0
ARC
8
_MotorCAD422_
10
0
20
0
30
0
40
37.3
50
173
51
178.463736049284
0
LINE
8
_MotorCAD423_
10
-34.2494580424228
20
1.66090016082006
30
0
11
-37.2865927646922
21
1.00000000000001
31
0
0
LINE
8
_MotorCAD424_
10
-34.2494580424228
20
1.66090016082006
30
0
11
-36.9518188728854
21
4.61000950806056
31
0
0
LINE
8
_MotorCAD425_
10
-36.9518188728854
20
4.61000950806056
30
0
11
-37.0219714562213
21
4.54572650901201
31
0
0
LINE
8
_MotorCAD426_
10
-23.632664392357
20
-11.3893991504856
30
0
11
-26.3350252228196
21
-14.3385084977261
31
0
0
LINE
8
_MotorCAD427_
10
-22.7028137869004
20
-12.2414502474444
30
0
11
-26.3350252228196
21
-14.3385084977261
31
0
0
LINE
8
_MotorCAD428_
10
-22.7028137869004
20
-12.2414502474444
30
0
11
-23.632664392357
21
-11.3893991504856
31
0
0
LINE
8
_MotorCAD429_
10
-34.2494580424228
20
-1.66090016082005
30
0
11
-37.2865927646922
21
-0.999999999999995
31
0
0
ARC
8
_MotorCAD430_
10
0
20
0
30
0
40
37.3
50
181.536263950716
51
187
0
LINE
8
_MotorCAD431_
10
-36.9518188728854
20
-4.61000950806056
30
0
11
-37.0219714562213
21
-4.545726509012
31
0
0
LINE
8
_MotorCAD432_
10
-34.2494580424228
20
-1.66090016082005
30
0
11
-36.9518188728854
21
-4.61000950806056
31
0
0
LINE
8
_MotorCAD433_
10
-22.4477003635714
20
29.789104524764
30
0
11
-22.4682947821109
21
29.6962091059298
31
0
0
LINE
8
_MotorCAD434_
10
-18.5631107536312
20
28.8304506501774
30
0
11
-22.4682947821109
21
29.6962091059298
31
0
0
LINE
8
_MotorCAD435_
10
-18.5631107536312
20
28.8304506501774
30
0
11
-19.5093217861306
21
31.7911365547885
31
0
0
ARC
8
_MotorCAD436_
10
0
20
0
30
0
40
37.3
50
121.536263950716
51
127
0
LINE
8
_MotorCAD437_
10
-15.6863472887916
20
-30.4913508109974
30
0
11
-17.7772709785617
21
-32.7911365547885
31
0
0
ARC
8
_MotorCAD438_
10
0
20
0
30
0
40
37.3
50
241.536263950716
51
247
0
LINE
8
_MotorCAD439_
10
-14.4835240907745
20
-34.3062186139903
30
0
11
-14.5742710926499
21
-34.334831033776
31
0
0
LINE
8
_MotorCAD440_
10
-14.4835240907745
20
-34.3062186139903
30
0
11
-15.6863472887916
21
-30.4913508109974
31
0
0
LINE
8
_MotorCAD441_
10
14.5742710926499
20
34.334831033776
30
0
11
14.4835240907745
21
34.3062186139903
31
0
0
LINE
8
_MotorCAD442_
10
15.6863472887916
20
30.4913508109974
30
0
11
14.4835240907745
21
34.3062186139903
31
0
0
LINE
8
_MotorCAD443_
10
17.7772709785617
20
32.7911365547885
30
0
11
15.6863472887916
21
30.4913508109974
31
0
0
ARC
8
_MotorCAD444_
10
0
20
0
30
0
40
37.3
50
61.5362639507161
51
67
0
ARC
8
_MotorCAD445_
10
0
20
0
30
0
40
37.3
50
301.536263950716
51
307
0
LINE
8
_MotorCAD446_
10
22.4682947821109
20
-29.6962091059298
30
0
11
22.4477003635714
21
-29.789104524764
31
0
0
LINE
8
_MotorCAD447_
10
22.4682947821109
20
-29.6962091059298
30
0
11
18.5631107536312
21
-28.8304506501774
31
0
0
LINE
8
_MotorCAD448_
10
19.5093217861306
20
-31.7911365547885
30
0
11
18.5631107536312
21
-28.8304506501774
31
0
0
ARC
8
_MotorCAD449_
10
0
20
0
30
0
40
37.3
50
1.53626395071614
51
7
0
LINE
8
_MotorCAD450_
10
37.0219714562213
20
4.545726509012
30
0
11
36.9518188728854
21
4.61000950806055
31
0
0
LINE
8
_MotorCAD451_
10
37.2865927646922
20
1
30
0
11
34.2494580424228
21
1.66090016082005
31
0
0
LINE
8
_MotorCAD452_
10
-21.6798411943399
20
14.7717881476503
30
0
11
-21.9528137869004
21
13.5404883531211
31
0
0
LINE
8
_MotorCAD453_
10
-21.6798411943399
20
14.7717881476503
30
0
11
-25.5850252228196
21
15.6375466034027
31
0
0
LINE
8
_MotorCAD454_
10
-21.9528137869004
20
13.5404883531211
30
0
11
-25.5850252228196
21
15.6375466034027
31
0
0
LINE
8
_MotorCAD455_
10
-0.750000000000012
20
-25.7819386005655
30
0
11
-0.750000000000012
21
-29.9760551011288
31
0
0
LINE
8
_MotorCAD456_
10
-0.750000000000012
20
-25.7819386005655
30
0
11
-1.9528231980171
21
-26.1611872981359
31
0
0
LINE
8
_MotorCAD457_
10
-0.750000000000012
20
-29.9760551011288
30
0
11
-1.9528231980171
21
-26.1611872981359
31
0
0
LINE
8
_MotorCAD458_
10
0.750000000000002
20
29.9760551011288
30
0
11
0.750000000000002
21
25.7819386005655
31
0
0
LINE
8
_MotorCAD459_
10
1.95282319801709
20
26.1611872981359
30
0
11
0.750000000000002
21
25.7819386005655
31
0
0
LINE
8
_MotorCAD460_
10
1.95282319801709
20
26.1611872981359
30
0
11
0.750000000000002
21
29.9760551011288
31
0
0
LINE
8
_MotorCAD461_
10
25.5850252228196
20
-15.6375466034027
30
0
11
21.9528137869004
21
-13.5404883531211
31
0
0
LINE
8
_MotorCAD462_
10
21.9528137869004
20
-13.5404883531211
30
0
11
21.6798411943399
21
-14.7717881476503
31
0
0
LINE
8
_MotorCAD463_
10
25.5850252228196
20
-15.6375466034027
30
0
11
21.6798411943399
21
-14.7717881476503
31
0
0
LINE
8
_MotorCAD464_
10
26.3350252228196
20
14.3385084977261
30
0
11
22.7028137869004
21
12.2414502474444
31
0
0
LINE
8
_MotorCAD465_
10
23.632664392357
20
11.3893991504856
30
0
11
22.7028137869004
21
12.2414502474444
31
0
0
ARC
8
_MotorCAD466_
10
0
20
0
30
0
40
37.3
50
233
51
238.463736049284
0
LINE
8
_MotorCAD467_
10
-18.5631107536312
20
-28.8304506501774
30
0
11
-19.5093217861306
21
-31.7911365547885
31
0
0
LINE
8
_MotorCAD468_
10
-18.5631107536312
20
-28.8304506501774
30
0
11
-22.4682947821109
21
-29.6962091059297
31
0
0
LINE
8
_MotorCAD469_
10
-22.4477003635714
20
-29.789104524764
30
0
11
-22.4682947821109
21
-29.6962091059297
31
0
0
LINE
8
_MotorCAD470_
10
-14.4835240907745
20
34.3062186139903
30
0
11
-15.6863472887916
21
30.4913508109974
31
0
0
LINE
8
_MotorCAD471_
10
-14.4835240907745
20
34.3062186139903
30
0
11
-14.5742710926499
21
34.334831033776
31
0
0
ARC
8
_MotorCAD472_
10
0
20
0
30
0
40
37.3
50
113
51
118.463736049284
0
LINE
8
_MotorCAD473_
10
-15.6863472887916
20
30.4913508109974
30
0
11
-17.7772709785617
21
32.7911365547885
31
0
0
ARC
8
_MotorCAD474_
10
0
20
0
30
0
40
37.3
50
293
51
298.463736049284
0
LINE
8
_MotorCAD475_
10
17.7772709785617
20
-32.7911365547885
30
0
11
15.6863472887916
21
-30.4913508109974
31
0
0
LINE
8
_MotorCAD476_
10
15.6863472887916
20
-30.4913508109974
30
0
11
14.4835240907744
21
-34.3062186139903
31
0
0
LINE
8
_MotorCAD477_
10
14.5742710926499
20
-34.334831033776
30
0
11
14.4835240907744
21
-34.3062186139903
31
0
0
LINE
8
_MotorCAD478_
10
22.4682947821109
20
29.6962091059298
30
0
11
22.4477003635714
21
29.789104524764
31
0
0
ARC
8
_MotorCAD479_
10
0
20
0
30
0
40
37.3
50
53
51
58.4637360492839
0
LINE
8
_MotorCAD480_
10
19.5093217861306
20
31.7911365547885
30
0
11
18.5631107536312
21
28.8304506501774
31
0
0
LINE
8
_MotorCAD481_
10
37.0219714562213
20
-4.545726509012
30
0
11
36.9518188728854
21
-4.61000950806055
31
0
0
ARC
8
_MotorCAD482_
10
0
20
0
30
0
40
37.3
50
353
51
358.463736049284
0
LINE
8
_MotorCAD483_
10
37.2865927646922
20
-0.999999999999995
30
0
11
34.2494580424228
21
-1.66090016082004
31
0
0
LINE
8
_MotorCAD484_
10
36.9518188728854
20
-4.61000950806055
30
0
11
34.2494580424228
21
-1.66090016082004
31
0
0
LINE
8
_MotorCAD485_
10
-21.6798411943399
20
-14.7717881476503
30
0
11
-21.9528137869004
21
-13.5404883531211
31
0
0
LINE
8
_MotorCAD486_
10
-21.9528137869004
20
-13.5404883531211
30
0
11
-25.5850252228196
21
-15.6375466034027
31
0
0
LINE
8
_MotorCAD487_
10
-21.6798411943399
20
-14.7717881476503
30
0
11
-25.5850252228196
21
-15.6375466034027
31
0
0
LINE
8
_MotorCAD488_
10
-0.749999999999996
20
29.9760551011288
30
0
11
-0.749999999999996
21
25.7819386005655
31
0
0
LINE
8
_MotorCAD489_
10
-0.749999999999996
20
29.9760551011288
30
0
11
-1.95282319801709
21
26.1611872981359
31
0
0
LINE
8
_MotorCAD490_
10
-0.749999999999996
20
25.7819386005655
30
0
11
-1.95282319801709
21
26.1611872981359
31
0
0
LINE
8
_MotorCAD491_
10
0.749999999999988
20
-25.7819386005655
30
0
11
0.749999999999988
21
-29.9760551011288
31
0
0
LINE
8
_MotorCAD492_
10
1.95282319801708
20
-26.1611872981359
30
0
11
0.749999999999988
21
-29.9760551011288
31
0
0
LINE
8
_MotorCAD493_
10
1.95282319801708
20
-26.1611872981359
30
0
11
0.749999999999988
21
-25.7819386005655
31
0
0
LINE
8
_MotorCAD494_
10
21.9528137869004
20
13.5404883531211
30
0
11
21.6798411943399
21
14.7717881476503
31
0
0
LINE
8
_MotorCAD495_
10
25.5850252228196
20
15.6375466034027
30
0
11
21.9528137869004
21
13.5404883531211
31
0
0
LINE
8
_MotorCAD496_
10
26.3350252228196
20
-14.338508497726
30
0
11
23.632664392357
21
-11.3893991504856
31
0
0
LINE
8
_MotorCAD497_
10
23.632664392357
20
-11.3893991504856
30
0
11
22.7028137869004
21
-12.2414502474444
31
0
0
LINE
8
_MotorCAD498_
10
26.3350252228196
20
-14.338508497726
30
0
11
22.7028137869004
21
-12.2414502474444
31
0
0
LINE
8
_MotorCAD499_
10
-15.6863472887916
20
30.4913508109974
30
0
11
-1.95282319801709
21
26.1611872981359
31
0
0
LINE
8
_MotorCAD500_
10
-0.749999999999996
20
29.9760551011288
30
0
11
-14.4835240907745
21
34.3062186139903
31
0
0
LINE
8
_MotorCAD501_
10
-34.2494580424228
20
1.66090016082006
30
0
11
-23.632664392357
21
11.3893991504856
31
0
0
LINE
8
_MotorCAD502_
10
-26.3350252228196
20
14.3385084977261
30
0
11
-36.9518188728854
21
4.61000950806056
31
0
0
LINE
8
_MotorCAD503_
10
-18.5631107536312
20
-28.8304506501773
30
0
11
-21.6798411943399
21
-14.7717881476503
31
0
0
LINE
8
_MotorCAD504_
10
-25.5850252228196
20
-15.6375466034027
30
0
11
-22.4682947821109
21
-29.6962091059297
31
0
0
LINE
8
_MotorCAD505_
10
15.6863472887915
20
-30.4913508109974
30
0
11
1.95282319801708
21
-26.1611872981359
31
0
0
LINE
8
_MotorCAD506_
10
0.749999999999988
20
-29.9760551011288
30
0
11
14.4835240907744
21
-34.3062186139903
31
0
0
LINE
8
_MotorCAD507_
10
34.2494580424228
20
-1.66090016082005
30
0
11
23.632664392357
21
-11.3893991504856
31
0
0
LINE
8
_MotorCAD508_
10
26.3350252228196
20
-14.3385084977261
30
0
11
36.9518188728854
21
-4.61000950806055
31
0
0
LINE
8
_MotorCAD509_
10
14.4835240907745
20
34.3062186139903
30
0
11
0.750000000000005
21
29.9760551011288
31
0
0
LINE
8
_MotorCAD510_
10
1.95282319801709
20
26.1611872981359
30
0
11
15.6863472887916
21
30.4913508109974
31
0
0
LINE
8
_MotorCAD511_
10
-22.4682947821109
20
29.6962091059298
30
0
11
-25.5850252228196
21
15.6375466034027
31
0
0
LINE
8
_MotorCAD512_
10
-21.6798411943399
20
14.7717881476503
30
0
11
-18.5631107536312
21
28.8304506501774
31
0
0
LINE
8
_MotorCAD513_
10
-36.9518188728854
20
-4.61000950806054
30
0
11
-26.3350252228196
21
-14.3385084977261
31
0
0
LINE
8
_MotorCAD514_
10
-23.632664392357
20
-11.3893991504856
30
0
11
-34.2494580424228
21
-1.66090016082005
31
0
0
LINE
8
_MotorCAD515_
10
-14.4835240907745
20
-34.3062186139903
30
0
11
-0.750000000000016
21
-29.9760551011288
31
0
0
LINE
8
_MotorCAD516_
10
-1.95282319801711
20
-26.1611872981359
30
0
11
-15.6863472887916
21
-30.4913508109974
31
0
0
LINE
8
_MotorCAD517_
10
22.4682947821109
20
-29.6962091059297
30
0
11
25.5850252228196
21
-15.6375466034027
31
0
0
LINE
8
_MotorCAD518_
10
21.6798411943399
20
-14.7717881476503
30
0
11
18.5631107536312
21
-28.8304506501774
31
0
0
ARC
8
_MotorCAD519_
10
0
20
0
30
0
40
40
50
173.567456262434
51
176.432543737566
0
ARC
8
_MotorCAD520_
10
0
20
0
30
0
40
40
50
193.567456262434
51
196.432543737566
0
LINE
8
_MotorCAD521_
10
-39.1388787074992
20
-11.5225071227442
30
0
11
-39.6565167977042
21
-9.59065547016598
31
0
0
ARC
8
_MotorCAD522_
10
0
20
0
30
0
40
40
50
163.567456262434
51
166.432543737566
0
LINE
8
_MotorCAD523_
10
-39.1388787074992
20
11.5225071227442
30
0
11
-39.6565167977042
21
9.59065547016601
31
0
0
ARC
8
_MotorCAD524_
10
0
20
0
30
0
40
40
50
203.567456262434
51
206.432543737566
0
LINE
8
_MotorCAD525_
10
-36.5434088313309
20
-18.1438493121011
30
0
11
-37.3886453548123
21
-16.3312337380277
31
0
0
ARC
8
_MotorCAD526_
10
0
20
0
30
0
40
40
50
153.567456262434
51
156.432543737566
0
LINE
8
_MotorCAD527_
10
-36.5434088313309
20
18.1438493121011
30
0
11
-37.3886453548123
21
16.3312337380278
31
0
0
ARC
8
_MotorCAD528_
10
0
20
0
30
0
40
40
50
213.567456262434
51
216.432543737566
0
LINE
8
_MotorCAD529_
10
-32.8375859696797
20
-24.2138998213406
30
0
11
-33.9847388423818
21
-22.5755957327626
31
0
0
ARC
8
_MotorCAD530_
10
0
20
0
30
0
40
40
50
143.567456262433
51
146.432543737566
0
LINE
8
_MotorCAD531_
10
-32.8375859696797
20
24.2138998213407
30
0
11
-33.9847388423818
21
22.5755957327626
31
0
0
ARC
8
_MotorCAD532_
10
0
20
0
30
0
40
40
50
223.567456262434
51
226.432543737566
0
LINE
8
_MotorCAD533_
10
-28.1340096749601
20
-29.5482232373332
30
0
11
-29.5482232373332
21
-28.13400967496
31
0
0
LINE
8
_MotorCAD534_
10
-28.13400967496
20
29.5482232373332
30
0
11
-29.5482232373332
21
28.1340096749601
31
0
0
ARC
8
_MotorCAD535_
10
0
20
0
30
0
40
40
50
133.567456262433
51
136.432543737567
0
ARC
8
_MotorCAD536_
10
0
20
0
30
0
40
40
50
233.567456262433
51
236.432543737566
0
LINE
8
_MotorCAD537_
10
-22.5755957327626
20
-33.9847388423818
30
0
11
-24.2138998213407
21
-32.8375859696797
31
0
0
ARC
8
_MotorCAD538_
10
0
20
0
30
0
40
40
50
123.567456262433
51
126.432543737566
0
LINE
8
_MotorCAD539_
10
-22.5755957327625
20
33.9847388423818
30
0
11
-24.2138998213406
21
32.8375859696797
31
0
0
ARC
8
_MotorCAD540_
10
0
20
0
30
0
40
40
50
243.567456262433
51
246.432543737566
0
LINE
8
_MotorCAD541_
10
-16.3312337380278
20
-37.3886453548123
30
0
11
-18.1438493121012
21
-36.5434088313308
31
0
0
ARC
8
_MotorCAD542_
10
0
20
0
30
0
40
40
50
113.567456262434
51
116.432543737566
0
LINE
8
_MotorCAD543_
10
-16.3312337380277
20
37.3886453548123
30
0
11
-18.1438493121011
21
36.5434088313309
31
0
0
ARC
8
_MotorCAD544_
10
0
20
0
30
0
40
40
50
253.567456262434
51
256.432543737567
0
LINE
8
_MotorCAD545_
10
-9.590655470166
20
-39.6565167977042
30
0
11
-11.5225071227442
21
-39.1388787074992
31
0
0
LINE
8
_MotorCAD546_
10
-9.59065547016595
20
39.6565167977042
30
0
11
-11.5225071227442
21
39.1388787074992
31
0
0
ARC
8
_MotorCAD547_
10
0
20
0
30
0
40
40
50
103.567456262434
51
106.432543737566
0
ARC
8
_MotorCAD548_
10
0
20
0
30
0
40
40
50
263.567456262434
51
266.432543737566
0
LINE
8
_MotorCAD549_
10
-2.55866998894907
20
-40.7194450448637
30
0
11
-4.55105938513264
21
-40.5451335593684
31
0
0
ARC
8
_MotorCAD550_
10
0
20
0
30
0
40
40
50
93.5674562624335
51
96.4325437375665
0
LINE
8
_MotorCAD551_
10
-2.55866998894902
20
40.7194450448637
30
0
11
-4.55105938513259
21
40.5451335593684
31
0
0
LINE
8
_MotorCAD552_
10
4.55105938513258
20
-40.5451335593684
30
0
11
2.55866998894901
21
-40.7194450448637
31
0
0
ARC
8
_MotorCAD553_
10
0
20
0
30
0
40
40
50
273.567456262434
51
276.432543737566
0
LINE
8
_MotorCAD554_
10
4.55105938513265
20
40.5451335593684
30
0
11
2.55866998894908
21
40.7194450448637
31
0
0
ARC
8
_MotorCAD555_
10
0
20
0
30
0
40
40
50
83.5674562624335
51
86.4325437375665
0
LINE
8
_MotorCAD556_
10
11.5225071227442
20
-39.1388787074992
30
0
11
9.59065547016594
21
-39.6565167977043
31
0
0
ARC
8
_MotorCAD557_
10
0
20
0
30
0
40
40
50
283.567456262433
51
286.432543737566
0
LINE
8
_MotorCAD558_
10
11.5225071227442
20
39.1388787074992
30
0
11
9.59065547016601
21
39.6565167977042
31
0
0
ARC
8
_MotorCAD559_
10
0
20
0
30
0
40
40
50
73.5674562624335
51
76.4325437375665
0
LINE
8
_MotorCAD560_
10
18.1438493121011
20
36.5434088313308
30
0
11
16.3312337380278
21
37.3886453548123
31
0
0
ARC
8
_MotorCAD561_
10
0
20
0
30
0
40
40
50
63.5674562624335
51
66.4325437375665
0
LINE
8
_MotorCAD562_
10
18.1438493121011
20
-36.5434088313309
30
0
11
16.3312337380277
21
-37.3886453548123
31
0
0
ARC
8
_MotorCAD563_
10
0
20
0
30
0
40
40
50
293.567456262433
51
296.432543737567
0
LINE
8
_MotorCAD564_
10
24.2138998213406
20
32.8375859696797
30
0
11
22.5755957327626
21
33.9847388423818
31
0
0
ARC
8
_MotorCAD565_
10
0
20
0
30
0
40
40
50
53.5674562624335
51
56.4325437375665
0
LINE
8
_MotorCAD566_
10
24.2138998213406
20
-32.8375859696797
30
0
11
22.5755957327626
21
-33.9847388423818
31
0
0
ARC
8
_MotorCAD567_
10
0
20
0
30
0
40
40
50
303.567456262433
51
306.432543737567
0
LINE
8
_MotorCAD568_
10
29.5482232373332
20
28.13400967496
30
0
11
28.1340096749601
21
29.5482232373332
31
0
0
ARC
8
_MotorCAD569_
10
0
20
0
30
0
40
40
50
43.5674562624335
51
46.4325437375665
0
LINE
8
_MotorCAD570_
10
29.5482232373332
20
-28.1340096749601
30
0
11
28.13400967496
21
-29.5482232373332
31
0
0
ARC
8
_MotorCAD571_
10
0
20
0
30
0
40
40
50
313.567456262433
51
316.432543737566
0
LINE
8
_MotorCAD572_
10
33.9847388423818
20
-22.5755957327626
30
0
11
32.8375859696797
21
-24.2138998213407
31
0
0
ARC
8
_MotorCAD573_
10
0
20
0
30
0
40
40
50
323.567456262433
51
326.432543737566
0
LINE
8
_MotorCAD574_
10
33.9847388423818
20
22.5755957327625
30
0
11
32.8375859696797
21
24.2138998213406
31
0
0
ARC
8
_MotorCAD575_
10
0
20
0
30
0
40
40
50
33.5674562624335
51
36.4325437375665
0
LINE
8
_MotorCAD576_
10
37.3886453548123
20
-16.3312337380278
30
0
11
36.5434088313308
21
-18.1438493121012
31
0
0
ARC
8
_MotorCAD577_
10
0
20
0
30
0
40
40
50
333.567456262433
51
336.432543737566
0
LINE
8
_MotorCAD578_
10
37.3886453548123
20
16.3312337380277
30
0
11
36.5434088313309
21
18.1438493121011
31
0
0
ARC
8
_MotorCAD579_
10
0
20
0
30
0
40
40
50
23.5674562624335
51
26.4325437375665
0
LINE
8
_MotorCAD580_
10
39.6565167977042
20
9.59065547016596
30
0
11
39.1388787074992
21
11.5225071227442
31
0
0
ARC
8
_MotorCAD581_
10
0
20
0
30
0
40
40
50
13.5674562624335
51
16.4325437375665
0
LINE
8
_MotorCAD582_
10
39.6565167977042
20
-9.59065547016601
30
0
11
39.1388787074992
21
-11.5225071227442
31
0
0
ARC
8
_MotorCAD583_
10
0
20
0
30
0
40
40
50
343.567456262433
51
346.432543737567
0
LINE
8
_MotorCAD584_
10
40.7194450448637
20
-2.55866998894908
30
0
11
40.5451335593684
21
-4.55105938513265
31
0
0
ARC
8
_MotorCAD585_
10
0
20
0
30
0
40
40
50
353.567456262433
51
356.432543737567
0
LINE
8
_MotorCAD586_
10
40.7194450448637
20
2.55866998894902
30
0
11
40.5451335593684
21
4.55105938513259
31
0
0
ARC
8
_MotorCAD587_
10
0
20
0
30
0
40
40
50
3.56745626243349
51
6.43254373756651
0
ENDSEC
0
EOF
